<?xml version="1.0" encoding="utf-8" ?>
<svg baseProfile="full" height="300mm" version="1.1" viewBox="0,0,200,300" width="200mm" xmlns="http://www.w3.org/2000/svg" xmlns:ev="http://www.w3.org/2001/xml-events" xmlns:xlink="http://www.w3.org/1999/xlink"><defs /><rect fill="#222222" height="300" width="200" x="0" y="0" /><text fill="#FFFFFF" style="font-size:12px; font-family:Arial; font-weight:bold;" x="10" y="20">Over 1km Workouts</text><text fill="#FFFFFF" style="font-size:4px; font-family:Arial" x="10" y="280">ATHLETE</text><text fill="#FFFFFF" style="font-size:9px; font-family:Arial" x="10" y="290">LaoMai</text><text fill="#FFFFFF" style="font-size:4px; font-family:Arial" x="120" y="280">STATISTICS</text><text fill="#FFFFFF" style="font-size:3px; font-family:Arial" x="120" y="285">Number: 6</text><text fill="#FFFFFF" style="font-size:3px; font-family:Arial" x="120" y="290">Weekly: 3.0</text><text fill="#FFFFFF" style="font-size:3px; font-family:Arial" x="141" y="285">Total: 19.7 km</text><text fill="#FFFFFF" style="font-size:3px; font-family:Arial" x="141" y="290">Avg: 3.3 km</text><text fill="#FFFFFF" style="font-size:3px; font-family:Arial" x="167" y="285">Min: 1.0 km</text><text fill="#FFFFFF" style="font-size:3px; font-family:Arial" x="167" y="290">Max: 4.7 km</text><polyline fill="none" points="14.0,66.72266941325506 14.26373626361601,66.72266941325506 14.13186813169159,66.65063990978524 14.26373626361601,66.65063990978524 19.406593406340107,67.08281684829853 19.142857142491266,67.1548463187064 19.340659340377897,66.86672840395477 19.604395604226738,66.93875789089361 20.46153846150264,66.93875789089361 20.857142856810242,66.7946989114862 21.912087911972776,67.1548463187064 22.307692307746038,67.1548463187064 36.08791208756156,69.67587430006824 36.615384615259245,69.89196209737565 48.417582417372614,69.96399135224055 48.879120878875256,69.81993283715565 55.076923076529056,71.40457528678235 55.20879120868631,71.40457528678235 56.3956043953076,70.18007908354048 66.68131868122146,72.77312797599006 71.56043956032954,73.34936009021476 82.76923076901585,72.26892458589282 83.82417582371272,72.34095365833491 85.47252747230232,72.12486642471049 85.60439560422674,72.26892458589282 86.0,72.19689550809562" stroke="#4dd2ff" stroke-linecap="round" stroke-linejoin="round" stroke-width="0.5"><title>2024-09-05 1.2km</title><desc>12326195421</desc></polyline><polyline fill="none" points="186.0,70.27550573227927 176.66900175111368,71.65301723813172 174.2732049031183,71.23976389749441 171.49912434304133,73.44378061476164 162.67250437801704,69.0357444731053 162.16812609462067,69.86225207441021 161.78984238160774,70.13775452354457 158.51138353766873,71.10201276279986 156.74605954438448,69.86225207441021 158.889667250216,71.10201276279986 158.38528896681964,71.23976389749441 138.84063047310337,69.72450083412696 136.82311733812094,68.48473919415846 136.3187390542589,67.65823095815722 134.0490367775783,66.69397086882964 117.40455341525376,67.5204795487225 114.0,66.55621938523836" stroke="#4dd2ff" stroke-linecap="round" stroke-linejoin="round" stroke-width="0.5"><title>2024-09-04 1.0km</title><desc>12324130724</desc></polyline><polyline fill="none" points="45.88679955992848,115.9062968606595 46.485083260107785,116.39648665423738 47.43236578581855,116.94114158325829 49.32693083700724,119.2831530139083 49.97507151262835,119.06529181165388 50.174499412532896,119.66440995724406 50.12464243755676,119.93673621973721 50.822640088154,121.0805053813383 51.67020866367966,121.89748222520575 52.26849236385897,122.93231821031077 52.916633039247245,123.15017822553637 53.21577488956973,123.15017822553637 54.01348648988642,123.64036301494343 54.16305741528049,123.9671526864986 54.262771365232766,124.40287201438332 54.71148414025083,124.83859107480384 55.50919574103318,125.38323952414794 55.35962481587194,125.76449318981031 55.259910865686834,126.47253516857745 55.409481790848076,126.79932353587355 55.85819456609897,127.34397048020037 57.204332892084494,128.1064755001571 57.50347474217415,128.43326311500277 58.40090029267594,130.61184336827137 59.44789676833898,131.86452398548136 60.295465343864635,132.24577416916145 60.59460719418712,133.33505927980877 62.14017342007719,134.3154144497821 62.7883140956983,134.6421992055839 63.13731292053126,134.91451972036157 63.785453596152365,136.05826474144123 64.7327361216303,137.14754400023958 65.58030469715595,138.6725321538397 66.3281593224965,140.19751703040674 66.97629999788478,141.23232633050065 67.57458369852975,141.8314257619786 67.67429764848202,142.2126705913688 67.72415462345816,142.97515963582555 68.27258134889416,144.44567190826638 69.02043597423472,145.8072546289186 69.61871967464685,147.16883473750204 69.8680045499932,147.9313184574712 70.51614522514865,149.23843149997992 71.06457195035182,150.7089307954884 71.61299867602065,152.56066631525755 71.56314170104451,154.1945465853787 71.41357077588327,154.8480976402643 70.41643127519637,157.40783347800607 69.81814757478423,158.22476850420935 69.07029294921085,158.7693913326948 68.7711510991212,159.20508929452626 68.4221522740554,160.13094657566398 67.27544184820727,162.30942953185877 65.97916049743071,163.289744680922 65.43073377199471,163.56205420423066 64.78259309660643,163.67097798438044 63.187169895740226,163.56205420423066 60.893749044276774,164.2155966341379 60.04618046875112,164.9236002540565 59.098897943040356,166.12175861746073 58.40090029267594,167.53776134870714 58.30118634249084,169.17160714400234 57.90233054244891,170.58760379132582 56.95504801673815,172.00359761418076 56.45647826651111,172.60267107340042 55.2100538907107,173.25620517978678 54.71148414025083,173.69189424981596 53.7642016147729,174.99895985535113 53.514916739659384,175.54356981400633 53.46505976468325,175.97925748000853 52.81691908929497,177.01401461538626 52.56763421418145,177.23185803054366 52.36820631404407,177.5586230281042 52.06906446372159,177.93984866840765 51.32120983814821,178.4844563709339 50.47364126262255,178.70229933486553 49.227216887054965,179.62813118606573 47.681650661164895,182.2422381308861 47.33265183563344,182.46007994178217 47.03350998577662,182.8957633629907 46.43522628536448,183.27698613720713 45.98651351011358,183.87605008325772 45.18880190933123,185.23755717126187 44.540661234175786,185.72769908379996 43.69309265865013,186.0 42.94523803307675,185.94553982518846 41.94809853238985,185.23755717126187 41.449528782395646,184.69295464939205 41.10052995686419,184.52957381133456 40.40253230649978,183.65820870670723 38.757252130424604,182.13331720035058 37.85982657992281,181.69763331115246 37.46097077988088,181.69763331115246 36.86268707946874,182.35115904465783 36.46383127919398,183.27698613720713 35.11769295320846,184.25727233110229 34.91826505307108,184.58403409493621 34.96812202804722,185.18309693789342 35.21740690339357,185.34647762554232 36.26440337882377,184.52957381133456 36.1646894288715,184.25727233110229 35.91540455399081,184.14835170970764 32.87412907695398,181.37087021878688 29.184712924528867,178.26661333994707 28.387001323979348,178.92014223191654 28.387001323979348,179.19244575954508 28.636286199325696,179.4102885061875 29.28442687448114,179.02906365558738 29.28442687448114,178.7567600654438 28.586429224116728,178.5389171181596 29.88271057489328,177.34077971306397 29.932567549869418,176.95955375104677 29.782996624941006,176.36048396851402 31.527990750968456,176.52386668662075 31.67756167636253,176.19710121280514 31.67756167636253,175.7069527200656 30.929707050789148,175.2712648868328 30.530851250514388,174.67219367955113 30.181852425215766,174.3998884182074 29.483854774851352,174.12758305243915 29.084998974343762,173.63743313064333 29.1348559493199,173.25620517978678 28.93542804941535,172.9294382018852 28.93542804941535,172.05805885861628 28.785857124486938,171.62236878584372 28.835714099230245,170.9688331754296 28.985285024391487,170.8054491787334 29.084998974343762,170.09745142539032 29.88271057489328,168.68145380017813 30.530851250514388,167.7556076719775 31.727418651105836,166.8297603361425 33.17327092704363,165.8494500760571 34.56926622777246,165.03252382518258 35.21740690339357,164.81467666616663 36.962401029188186,163.83436362311477 39.40539280581288,161.49249920685543 40.15324743138626,160.62110582378227 40.90110205672681,159.47740038501797 41.648956682300195,157.6801452578511 41.99795550759882,156.31858531362377 41.99795550759882,155.55611060396768 42.14752643276006,155.06594785815105 41.94809853238985,152.17942704434972 42.247240382712334,150.6544679130311 42.69595315796323,149.29289449116914 42.795667107915506,148.20363387308316 43.194522908423096,147.05990842502797 43.34409383311868,146.73312938696472 43.69309265865013,145.7527913702652 44.540661234175786,144.17335505055962 44.64037518436089,143.73764786106767 45.48794375988655,142.3215976479696 47.18308091070503,140.57876273751026 47.78136461111717,139.76180740009295 49.07764596189372,137.4743274518405 49.825500587467104,135.8404086890514 51.07192496326752,134.5877350900555 51.07192496326752,134.3154144497821 50.573355212807655,133.66184448706917 50.47364126262255,133.33505927980877 50.972211013082415,132.79041693347972 51.02206798805855,132.46363132511033 50.92235403810628,132.02791694644839 50.52349823783152,131.4832735969685 50.52349823783152,131.15648738655727 51.27135286317207,130.44845008128323 52.21863538888283,128.54219228640432 52.517777239205316,127.50736448203679 53.315488839522004,126.03681711142417 53.81405858998187,125.27430986770196 54.262771365232766,124.94752079813043 54.462199265137315,124.62073157809209 54.262771365232766,123.9671526864986 54.71148414025083,123.15017822553637 54.96076901559718,122.76892315526493 54.91091204062104,122.3876678799279 54.462199265137315,121.84301713143941 54.3126283402089,121.46176135883434 54.11320044007152,121.0805053813383 53.46505976468325,120.9715750644682 53.01634698919952,120.31799281178974 52.767062114086,119.66440995724406 52.61749118915759,119.44654887187062 52.86677606427111,118.68403454654617 52.41806328925304,118.7384998825728 51.62035168847069,118.35724244196899 49.97507151262835,116.94114158325829 49.47650176216848,116.17862456553848 49.12750293710269,116.01522795506753 48.52921923669055,116.50541767338291 48.828361086780205,115.6884346214938 48.37964831152931,116.39648665423738 48.32979133632034,115.9062968606595 47.53207973600365,114.49019111035159 47.23293788568117,114.38125978189055 46.883939060615376,114.38125978189055 46.684511160477996,114.21786275762133 46.83408208563924,114.0" stroke="#4dd2ff" stroke-linecap="round" stroke-linejoin="round" stroke-width="0.5"><title>2024-09-04 4.2km</title><desc>12321514485</desc></polyline><polyline fill="none" points="161.4115800887812,114.0 161.6739152627997,114.07164455094608 162.52650458016433,115.00302321120398 163.37909389683045,115.36124552524416 163.51026148418896,115.93440094206017 163.70701286476105,116.36426727380604 164.03493183315732,116.93742207478499 164.55960218212567,117.4389322369243 164.88752115005627,117.72550935135223 165.4121914987918,117.79715361638227 165.74011046718806,118.15537485835375 166.52711599017493,118.44195175298955 166.8550349585712,118.80017274746206 167.11737013282254,118.80017274746206 167.11737013282254,119.0151052782312 167.57645668834448,119.65990257362137 167.96995944995433,120.37634349061409 168.8225487668533,121.16442786419066 169.21605152846314,121.73757971811574 169.4128029095009,122.16744337748969 170.0686408453621,123.09881396061974 170.46214360697195,123.95853982807603 170.85564636881463,124.388402464916 170.79006257513538,124.67497744603315 171.1179815432988,125.24812714458676 171.380316717783,126.25113827030873 171.8394032730721,126.53771267988486 172.03615465387702,127.11086123471614 172.62640879652463,127.61236593167996 173.15107914526016,128.4004441969446 173.41341431974433,129.61838202545187 174.06925225583836,131.1945345037966 174.20041984296404,131.33782096084906 174.20041984296404,131.83932338713203 174.7250901919324,132.8423274314846 175.11859295354225,133.48711517691845 175.38092812802643,134.418474467122 175.84001468331553,135.20654698717408 176.36468503251672,136.56776159116998 176.69260400044732,137.14090398844564 176.69260400044732,137.49911780835828 177.21727434918284,138.2871877278667 177.21727434918284,138.50211577222217 178.0698636660818,140.86632099555572 178.26661504711956,141.86931534216274 178.2010312534403,142.08424256189028 178.46336642792448,142.94395094644278 178.46336642792448,143.73201627016533 178.39778263424523,143.66037399548804 177.9386960787233,143.66037399548804 177.41402572998777,143.87530080304714 176.16793365147896,143.94694306130987 175.44651192170568,143.5170894296607 175.57767950906418,143.44544713845244 175.44651192170568,143.66037399548804 175.5120957151521,143.87530080304714 175.97118227067403,144.3051542696776 176.1023498577997,144.59172313747695 176.16793365147896,144.59172313747695 176.16793365147896,144.80664973059902 176.29910123860464,145.3081449221354 176.49585261940956,145.45142921304796 176.62702020653524,146.0245661570807 176.69260400044732,146.16785033798078 176.62702020653524,145.73799772909842 176.23351744492538,145.37978707032744 176.16793365147896,145.23650276853004 176.16793365147896,145.09321844443912 175.90559847699478,144.59172313747695 176.16793365147896,143.87530080304714 176.4302688257303,143.80365853954572 176.62702020653524,144.01858531386824 177.08610676205717,144.09022756118793 177.47960952389985,144.01858531386824 177.87311228527687,144.16186980268685 178.39778263424523,144.09022756118793 178.33219884056598,144.87829191720812 178.2010312534403,145.3081449221354 178.26661504711956,145.37978707032744 178.0698636660818,146.0245661570807 177.87311228527687,146.0962082502665 177.9386960787233,146.23949242045637 177.74194469791837,146.59770274924813 177.74194469791837,146.88427091331687 177.54519331711344,147.314122994605 177.2828581428621,147.52904896106338 177.34844193654135,147.6723329112865 177.15169055573642,148.03054269042332 177.02052296837792,148.1738265635795 175.7744308898691,148.67531994654564 175.31534433434717,148.67531994654564 174.06925225583836,149.32009675755398 173.61016570031643,149.60666408605175 173.15107914526016,150.1081566994544 172.62640879652463,150.39472378609935 172.4296574157197,150.68129078485072 172.2984898283612,152.3290493208915 172.1673222410027,152.3290493208915 171.97057086019777,152.97382360877236 172.1673222410027,153.54695593495853 171.7082356857136,153.83352196635678 171.18356533697806,154.97978521202458 170.46214360697195,155.69619902595878 169.67513808398508,156.05440572695807 169.47838670294732,155.98276439774781 169.08488394133747,156.12604705052217 168.75696497317404,155.98276439774781 167.6420404817909,156.12604705052217 167.11737013282254,156.3409709886182 165.28102391166613,156.26932968141045 165.01868873741478,156.48425358650275 164.42843459476717,156.48425358650275 163.96934803947806,156.69917744211853 163.90376424556598,156.55589487717953 163.24792630970478,156.98574250593083 162.92000734154135,157.05738375819055 162.0674180246424,158.4902076483122 161.87066664383747,158.9916954903747 161.14924491406418,159.8513883074629 160.75574215245433,160.06631138798548 160.62457456532866,160.28123441908974 159.83756904187612,160.49615740060108 159.50965007394552,160.78272129927063 159.1817311057821,161.3558488325798 158.78822834417224,161.78569425159367 158.78822834417224,163.36179242865182 159.11614731210284,163.86327765439637 159.11614731210284,164.0781998115708 158.8538121378515,164.86624729807954 158.9193959312979,165.29609110101592 158.8538121378515,166.58562132320367 158.5914769633673,167.30202623276273 157.80447143991478,168.01843059260864 157.54213626519777,168.51991331740282 156.88629832933657,168.66319404658861 156.42721177381463,169.0213957731612 155.04995210818015,169.3079570554546 154.9843683145009,169.45123766345205 154.78761693369597,170.16764037450776 154.6564493465703,170.31092085072305 154.59086555265822,172.10192494891817 154.3941141718533,172.60340548079694 154.45969796576537,172.961605695833 154.26294658472762,173.24816576892044 154.26294658472762,173.53472575411433 153.7382762359921,173.96456556691555 153.47594106127508,174.5376850098255 152.75451933173463,174.8958844827721 151.44284345954657,176.25704122753814 149.93441620632075,176.75851952802623 149.54091344447806,177.18835785699775 148.75390792102553,177.76147532102186 148.3604051596485,178.26295281370403 147.9013186043594,179.33754653396318 147.24548066826537,180.05394166044425 147.17989687481895,180.34049955726368 146.65522652561776,180.9852545033791 145.86822100239806,181.415090886876 145.8026372087188,181.70164836588083 145.2123830660712,182.2031237425399 144.95004789181985,182.70459884998854 144.75329651101492,183.34935216407757 144.294209955493,184.065744212945 144.0974585749209,184.28066172049148 144.03187478124164,184.49557917838683 143.70395581284538,184.85377483192133 143.70395581284538,184.92541394609725 143.24486925802194,185.14033125591232 143.04811787698418,185.35524851613445 142.85136649617925,185.4268875918351 142.52344752824865,185.71344383974792 141.9987771792803,186.0 141.6052744174376,186.0 141.5396906239912,185.8567219309043 141.1461878621485,185.7850828881492 140.49034992605448,185.4268875918351 140.29359854548238,185.06869215815095 140.09684716444463,185.06869215815095 138.58841991145164,183.92246584710665 138.45725232409313,183.6359090494807 137.27674403926358,182.56132027535932 137.2111602453515,182.4180416787858 136.48973851581104,181.8449270723504 136.09623575396836,181.343451503315 135.76831678603776,181.2001727198949 135.50598161132075,180.84197566489456 134.91572746890597,180.41213901754236 134.1943057391327,180.12558114284184 133.80080297752284,180.19722061988432 133.27613262855448,180.62705736595672 133.14496504166164,181.12853331980295 133.47288400959224,180.12558114284184 133.21054883510806,179.76738367584767 133.47288400959224,182.13148441939848 134.85014367545955,183.6359090494807 132.75146227981895,183.13443444215227 132.6858784861397,183.20607368822675 132.22679193108343,183.13443444215227 132.09562434372492,183.27771292882971 132.09562434372492,183.49263061769307 131.96445675636642,183.49263061769307 132.09562434372492,183.7791874592076 131.89887296292,184.065744212945 131.50537020131014,183.99410503264517 130.39044570969418,183.56426983640995 130.7183646778576,184.065744212945 130.7183646778576,183.8508266559802 130.52161329705268,183.92246584710665 130.19369432888925,184.49557917838683 130.06252674176358,184.49557917838683 129.99694294831716,184.35230087855598 130.06252674176358,184.63885745638981 129.99694294831716,183.42099139362108 130.4560295031406,183.7791874592076 130.19369432888925,184.5672183201532 130.25927812233567,184.92541394609725 130.4560295031406,185.14033125591232 131.7677053755615,184.7821357123903 132.16120813717134,184.92541394609725 131.89887296292,184.7821357123903 132.09562434372492,183.99410503264517 131.7677053755615,183.20607368822675 131.3742026137188,183.06279519043164 131.0462836457882,182.56132027535932 129.73460777360015,181.70164836588083 129.14435363095254,181.0568939142977 129.07876983750612,181.2001727198949 129.14435363095254,181.27181211434072 129.40668880566955,181.343451503315 129.34110501175746,181.415090886876 129.40668880566955,181.27181211434072 127.30800741002895,179.9106626790599 126.84892085473984,179.33754653396318 126.84892085473984,179.19426744268276 126.12749912496656,178.40623204788426 125.34049360174686,177.90475463232724 123.83206634875387,176.5436002893257 123.56973117403686,176.40032076940406 123.24181220610626,175.97048207762418 122.71714185737073,175.68392283993308 121.73338495288044,176.5436002893257 121.53663357207552,176.83015926310327 122.12688771472313,177.1167181491037 122.71714185737073,176.83015926310327 123.17622841219418,176.32868100114865 123.11064461898059,176.1137616634951 123.43856358691119,176.04212187341182 124.22556911013089,176.9017989928834 124.88140704622492,176.75851952802623 125.01257463358343,176.1137616634951 125.93074774439447,176.40032076940406 126.38983429945074,176.47196053218795 125.73399636335671,175.32572366920067 125.66841256967746,174.96752436092356 125.73399636335671,174.96752436092356 124.88140704622492,174.1078454607632 124.946990840137,173.53472575411433 124.8158232527785,175.11080410069553 124.88140704622492,174.8958844827721 125.86516395048238,173.67800571379485 125.86516395048238,173.033245722414 125.99633153760806,172.74668558326084 125.73399636335671,172.10192494891817 125.6028287759982,172.10192494891817 125.66841256967746,171.95864474750124 124.22556911013089,171.02732290228596 124.02881772932597,170.740762147645 123.24181220610626,170.52584152395139 123.24181220610626,170.38256108073983 122.65155806345865,169.66615853452822 122.38922288897447,168.94975543877808 122.45480668265373,168.8064747537137 122.12688771472313,168.01843059260864 122.32363909552805,167.4453071486787 122.32363909552805,167.01546433498152 122.19247150793672,166.87218335311627 122.25805530161597,166.0124969999306 122.12688771472313,165.7259347063955 122.32363909552805,165.00952858763048 123.43856358691119,163.00358853128273 123.83206634875387,162.5021028437768 124.02881772932597,162.14389861637028 125.53724498231895,160.56779838365037 126.19308291841298,160.20959341415437 126.45541809312999,159.8513883074629 126.78333706106059,159.8513883074629 127.3735912037082,159.42154199793003 128.55409948853776,158.9916954903747 129.01318604382686,158.9916954903747 129.53785639279522,158.63348991639214 131.50537020131014,157.70215478079626 131.89887296292,157.27230748184957 132.42354331188835,157.2006662460626 133.07938124774955,156.41261229023803 133.6040515967179,156.05440572695807 134.1943057391327,155.40963356633438 134.85014367545955,155.1230680187582 135.2436464370694,154.7648609605967 135.44039781787433,154.4782952151727 136.09623575396836,153.97680494899396 137.27674403926358,152.25740770593984 138.2605009432882,151.25442451861454 138.2605009432882,150.8962159761577 138.58841991145164,150.39472378609935 138.78517129225656,149.67830590438098 139.30984164122492,148.5320361503982 139.44100922811776,147.95890074555064 139.44100922811776,147.52904896106338 139.76892819651403,146.3111344971694 139.83451198996045,144.80664973059902 139.76892819651403,144.4484387145494 139.63776060915552,144.3051542696776 139.70334440283477,143.73201627016533 139.63776060915552,143.08723560039653 139.76892819651403,142.08424256189028 139.70334440283477,141.5827456388506 139.9000957836397,140.72303600091254 140.49034992605448,140.29318088502623 141.1461878621485,139.4334700597101 141.8020257987082,138.21554503537482 142.19552856008522,137.64240329759195 142.39227994089015,136.8543328338419 142.85136649617925,136.1379045622307 143.04811787698418,135.4214757408481 143.04811787698418,133.55875823210226 143.24486925802194,133.12889981770422 143.17928546410985,132.69904120557476 143.04811787698418,132.62739808420883 143.17928546410985,132.48411182517884 143.17928546410985,131.9109665688593 142.85136649617925,131.4094641810516 142.85136649617925,130.9796047770069 142.85136649617925,130.83631826535566 143.04811787698418,130.6213884560275 143.04811787698418,130.26317199721234 144.22862616204657,128.4720876426436 144.75329651101492,128.11387035925873 145.0156316854991,127.75565293856198 145.8026372087188,127.18250477942638 146.45847514504567,126.10785103269154 147.7701510170009,124.60333370906301 147.83573481068015,124.31675870571053 148.3604051596485,123.38538933778182 148.55715654045343,122.52566294249846 148.9506593020633,122.0241555130342" stroke="#4dd2ff" stroke-linecap="round" stroke-linejoin="round" stroke-width="0.5"><title>2024-09-03 4.7km</title><desc>12321662462</desc></polyline><polyline fill="none" points="60.759777734288946,194.0 61.08192676794715,194.63345572905382 61.46850560884923,194.7742236093036 62.048373870085925,195.40767880372005 62.821531551424414,195.9003658745205 63.079250778537244,195.97074972005794 63.65911903954111,196.95612299186178 63.5946892327629,197.23765801818809 63.72354884655215,197.65996039513266 65.26986420922913,198.43418091489002 65.91416227724403,198.92686635960126 66.10745169781148,198.92686635960126 67.07389879971743,199.70108580985107 67.78262667427771,201.1791393085732 68.42692474205978,201.8125900789746 69.1356526168529,203.00910700683016 69.52223145752214,203.22025689092698 70.0376699117478,204.1352391600958 70.35981894587167,205.12060365988873 71.2618362409994,206.45788235904183 71.51955546811223,207.16171247017337 72.6792919903528,208.56937107205158 73.19473044457845,211.03276842669584 74.03231793292798,213.0738640796626 74.67661600094289,214.19998387491796 74.80547561426647,214.69266085053096 76.02964194351807,217.36718838603701 76.73836981831118,219.4082699425635 77.12494865921326,219.90094412048347 77.44709769287147,220.88629168248735 77.51152749964967,221.37896506657125 77.7692467267625,222.0827837276738 77.7692467267625,222.50507466483396 78.02696595410816,223.27927421190543 77.7048169199843,225.95377670950256 77.44709769287147,226.37606586475158 77.44709769287147,226.7279733454925 77.31823807931505,226.8687363000936 76.9316592386458,227.92445777042303 76.41622078418732,228.83941539522493 75.96521213673986,229.12094063445693 75.12762464839034,230.2470407280489 74.99876503483392,230.31742193805985 74.41889677383006,230.8804714230937 74.22560735349543,231.3027583101648 74.22560735349543,231.72504500264768 73.3880198651459,232.99190391413867 73.3235900583677,233.41418982920004 72.93701121746562,233.9772374132881 72.55043237679638,235.03295070223976 71.51955546811223,235.87752045848174 71.13297662721016,236.3701857906417 69.97324010520242,236.79247015021974 69.07122281007469,236.93323156039696 67.07389879971743,236.79247015021974 66.62289015203714,237.0036122572492 65.72087285714224,237.07399294886272 63.98126807343215,237.70741892955266 63.5946892327629,238.2704638785799 62.88596135796979,238.97426957881544 61.59736522217281,240.73378146684263 61.21078638150357,241.78948697971646 60.95306715462357,242.14138854743214 60.82420754083432,242.91557152103633 60.95306715462357,243.47861327329883 60.82420754083432,244.4639355081017 60.502058506710455,245.09735638607526 60.11547966604121,246.5049567707465 59.79333063215017,246.78647658857517 59.277892177924514,247.63103552366374 58.56916430336423,248.47559368092334 57.86043642833829,248.96825224725762 57.40942778089084,248.96825224725762 55.79868261120282,250.16470766346902 54.83223550929688,251.64267984667094 54.1235076347366,253.96520275238436 53.672498987056315,254.52823772269767 53.35034995293245,255.1616516514914 52.383902851026505,255.79506514267996 52.25504323770292,256.00620287598576 50.32214903412387,256.70999496919103 49.613421159330755,257.27302825509105 49.097982704872265,257.836061195354 48.71140386397019,258.1175775360316 48.77583367098123,258.4694728401955 48.582544250413775,258.6806099579553 48.5181144438684,258.8213680095505 48.324825023300946,258.962126039376 47.68052695551887,260.2289473367855 47.358377921627834,260.440084049711 47.16508850129321,260.8623573294608 46.77850966039114,261.35500924359076 46.069781785830855,261.7069033062435 44.91004526335746,262.76258468354354 44.45903661591001,263.81826484639896 44.3946068091318,264.2405365713639 44.13688758201897,264.5220509466599 43.94359816145152,265.0850794382277 43.42815970722586,265.2962150334497 42.9127212530002,265.7888645667117 42.71943183266558,265.85924304975197 42.13956357142888,266.0 41.36640588985756,265.85924304975197 40.59324820851907,265.22583650704473 40.206669367616996,265.1554579754011 38.982503038831055,264.3109151733224 38.27377516380511,263.6071289110114 38.016055937157944,263.0440995125682 37.50061748246662,262.6922059628996 37.178468448575586,262.19955476681935 36.14759154012427,261.21425158088095 34.6012761767488,260.15856842161156 34.21469733607955,260.017810575373 33.69925888185389,260.3697051506606 33.441539654741064,260.8623573294608 33.634829075075686,261.1438727414934 33.82811849541031,261.8476608931669 32.926101200282574,261.35500924359076 31.315356030594558,263.7478862067219 31.057636803481728,263.88864348072093 30.671057962579653,264.2405365713639 30.73548776935786,264.5220509466599 30.606628156034276,264.8035652356921 30.864347383147106,265.0850794382277 31.186496417038143,265.0147008957574 31.315356030594558,264.5220509466599 32.21737332548946,263.46637159370584 32.21737332548946,263.3959929270204 31.895224291831255,263.25523557746783 31.057636803481728,262.19955476681935 28.802593565778807,260.51046294305706 26.547550328075886,258.39909379027085 26.16097148717381,258.25833567383233 25.838822453515604,257.9768193765194 25.581103225937113,257.5545447683544 25.258954192278907,257.3434073914541 23.64820902259089,255.9358236369444 23.261630181688815,255.72468588751508 22.681761920452118,255.9358236369444 22.037463852670044,256.4284781967872 21.973034045891836,256.6396157841082 22.552902307128534,256.70999496919103 23.39048979524523,256.6396157841082 23.841498442925513,255.86544439260615 26.16097148717381,253.96520275238436 26.41869071451947,253.96520275238436 26.48312052129768,253.68368513759924 26.16097148717381,252.9798907226068 26.22540129418485,252.20571624243166 25.96768206683919,251.78343897784362 25.065664771711454,251.2204023229424 24.485796510707587,251.07964310533134 23.841498442925513,250.65736532240408 23.64820902259089,250.5869856729405 23.326059988467023,250.23508734512143 22.939481147564948,248.8978724682238 23.003910954343155,247.98293485032627 22.810621534241363,246.92723646515515 22.810621534241363,246.22343686665408 22.939481147564948,245.9419168761815 23.003910954343155,245.09735638607526 23.326059988467023,244.60469574097078 23.39048979524523,244.2527951183729 24.034787863027304,243.40823307307437 24.292507090372965,242.77481102896854 24.614656124264002,242.56367025041254 24.67908593104221,242.21176884468878 25.581103225937113,241.43758527719183 26.096541680628434,240.8041618721909 27.771716657094657,239.7484552252572 30.542198349023238,238.41122506174725 30.671057962579653,238.20008327881806 31.444215644150972,237.91856082592858 31.895224291831255,237.5666576382937 32.410662746056914,237.28513499093242 34.21469733607955,236.01828200899763 34.73013579053804,235.45523567765485 35.24557424499653,235.2440932141617 36.08316173311323,234.188380168227 37.04960883501917,233.41418982920004 37.88719632313587,232.1473315009498 37.82276651659049,232.00656935654115 38.5314943913836,231.23237717570737 38.91807323205285,230.10627829201985 39.36908187926747,229.4024657875998 39.56237129983492,228.48750872444361 39.497941493056715,227.99483915860765 39.56237129983492,227.8540763767669 39.82009052718058,226.6575918602175 39.755660720169544,226.30568435246823 39.82009052718058,225.95377670950256 39.69123091339134,225.74263205903117 39.82009052718058,224.61652643542038 39.755660720169544,223.42003769555595 39.94895014050417,222.64583826751914 39.82009052718058,222.1531655638828 39.755660720169544,220.88629168248735 40.07780975429341,220.04170812264783 40.013379947515205,219.26750584307592 40.271099174628034,218.4933029099484 40.206669367616996,218.42292079259641 40.33552898140624,218.07101012556814 40.59324820851907,217.78948149451753 40.59324820851907,217.15604175883345 40.979827049188316,216.45221931731794 40.91539724264294,216.10030789399752 41.04425685596652,215.60763167444384 41.4308356968686,215.25571992713958 41.36640588985756,214.97419043193804 41.88184434454888,213.91845405561617 42.13956357142888,213.1442466073786 43.041580866789445,211.7365950270323 44.265747195575386,209.20281673804857 44.587896229699254,208.92128538503312 45.61877313815057,207.65439322660677 46.00535197881982,207.37286139820935 46.327501012710854,207.09132948331535 46.45636062673293,206.66903144912794 47.03622888750397,206.03558403317584 48.067105796188116,204.34638878481928 48.5181144438684,203.71293976466404 48.96912309131585,202.9387237012852 48.90469328430481,202.58680709276814 49.03355289809406,202.37565706291934 49.80671057943255,201.0383724112762 50.32214903412387,200.26415409013862 51.159736522240564,199.4899351155036 51.35302594257519,199.06763358099852 51.22416632878594,198.29341359628597 50.96644710167311,198.1526462561451 50.644298068014905,197.80072781105991 50.83758748834953,197.30804176116362" stroke="#4dd2ff" stroke-linecap="round" stroke-linejoin="round" stroke-width="0.5"><title>2024-09-02 4.2km</title><desc>12321662448</desc></polyline><polyline fill="none" points="147.54667498893104,194.49733858427498 147.64784303074703,194.22103941318346 148.05251519731246,194.0 148.20426725992002,194.0 148.71010746830143,194.49733858427498 149.16536365589127,194.60785822296748 149.67120386450551,195.2709756991826 149.67120386450551,195.43675497267395 149.82295592711307,195.98935227567563 150.2276280936785,196.70772813545773 151.34047655225731,197.2603244628408 152.8579971776344,198.91811090020929 153.1615013028495,199.85752152017085 153.1615013028495,199.96804033615626 153.0603332608007,199.96804033615626 152.90858119842596,201.57056126004318 153.0603332608007,201.79159834887832 153.21208532340825,201.84685761039145 153.21208532340825,201.79159834887832 153.1615013028495,201.73633908311604 153.26266934443265,202.06789461447624 153.7179255320225,202.34419077419443 153.86967759463005,202.62048682774184 154.12259769882075,202.78626440890366 154.17318171961233,203.0073011245695 154.5272698653862,203.5598926168168 154.93194203218445,203.836188203888 155.28603017819114,203.94670640904224 155.64011832419783,204.38877905992558 155.69070234475657,204.44403812201926 155.53895028238185,204.55455623409944 155.64011832419783,204.8308514393866 155.48836626159027,204.99662851158064 155.33661419898272,205.43870051787235 155.58953430340625,206.15706694906112 156.2977105951868,206.5438793458743 156.70238276175223,206.98595040210057 157.56231111614034,207.59379766113125 158.27048740792088,208.809490639891 158.2199033871293,209.14104291412514 158.47282349132,209.58311237563612 158.47282349132,209.85940565133933 158.82691163709387,210.35673328023404 159.33275184570812,210.85406056576176 160.34443226270378,211.35138750768965 160.54676834587008,211.73819711385295 160.54676834587008,212.1250065123313 160.85027247085236,212.62233257648768 161.3561126794666,213.06439990055514 162.01370495022275,213.28543346078368 162.82304928381927,213.78275872336235 163.48064155480824,214.61163339752238 163.48064155480824,214.887924743467 165.20049826358445,216.6561868475983 165.75692249275744,217.65083237283397 165.80750651378185,217.87186452531023 166.11101063899696,218.2586706286529 166.11101063899696,218.42444460932165 166.36393074295484,218.81125041580526 166.36393074295484,218.97702426923206 166.61685084714554,219.64011930138804 166.97093899315223,220.08218231698265 167.07210703473538,220.52424506109674 167.72969930572435,221.18733866838738 167.93203538912348,221.51888524316018 168.03320343093947,221.85043166513788 168.08378745173104,222.458266375761 168.48845961829647,223.89496456098277 168.74137972272,224.2265098890639 169.0448838477023,225.05537254124647 169.50014003529213,225.77371940138983 169.50014003529213,226.05000646435656 170.10714828548953,226.87886701757088 170.15773230651394,227.6524693397805 170.81532457727008,228.64709967566887 170.96707663987763,229.1996714908746 171.16941272327676,229.42070009815507 171.2199967438355,229.97327131975908 171.47291684825905,230.30481384921586 171.47291684825905,230.63635622599395 171.67525293165818,231.13366950501222 171.72583695244975,231.68623941217083 171.92817303584889,232.07303809479345 171.8775890150573,233.5097170972731 171.97875705664046,233.95177159830928 171.67525293165818,234.83587978646392 171.42233282746747,235.22267677739728 171.27058076485991,235.71998688904569 171.06824468146078,235.99627013597637 171.0176606606692,236.49357971351128 170.4612364312634,236.88037581410026 170.36006838968024,237.15665861591697 170.10714828548953,237.48819783818908 169.34838797268458,238.09601934911916 169.19663591030985,238.37230168445967 169.0448838477023,239.31166083202697 168.38729157671332,240.19576243986376 167.93203538912348,241.07986296224408 167.67911528493278,241.46665659948485 167.72969930572435,241.68768144177739 167.47677920153365,241.96396239928436 167.17327507655136,242.1297309229849 167.0215230139438,242.35075556178344 166.31334672216326,242.46126785571687 165.75692249275744,242.90331686200807 164.94757815939374,243.06908516940894 164.2394018676132,243.01382907119114 163.0253853672184,243.06908516940894 161.1031925752759,243.62164591852343 160.39501628349535,244.11895023018587 160.09151215828024,244.50574223528383 159.99034411646426,244.7267661448568 159.53508792887442,245.113557823468 158.87749565811828,246.329187460884 158.62457555392757,247.8763494863524 158.72574359551072,248.48416222981177 158.42223947052844,249.31299696251517 158.37165544973686,249.75504176324466 157.86581524112262,250.74964157276554 157.15763894934207,251.5784736983478 156.75296678277664,251.9652616971871 156.65179874072783,252.24153871199815 155.89303842838854,252.62832635466475 155.33661419898272,253.29139040177688 155.0331100737676,253.29139040177688 154.4766858445946,253.512411615171 154.2237657404039,253.78868803661317 154.12259769882075,254.06496435182635 153.76850955281407,254.6175166646717 153.56617346941493,255.28057888051262 153.56617346941493,255.99889559205621 153.21208532340825,256.5514464211301 151.84631676063873,257.9880765929702 151.4416445940733,258.0985864875256 151.23930851067416,258.3196062257048 150.2782121147029,258.59588080307003 149.7217878852971,258.98266503342893 149.46886778087355,259.4799587384914 149.31711571849883,259.53521357354475 148.861859530909,260.47454511869 148.50777138513513,260.75081886933185 148.30543530150317,261.30336605315097 147.9513471557293,261.9111674654996 147.64784303074703,262.0216767580714 147.1925868431572,262.46371375903254 146.73733065533452,262.6847321577952 146.3832425097935,263.1267687515938 146.07973838457838,263.34778694680426 145.92798632197082,264.0108411256806 145.27039405074902,265.005421249487 145.1186419883743,265.5579651692533 144.66338580078445,265.66847390239127 144.20812961342745,266.0 143.7528734258376,265.9447456608177 143.34820125903934,265.7237282625283 142.74119300884195,265.66847390239127 141.88126465445384,265.0606756605557 141.52717650844716,264.8396579910186 141.37542444607243,264.6738946941914 140.97075227927417,264.56338580849115 140.36374402884394,263.56880507431924 140.21199196670204,263.56880507431924 139.55439969571307,262.6847321577952 138.492135257693,261.9111674654996 137.53103886172175,261.41387543897144 137.27811875776388,261.46913012542063 137.12636669515632,261.6901488294825 136.97461463254876,262.0216767580714 137.58162288274616,262.7952413314488 135.20417390298098,264.0660956130014 134.95125379879028,264.3976224481594 134.79950173618272,264.8396579910186 134.90066977776587,265.33694765227847 135.30534194456413,265.2816932623973 135.35592596558854,265.0606756605557 136.0135182365775,264.5081313592382 136.0135182365775,264.0660956130014 135.50767802796327,263.45829601906007 135.20417390298098,263.29253240441903 134.8500857569743,263.1820233068429 134.59716565301642,262.9610050606425 134.24307750700973,262.51896836503875 133.88898936100304,262.35320453415625 133.4337331734132,261.9111674654996 133.33256513159722,261.85591281275265 132.87730894400738,261.30336605315097 132.67497286084108,261.2481113537797 132.27030069427565,261.0270925142686 131.8150445066858,260.47454511869 130.9045321312733,259.8667424939922 130.8539481102489,259.7009780527442 130.3481079021003,259.2036845001858 129.84226769348606,258.9274101560004 129.63993161008693,258.6511357058771 129.38701150589623,258.5406258961302 128.93175531853922,258.0985864875256 128.72941923490725,258.0985864875256 128.27416304731742,258.3196062257048 128.07182696391828,258.6511357058771 128.0212429431267,258.98266503342893 128.17299500573426,259.1484296398121 128.5776671722997,259.2589393562521 129.1846754224971,258.87215527438093 129.1846754224971,258.3196062257048 129.08350738091394,258.04333154234337 129.03292336012237,257.54603684536414 131.30920429783873,256.49619135726243 131.10686821467243,256.49619135726243 131.41037233988754,255.72262001846684 130.9551161522977,255.17006855353247 130.9551161522977,255.0595582096721 130.5504439852666,254.39649579039542 129.2352594435215,253.78868803661317 128.93175531853922,253.5676669079112 128.78000325569883,253.3466457114555 128.8811712975148,252.90460311522475 128.5776671722997,252.07577251578914 128.72941923490725,250.80489707749803 128.93175531853922,250.14183074131142 128.8305872764904,249.86555292096455 129.69051563111134,248.26313947339077 131.86562852724455,246.21867576037766 133.02906100661494,245.3898374667042 133.53490121522918,245.16881376050878 134.09132544440217,244.7267661448568 135.1535898821894,244.2294622528716 135.50767802796327,244.11895023018587 136.11468627816066,243.67690197005868 136.46877442393452,243.62164591852343 137.12636669515632,243.12434126331937 137.37928679934703,242.79280463594478 138.2392151535023,242.1297309229849 138.39096721610986,241.908706216258 139.30147959152237,241.024606711464 139.55439969571307,240.52730026294012 140.11082392488606,239.9194808040047 140.41432804986835,239.25640444544842 140.86958423769102,238.81435320072342 140.86958423769102,238.5933274765266 141.1730883626733,238.2065322959097 141.37542444607243,237.3776847809786 141.6789285710547,237.0461455078912 141.6789285710547,236.7146060820669 141.62834455026314,236.10678340512095 141.7295125918463,235.66473022697028 142.18476877966896,234.72536632232368 142.08360073785298,234.6148528411868 142.0330167170614,234.06228518119315 142.13418475864455,233.67548756697215 141.982432696037,232.95714858936844 142.18476877966896,231.90726725617424 142.18476877966896,231.68623941217083 141.982432696037,231.2441835203208 142.0330167170614,230.69161327392794 142.2859368212521,229.97327131975908 142.33652084204368,229.36544295272324 142.64002496702597,228.53658526175423 142.64002496702597,228.31555638299324 142.8423610504251,227.87349842203548 142.8423610504251,227.15515365661122 143.0952811546158,226.5473229107447 143.0952811546158,226.32629342144355 143.1964491964318,226.21577865135623 143.29761723801494,225.71846197597915 143.65170538425446,225.16588748939103 143.65170538425446,224.88960008707363 144.2587136339862,223.83970699150814 144.2587136339862,223.618676671118 144.71396982157603,223.06610057328362 144.96688992599957,222.5135240513482 145.21981003019027,221.68465847324114 145.52331415517256,221.40836973529076 145.97857034252957,221.1320808911696 146.48441055137664,220.52424506109674 146.78791467635892,220.3584715637844 146.99025075975806,220.13744017481804 147.04083478054963,219.9716665885062 147.54667498893104,219.3638297789148 148.20426725992002,218.2586706286529 148.2548512807116,217.92712255276274 148.60893942671828,217.54031627130462 148.65952344750986,217.37454208702547 148.91244355170056,216.98773550870828 149.0136115932837,216.3246380338678 149.57003582268953,215.49576533172512 149.6206198434811,215.2747324499651 149.97470798972063,214.77740821783664 150.32879613526165,214.61163339752238 150.98638840625063,213.8932754016132 151.0369724270422,213.395950215403 150.4805481978692,212.6775910067954 150.4805481978692,212.4565572598949 150.63230026047677,212.18026498088147 151.0875564480666,211.84871410595952 151.138140469091,211.68293861148413 151.18872448964976,211.18561189860338 150.93580438545905,210.6330262591364" stroke="#4dd2ff" stroke-linecap="round" stroke-linejoin="round" stroke-width="0.5"><title>2024-09-01 4.4km</title><desc>12321662453</desc></polyline></svg>