<?xml version="1.0" encoding="utf-8" ?>
<svg baseProfile="full" height="300mm" version="1.1" viewBox="0,0,200,300" width="200mm" xmlns="http://www.w3.org/2000/svg" xmlns:ev="http://www.w3.org/2001/xml-events" xmlns:xlink="http://www.w3.org/1999/xlink"><defs /><rect fill="#222222" height="300" width="200" x="0" y="0" /><text fill="#FFFFFF" style="font-size:12px; font-family:Arial; font-weight:bold;" x="10" y="20">Over 1km Workouts</text><text fill="#FFFFFF" style="font-size:4px; font-family:Arial" x="10" y="280">ATHLETE</text><text fill="#FFFFFF" style="font-size:9px; font-family:Arial" x="10" y="290">LaoMai</text><text fill="#FFFFFF" style="font-size:4px; font-family:Arial" x="120" y="280">STATISTICS</text><text fill="#FFFFFF" style="font-size:3px; font-family:Arial" x="120" y="285">Number: 13</text><text fill="#FFFFFF" style="font-size:3px; font-family:Arial" x="120" y="290">Weekly: 6.5</text><text fill="#FFFFFF" style="font-size:3px; font-family:Arial" x="141" y="285">Total: 40.5 km</text><text fill="#FFFFFF" style="font-size:3px; font-family:Arial" x="141" y="290">Avg: 3.1 km</text><text fill="#FFFFFF" style="font-size:3px; font-family:Arial" x="167" y="285">Min: 1.0 km</text><text fill="#FFFFFF" style="font-size:3px; font-family:Arial" x="167" y="290">Max: 5.5 km</text><polyline fill="none" points="24.552869486506097,73.26411444836413 24.992270905524492,73.42410702680354 25.10944461741019,73.55210104535217 25.75390003225766,73.84008744341554 25.84178031620104,74.00007980086957 26.07612773985602,74.12807364269975 26.193301451625302,74.25606744518154 26.544822587049566,74.54405335715273 26.603409442817792,74.70404544458142 27.482212281320244,75.3120148171729 27.98020055645611,75.53600330991321 28.361015119822696,75.60000000000582 28.56606911541894,75.56800165615277 28.653949399362318,75.4080099001585 28.302428263938054,74.64004861697322 28.653949399362318,74.67204703204334 28.80041653907392,74.57605177958612 29.09335081849713,74.54405335715273 29.503458809806034,73.96808133428567 29.737806233461015,73.71209351328434 29.532752237748355,73.10412180866115 29.122644246555865,72.59214494901244 28.74182968318928,72.43215205147862 28.12666769628413,71.7601812116045 28.155961124110036,71.24820270226337 28.12666769628413,70.83221970064915 28.390308547765017,70.22424379811855 28.419601975590922,70.06424999225419 28.683242827188224,69.52027059320244 29.239817958325148,68.81629620006424 29.76709966128692,68.30431407692959 30.265087936422788,68.08032170042861 30.470141932251863,67.92032707211911 30.52872878802009,67.7923313252395 30.938836779328994,67.53633971369709 31.99340018548537,67.08835401549004 32.169160753139295,66.92835900661885 32.69644245621748,66.73636491497746 32.989376735757105,66.48037265532184 33.25301758735441,66.09638397119124 34.0732335698558,65.58439850903233 34.57122184499167,65.00841411293368 34.89344955247361,64.27243289342732 35.39143782760948,63.728445939923404 35.47931811143644,63.28045615123119 35.6843721071491,62.864465202379506 35.77225239085965,62.352475772524485 35.86013267468661,62.128480199258775 35.83083924697712,61.392493897350505 35.91871953068767,61.16849780851044 35.86013267468661,61.008500528521836 35.91871953068767,60.84850318718236 35.83083924697712,60.27251224999782 35.86013267468661,59.79251919462695 35.801545818918385,59.63252138678217 35.801545818918385,59.50452309628599 35.91871953068767,59.28052599335206 35.88942610274535,58.92853030280094 35.97730638657231,58.57653431512881 36.18236038228497,58.192538353352575 36.211653810110874,57.648543468880234 36.29953409405425,57.488544838444795 36.35812094982248,56.81654992001131 36.79752236919012,56.0485544015537 37.20763036038261,55.12055792968022 37.64703177975025,54.44855919521069 37.73491206357721,54.06455943224137 37.881379203288816,53.93655943268095 37.9985529150581,53.776559377933154 38.467247762251645,53.392558996070875 38.70159518579021,53.2645587901643 38.96523603738751,52.97655818331987 39.37534402858,52.208555592544144 39.40463745663874,52.048554874781985 39.668278308119625,51.6965530794987 39.814745447947644,51.31255078216782 39.96121258765925,51.1525497205439 40.13697315531317,50.54454512661323 40.37132057885174,50.16054176830221 40.78142857016064,49.71253740336397 41.16224313364364,49.4565346930176 41.25012341735419,49.29653291919385 41.16224313364364,49.10453070962103 40.8400154261617,48.91252841160167 40.89860228204634,48.656525210040854 41.07436284981668,48.46452270579175 41.132949705584906,48.24051967234118 41.338003701297566,48.11251788487425 41.25012341735419,47.88851466233609 41.27941684529651,47.696511804359034 41.01577599381562,47.344506335124606 41.01577599381562,47.184503750904696 41.77740512043238,46.256487551436294 41.835991976433434,45.96848210398457 42.070339399972,45.90448086647666 42.12892625585664,45.77647836194956 42.099632828030735,45.42447127168998 42.12892625585664,44.976461818034295 42.480447391280904,44.43244969137595 42.62691453099251,44.08044146647444 42.77338167082053,43.95243840193143 42.77338167082053,43.792434515984496 42.89055538258981,43.66443136299495 43.066315950243734,43.56842897247407 43.095609378186055,43.28042166825617 43.00772909447551,43.12041752439109 43.00772909447551,42.928412470791955 43.271369945956394,42.67240559493075 43.4471305134939,42.352396779169794 43.271369945956394,42.03238771777251 43.271369945956394,41.8723830950039 43.066315950243734,41.32836691814009 42.97843566641677,41.23236398966401 42.5976211031666,41.26436496828683 42.36327367951162,40.784350031462964 41.9531656880863,40.30433454189915 41.66023140877951,40.112328191287816 41.39659055718221,39.76031631894875 41.308710273355246,39.568309717898956 40.95718913793098,39.44030526804272 40.92789570998866,39.28029965044698 40.664254858507775,39.60031082420028 40.40061400691047,39.28029965044698 40.078386299544945,38.60827538598096 40.04909287148621,38.352265857422026 39.78545201988891,37.80824508733349 39.37534402858,37.93625003832858 39.40463745663874,37.77624384345836 39.316757172811776,37.58423632857739 39.19958346092608,37.488232538016746 39.17029003298376,37.3282261712302 38.70159518579021,37.23222232167609 38.84806232561823,36.97621194811654 39.053116321214475,36.78420406486839 39.19958346092608,36.52819341616123 39.492517740582116,36.40018803291605 39.72686516412068,36.14417714843876 40.107679727254435,36.33618532656692 40.488494290737435,36.208179884270066 40.57637457468081,36.40018803291605 41.39659055718221,35.76016052698833 41.25012341735419,36.752202742296504 40.9864825658733,36.78420406486839 41.132949705584906,36.97621194811654 41.308710273355246,37.07221585663501 41.045069421757944,37.552235067531 41.54305769689381,37.64823884339421 41.98245911614504,37.360227449506056 41.718818264547735,37.39222872524988 41.68952483672183,37.136218450032175 41.80669854849111,36.88020801759558 41.39659055718221,37.16821974303457 41.455177412950434,36.97621194811654 41.338003701297566,36.752202742296504 41.16224313364364,36.62419742785278 41.103656277642585,36.49619207406067 41.308710273355246,36.240181248576846 41.455177412950434,36.17617851760588 41.51376426895149,36.01617164729396 41.865285404375754,35.79216192557942 41.63093798072077,35.63215490791481 40.92789570998866,35.85616471551475 40.95718913793098,35.63215490791481 41.48447084100917,35.02412768040085 41.16224313364364,34.80011742573697 39.844038875889964,35.69615772232646 39.40463745663874,35.824163321754895 39.40463745663874,35.66415631628479 40.01979944354389,34.09608441303135 39.87333230371587,34.00007981917588 39.96121258765925,33.520056518231286 39.72686516412068,33.45605336970766 39.19958346092608,33.16803907969734 38.76018204179127,32.72001645513228 38.08643319888506,34.06408288414241 37.79349891934544,34.48010256732232 37.20763036038261,34.16008746327134 37.178336932556704,32.52800661159563 37.38339092815295,32.40000000002328 37.617738351691514,32.944027827645186 37.11975007655565,33.00803105477826 37.38339092815295,33.07203427210334 37.58844492374919,33.90407520325971 37.76420549151953,34.00007981917588 37.676325207576156,34.192088984767906 37.20763036038261,34.54410555862705 36.79752236919012,34.6081085401529 36.82681579713244,34.73611447372241 36.94398950878531,34.86412036791444 36.5045880896505,34.54410555862705 37.00257636490278,34.6081085401529 37.090456648613326,34.83211889807717 37.266217216383666,34.54410555862705 37.91067263134755,35.05612913556979 37.93996605905704,34.32009504601592 38.437954334309325,35.05612913556979 38.496541190193966,35.34414212117554 38.87735575356055,35.53615066775819 39.14099660504144,35.92016749558388 39.72686516412068,35.98417026581592 39.844038875889964,36.33618532656692 39.99050601560157,36.56019475590438 40.13697315531317,36.27218261035159 40.19556001119781,36.432189382379875 40.54708114662208,35.98417026581592 41.045069421757944,36.52819341616123 41.01577599381562,36.720201417425415 41.103656277642585,36.912209330213955 42.18751311174128,36.33618532656692 41.77740512043238,37.90424880426144 41.308710273355246,37.61623758714995 41.48447084100917,37.61623758714995 41.07436284981668,37.52023380403989 41.865285404375754,37.456231269577984 41.865285404375754,37.29622489048052 41.103656277642585,36.52819341616123 41.27941684529651,36.432189382379875 41.42588398512453,36.432189382379875 41.57235112483613,36.30418396965251 41.68952483672183,35.92016749558388 41.01577599381562,36.592196093086386 40.89860228204634,36.432189382379875 41.25012341735419,35.53615066775819 41.455177412950434,34.6081085401529 41.338003701297566,34.48010256732232 41.103656277642585,33.90407520325971 40.95718913793098,34.9921262228454 39.697571736061946,34.32009504601592 39.58039802440908,34.416099566209596 39.902625731774606,33.90407520325971 40.13697315531317,33.360048628470395 39.902625731774606,33.32804704309092 39.228876888984814,32.88002459061681 39.02382289315574,32.8480229684792 38.11572662682738,34.512104064255254 38.027846343116835,34.192088984767906 38.05713977094274,34.00007981917588 37.93996605905704,33.87207365958602 36.475294661708176,34.192088984767906 36.82681579713244,34.192088984767906" stroke="#4dd2ff" stroke-linecap="round" stroke-linejoin="round" stroke-width="0.5"><title>2024-09-07 3.9km</title><desc>12347863992</desc></polyline><polyline fill="none" points="117.67479702504352,32.399999999965075 117.82208700058982,34.33076425548643 117.45386206265539,36.422421519993804 117.38021707488224,41.24930697289528 116.0546072977595,45.91527512029279 115.39180240919814,47.121987640915904 113.99254764476791,48.48959348537028 113.84525766968727,49.13317208911758 113.40338774397969,49.69630304310704 112.66693786811084,49.85719754610909 111.93048799177632,50.58122250274755 111.56226305384189,51.06390552967787 109.13197846291587,52.431506232358515 108.17459362419322,53.31642338359961 106.55440389644355,53.87955209100619 106.03888898342848,53.959999024518766 104.12411930551752,55.08625544549432 103.82953935535625,55.408042772032786 101.76747970236465,56.85608451999724 100.81009486364201,57.90189120528521 100.29457995016128,58.14323106146185 99.92635501222685,58.62591060705017 98.37981027225032,62.889570277242456 98.52710024779662,64.17670941224787 98.30616528494284,65.22250879585044 98.37981027225032,66.26830713654635 99.55813007429242,67.957671483804 101.17831980157644,69.16435863659717 101.54654473951086,69.6470331089804 101.76747970236465,70.37104440102121 101.62018972728401,71.25594641215866 99.11626014858484,75.51955472683767 98.74803521065041,75.59999999997672 97.42242543352768,74.79554698965512 96.75962054496631,74.07153875264339 94.03475600341335,72.38218425551895 93.66653106547892,71.81906548509141 92.19363131374121,70.53193573124008 91.30989146232605,70.04926166619407 90.05792667297646,69.72747883276315 88.80596188362688,69.80792455025949 86.15474232984707,70.8537183177541 84.46090761525556,72.30173873552121 82.17791299941018,75.03688295761822 82.25155798671767,75.278218869993" stroke="#4dd2ff" stroke-linecap="round" stroke-linejoin="round" stroke-width="0.5"><title>2024-09-07 1.0km</title><desc>12347863766</desc></polyline><polyline fill="none" points="164.72090342408046,32.80755866551772 165.36045171227306,32.399999999965075 164.66760773351416,34.20490099902963 164.50772066158243,34.49601366138086 164.56101635214873,35.71868562226882 164.8274948054459,35.77690804749727 164.56101635214873,36.99957794358488 164.29453789885156,37.34891183767468 164.50772066158243,37.58180101099424 165.25386033090763,37.69824557076208 165.8401129283011,38.16402363148518 165.9467043094337,38.455134774092585 166.21318276273087,38.5715791999246 166.3197741440963,38.862690186011605 167.5455750292167,40.31824344123015 167.8120534827467,40.43468758097151 168.07853193604387,40.72579785232665 168.131827626843,41.191574053722434 168.45160177047364,41.71557193854824 168.3450103891082,42.18134753219783 168.71808022400364,42.47245713300072 168.77137591456994,42.18134753219783 169.25103713036515,42.93823226209497 169.67740265582688,43.287563421123195 170.74331646901555,43.69511623663129 170.90320354118012,43.98622525652172 170.90320354118012,44.39377769664861 171.06309061287902,44.684886448376346 172.12900442630053,44.801329917798284 172.3954828795977,45.907541985739954 172.6619613331277,46.198650156729855 172.92843978619203,46.37331500562141 172.60866564232856,46.60620140808169 171.75593459187075,48.00351832213346 171.86252597300336,48.35284714854788 172.07570873573422,48.46929005486891 171.96911735413596,48.81861866667168 171.32956906664185,49.45905403723009 170.37024663458578,51.03102947259322 169.99717679992318,51.32213567715371 169.73069834639318,52.195453620748594 169.4109242025297,52.544780516589526 169.25103713036515,53.476318119326606 168.2917146985419,54.291412583203055 168.131827626843,54.931843333353754 168.2384190079756,55.746936233423185 168.45160177047364,55.97981975832954 168.50489746127278,57.202457090781536 168.18512331717648,58.19220967864385 168.5581931520719,58.890857786813285 167.22580088535324,59.88060817186488 166.3197741440963,61.86010506807361 164.77419911464676,64.71290033258265 161.7363447472453,68.08966453693574 161.15009214985184,69.25406250177184 160.61713524302468,69.71982118714368 160.2440654085949,70.360238912981 160.03088264586404,71.23353494046023 159.817699883366,71.64107274264097 159.76440419256687,72.0486103259027 159.1248559046071,73.44588037801441 159.2314472857397,74.95958669710672 159.07156021380797,75.59999999997672" stroke="#4dd2ff" stroke-linecap="round" stroke-linejoin="round" stroke-width="0.5"><title>2024-09-07 1.0km</title><desc>12347864259</desc></polyline><polyline fill="none" points="23.84109589084983,103.2930376068689 25.419178081676364,105.23249899665825 26.208219178020954,105.66349023464136 28.378082192502916,107.6029499869328 31.139726027846336,108.68042704788968 33.90136986318976,108.89592241076753 36.07123287767172,109.9733989755623 43.7643835619092,118.80869120941497 53.82465753424913,112.55934104439802 55.60000000055879,109.11141775688156 55.60000000055879,108.89592241076753 53.430136987008154,107.6029499869328 54.021917808800936,106.30997696775012 50.07671232894063,100.06059897900559 28.180821917951107,92.5182277080603 27.78630136884749,91.65624112938531 15.16164383571595,84.11384727805853 16.936986302025616,88.63928602077067 22.26301369909197,94.02670358354226 24.432876711711287,95.75067501980811 24.630136986263096,91.44074444333091 25.419178081676364,89.07027980615385 26.208219178020954,89.07027980615385 26.997260274365544,90.57875753403641 27.983561643399298,92.94922089762986 28.180821917951107,94.02670358354226 25.419178081676364,90.79425428644754 26.799999999813735,88.63928602077067 26.405479452572763,90.3632607657928 26.799999999813735,91.87173779890873 32.717808219604194,100.49159101140685 33.50684931501746,102.86204600450583 36.07123287767172,100.70708700222895 35.87397260311991,96.18166771368124 35.479452054947615,97.47464539739303 35.87397260311991,98.12113401619717 35.6767123285681,99.41411080746911 36.46575342491269,101.13807893544436 36.860273972153664,104.15502061182633 38.438356164842844,107.81844543199986 41.791780821979046,113.20582618936896 47.1178082190454,105.87898582872003 49.87945205438882,116.86923919874243 50.471232877112925,117.08473393297754 52.04931506793946,120.74814188084565 52.24657534249127,120.53264742763713 50.07671232894063,97.6901416205801 46.13150685001165,91.65624112938531 42.58082191739231,89.71677036047913 32.717808219604194,88.20829216926359 37.05753424670547,87.77729825116694 38.83287671301514,89.28577667381614 39.22739726025611,91.22524774097838 40.410958904773,90.79425428644754 40.80547945201397,90.14776398031972 39.621917807497084,91.87173779890873 38.63561643846333,92.5182277080603 38.24109589122236,92.30273108789697 38.24109589122236,91.00975102232769 37.649315068498254,91.00975102232769 36.860273972153664,91.65624112938531 36.46575342491269,90.57875753403641 35.6767123285681,90.14776398031972 34.49315068498254,88.63928602077067 31.336986301466823,87.56180126755498 29.561643835157156,86.48431610059924 28.180821917951107,84.54484175844118 26.799999999813735,83.89835001341999 25.221917808055878,84.11384727805853 24.432876711711287,83.46735543338582 12.597260273993015,85.40683052060194 16.54246575385332,91.00975102232769 19.501369862817228,88.63928602077067 17.92328767105937,90.57875753403641 17.528767123818398,90.3632607657928 17.528767123818398,89.71677036047913 18.317808219231665,88.42378910304978 18.120547944679856,86.05332191847265 18.515068493783474,83.89835001341999 18.909589041024446,83.25185811915435 20.290410959161818,83.25185811915435 20.09315068461001,86.48431610059924 18.909589041024446,88.85478292219341 18.317808219231665,89.28577667381614 17.72602739650756,92.94922089762986 18.317808219231665,94.02670358354226 20.8821917809546,95.53517864807509 21.276712329126894,96.18166771368124 21.868493150919676,102.6465501789935 22.26301369909197,102.86204600450583 22.657534246332943,104.37051632185467 22.657534246332943,102.6465501789935 21.868493150919676,101.78456671047024 18.120547944679856,99.84510293835774 18.71232876740396,102.00006260233931 21.473972603678703,98.33663018955849 21.868493150919676,99.84510293835774 22.460273972712457,97.47464539739303 25.616438356228173,90.3632607657928 27.78630136884749,94.02670358354226 30.94246575422585,86.05332191847265 31.336986301466823,89.50127352541313 34.49315068498254,90.14776398031972 35.282191780395806,91.22524774097838 35.87397260311991,94.88868943392299 35.479452054947615,95.31968225981109 35.282191780395806,97.6901416205801 35.87397260311991,98.98311860999092 37.05753424670547,110.83537992974743 37.25479452032596,110.61988471611403 37.25479452032596,110.83537992974743 39.030136986635625,108.89592241076753 41.200000000186265,107.6029499869328 41.200000000186265,108.24943627300672 43.369863014668226,107.17195904650725 43.369863014668226,108.68042704788968 43.961643835529685,108.89592241076753 43.961643835529685,109.3269130862318 42.97534246556461,115.14528073067777 50.27397260349244,109.9733989755623 49.28767123259604,113.85231118509546 44.75068493094295,116.0072600969579 44.55342465825379,116.43824968114495 46.32876712363213,116.22275489731692 48.10410958901048,115.36077559739351 52.04931506793946,116.22275489731692 52.24657534249127,116.65374444774352 51.852054794318974,117.08473393297754 51.457534247078,115.36077559739351 51.063013698905706,115.14528073067777 49.09041095897555,119.6706694511231 48.10410958901048,115.79176528030075 47.31506849266589,115.14528073067777 46.920547945424914,115.36077559739351 45.73698630183935,114.71429094858468 44.15890410915017,118.37770198984072 41.59452054835856,118.59319660789333 40.80547945201397,117.73121803579852 40.410958904773,116.86923919874243 43.369863014668226,115.57627044711262 52.24657534249127,112.55934104439802 51.65479452069849,106.52547251200303 52.641095890663564,109.9733989755623 53.232876712456346,109.3269130862318 47.31506849266589,109.54240839951672 46.920547945424914,108.89592241076753 46.920547945424914,113.42132120439783 45.14520547911525,110.40438948571682 47.1178082190454,108.46493166894652 47.90684931538999,106.52547251200303 52.443835616111755,104.15502061182633 51.65479452069849,100.49159101140685 48.49863013718277,98.76762248645537 47.31506849266589,97.6901416205801 34.88767123315483,100.49159101140685 34.690410958603024,98.98311860999092 35.87397260311991,97.47464539739303 38.24109589122236,91.87173779890873 38.24109589122236,91.22524774097838 40.60821917839348,89.07027980615385 39.42465753480792,88.42378910304978 35.08493150677532,88.42378910304978 26.208219178020954,98.98311860999092 24.827397260814905,100.06059897900559 24.038356164470315,94.67319299606606 22.85479451995343,92.94922089762986 18.71232876740396,91.00975102232769 18.317808219231665,91.22524774097838 18.120547944679856,93.8112070793286 16.739726027473807,92.08723445166834 16.147945205681026,86.69981316733174 17.13424657471478,86.91531021730043 19.501369862817228,88.42378910304978 20.487671232782304,88.63928602077067 20.68493150640279,88.20829216926359 21.276712329126894,89.07027980615385 18.909589041024446,88.42378910304978 19.501369862817228,88.63928602077067 17.13424657471478,95.31968225981109 15.753424657508731,95.75067501980811 19.106849315576255,90.79425428644754 15.556164382956922,94.45769654191099 12.400000000372529,92.5182277080603 15.950684931129217,98.98311860999092 16.936986302025616,99.41411080746911 20.487671232782304,102.86204600450583 20.290410959161818,103.7240291419439 18.317808219231665,100.06059897900559 18.71232876740396,101.56907080160454 19.30410958919674,101.35357487713918 20.487671232782304,99.62960688094608 20.290410959161818,100.70708700222895 21.079452054575086,101.13807893544436 23.446575342677534,103.7240291419439 26.208219178020954,104.15502061182633 37.649315068498254,111.05087512708269 38.63561643846333,109.54240839951672 47.31506849266589,118.37770198984072 46.52602739725262,115.79176528030075 48.89315068535507,109.54240839951672 50.8657534243539,109.11141775688156 51.852054794318974,107.81844543199986 52.641095890663564,109.54240839951672 53.03561643976718,104.58601201558486 53.62739726062864,103.7240291419439 44.94794520549476,101.56907080160454 39.621917807497084,91.00975102232769 35.282191780395806,91.87173779890873 33.90136986318976,90.79425428644754 33.11232876777649,89.28577667381614 32.520547945052385,91.22524774097838 32.520547945052385,90.3632607657928 30.350684931501746,92.08723445166834 25.616438356228173,94.45769654191099 26.405479452572763,91.00975102232769 26.799999999813735,90.14776398031972 22.26301369909197,93.38021402177401 22.460273972712457,92.73372431099415 20.487671232782304,94.67319299606606 20.290410959161818,94.02670358354226 17.92328767105937,91.87173779890873 16.345205480232835,94.88868943392299 16.147945205681026,94.45769654191099 16.345205480232835,94.02670358354226 17.13424657471478,93.16471746866591 14.767123287543654,88.63928602077067 14.569863013923168,88.20829216926359 15.358904109336436,88.63928602077067 15.358904109336436,88.85478292219341 14.569863013923168,87.99279521824792 16.54246575385332,87.99279521824792 17.92328767105937,88.42378910304978 18.71232876740396,90.3632607657928 19.106849315576255,94.02670358354226 19.895890410989523,92.94922089762986 20.290410959161818,93.38021402177401 21.473972603678703,100.92258297745138 20.8821917809546,101.78456671047024 18.120547944679856,100.27609500358813 18.317808219231665,100.92258297745138 20.290410959161818,96.18166771368124 19.501369862817228,102.00006260233931 22.657534246332943,92.08723445166834 23.249315068125725,95.53517864807509 23.249315068125725,96.61266034119762 25.616438356228173,101.56907080160454 28.575342466123402,105.23249899665825 30.350684931501746,105.87898582872003 31.336986301466823,106.52547251200303 31.336986301466823,109.75790369557217 31.928767123259604,109.9733989755623 33.90136986318976,107.38745452533476 33.50684931501746,109.9733989755623 36.860273972153664,111.05087512708269 35.479452054947615,108.68042704788968 36.66301369853318,109.3269130862318 40.21369863022119,105.01700335252099 42.97534246556461,106.09448140626773 43.7643835619092,105.66349023464136 45.34246575366706,109.11141775688156 45.34246575366706,109.9733989755623 48.89315068535507,104.80150769255124 49.09041095897555,105.66349023464136 47.1178082190454,111.91285575041547 47.1178082190454,112.99033115734346 46.52602739725262,113.63681620289572 48.69589041080326,110.40438948571682 48.69589041080326,111.69736061943695 48.10410958901048,113.42132120439783 49.09041095897555,115.57627044711262 46.32876712363213,116.65374444774352 46.920547945424914,117.08473393297754 50.27397260349244,116.0072600969579 50.8657534243539,116.43824968114495 48.69589041080326,117.94671270344406 43.7643835619092,111.48186547169462 45.539726028218865,108.46493166894652 46.13150685001165,106.30997696775012 48.69589041080326,106.95646355184726 51.457534247078,109.11141775688156 45.73698630183935,112.34384596254677 46.920547945424914,109.3269130862318 48.301369863562286,108.46493166894652 50.66849315073341,100.49159101140685 40.21369863022119,96.61266034119762 40.0164383566007,95.96617137501016 35.282191780395806,98.76762248645537 34.690410958603024,98.76762248645537 34.49315068498254,97.90563782653771 35.282191780395806,93.16471746866591 23.05205479450524,92.5182277080603 21.868493150919676,88.42378910304978 21.868493150919676,87.99279521824792 21.473972603678703,87.56180126755498 22.85479451995343,87.56180126755498" stroke="#4dd2ff" stroke-linecap="round" stroke-linejoin="round" stroke-width="0.5"><title>2024-09-06 5.1km</title><desc>12338457346</desc></polyline><polyline fill="none" points="87.28224299196154,88.54766080598347 86.47476635687053,89.65031967475079 87.08037383295596,92.95829374203458 83.6485981317237,92.95829374203458 83.24485981464386,94.28148230258375 84.85981308482587,97.36891990643926 86.67663551494479,100.01529235462658 86.67663551494479,101.11794682242908 87.68598130904138,102.88219308969565 89.30093458015472,104.86696884618141 92.3289719633758,107.29280401882716 98.78878504782915,108.83651624433696 100.00000000186265,109.49810694414191 102.42242990806699,112.58552819560282 103.43177570216358,113.02658810350113 107.46915888041258,118.0987721781712 111.70841121580452,120.96565486793406 114.33271028194577,121.84777204296552 117.7644859822467,121.62724277493544 118.77383177634329,122.06830129446462 118.16822430025786,120.96565486793406 119.37943925336003,116.99612422799692 118.37009345926344,112.36499821627513 119.98504673037678,109.27757672779262 116.95700934622437,111.70340817654505 115.94766355212778,109.49810694414191 118.16822430025786,110.60075777210295 117.56261682324111,109.05704649467953 118.97570093628019,105.5285604596138 121.6000000005588,108.83651624433696 117.7644859822467,104.86696884618141 117.56261682324111,103.32325448747724 114.93831775803119,100.23582328250632 112.31401869188994,93.61988809867762 102.82616822607815,86.78340573562309 105.24859813135117,88.98872440401465 103.229906543158,87.88606528216042 105.24859813135117,90.97350975894369 94.14579439349473,94.94307635375299 92.12710280437022,92.73776225559413 92.12710280437022,91.41457298444584 88.29158878605813,85.90127779450268 86.27289719693363,84.13702109828591 85.46542056184262,81.93169870553538 82.23551401961595,82.15223102108575 80.62056074943393,82.81382786622271 79.40934579540044,82.59329560119659 78.80373831931502,83.69595675566234 79.61121495440602,84.35755324503407 79.40934579540044,85.90127779450268 81.42803738452494,88.10659714019857 81.62990654353052,88.98872440401465 84.85981308482587,93.84041951666586 80.41869159042835,87.88606528216042 80.8224299075082,89.65031967475079 82.03364486154169,87.2244696051348 83.44672897271812,90.53244646498933 80.21682243049145,87.00393767864443 88.08971962705255,94.72254502028227 89.90654205717146,88.10659714019857 92.12710280437022,93.61988809867762 90.51214953325689,91.41457298444584 90.91588785126805,92.51723075308837 90.91588785126805,88.76819261396304 90.7140186931938,90.09138310444541 100.00000000186265,96.26626400020905 100.20186915900558,97.58945103711449 100.00000000186265,98.91263746423647 101.00934579595923,103.98484645714052 103.83551402017474,109.27757672779262 105.24859813135117,111.04181798454374 105.85420560836792,112.58552819560282 106.0560747673735,113.68817783845589 111.70841121580452,106.19015192147344 115.54392523411661,103.76431581727229 116.14953271206468,107.73386473930441 115.14018691703677,108.17492539202794 114.53457944002002,116.99612422799692 116.14953271206468,117.65771304862574 113.9289719639346,119.4219491595868 116.95700934622437,120.52459617890418 115.14018691703677,117.65771304862574 114.73644859902561,115.89347585476935 116.14953271206468,114.3497674211394 116.35140187013894,112.80605815839954 117.7644859822467,110.38022764003836 119.58130841236562,111.70340817654505 115.14018691703677,107.9543950741645 114.33271028194577,105.7490909639746 113.12149532791227,105.5285604596138 112.31401869188994,107.29280401882716 111.9102803748101,104.20537707977928 114.73644859902561,96.70732641336508 112.11214953381568,94.0609509178903 111.10280373971909,91.85563614265993 110.29532710462809,90.53244646498933 106.45981308538467,88.54766080598347 104.84485981334001,88.3271289812401 103.63364486116916,87.2244696051348 98.78878504782915,88.3271289812401 97.77943925373256,88.10659714019857 96.97196261771023,87.66553340665996 97.98130841180682,89.65031967475079 99.19252336584032,87.88606528216042 100.40373831894249,87.00393767864443 101.61495327204466,87.00393767864443 102.62429906614125,87.88606528216042 103.63364486116916,90.09138310444541 104.64299065619707,90.09138310444541 104.03738317918032,91.19404137996025 102.42242990806699,91.19404137996025 102.42242990806699,90.31191479298286 101.41308411303908,90.97350975894369 100.80747663602233,89.87085139798 98.78878504782915,87.88606528216042 97.17383177764714,87.2244696051348 95.96261682361364,87.00393767864443 91.11775701027364,83.03436011378653 89.70467289816588,83.25489234458655 88.49345794599503,82.59329560119659 83.6485981317237,87.88606528216042 81.42803738452494,89.87085139798 82.63925233762711,82.81382786622271 84.05233644973487,82.37276331940666 84.05233644973487,84.79861748637632 82.43738317862153,88.3271289812401 81.62990654353052,92.73776225559413 83.24485981464386,94.0609509178903 84.85981308482587,94.94307635375299 86.07102803885937,102.22060086624697 86.67663551494479,103.54378516087309 86.47476635687053,102.22060086624697 82.23551401961595,99.57423044950701 82.23551401961595,100.67688508634456 83.8504672916606,100.23582328250632 85.26355140283704,97.80998215032741 85.86915887892246,99.57423044950701 90.51214953325689,90.97350975894369 91.72336448729038,93.39935666299425 95.35700934752822,87.2244696051348 99.3943925248459,90.53244646498933 100.20186915900558,94.50201366981491 99.79813084192574,95.38413897063583 99.59626168385148,97.14838875900023 100.00000000186265,98.03051324747503 101.41308411303908,110.38022764003836 103.43177570216358,108.39545569312759 105.65233645029366,107.29280401882716 107.87289719749242,107.07227363320999 107.87289719749242,108.39545569312759 108.27663551457226,109.49810694414191 107.46915888041258,113.46764794364572 107.67102803755552,114.57029724819586 114.73644859902561,109.49810694414191 113.72710280492902,114.3497674211394 112.51588785182685,114.79082705802284 116.55327102914453,116.114005563315 113.9289719639346,118.53983123926446 112.71775701083243,115.89347585476935 110.09345794469118,114.57029724819586 104.84485981334001,117.21665385202505 116.35140187013894,106.19015192147344 117.36074766423553,109.71863714326173 118.37009345926344,108.83651624433696 111.70841121580452,108.83651624433696 109.68971962761134,110.15969749144278 111.9102803748101,107.51333438721485 116.55327102914453,100.01529235462658 113.12149532791227,98.25104432692751 112.11214953381568,97.36891990643926 98.99065420683473,98.69210643554106 100.40373831894249,96.48679521563463 101.61495327204466,92.07616769638844 104.84485981334001,88.10659714019857 103.43177570216358,87.66553340665996 99.3943925248459,87.66553340665996 87.88785046897829,94.72254502028227 87.48411215096712,92.95829374203458 82.23551401961595,90.09138310444541 81.83177570160478,92.95829374203458 80.62056074943393,91.41457298444584 80.01495327241719,85.90127779450268 83.6485981317237,87.66553340665996 84.65794392675161,87.66553340665996 85.26355140283704,88.54766080598347 83.44672897271812,87.88606528216042 83.04299065470695,89.87085139798 79.61121495440602,94.28148230258375 80.8224299075082,98.91263746423647 81.42803738452494,99.79476141091436 84.45607476774603,102.66166236600839 82.23551401961595,99.35369947110303 82.63925233762711,101.11794682242908 84.65794392675161,98.91263746423647 84.25420560874045,100.01529235462658 87.08037383295596,103.1027237966191 89.90654205717146,103.76431581727229 90.91588785126805,103.54378516087309 92.3289719633758,104.20537707977928 93.5401869174093,106.41068237507716 95.35700934752822,107.73386473930441 99.19252336584032,105.5285604596138 100.60560747794807,109.9391673260834 101.61495327204466,110.60075777210295 104.03738317918032,105.3080299384892 103.43177570216358,102.44113162485883 102.82616822607815,109.27757672779262 105.04672897327691,107.51333438721485 104.64299065619707,104.20537707977928 102.82616822607815,100.23582328250632 104.03738317918032,106.41068237507716 106.0560747673735,110.15969749144278 109.2859813105315,111.70340817654505 109.8915887856856,113.02658810350113 109.8915887856856,117.21665385202505 110.09345794469118,118.31930171721615 111.10280373971909,118.76036074501462 113.32336448691785,117.21665385202505 112.31401869188994,119.4219491595868 111.10280373971909,115.67294612899423 107.06542056240141,116.114005563315 112.71775701083243,110.82128788670525 114.13084112200886,109.05704649467953 115.54392523411661,108.83651624433696 116.35140187013894,107.51333438721485 117.15887850616127,108.6159859772306 117.9663551421836,103.76431581727229 115.14018691703677,104.20537707977928 112.91962616890669,103.76431581727229 116.35140187013894,101.77953929966316 110.69906542170793,100.67688508634456 109.68971962761134,101.3384776650928 109.08411215059459,100.45635419292375 108.074766356498,97.58945103711449 108.27663551457226,96.48679521563463 103.63364486116916,89.87085139798 102.2205607490614,89.87085139798 101.41308411303908,89.20925617823377 99.59626168385148,91.19404137996025 97.3757009357214,89.20925617823377 94.34766355250031,91.41457298444584 90.10841121617705,91.85563614265993 91.11775701027364,88.98872440401465 84.25420560874045,93.84041951666586 81.83177570160478,91.41457298444584 80.21682243049145,94.28148230258375 80.62056074943393,92.73776225559413 78.40000000037253,87.88606528216042 79.61121495440602,87.2244696051348 82.43738317862153,87.88606528216042 85.46542056184262,100.45635419292375 84.85981308482587,101.3384776650928 82.43738317862153,100.23582328250632 84.05233644973487,95.60467025311664 83.44672897271812,101.77953929966316 87.28224299196154,95.16360767069273 87.28224299196154,96.70732641336508 90.31028037518263,102.22060086624697 92.53084112331271,104.86696884618141 95.76074766460806,106.19015192147344 95.35700934752822,109.71863714326173 101.2112149540335,110.82128788670525 99.79813084192574,108.17492539202794 100.80747663602233,108.83651624433696 104.64299065619707,104.6464382740669 108.27663551457226,104.86696884618141 109.68971962761134,109.27757672779262 111.30467289779335,105.7490909639746 113.9289719639346,104.6464382740669 111.30467289779335,113.24711803183891 113.32336448691785,110.15969749144278 112.51588785182685,113.46764794364572 113.32336448691785,114.57029724819586 110.69906542170793,116.5550649294164 114.93831775803119,115.89347585476935 113.32336448691785,117.87824262143113 109.08411215059459,116.99612422799692 106.86355140339583,115.45241638668813 107.26728972047567,112.80605815839954 110.49719626270235,107.29280401882716 110.69906542170793,105.96962145110592 112.51588785182685,106.85174323082902 109.8915887856856,112.80605815839954 111.50654205773026,109.05704649467953 112.91962616890669,108.17492539202794 113.52523364592344,106.63121281098574 113.12149532791227,102.0000700915698 113.72710280492902,100.23582328250632 112.71775701083243,95.16360767069273 109.48785046767443,102.0000700915698 106.66168224345893,103.32325448747724 105.45046729035676,98.47157538961619 104.64299065619707,96.48679521563463 98.78878504782915,97.36891990643926 98.78878504782915,93.61988809867762 99.3943925248459,92.73776225559413 99.59626168385148,90.75297812046483 99.79813084192574,92.95829374203458 97.57757009472698,94.72254502028227 95.15514018759131,91.63510457240045 95.55887850560248,89.65031967475079 91.5214953282848,94.72254502028227 91.31962616927922,93.39935666299425 87.48411215096712,93.84041951666586 85.46542056184262,87.00393767864443" stroke="#4dd2ff" stroke-linecap="round" stroke-linejoin="round" stroke-width="0.5"><title>2024-09-06 5.5km</title><desc>12338478213</desc></polyline><polyline fill="none" points="162.87252921180334,123.5680726095743 162.8140718138311,123.60000000000582 162.69715701800305,123.53614521661075 162.72638571693096,123.44036302308086 162.84330051275901,123.34458080757759 162.8140718138311,123.15301631044713 162.6094709211029,122.9933791620715 162.52178482431918,122.9933791620715 162.1710404367186,122.61024975616601 161.96643954422325,122.48253987592761 161.9079821461346,122.29097498199553 161.84952474827878,122.25904749106849 161.96643954422325,122.35482995639904 159.89120191847906,120.59881458923337 158.78051135805435,120.21568297903286 159.5989149287343,119.13014150140225 159.68660102563445,118.93857506432687 159.92043061729055,118.68315301110852 158.57591046544258,116.44820335839177 158.54668176651467,116.2566356867901 158.60513916437048,115.13915584504139 159.18971314339433,114.14938547930797 161.1772646723548,112.23369421300595 161.381865565083,112.16983768556383 162.02489694207907,111.85055490149534 164.15859196567908,110.34992253471864 164.48010765423533,110.15835205587791 164.77239464374725,109.96678148879437 164.94776683754753,109.6794254728593 165.0939103323035,109.29628380958457 165.3569686228875,109.10471284564119 165.5323408166878,108.7215706531133 165.73694170929957,108.62578504995327 165.88308520417195,107.79564223162015 166.2338295915397,107.22092700260691 166.2630582904676,106.99742642141064 166.20460089261178,106.80585439919378 166.2338295915397,106.71006835496519 166.35074438736774,103.38947185705183 166.43843048415147,103.19789817367564 167.4029775497038,100.03691966328188 168.74749770155177,98.12116342407535 170.32584744505584,95.31137165013934 171.46576670440845,93.84260930717574 171.46576670440845,92.75699902535416 171.29039451072458,91.89489472474088 172.7226007595891,89.30857110396028 172.6933720605448,89.2127810314123 173.45331823336892,88.159088778164 172.92720165208448,87.61627657580539 172.83951555530075,87.23311459482647 172.83951555530075,86.59451050887583 172.7518294584006,86.5306500462757 172.43031376996078,85.5088813128823 172.19648417830467,85.41309036544408 171.72882499499246,84.93413529740064 171.64113889809232,84.96606565240654 171.0565649191849,84.71062274358701 171.14425101596862,84.74255311579327 171.02733622014057,84.5190404590976 170.6181344348006,83.27375345895416 169.2736142828362,81.9965321503987 169.56590127234813,81.83687921107048 169.56590127234813,81.7091568155156 169.36130037973635,81.35792002553353 169.41975777759217,81.23019748291699 169.59512997127604,81.19826684118016 169.53667257342022,81.1024749010976 169.56590127234813,80.97475227998802 169.18592818593606,80.68737623927882 169.15669948700815,80.39999999999418 169.21515688486397,80.43193070305279 169.18592818593606,80.46386140372488 169.21515688486397,80.43193070305279" stroke="#4dd2ff" stroke-linecap="round" stroke-linejoin="round" stroke-width="0.5"><title>2024-09-05 1.9km</title><desc>12331486698</desc></polyline><polyline fill="none" points="31.973042301717214,129.0326702860184 32.24881885945797,128.9422888790141 32.00061995757278,128.46025435687625 32.02819761342835,128.39999999999418 30.814780760090798,131.50308735124418 30.73204779275693,131.59346816854668 30.73204779275693,131.71397589248954 30.89751372730825,132.1658795280091 31.00782435038127,132.28638707622304 31.062979661859572,132.28638707622304 31.14571262919344,132.34664083650569 31.283600907889195,132.34664083650569 31.531799809774384,132.43702145956922 33.07614853209816,134.15424934288603 33.18645915517118,134.5458967552986 33.24161446664948,134.5157700451673 33.4622357126791,134.63627687189728 33.489813368418254,134.72665696774493 33.931055860593915,134.81703704275424 34.04136648355052,134.9676704547892 34.15167710662354,135.29906375778955 34.15167710662354,135.570203524956 34.20683241810184,135.6304567810439 34.12409945088439,135.69071002793498 34.34472069691401,135.96184952449403 34.28956538543571,136.89577302342514 36.74397674773354,139.9084143260552 36.82670971506741,140.1192983513174 36.93702033802401,140.26992972855805 38.61925733927637,142.64989781731856 38.86745624116156,142.83065429780982 39.7223635695409,143.10178886240465 39.97056247130968,143.37292323971633 42.42497383360751,147.43991642721812 42.42497383360751,147.74117350569577 43.33503647369798,150.39222582775983 43.61081303108949,150.6633551697596 44.13478849059902,155.69427676638588 43.9141672445694,155.84490216747508 42.75590570271015,157.290903078072 42.23193024343345,158.49589976872085 41.84584306285251,158.977897409437 41.570066505111754,159.218896007922 41.34944525908213,159.2791456344421 38.61925733927637,159.82139185693813 37.35068517446052,161.20712880109204 37.32310751860496,161.35775208723499 36.10969066538382,164.24970797725837 35.916647074976936,164.34008125562104 33.903478204854764,167.051269934047 32.00061995757278,168.28636079235002 29.987451087334193,171.26863733760547 29.60136390675325,171.53975226401235 29.435897972318344,171.60000000000582 25.74049210094381,169.28045549066155 23.975522132357582,170.9372743954009 23.92036682087928,170.90715047775302 23.86521150940098,171.0276461346657" stroke="#4dd2ff" stroke-linecap="round" stroke-linejoin="round" stroke-width="0.5"><title>2024-09-05 2.3km</title><desc>12331294784</desc></polyline><polyline fill="none" points="78.39999999990687,148.0336016479414 78.55824175826274,148.0336016479414 78.47912087896839,147.99038394587114 78.55824175826274,147.99038394587114 81.6439560437575,148.24969010899076 81.48571428540163,148.2929077912413 81.60439560422674,148.12003704236122 81.76263736258261,148.16325473453617 82.27692307694815,148.16325473453617 82.51428571413271,148.07681934686843 83.14725274732336,148.2929077912413 83.38461538474075,148.2929077912413 91.65274725249037,149.80552458003513 91.96923076920211,149.93517725839047 99.05054945033044,149.9783948113618 99.32747252727859,149.89195970230503 103.046153845964,150.8427451720636 103.12527472502552,150.8427451720636 103.83736263727769,150.10804745010682 110.00879120873287,151.66387678557658 112.93626373610459,152.00961605412886 119.66153846145608,151.3613547515415 120.29450549418107,151.40457219499513 121.28351648338139,151.2749198548263 121.36263736244291,151.3613547515415 121.5999999998603,151.31813730482827" stroke="#4dd2ff" stroke-linecap="round" stroke-linejoin="round" stroke-width="0.5"><title>2024-09-05 1.2km</title><desc>12326195421</desc></polyline><polyline fill="none" points="187.59999999962747,150.16530343930935 182.00140105001628,150.99181034282083 180.56392294168472,150.74385833839187 178.89947460545227,152.06626836879877 173.60350262653083,149.4214466838166 173.30087565630674,149.91735124454135 173.07390542840585,150.08265271410346 171.10683012194932,150.66120765765663 170.04763572616503,149.91735124454135 171.3338003498502,150.66120765765663 171.03117337962613,150.74385833839187 159.3043782832101,149.83470050041797 158.09387040231377,149.09084351646015 157.7912434320897,148.59493857482448 156.42942206608132,148.01638252125122 146.4427320486866,148.51228772918694 144.39999999990687,147.93373163114302" stroke="#4dd2ff" stroke-linecap="round" stroke-linejoin="round" stroke-width="0.5"><title>2024-09-04 1.0km</title><desc>12324130724</desc></polyline><polyline fill="none" points="31.532079736003652,177.54377811640734 31.891049956087954,177.83789199253079 32.45941947144456,178.1646849499666 33.59615850215778,179.5698918083508 33.98504290753044,179.43917508699815 34.10469964751974,179.79864597434062 34.074785462464206,179.9620417318365 34.4935840528924,180.6483032288088 35.002125198137946,181.138489335106 35.361095418338664,181.75939092619228 35.74997982359491,181.8901069353451 35.92946493369527,181.8901069353451 36.408091893885285,182.18421780897188 36.49783444905188,182.38029161188751 36.55766281904653,182.64172320862417 36.82689048408065,182.9031546449114 37.30551744461991,183.22994371448294 37.215774889453314,183.45869591386872 37.155946519458666,183.88352110114647 37.245689074508846,184.07959412154742 37.51491673954297,184.4063822881144 38.32259973522741,184.86388530008844 38.50208484532777,185.05995786900166 39.04054017562885,186.36710602094536 39.668738060980104,187.118714391283 40.17727920622565,187.3474645015085 40.35676431644242,188.0010355678678 41.28410405199975,188.58924866988673 41.67298845737241,188.78531952333287 41.88238775229547,188.94871183219948 42.27127215755172,189.63495884486474 42.839641673024744,190.28852640013793 43.34818281827029,191.2035192923213 43.796895593521185,192.11851021822076 44.185779998777434,192.7393957983004 44.54475021909457,193.09885545718134 44.6045785889728,193.32760235480964 44.634492774144746,193.78509578149533 44.96354880928993,194.66740314493654 45.41226158454083,195.4843527773628 45.77123180474155,196.30130084248958 45.92080272990279,196.7587910744769 46.30968713504262,197.54305889998795 46.63874317018781,198.4253584772814 46.967799205565825,199.53639978915453 46.93788502051029,200.51672795120976 46.848142465460114,200.90885858418187 46.249858765047975,202.44470008678036 45.89088854484726,202.9348611025198 45.442175769479945,203.2616347996227 45.262690659496,203.52305357673322 45.05329136434011,204.0785679453984 44.36526510887779,205.38565771913272 43.587496298365295,205.97384680857067 43.25844026322011,206.1372325225384 42.86955585796386,206.2025867906341 41.91230193746742,206.1372325225384 40.53624942654278,206.5293579805002 40.02770828129724,206.95416015243973 39.459338765824214,207.67305517045315 39.04054017562885,208.52265680921846 38.980711805517785,209.50296428642469 38.74139832542278,210.35256227481295 38.17302881006617,211.20215856848517 37.8738869598601,211.56160264406935 37.126032334403135,211.95372310790117 36.82689048408065,212.2151365498721 36.25852096884046,212.99937591320486 36.10895004379563,213.32614188842126 36.0790358587401,213.58755448801094 35.690151453600265,214.20840876924922 35.54058052843902,214.33911481834366 35.42092378833331,214.53517381686834 35.24143867823295,214.7639092010504 34.79272590286564,215.09067382256035 34.284184757620096,215.22137960093096 33.53633013216313,215.77687871162198 32.608990396605805,217.3453428785433 32.399591101449914,217.47604796505766 32.220105991349556,217.73745801780024 31.861135771265253,217.96619168235338 31.5919081059983,218.3256300499488 31.113281145575456,219.1425343027804 30.724396740435623,219.43661945027998 30.215855595190078,219.60000000000582 29.767142819822766,219.56732389511308 29.168859119410627,219.1425343027804 28.869717269320972,218.81577278964687 28.660317974165082,218.71774428681238 28.2415193838533,218.19492522403016 27.25435127830133,217.27999032021035 26.715895948000252,217.01857998670312 26.476582467905246,217.01857998670312 26.117612247588113,217.41069542680634 25.878298767493106,217.96619168235338 25.070615771925077,218.5543633986672 24.950959031819366,218.7504204569559 24.980873216758482,219.10985816273023 25.130444141919725,219.20788657531375 25.75864202727098,218.71774428681238 25.698813657392748,218.5543633986672 25.54924273234792,218.48901102581294 23.72447744605597,216.8225221312896 21.510827754740603,214.95996800396824 21.032200794434175,215.3520853391674 21.032200794434175,215.51546745572705 21.181771719595417,215.6461731037125 21.57065612473525,215.4174381933408 21.57065612473525,215.2540560392663 21.15185753442347,215.1233502708783 21.92962634493597,214.4044678278442 21.9595405299915,214.17573225061642 21.86979797494132,213.8162903811026 22.916794450604357,213.91432001197245 23.00653700577095,213.71826072767726 23.00653700577095,213.42417163203936 22.55782423040364,213.16275893209968 22.318510750192218,212.80331620771904 22.109111455152743,212.63993305093027 21.690312864840962,212.47654983145185 21.45099938462954,212.182459878386 21.480913569568656,211.95372310790117 21.361256829695776,211.7576629211253 21.361256829695776,211.23483531514648 21.271514274645597,210.97342127151205 21.301428459468298,210.58129990525777 21.391171014634892,210.48326950724004 21.45099938462954,210.0584708552342 21.92962634493597,209.2088722801127 22.318510750192218,208.65336460320395 23.036451190593652,208.09785620166804 23.903962556272745,207.50967004563427 24.741559736663476,207.0195142950979 25.130444141919725,206.88880599968252 26.17744061758276,206.30061817387468 27.643235683557577,204.89549952413654 28.091948458808474,204.37266349425772 28.54066123405937,203.6864402310166 28.989374009310268,202.6080871547165 29.198773304582573,201.79115118819755 29.198773304582573,201.33366636239225 29.288515859632753,201.0395687148848 29.168859119410627,199.30765622662148 29.348344229510985,198.39268074781285 29.61757189477794,197.5757366947073 29.677400264772587,196.92218032386154 29.91671374498401,196.23594505499932 30.006456299917772,196.0398776321963 30.215855595190078,195.45167482216493 30.724396740435623,194.50401303035324 30.784225110546686,194.24258871664642 31.29276625579223,193.39295858878177 32.30984854628332,192.34725764251198 32.66881876660045,191.8570844400383 33.44658757711295,190.48459647109848 33.89530035248026,189.50424521343666 34.643154977820814,188.75264105404494 34.643154977820814,188.58924866988673 34.34401312773116,188.1971066922415 34.284184757620096,188.0010355678678 34.583326607826166,187.674250160082 34.61324079276528,187.47817879507784 34.553412422770634,187.2167501678632 34.31409894267563,186.8899641581811 34.31409894267563,186.69389243194018 34.762811717926525,186.2690700487874 35.33118123328313,185.1253153718426 35.510666343499906,184.50441868923372 35.98929330368992,183.62209026684286 36.288435154012404,183.16458592063282 36.55766281904653,182.96851247886661 36.67731955915224,182.77243894687854 36.55766281904653,182.38029161188751 36.82689048408065,181.8901069353451 36.97646140924189,181.6613538931706 36.946547224302776,181.4326007279451 36.67731955915224,181.105810278852 36.58757700398564,180.87705681528314 36.46792026399635,180.6483032288088 36.0790358587401,180.58294503868092 35.809808193473145,180.19079568708548 35.66023726854473,179.79864597434062 35.57049471337814,179.6679293231282 35.72006563853938,179.21042072793352 35.45083797350526,179.24309992956114 34.972211013082415,179.01434546516975 33.98504290753044,178.1646849499666 33.68590105720796,177.70717473930563 33.47650176216848,177.60913677304052 33.117531541967764,177.90325060402392 33.29701665206812,177.4130607729021 33.027788986917585,177.83789199253079 32.99787480174564,177.54377811640734 32.519247841555625,176.69411466622842 32.33976273145527,176.62875586911105 32.130363436299376,176.62875586911105 32.01070669631008,176.53071765456116 32.10044925136026,176.40000000002328" stroke="#4dd2ff" stroke-linecap="round" stroke-linejoin="round" stroke-width="0.5"><title>2024-09-04 4.2km</title><desc>12321514485</desc></polyline><polyline fill="none" points="106.84694805322215,176.40000000002328 107.00434915767983,176.44298673057347 107.5159027480986,177.00181392670493 108.0274563380517,177.21674731516396 108.10615689051338,177.5606405652361 108.22420771885663,177.8185603642778 108.42095909989439,178.16245324487682 108.7357613092754,178.4633593421604 108.93251269008033,178.63530561080552 109.24731489922851,178.67829216981772 109.44406628026627,178.8932249149948 109.91626959410496,179.06517105179955 110.11302097514272,179.28010364848888 110.2704220796004,179.28010364848888 110.2704220796004,179.40906316693872 110.54587401286699,179.79594154417282 110.78197567001916,180.2258060943568 111.29352925997227,180.69865671853768 111.52963091712445,181.04254783084616 111.64768174570054,181.30046602649963 112.04118450707756,181.85928837637766 112.27728616422974,182.3751238968398 112.51338782114908,182.63304147895542 112.47403754503466,182.80498646761407 112.67078892607242,183.14887628675206 112.82819003076293,183.75068296218524 113.10364196379669,183.92262760794256 113.22169279237278,184.26651674084133 113.57584527786821,184.56741955902544 113.89064748724923,185.04026651816093 114.0480485917069,185.77102921527694 114.44155135354958,186.71672070227214 114.52025190577842,186.80269257651526 114.52025190577842,187.10359403229086 114.83505411515944,187.70539645891404 115.07115577207878,188.0922691061569 115.22855687676929,188.65108468028484 115.50400881003588,189.12392819230445 115.8188110194169,189.94065695468453 116.01556240022182,190.28454239308485 116.01556240022182,190.4994706849975 116.33036460937001,190.97231263673166 116.33036460937001,191.10126946333912 116.84191819978878,192.51979259733343 116.95996902813204,193.1215892053151 116.92061875201762,193.25054553715745 117.07801985670812,193.7663705678715 117.07801985670812,194.23920976207592 117.0386695805937,194.1962243973103 116.76321764732711,194.1962243973103 116.4484154379461,194.3251804818574 115.70076019084081,194.36816583678592 115.26790715288371,194.11025365782552 115.34660770534538,194.06726828307728 115.26790715288371,194.1962243973103 115.30725742899813,194.3251804818574 115.58270936249755,194.58309256183566 115.66140991472639,194.75503388248035 115.70076019084081,194.75503388248035 115.70076019084081,194.88398983838852 115.77946074306965,195.1848869532696 115.89751157164574,195.27085752785206 115.97621212387457,195.61473969425424 116.01556240022182,195.7007102028001 115.97621212387457,195.44279863746488 115.74011046695523,195.22787224221975 115.70076019084081,195.14190166111803 115.70076019084081,195.05593106668675 115.5433590861503,194.75503388248035 115.70076019084081,194.3251804818574 115.85816129529849,194.28219512372743 115.97621212387457,194.4111511883093 116.25166405714117,194.45413653668948 116.48776571429335,194.4111511883093 116.72386737121269,194.4971218816063 117.0386695805937,194.45413653668948 116.99931930424646,194.9269751503307 116.92061875201762,195.1848869532696 116.95996902813204,195.22787224221975 116.84191819978878,195.61473969425424 116.72386737121269,195.65772495017154 116.76321764732711,195.74369545225636 116.64516681875102,195.95862164956634 116.64516681875102,196.13056254800176 116.52711599017493,196.38847379674553 116.36971488571726,196.5174293766322 116.40906516183168,196.60339974676026 116.29101433325559,196.81832561426563 116.21231378102675,196.9042959381477 115.46465853392147,197.20519196795067 115.18920660065487,197.20519196795067 114.44155135354958,197.59205805454985 114.16609942028299,197.7639984516427 113.89064748724923,198.06489401965518 113.57584527786821,198.23683427166543 113.45779444929212,198.40877447093953 113.37909389706329,199.39742959252908 113.30039334460162,199.39742959252908 113.18234251602553,199.78429416526342 113.30039334460162,200.12817356098094 113.02494141133502,200.30011317980825 112.71013920218684,200.9878711272031 112.27728616422974,201.41771941559273 111.80508285039105,201.63264343616902 111.68703202181496,201.58965863866615 111.45093036489561,201.67562823032495 111.25417898385786,201.58965863866615 110.58522428898141,201.67562823032495 110.2704220796004,201.80458259317675 109.16861434699968,201.7615978088579 109.01121324230917,201.8905521519191 108.65706075681373,201.8905521519191 108.38160882377997,202.0195064652653 108.34225854743272,201.93353692631354 107.94875578582287,202.1914455035585 107.75200440501794,202.2344302549027 107.240450814832,203.09412458896986 107.12239998625591,203.39501729424228 106.68954694853164,203.9108329844894 106.45344529137947,204.03978683281457 106.37474473915063,204.16874065148295 105.90254142507911,204.2976944403781 105.70579004427418,204.4696327795682 105.50903866346925,204.81350929953624 105.27293700654991,205.0714165509853 105.27293700654991,206.01707545717363 105.46968838735484,206.31796659264364 105.46968838735484,206.4469198869483 105.31228728266433,206.91974837883026 105.35163755877875,207.177654660627 105.31228728266433,207.95137279393384 105.15488617797382,208.381215739646 104.6826828639023,208.81105835555354 104.5252817592118,209.11194799045916 104.13177899760194,209.19791642794735 103.85632706433535,209.41283746392583 103.02997126500122,209.5847742332553 102.99062098865397,209.67074259807123 102.87257016007788,210.10058422471047 102.79386960784905,210.1865525104513 102.75451933173463,211.26115496933926 102.63646850315854,211.5620432884607 102.67581877950579,211.7769634175056 102.5577679509297,211.9488994613639 102.5577679509297,212.12083545248606 102.24296574154869,212.3787393401435 102.08556463685818,212.72261100591277 101.65271159890108,212.93753068966907 100.86570607568137,213.75422473653452 99.96064972388558,214.05511171682156 99.7245480667334,214.31301471422194 99.25234475266188,214.65688519261312 99.01624309574254,214.95777168820496 98.74079116270877,215.60252792038955 98.34728840086609,216.03236499629566 98.30793812475167,216.2042997343524 97.99313591537066,216.59115270202165 97.52093260153197,216.8490545321256 97.48158232518472,217.02098901954014 97.12742983968928,217.32187424553558 96.97002873523161,217.62275931000477 96.85197790665552,218.00961129844654 96.57652597338893,218.43944652777282 96.45847514504567,218.5683970323007 96.41912486869842,218.69734750705538 96.22237348766066,218.91226489917608 96.22237348766066,218.95524836768163 95.9469215546269,219.0841987535532 95.82887072628364,219.21314910968067 95.71081989770755,219.2561325551069 95.51406851690263,219.42806630386622 95.19926630752161,219.60000000000582 94.96316465036944,219.60000000000582 94.92381437425502,219.5140331585426 94.68771271733567,219.47104973290698 94.29420995572582,219.2561325551069 94.17615912714973,219.04121529491385 94.05810829857364,219.04121529491385 93.15305194677785,218.35347950825235 93.07435139454901,218.1815454296884 92.36604642355815,217.5367921652214 92.3266961472109,217.45082500728313 91.89384310948662,217.1069562434277 91.65774145233445,216.80607090197736 91.46099007152952,216.72010363193112 91.30358896683902,216.50518539894256 90.94943648134358,216.24728341054288 90.51658344338648,216.0753486857284 90.28048178646713,216.1183323719306 89.96567957708612,216.37623441955657 89.88697902485728,216.6771199918876 90.08373040566221,216.0753486857284 89.9263293009717,215.86043020550278 90.08373040566221,217.27889065162162 90.91008620522916,218.1815454296884 89.65087736793794,217.88066066530882 89.61152709159069,217.9236442129477 89.33607515855692,217.88066066530882 89.25737460609525,217.96662775729783 89.25737460609525,218.09557837061584 89.17867405386642,218.09557837061584 89.25737460609525,218.26751247554785 89.139323777752,218.43944652777282 88.90322212083265,218.39646301956964 88.23426742572337,218.13856190184015 88.43101880676113,218.43944652777282 88.43101880676113,218.31049599358812 88.31296797818504,218.35347950825235 88.11621659738012,218.69734750705538 88.03751604515128,218.69734750705538 87.99816576903686,218.61138052714523 88.03751604515128,218.7833144738397 87.99816576903686,218.0525948361901 88.2736177018378,218.26751247554785 88.11621659738012,218.74033099212102 88.15556687349454,218.95524836768163 88.2736177018378,219.0841987535532 89.06062322529033,218.86928142744 89.29672488220967,218.95524836768163 89.139323777752,218.86928142744 89.25737460609525,218.39646301956964 89.06062322529033,217.9236442129477 88.82452156813815,217.8376771142648 88.62777018756606,217.5367921652214 87.84076466411352,217.02098901954014 87.48661217861809,216.63413634861354 87.44726190250367,216.72010363193112 87.48661217861809,216.7630872685986 87.6440132833086,216.80607090197736 87.60466300719418,216.8490545321256 87.6440132833086,216.7630872685986 86.38480444601737,215.94639760744758 86.10935251275077,215.60252792038955 86.10935251275077,215.5165604656213 85.6764994750265,215.0437392287422 85.20429616095498,214.74285277942545 84.29923980915919,213.92616017360706 84.14183870446868,213.84019246164826 83.94508732366376,213.58228924658033 83.63028511428274,213.4103537039773 83.04003097163513,213.92616017360706 82.92198014329188,214.09809555785614 83.27613262878731,214.2700308894855 83.63028511428274,214.09809555785614 83.9057370473165,213.79720860070665 83.86638677143492,213.66825699812034 84.06313815223984,213.6252731240238 84.53534146607853,214.1410793957475 84.92884422768839,214.05511171682156 85.00754478015006,213.66825699812034 85.55844864668325,213.84019246164826 85.83390057971701,213.88317631933023 85.44039781787433,213.19543420153786 85.40104754175991,212.98051461655996 85.44039781787433,212.98051461655996 84.92884422768839,212.46470727646374 84.96819450403564,212.12083545248606 84.88949395157397,213.06648246041732 84.92884422768839,212.93753068966907 85.519098370336,212.2068034282711 85.519098370336,211.8199474334251 85.59779892256483,211.6480113499565 85.44039781787433,211.26115496933926 85.36169726564549,211.26115496933926 85.40104754175991,211.17518684852985 84.53534146607853,210.61639374136575 84.41729063750245,210.44445728859864 83.94508732366376,210.31550491438247 83.94508732366376,210.22953664843226 83.59093483816832,209.79969512071693 83.43353373347782,209.3698532632843 83.47288400959224,209.2838848522515 83.27613262878731,208.81105835555354 83.3941834573634,208.46718428921304 83.3941834573634,208.2092786009889 83.3154829046689,208.12331001186976 83.35483318101615,207.6074981999409 83.27613262878731,207.43556082382565 83.3941834573634,207.0057171525841 84.06313815223984,205.80215311876964 84.29923980915919,205.50126170626027 84.41729063750245,205.2863391698338 85.32234698953107,204.34067903019604 85.71584975114092,204.12575604851008 85.87325085583143,203.9108329844894 86.07000223663636,203.9108329844894 86.42415472213179,203.6529251987522 87.13245969312266,203.39501729424228 87.40791162638925,203.39501729424228 87.72271383553743,203.18009394983528 88.90322212083265,202.62129286848358 89.139323777752,202.36338448911556 89.45412598713301,202.32039974763757 89.84762874874286,201.84756737414864 90.16243095812388,201.63264343616902 90.51658344338648,201.24578013981227 90.91008620522916,201.07384081126656 91.14618786214851,200.85891657634056 91.2642386907246,200.68697712910944 91.65774145233445,200.3860829694022 92.36604642355815,199.35444462357555 92.95630056597292,198.7526547111629 92.95630056597292,198.5377295857179 93.15305194677785,198.23683427166543 93.27110277535394,197.8069835426286 93.58590498473495,197.11922169025638 93.66460553696379,196.77534044731874 93.66460553696379,196.5174293766322 93.86135691776872,195.78668069830746 93.90070719388314,194.88398983838852 93.86135691776872,194.66906322873547 93.78265636553988,194.58309256183566 93.8220066416543,194.23920976207592 93.78265636553988,193.85234136023792 93.86135691776872,193.25054553715745 93.8220066416543,192.94964738332783 93.94005747023039,192.4338216005708 94.29420995572582,192.1759085310041 94.68771271733567,191.66008203584352 95.08121547917835,190.92932702123653 95.3173171360977,190.585441978561 95.43536796444096,190.11259970031097 95.71081989770755,189.68274273735005 95.82887072628364,189.25288544449722 95.82887072628364,188.13525493926136 95.9469215546269,187.87733989063418 95.90757127851248,187.61942472335068 95.82887072628364,187.57643885051948 95.90757127851248,187.4904670951073 95.90757127851248,187.14657994132722 95.71081989770755,186.84567850863095 95.71081989770755,186.58776286619832 95.71081989770755,186.5017909592134 95.82887072628364,186.37283307363396 95.82887072628364,186.1579031983274 96.5371756972745,185.08325258560944 96.85197790665552,184.86832221556688 97.00937901134603,184.65339176313137 97.48158232518472,184.30950286763255 97.8750850870274,183.6647106196324 98.6620906102471,182.76200022545527 98.70144088636152,182.59005522343796 99.01624309574254,182.0312336026691 99.13429392431863,181.51539776549907 99.37039558123797,181.21449330783798" stroke="#4dd2ff" stroke-linecap="round" stroke-linejoin="round" stroke-width="0.5"><title>2024-09-03 4.7km</title><desc>12321662462</desc></polyline><polyline fill="none" points="172.4558666406665,176.39999999999418 172.6491560607683,176.7800734374323 172.88110336544923,176.8645341655938 173.229024322005,177.2446072822204 173.69291893090121,177.54021952472976 173.84755046712235,177.58244983205805 174.19547142391093,178.1736737951287 174.1568135395646,178.34259481090703 174.23412930802442,178.59597623709124 175.16191852558404,179.06050854892237 175.54849736648612,179.35611981578404 175.6644710188266,179.35611981578404 176.24433927983046,179.82065148590482 176.6695760046132,180.7074835851672 177.05615484528244,181.08755404737894 177.48139157006517,181.80546420410974 177.71333887451328,181.93215413455619 178.02260194718838,182.48114349605748 178.215891367523,183.07236219593324 178.7571017446462,183.87472941543092 178.91173328086734,184.2970274821273 179.6075751944445,185.1416226432193 179.91683826688677,186.61966105602914 180.4193907598965,187.8443184478092 180.80596960056573,188.51999032497406 180.88328536855988,188.81559651030693 181.6177851660177,190.4203130316455 182.04302189103328,191.64496196553227 182.2749691954814,191.94056647227262 182.468258615816,192.53177500949823 182.5069164999295,192.8273790399544 182.66154803615063,193.2496702366043 182.66154803615063,193.50304479891201 182.8161795726046,193.96756452714908 182.62289015203714,195.57226602570154 182.468258615816,195.82563951885095 182.468258615816,196.03678400730132 182.39094284758903,196.12124178005615 182.15899554337375,196.75467466225382 181.84973247069865,197.3036492371466 181.57912728213705,197.47256438067416 181.07657478912733,198.1482244368235 180.99925902090035,198.19045316285337 180.6513380643446,198.52828285386204 180.53536441200413,198.78165498611634 180.53536441200413,199.03502700157696 180.03281191922724,199.7951423485065 179.99415403511375,200.04851389752002 179.76220673066564,200.38634244794957 179.53025942621753,201.01977042134968 178.91173328086734,201.52651227507158 178.67978597641923,201.8221114743792 177.9839440630749,202.0754820901493 177.4427336861845,202.15993893623818 176.24433927983046,202.0754820901493 175.97373409126885,202.2021673543495 175.43252371437848,202.24439576931763 174.38876084424555,202.62445135772577 174.1568135395646,202.96227832714794 173.7315768150147,203.38456174728344 172.95841913344339,204.44026888010558 172.72647182899527,205.07369218784152 172.57184029277414,205.28483312847675 172.49452452454716,205.74934291260433 172.57184029277414,206.08716796399676 172.49452452454716,206.67836130489013 172.30123510421254,207.05841383163352 172.06928779976442,207.90297406245372 171.8759983794298,208.07188595313346 171.5667353067547,208.57862131419824 171.14149858197197,209.0853562085831 170.71626185718924,209.38095134834293 170.44565666862763,209.38095134834293 169.4792095667217,210.09882459809887 168.89934130571783,210.98560790799093 168.4741045809351,212.37912165143644 168.2034993923735,212.7169426336477 168.01020997180603,213.09699099088903 167.43034171080217,213.4770390856138 167.3530259425752,213.60372172557982 166.19328942056745,214.0259969815379 165.7680526955519,214.36381695306045 165.4587896228768,214.7016367171891 165.22684231842868,214.87054652161896 165.26550020254217,215.08168370410567 165.14952655043453,215.2083659747732 165.11086866632104,215.29282080574194 164.9948950142134,215.37727562364307 164.60831617331132,216.13736840206548 164.4150267529767,216.26405042980332 164.29905310086906,216.51741439767648 164.06710579642095,216.8130055461661 163.6418690716382,217.02414198374026 162.94602715806104,217.65755081013776 162.67542196973227,218.29095890786266 162.63676408561878,218.54432194284163 162.48213254939765,218.7132305680134 162.36615889682434,219.05104766294244 162.05689582438208,219.17772902006982 161.74763275193982,219.47331874002703 161.63165909959935,219.51554582983954 161.28373814281076,219.60000000000582 160.81984353391454,219.51554582983954 160.35594892525114,219.13550190423848 160.1240016205702,219.09327478523483 159.3895018233452,218.58654910398764 158.96426509832963,218.16427734663012 158.80963356234133,217.82645970754675 158.50037048966624,217.61532357774558 158.30708106909879,217.31973286010907 157.68855492398143,216.72855094855186 156.76076570618898,216.09514105296694 156.52881840174086,216.0106863452238 156.21955532906577,216.22182309039636 156.06492379284464,216.51741439767648 156.1808974451851,216.6863236448844 156.29687109729275,217.10859653589432 155.75566072016954,216.8130055461661 154.78921361849643,218.24873172401567 154.63458208204247,218.33318608845002 154.40263477759436,218.54432194284163 154.44129266170785,218.7132305680134 154.3639768937137,218.88213914140943 154.51860842993483,219.05104766294244 154.71189785026945,219.00882053744863 154.78921361849643,218.7132305680134 155.3304239953868,218.07982295623515 155.3304239953868,218.03759575623553 155.1371345750522,217.95314134648652 154.63458208204247,217.31973286010907 153.28155613970011,216.30627776583424 151.9285301968921,215.0394562741567 151.69658289244398,214.95500140430522 151.50329347210936,214.7860916259233 151.3486619356554,214.53272686104174 151.15537251532078,214.40604443487246 150.18892541364767,213.5614941821841 149.95697810919955,213.4348115324974 149.60905715241097,213.5614941821841 149.22247831174172,213.85708691808395 149.18382042762823,213.98376947047655 149.53174138441682,214.0259969815379 150.0342938771937,213.98376947047655 150.3048990657553,213.51926663555787 151.69658289244398,212.37912165143644 151.85121442889795,212.37912165143644 151.8898723127786,212.21021108253626 151.69658289244398,211.78793443358154 151.73524077655748,211.32342974547646 151.5806092401035,211.07006338672363 151.03939886321314,210.73224139376543 150.69147790642455,210.6477858631988 150.3048990657553,210.39441919344245 150.18892541364767,210.35219140374102 149.9956359930802,210.14105240706704 149.7636886886321,209.33872348093428 149.8023465727456,208.7897609102074 149.68637292063795,208.15634187910473 149.68637292063795,207.73406211999827 149.7636886886321,207.5651501257089 149.8023465727456,207.05841383163352 149.9956359930802,206.76281744459993 150.0342938771937,206.55167707105284 150.42087271786295,206.04493984382134 150.5755042543169,205.66488661739277 150.76879367465153,205.53820215023006 150.80745155876502,205.32706130683073 151.3486619356554,204.86255116629764 151.6579250083305,204.482497123332 152.66302999434993,203.8490731351485 154.32531900936738,203.04673503703088 154.40263477759436,202.92004996727337 154.8665293867234,202.75113649555715 155.1371345750522,202.5399945829704 155.44639764772728,202.3710809945478 156.52881840174086,201.61096920541604 156.83808147441596,201.2731414065929 157.14734454709105,201.14645592847955 157.64989703986794,200.51302810094785 158.22976530110464,200.04851389752002 158.73231779388152,199.28839890056406 158.69365991000086,199.2039416139305 159.1188966347836,198.73942630543024 159.3508439392317,198.06376697521773 159.62144912756048,197.64147947254241 159.73742277990095,197.09250523464289 159.69876489578746,196.79690349515295 159.73742277990095,196.71244582606596 159.89205431635492,195.99455511613633 159.85339643224142,195.78341061150422 159.89205431635492,195.57226602570154 159.81473854812793,195.44557923541288 159.89205431635492,194.76991586125223 159.85339643224142,194.0520226173394 159.96937008434907,193.58750296052312 159.89205431635492,193.2918993383355 159.85339643224142,192.53177500949823 160.04668585257605,192.02502487361198 160.00802796846256,191.56050350583973 160.16265950491652,191.09598174598068 160.1240016205702,191.05375247556367 160.20131738879718,190.84260607534088 160.35594892525114,190.67368889672798 160.35594892525114,190.29362505531753 160.58789622969925,189.8713315903733 160.54923834558576,189.6601847364218 160.6265541135799,189.36457900467212 160.85850141802803,189.15343195627793 160.81984353391454,188.9845142591803 161.12910660682246,188.35107243337552 161.28373814281076,187.88654796444462 161.8249485201668,187.04195701621938 162.5594483173918,185.52169004283496 162.75273773772642,185.3527712310024 163.37126388284378,184.59263593595824 163.6032111872919,184.42371683893725 163.7965006076265,184.25479768999503 163.87381637608632,184.00141886947677 164.22173733264208,183.62135041991132 164.84026347775944,182.60783327088575 165.11086866632104,182.22776385879843 165.38147385488264,181.7632342207653 165.34281597076915,181.55208425567253 165.42013173899613,181.42539423776907 165.88402634765953,180.62302344676573 166.19328942056745,180.1584924540948 166.69584191334434,179.693961069308 166.8118155656848,179.4405801485991 166.73449979745783,178.97604815775412 166.5798682612367,178.89158775369287 166.38657884090208,178.68043668664177 166.50255249300972,178.38482505670981" stroke="#4dd2ff" stroke-linecap="round" stroke-linejoin="round" stroke-width="0.5"><title>2024-09-02 4.2km</title><desc>12321662448</desc></polyline><polyline fill="none" points="32.528004993335344,224.6984031505708 32.58870581840165,224.5326236479159 32.83150911843404,224.40000000002328 32.92256035597529,224.40000000002328 33.22606448107399,224.6984031505708 33.49921819346491,224.7647149337863 33.802722318680026,225.16258541951538 33.802722318680026,225.26205298362765 33.89377355622128,225.59361136541702 34.13657685625367,226.02463688130956 34.80428593128454,226.35619467773358 35.71479830658063,227.3508665401314 35.896900781663135,227.9145129121316 35.896900781663135,227.98082420168794 35.836199956480414,227.98082420168794 35.74514871905558,228.94233675603755 35.836199956480414,229.07495900933282 35.927251194021665,229.1081145662465 35.927251194021665,229.07495900933282 35.896900781663135,229.04180344985798 35.957601606613025,229.2407367686974 36.23075531923678,229.4065144645283 36.32180655677803,229.57229209665093 36.47355861926917,229.67175864535966 36.503909031744115,229.80438067475916 36.71636191918515,230.13593557011336 36.95916521921754,230.30171292234445 37.1716181068914,230.36802384542534 37.38407099444885,230.6332674359728 37.41442140692379,230.66642287324066 37.32337016938254,230.7327337404422 37.38407099444885,230.89851086362614 37.2930197569076,230.99797710694838 37.201968519366346,231.26322031073505 37.3537205819739,231.69424016945413 37.7786263570888,231.92632760753622 38.021429657004774,232.19157024126616 38.53738666966092,232.5562785966904 38.9622924446594,233.28569438392879 38.93194203218445,233.48462574847508 39.08369409479201,233.7498674253875 39.08369409479201,233.91564339082106 39.29614698223304,234.21403996815206 39.59965110744815,234.51243633945705 40.206659357529134,234.8108325046196 40.328061007428914,235.04291826832923 40.328061007428914,235.27500390741625 40.510163482511416,235.5733995458868 40.81366760772653,235.8386399403389 41.20822297013365,235.97126007647603 41.69382957031485,236.26965523403487 42.088384932954796,236.76698003851925 42.088384932954796,236.93275484611513 43.12029895815067,237.99371210858226 43.4541534956079,238.5904994237353 43.48450390819926,238.72311871519196 43.66660638328176,238.95520237719757 43.66660638328176,239.05466676558717 43.8183584457729,239.28675024947734 43.8183584457729,239.3862145615567 43.97011050826404,239.784071580827 44.182563395937905,240.0493093901896 44.243264220887795,240.31454703668715 44.63781958341133,240.71240320106153 44.759221233427525,240.91133114590775 44.81992205849383,241.110258999106 44.850272470968775,241.4749598254566 45.09307577100117,242.33697873659548 45.244827833608724,242.53590593344416 45.426930308691226,243.033223524777 45.70008402108215,243.46423164082807 45.70008402108215,243.63000387864304 46.06428897124715,244.1273202105658 46.09463938383851,244.59148160388577 46.489194746362045,245.18825980540714 46.580245983903296,245.5198028945597 46.70164763403591,245.65242005890468 46.73199804627802,245.98396279185545 46.88375010888558,246.18288830952952 46.88375010888558,246.38181373561383 47.005151758901775,246.68020170301315 47.035502171493135,247.01174364730832 47.15690382150933,247.24382285689353 47.126553409034386,248.10583025836968 47.18725423398428,248.3710629589914 47.005151758901775,248.90152787187253 46.853399696410634,249.13360606643255 46.76234845886938,249.43199213343905 46.6409468089696,249.59776208162657 46.61059639649466,249.8961478281126 46.2767418588046,250.1282254884718 46.21604103373829,250.29399516954436 46.06428897124715,250.49291870291927 45.6090327835409,250.85761160947732 45.51798154623248,251.02338101068744 45.426930308691226,251.58699649921618 45.03237494605128,252.1174574639299 44.759221233427525,252.64791777732898 44.60746917093638,252.87999395970837 44.63781958341133,253.01260886507225 44.48606752080377,253.17837743958808 44.3039650459541,253.27783855379676 44.21291380841285,253.41045333707007 43.788008033297956,253.47676071344176 43.4541534956079,253.74199011721066 42.96854689565953,253.84145110167447 42.543641120544635,253.80829744273797 41.81523122033104,253.84145110167447 40.66191554511897,254.17298755110824 40.23700977000408,254.47137013814063 40.05490729492158,254.70344534117612 39.99420646997169,254.83605968693155 39.721052757347934,255.06813469409826 39.3264973948244,255.7975124765362 39.17474533233326,256.7258096918231 39.23544615728315,257.0904973378929 39.05334368220065,257.58779817752657 39.0229932697257,257.85302505796426 38.71948914474342,258.4497849436884 38.294583369628526,258.9470842190203 38.051780069596134,259.17915701831225 37.99107924441341,259.34492322721053 37.535823057056405,259.57699581282213 37.201968519366346,259.9748342410603 37.019866044283845,259.9748342410603 36.6860115067102,260.1074469691084 36.534259444335476,260.27321282197954 36.47355861926917,260.43897861111327 36.26110573171172,260.77050999880885 36.13970408169553,261.1683473283192 36.13970408169553,261.59933735523373 35.927251194021665,261.93086785270134 35.10779005638324,262.79284595581703 34.864986756350845,262.85915189253865 34.74358510633465,262.99176373545197 34.16692726884503,263.15752848185366 33.83307273115497,263.3895990200399 33.681320668547414,263.6879752431123 33.59026943100616,263.72112814412685 33.31711571861524,264.2847270712373 33.104662831057794,264.4504913216224 32.98326118092518,264.78201963187894 32.77080829348415,265.14670047932304 32.58870581840165,265.2130060548661 32.3155521057779,265.4782282554079 32.04239839327056,265.61083929467713 31.829945505829528,265.87606125097955 31.647843030747026,266.0086721680709 31.556791793205775,266.4065046754258 31.16223643044941,267.00325274968054 31.07118519290816,267.33477910154033 30.79803148051724,267.40108434145804 30.5248777680099,267.6000000000058 30.25172405538615,267.56684739649063 30.008920755353756,267.434236957517 29.644715805305168,267.40108434145804 29.128758792649023,267.0364053963567 28.91630590497516,266.90379479460535 28.82525466766674,266.804336816509 28.582451367517933,266.738031485118 28.21824641735293,266.14128304462065 28.127195179928094,266.14128304462065 27.73263981740456,265.61083929467713 27.095281154615805,265.14670047932304 26.518623317126185,264.8483252633887 26.366871254635043,264.8814780752873 26.275820017093793,265.01408929770696 26.18476877955254,265.2130060548661 26.548973729717545,265.67714479888673 25.122504341765307,266.4396573678241 24.970752279274166,266.63857346889563 24.879701041732915,266.90379479460535 24.940401866682805,267.2021685913496 25.183205166715197,267.16901595745003 25.213555579306558,267.0364053963567 25.60811094183009,266.7048788155662 25.60811094183009,266.4396573678241 25.30460681684781,266.0749776114535 25.122504341765307,265.9755194426689 24.91005145420786,265.9092139840941 24.75829939171672,265.7766030364146 24.54584650415927,265.51138101905235 24.333393616601825,265.41192272049375 24.060239904094487,265.14670047932304 23.99953907902818,265.1135476876516 23.72638536640443,264.78201963187894 23.60498371650465,264.7488668122678 23.362180416472256,264.61625550856115 23.08902670396492,264.2847270712373 22.542719278717414,263.92004549640114 22.512368866126053,263.82058683165815 22.20886474114377,263.5222107001464 21.905360616161488,263.3564460935886 21.783958966028877,263.19068142352626 21.632206903537735,263.12437553767813 21.359053191030398,262.85915189253865 21.237651540897787,262.85915189253865 20.96449782839045,262.99176373545197 20.843096178374253,263.19068142352626 20.812745765899308,263.3895990200399 20.90379700344056,263.48905778391054 21.146600303356536,263.5553636137629 21.51080525352154,263.3232931646635 21.51080525352154,262.99176373545197 21.450104428455234,262.8259989254293 21.41975401598029,262.52762210724177 22.785522578749806,261.8977148143458 22.66412092873361,261.8977148143458 22.846223403932527,261.43357201109757 22.573069691308774,261.10204113213695 22.573069691308774,261.03573492582655 22.330266391159967,260.6378974742547 21.5411556661129,260.27321282197954 21.359053191030398,260.1406001447467 21.268001953372732,260.00798742688494 21.328702778439038,259.742761869129 21.146600303356536,259.24546350949095 21.237651540897787,258.48293824651046 21.359053191030398,258.0850984447752 21.298352365847677,257.91933175260783 21.814309378620237,256.9578836840519 23.11937711632345,255.73120545624988 23.81743660394568,255.2339024800458 24.120940729160793,255.10128825629363 24.45479526661802,254.83605968693155 25.09215392929036,254.5376773517346 25.30460681684781,254.47137013814063 25.668811766896397,254.20614118204685 25.88126465433743,254.17298755110824 26.275820017093793,253.87460475802072 26.427572079584934,253.67568278155522 26.943529092124663,253.27783855379676 27.034580329665914,253.14522372977808 27.58088775491342,252.61476402689004 27.73263981740456,252.3163801577757 28.06649435486179,251.9516884824261 28.24859682994429,251.55384266728652 28.521750542568043,251.28861192043405 28.521750542568043,251.15599648593343 28.703853017650545,250.92391937755747 28.82525466766674,250.4266108685988 29.007357142516412,250.22768730475218 29.007357142516412,250.0287636492576 28.977006730157882,249.66407004307257 29.037707555107772,249.39883813617053 29.310861267731525,248.83521979342913 29.25016044266522,248.76891170471208 29.219810030190274,248.43737110873917 29.280510855140164,248.20529254019493 29.189459617598914,247.7742891536327 29.310861267731525,247.14436035370454 29.310861267731525,247.01174364730832 29.189459617598914,246.74651011219248 29.219810030190274,246.41496796437423 29.371562092681415,245.98396279185545 29.40191250515636,245.6192657716456 29.584014980238862,245.12195115705254 29.584014980238862,244.9893338297843 29.70541663025506,244.72409905324457 29.70541663025506,244.2930921939842 29.857168692862615,243.92839374646428 29.857168692862615,243.79577605289523 29.91786951792892,243.7294671908312 29.978570342762396,243.43107718561077 30.191023230436258,243.09953249362297 30.191023230436258,242.93376005225582 30.55522818036843,242.3038241949107 30.55522818036843,242.17120600267663 30.828381892992184,241.839660343976 30.98013395559974,241.50811443082057 31.13188601809088,241.0107950839738 31.313988493056968,240.84502184117446 31.587142205564305,240.67924853469594 31.89064633077942,240.31454703668715 32.07274880586192,240.2150829382881 32.194150455878116,240.08246410489664 32.224500868236646,239.98299995309208 32.528004993335344,239.61829786736052 32.92256035597529,238.95520237719757 32.95291076845024,238.756273531646 33.165363656007685,238.52418976277113 33.195714068599045,238.42472525223275 33.34746613097377,238.19264130524243 33.40816695592366,237.79478282033233 33.74202149361372,237.29745919903507 33.772371906088665,237.16483947000233 33.98482479376253,236.86644493072527 34.19727768120356,236.76698003851925 34.59183304372709,236.3359652409854 34.62218345620204,236.03757012926508 34.28832891874481,235.60655460410635 34.28832891874481,235.47393435591948 34.37938015628606,235.30815898851142 34.6525338687934,235.10922846358153 34.68288428138476,235.00976316691958 34.71323469374329,234.7113671391562 34.56148263125215,234.3798157554702" stroke="#4dd2ff" stroke-linecap="round" stroke-linejoin="round" stroke-width="0.5"><title>2024-09-01 4.4km</title><desc>12321662453</desc></polyline></svg>