<?xml version="1.0" encoding="utf-8" ?>
<svg baseProfile="full" height="300mm" version="1.1" viewBox="0,0,200,300" width="200mm" xmlns="http://www.w3.org/2000/svg" xmlns:ev="http://www.w3.org/2001/xml-events" xmlns:xlink="http://www.w3.org/1999/xlink"><defs /><rect fill="#222222" height="300" width="200" x="0" y="0" /><text fill="#FFFFFF" style="font-size:12px; font-family:Arial; font-weight:bold;" x="10" y="20">Over 3km Workouts</text><text fill="#FFFFFF" style="font-size:4px; font-family:Arial" x="10" y="280">ATHLETE</text><text fill="#FFFFFF" style="font-size:9px; font-family:Arial" x="10" y="290">LaoMai</text><text fill="#FFFFFF" style="font-size:4px; font-family:Arial" x="120" y="280">STATISTICS</text><text fill="#FFFFFF" style="font-size:3px; font-family:Arial" x="120" y="285">Number: 2</text><text fill="#FFFFFF" style="font-size:3px; font-family:Arial" x="120" y="290">Weekly: 2.0</text><text fill="#FFFFFF" style="font-size:3px; font-family:Arial" x="141" y="285">Total: 8.4 km</text><text fill="#FFFFFF" style="font-size:3px; font-family:Arial" x="141" y="290">Avg: 4.2 km</text><text fill="#FFFFFF" style="font-size:3px; font-family:Arial" x="167" y="285">Min: 4.2 km</text><text fill="#FFFFFF" style="font-size:3px; font-family:Arial" x="167" y="290">Max: 4.2 km</text><polyline fill="none" points="93.83019933989272,38.85944529098924 94.72762489039451,39.594729981268756 96.14854867896065,40.41171237482922 98.99039625562727,43.924729520862456 99.96260726870969,43.597937717451714 100.26174911856651,44.49661493586609 100.18696365645155,44.905104329576716 101.23396013211459,46.62075807200745 102.50531299551949,47.846223337750416 103.40273854602128,49.39847731543705 104.3749495591037,49.725267338275444 104.82366233412176,49.725267338275444 106.02022973494604,50.460544522386044 106.2445861226879,50.95072902966058 106.39415704784915,51.604308021545876 107.06722621060908,52.257886612205766 108.26379361143336,53.074859286192805 108.0394372236915,53.64673978468636 107.88986629853025,54.708802752778865 108.11422268627211,55.19898530381033 108.78729184903204,56.01595572027145 110.80649933824316,57.15971325017745 111.25521211326122,57.64989467244595 112.60135043924674,60.91776505234884 114.17184515250847,62.79678597819293 115.44319801591337,63.36866125371307 115.89191079093143,65.00258891965495 118.21026012999937,66.47312167467317 119.18247114354745,66.96329880831763 119.70596938068047,67.37177958048414 120.67818039422855,69.08739711210364 122.09910418232903,70.72131600033026 123.37045704573393,73.00879823073046 124.49223898397759,75.29627554555191 125.46444999706,76.84848949569277 126.3618755475618,77.74713864293881 126.51144647272304,78.3190058870241 126.58623193530366,79.46273945370922 127.40887202322483,81.66850786231225 128.5306539614685,83.7108819433488 129.42807951197028,85.75325210619485 129.8020068248734,86.8969776861486 130.77421783749014,88.85764724994078 131.5968579254113,91.06339619314531 132.41949801379815,93.84099947282812 132.34471255121753,96.29181987798074 132.12035616394132,97.27214646036737 130.62464691279456,101.11175021692179 129.72722136229277,102.33715275628492 128.60543942358345,103.15408699901309 128.15672664856538,103.80763394176029 127.6332284109667,105.19641986343777 125.91316277254373,108.46414429775905 123.96874074591324,109.93461702135392 123.14610065799206,110.34308130631689 122.17388964490965,110.50646697654156 119.78075484372675,110.34308130631689 116.34062356641516,111.32339495117776 115.06927070301026,112.38540038105566 113.64834691490978,114.18263792613288 112.60135043924674,116.3066420230316 112.4517795140855,118.75741071603261 111.85349581344053,120.88140568695962 110.43257202534005,123.00539642118383 109.68471739953384,123.90400661010062 107.81508083594963,124.88430776970927 107.06722621060908,125.53784137463663 105.64630242204294,127.4984397829976 105.27237510960549,128.3153547209804 105.19758964702487,128.96888621995458 104.22537863394246,130.52102192305028 103.85145132103935,130.8477870458155 103.55230947118253,131.33793454209808 103.1035966956988,131.90977300261147 101.98181475745514,132.72668455634266 100.71046189405024,133.0534490022692 98.84082533046603,134.44219677901128 96.52247599186376,138.36335719632916 95.99897775333375,138.69011991261505 95.55026497831568,139.34364504442783 94.65283942827955,139.9154792057816 93.97977026505396,140.81407512485748 92.78320286422968,142.8563357568928 91.81099185114726,143.59154862567084 90.53963898774236,144.0 89.4178570494987,143.91830973769538 87.9221477988176,142.8563357568928 87.17429317347705,142.03943197411718 86.6507949354127,141.79436071700184 85.60379845974967,140.48731306003174 83.13587819552049,138.19997580046766 81.78973987000063,137.5464499667287 81.19145616982132,137.5464499667287 80.29403061885387,138.52673856692854 79.69574691867456,139.9154792057816 77.67653942992911,141.38590849662432 77.37739757960662,141.8760511423461 77.45218304218724,142.77464540681103 77.82611035509035,143.01971643825527 79.39660506835207,141.79436071700184 79.24703414319083,141.38590849662432 78.87310683075339,141.22252756450325 74.31119361519814,137.0563053281512 68.77706938702613,132.3999200098915 67.58050198620185,133.38021334790392 67.58050198620185,133.7886686392594 67.95442929910496,134.11543275922304 68.92664031172171,133.54359548329376 68.92664031172171,133.13514009816572 67.87964383605868,132.80837567715207 69.8240658622235,131.01116956956685 69.89885132480413,130.43933062651195 69.67449493752792,129.54072595271282 72.29198612645268,129.78580002993112 72.51634251466021,129.2956518191495 72.51634251466021,128.5604290800402 71.39456057595089,127.90689733019099 70.79627687577158,127.00829051923938 70.27277863770723,126.59983262728201 69.2257821620442,126.19137457857141 68.62749846186489,125.456149695965 68.70228392397985,124.88430776970927 68.40314207412302,124.3941573027987 68.40314207412302,123.08708828786621 68.17878568638116,122.43355317873647 68.25357114896178,121.45324976311531 68.47792753670365,121.20817376807099 68.62749846186489,120.14617713808548 69.8240658622235,118.02218070020899 70.79627687577158,116.63341150793713 72.59112797677517,115.24464050412644 74.75990639068186,113.77417511405656 76.85389934200794,112.54878573771566 77.82611035509035,112.22201499919174 80.44360154401511,110.75154543464305 84.1080892086029,107.23874881025404 85.22987114731222,105.9316587356152 86.35165308509022,104.21610057749785 87.47343502333388,101.52021788677666 87.99693326139823,99.47787797043566 87.99693326139823,98.33416590595152 88.22128964914009,97.59892178722657 87.9221477988176,93.26914056646638 88.37086057383567,90.98170186945936 89.04392973706126,88.9393417367246 89.19350066175684,87.30545080965385 89.79178436240181,85.58986263751285 90.01614074967802,85.09969408041798 90.53963898774236,83.62918705539778 91.81099185114726,81.26003257586854 91.9605627763085,80.6064717915724 93.2319156397134,78.48239647189621 95.77462136605754,75.86814410623629 96.67204691655934,74.64271110005211 98.61646894272417,71.21149117773166 99.73825088143349,68.760613033548 101.60788744455203,66.88160263508325 101.60788744455203,66.47312167467317 100.86003281921148,65.49276673054555 100.71046189405024,65.00258891965495 101.45831651939079,64.18562540016137 101.53310198197141,63.695446987694595 101.38353105727583,63.04187541967258 100.78524735663086,62.224910395394545 100.78524735663086,61.7347310797777 101.90702929487452,60.67267512186663 103.32795308344066,57.81328842957737 103.77666585845873,56.26104672305519 104.973233259283,54.05522566707805 105.72108788508922,52.911464801523834 106.39415704784915,52.421281197166536 106.69329889770597,51.931097367138136 106.39415704784915,50.95072902966058 107.06722621060908,49.725267338275444 107.44115352304652,49.153384732839186 107.36636806093156,48.58150181983365 106.69329889770597,47.76452569710091 106.46894250996411,47.1926420382224 106.16980066010728,46.62075807200745 105.19758964702487,46.457362596702296 104.52452048379928,45.4769892176264 104.15059317136183,44.49661493586609 103.92623678361997,44.169823307776824 104.30016409652308,43.026051819790155 103.62709493376315,43.1077498238883 102.4305275324732,42.53586366289528 99.96260726870969,40.41171237482922 99.21475264290348,39.267936848220415 98.69125440577045,39.02284193254309 97.793828854803,39.758126510016154 98.24254163028672,38.5326519322698 97.56947246706113,39.594729981268756 97.49468700448051,38.85944529098924 96.2981196041219,36.73528666549828 95.84940682863817,36.571889672777615 95.32590859103948,36.571889672777615 95.026766740717,36.32679413637379 95.25112312845886,36.0" stroke="#4DD2FF" stroke-linecap="round" stroke-linejoin="round" stroke-width="0.5"><title>2024-09-04 4.2km</title><desc>12321514485</desc></polyline><polyline fill="none" points="93.83019981347024,158.9411436151131 94.80241075204685,159.6764282489894 96.14854897418991,160.4934105798602 97.27033082628623,161.8005810046452 98.69125450588763,163.51623975107213 98.99039633292705,163.9247295210953 99.96260727196932,163.59793771768454 100.33653455553576,164.57831282739062 100.26174909854308,164.98680218978552 101.30874549411237,166.70245580055052 102.5800982597284,167.9279209722299 103.4027382847853,169.48017483088188 104.37494922336191,169.80696482863277 104.8236619643867,169.72526733845007 106.09501473000273,170.54224195628194 106.31937110051513,171.03242642595433 106.39415655704215,171.60430802195333 107.06722566811368,172.33958390820771 108.26379297720268,173.07485928671667 108.03943660715595,173.72843697405187 107.96465115016326,174.79049986071186 108.18900752021,175.28068237408297 108.86207663174719,176.09765272785444 110.8064985089004,177.24141016998328 111.32999670645222,177.64989467296982 111.92828036099672,179.1204375853995 112.60134947206825,180.99946168379392 114.24662952218205,182.79678597860038 115.44319683080539,183.36866125417873 115.5927677443251,184.02223262155894 115.96669502882287,185.08428523765178 118.28504418954253,186.55481787980534 119.25725512765348,186.9632988088997 119.70596786867827,187.37177958106622 120.67817880725488,189.08739711274393 122.09910248685628,190.72131600085413 123.44524070899934,193.00879823119612 124.49223710456863,195.2962755462504 125.53923350013793,196.93018490466056 126.36187352472916,197.82883398293052 126.58622989524156,198.40070118312724 126.66101535176858,199.4627394542913 127.4088699198328,201.75020290142857 128.53065177192912,203.79257682571188 129.4280772539787,205.8349468318629 129.8020045380108,206.89697768667247 130.77421547612175,208.93934173736488 131.59685550117865,211.063396193902 132.19513915572315,213.26914056710666 132.41949552623555,213.9226935778861 132.34471006924286,216.37351379496977 132.19513915572315,217.3538403020939 131.52207004465163,219.06940951780416 130.6246445630677,221.11175021750387 129.72721908101812,222.4188462093589 128.6054372289218,223.2357803893974 128.2315099448897,223.8893272820278 127.70801174733788,225.27811309706885 126.58622989524156,227.2387488106615 125.91316078370437,228.46414429828292 124.0435243640095,229.9346170219942 123.2208843389526,230.34308130695717 122.24867340037599,230.58815980271902 119.85553878266364,230.34308130695717 117.53718962147832,231.07831662503304 116.34062231238931,231.32339495164342 115.14405500376597,232.46709306305274 113.72313132416457,234.26433047023602 112.67613492906094,236.30664202343905 112.45177855854854,238.75741071638186 111.92828036099672,240.88140568730887 110.50735668139532,243.08708828827366 109.68471665633842,243.9040066106245 107.88986569317058,244.9659994925605 107.06722566811368,245.53784137498587 105.64630198897794,247.49843978317222 105.27237470494583,248.3970461805584 105.27237470494583,249.05057762941578 104.2253783098422,250.6027132134186 103.85145102581009,250.84778704610653 103.6270946552977,251.41962576977676 103.10359645774588,251.99146418640157 101.9818146051839,252.72668455640087 100.78524729656056,253.13514009834034 98.84082541940734,254.5238877685042 97.64425811031833,256.6478512904723 96.52247625868767,258.36335719627095 95.9989780606702,258.77181057608686 95.62505077663809,259.42533565778285 94.72762529505417,259.915479205898 93.97977072698995,260.89576562534785 93.45627252943814,261.95774156134576 92.85798887489364,262.8563357568346 91.88577793631703,263.67323891300475 90.61442517116666,264.0 89.49264331860468,264.0 87.92214872548357,262.8563357568346 87.24907961441204,262.12112238054397 86.65079595986754,261.79436071700184 85.60379956429824,260.5690035856096 83.8089486011304,258.85350123315584 83.13587949005887,258.2816665015416 81.78974126745015,257.5464499666705 81.19145761290565,257.5464499666705 80.29403213132173,258.52673856704496 79.77053393376991,259.99716977524804 77.75132659962401,261.4675989532261 77.3773993155919,261.95774156134576 77.52697022957727,262.8563357568346 77.90089751314372,263.01971643813886 79.39660664927214,261.79436071700184 79.2470357362181,261.4675989532261 78.87310845218599,261.22252756450325 76.85390111804008,259.42533565778285 75.13383561139926,257.7915222013835 74.31119558680803,257.0563053282676 72.51634462364018,255.58587005903246 70.49713728949428,253.70697759353789 68.85185723984614,252.48161115607945 67.58050447376445,253.46190441882936 67.65528993075714,253.87035967886914 67.95443175826222,254.11543275933946 68.92664269637316,253.62528654170455 69.00142815336585,253.13514009834034 67.95443175826222,252.8083756774431 69.82406817795709,251.01116956985788 69.97363909194246,250.43933062668657 69.67449726443738,249.54072595300386 72.29198825266212,249.86749137670267 72.51634462364018,249.3773432035232 72.5911300801672,248.64212052081712 71.3945627710782,247.9885888211429 70.7962791165337,247.08998207916738 70.3475663755089,246.59983262751484 69.30056998087093,246.27306620118907 68.70228632586077,245.53784137498587 68.70228632586077,244.9659994925605 68.40314449882135,244.39415730320616 68.40314449882135,243.08708828827366 68.17878812830895,242.51524508965667 68.25357358483598,241.5349417492398 68.47792995581403,241.20817376842024 68.70228632586077,240.22786922455998 69.82406817795709,238.10387294972315 70.7962791165337,236.633411508461 72.5911300801672,235.24464050476672 74.75990832736716,233.85586768947542 76.92868657503277,232.54878573823953 77.90089751314372,232.30370769370347 79.77053393376991,231.07831662503304 80.44360304484144,230.75154543528333 82.08888309448957,229.11768798180856 84.10809042816982,227.3204418871901 85.2298722807318,226.01335191284306 85.52901410777122,225.35980632383144 86.42643958935514,224.29779388639145 87.09950870089233,222.6639265292324 87.17429415788502,222.17376583314035 87.47343598445877,221.60191140254028 88.07171963900328,219.5595716428943 88.07171963900328,218.41585966618732 88.29607600951567,217.6806156038656 88.14650509599596,215.14810439158464 87.92214872548357,213.35083471541293 88.37086146650836,210.98170186992502 89.11871603457257,208.93934173736488 89.1935014910996,207.38714541617082 89.7917851456441,205.58986263809493 90.09092697314918,205.18138885620283 90.61442517116666,203.7108819440473 91.81099247979,201.2600325764506 91.96056339330971,200.60647179209627 93.23191615892574,198.5640917554847 94.87719620857388,196.93018490466056 95.7746216901578,195.94983959040837 96.67204717220739,194.64271110057598 97.86861448083073,192.6820153563167 98.61646904889494,191.29318701924058 99.81303635798395,188.76061303418828 100.86003275355324,187.61686796916183 101.60788732161745,186.88160263554892 101.60788732161745,186.55481787980534 100.93481821008027,185.57446301088203 100.78524729656056,185.00258892012062 101.45831640763208,184.18562540051062 101.53310186415911,183.69544698816026 101.38353095110506,183.04187542008003 100.78524729656056,182.30660692654783 100.86003275355324,181.81642764853314 101.9818146051839,180.6726751224487 103.10359645774588,178.2217727135867 103.4027382847853,177.81328843010124 103.7766655688174,176.26104672352085 104.97323287744075,174.0552256674273 105.72108744597062,172.91146480175667 106.46894201356918,172.50297848059563 106.76808384107426,171.93109736742917 106.46894201356918,170.95072903006803 107.06722566811368,169.72526733845007 107.51593840913847,169.1533847329556 107.36636749561876,168.5815018202411 106.69329838408157,167.84622333786683 106.54372747102752,167.2743397228769 106.16980018652976,166.70245580055052 105.19758924795315,166.53906033776002 104.52452013688162,165.47698921797564 104.15059285284951,164.57831282739062 103.92623648233712,164.16982330800965 104.30016376636922,163.10774982417934 103.6270946552977,163.10774982417934 102.43052734620869,162.6175617048866 100.63567638304085,161.06529783818405 99.96260727196932,160.41171237488743 99.66346544446424,159.7581265103072 99.28953816043213,159.34963514102856 98.69125450588763,159.1045402440941 97.86861448083073,159.83982476516394 98.2425417653285,158.532651932328 97.64425811031833,159.59472998138517 97.49468719679862,158.85944529116387 96.3729053447023,156.8169851526618 95.84940714715049,156.57188967289403 95.32590894959867,156.65358817239758 95.02676712255925,156.326794136432 95.25112349307165,156.0" stroke="#4DD2FF" stroke-linecap="round" stroke-linejoin="round" stroke-width="0.5"><title>2024-09-04 4.2km</title><desc>9223370311445714653</desc></polyline></svg>