<?xml version="1.0" encoding="utf-8" ?>
<svg baseProfile="full" height="300mm" version="1.1" viewBox="0,0,200,300" width="200mm" xmlns="http://www.w3.org/2000/svg" xmlns:ev="http://www.w3.org/2001/xml-events" xmlns:xlink="http://www.w3.org/1999/xlink"><defs /><rect fill="#222222" height="300" width="200" x="0" y="0" /><text fill="#FFFFFF" style="font-size:12px; font-family:Arial; font-weight:bold;" x="10" y="20">Over 3km Workouts</text><text fill="#FFFFFF" style="font-size:4px; font-family:Arial" x="10" y="280">ATHLETE</text><text fill="#FFFFFF" style="font-size:9px; font-family:Arial" x="10" y="290">LaoMai</text><text fill="#FFFFFF" style="font-size:4px; font-family:Arial" x="120" y="280">STATISTICS</text><text fill="#FFFFFF" style="font-size:3px; font-family:Arial" x="120" y="285">Number: 1</text><text fill="#FFFFFF" style="font-size:3px; font-family:Arial" x="120" y="290">Weekly: 1.0</text><text fill="#FFFFFF" style="font-size:3px; font-family:Arial" x="141" y="285">Total: 4.2 km</text><text fill="#FFFFFF" style="font-size:3px; font-family:Arial" x="141" y="290">Avg: 4.2 km</text><text fill="#FFFFFF" style="font-size:3px; font-family:Arial" x="167" y="285">Min: 4.2 km</text><text fill="#FFFFFF" style="font-size:3px; font-family:Arial" x="167" y="290">Max: 4.2 km</text><polyline fill="none" points="90.7452990100719,73.28916793654207 92.09143733559176,74.39209497196134 94.22282301820815,75.61756856227294 98.48559438344091,80.887094281381 99.94391090329736,80.39690657623578 100.39262367831543,81.74492240382824 100.2804454844445,82.35765649436507 101.85094019817188,84.93113710801117 103.7579694930464,86.76933500671294 105.10410781856626,89.09771597327199 106.56242433842272,89.58790100750048 107.2354935016483,89.58790100750048 109.03034460218623,90.69081678369548 109.36687918426469,91.42609354457818 109.59123557154089,92.40646203234792 110.60083931544796,93.38682991836686 112.39569041738287,94.6122889292892 112.05915583577007,95.47010967705864 111.8347994480282,97.0632041292265 112.171334029641,97.7984779557446 113.18093777354807,99.02393358049449 116.2097490071319,100.73956987529527 116.8828181703575,101.47484200878534 118.90202565863729,106.37664757855237 121.25776772899553,109.1951789673185 123.16479702387005,110.05299188068602 123.83786618662998,112.50388337951154 127.31539019523188,114.70968251209706 128.77370671508834,115.44494821247645 129.55895407125354,116.05766937078442 131.01727059111,118.63109566818457 133.14865627372637,121.0819740005536 135.0556855686009,124.5131973461248 136.73835847573355,127.94441331841517 138.19667499559,130.27273424365558 139.54281332157552,131.6207079644082 139.76716970885172,132.47850883053616 139.87934790318832,134.19410918059293 141.11330803483725,137.5027617935557 142.7959809419699,140.5663229150232 144.14211926795542,143.6298781593796 144.70301023731008,145.345466529252 146.16132675670087,148.28647087491117 147.3952868883498,151.59509428986348 148.62924702093005,155.7614992093295 148.51706882705912,159.43772981700022 148.18053424591199,160.90821969066747 145.93697036942467,166.6676253254991 144.59083204343915,168.5057291345438 142.90815913584083,169.73113049857784 142.2350899730809,170.71145091275685 141.44984261645004,172.79462979524396 138.86974415834993,177.69621644669678 135.9531111191027,179.9019255321473 134.71915098745376,180.51462195953354 133.2608344675973,180.75970046489965 129.67113226559013,180.51462195953354 124.51093534985557,181.98509242688306 122.60390605498105,183.5781005716417 120.47252037189901,186.27395688928664 118.90202565863729,189.4599630346056 118.67766927089542,193.1361160740489 117.78024372039363,196.32210853055585 115.64885803777725,199.50809463183396 114.52707609953359,200.85600991523825 111.72262125415727,202.3264616546221 110.60083931544796,203.30676206201315 108.46945363329723,206.2476596744964 107.90856266440824,207.4730320814997 107.7963844705373,208.45332932996098 106.33806795114651,210.78153288469184 105.77717698179185,211.27168056881055 105.32846420677379,212.00690181320533 104.6553950435482,212.8646595039172 102.97272213594988,214.0900268346304 101.06569284107536,214.5801735034911 98.26123799569905,216.66329516854603 94.7837139875628,222.54503579461016 93.99846663046628,223.03517986892257 93.32539746770635,224.01546756667085 91.97925914218649,224.8732188087888 90.96965539781377,226.22111268737353 89.17480429587886,229.2845036353683 87.71648777695373,230.38732293853536 85.80945848207921,231.0 84.12678557448089,230.8774646066595 81.88322169799358,229.2845036353683 80.76143976021558,228.05914796120487 79.97619240311906,227.69154107559007 78.40569768985733,225.73096959013492 74.70381729351357,222.29996370070148 72.68460980523378,221.31967495020945 71.78718425473198,221.31967495020945 70.44104592874646,222.79010785045102 69.54362037824467,224.8732188087888 66.51480914466083,227.0788627449656 66.06609636964276,227.81407671351917 66.17827456304803,229.16196811024565 66.7391655324027,229.52957465744112 69.09490760276094,227.69154107559007 68.87055121501908,227.0788627449656 68.30966024613008,226.83379134675488 61.4667904227972,220.58445799234323 53.1656040805392,213.59988001489546 51.37075297906995,215.07032002182677 51.37075297906995,215.68300295900553 51.93164394842461,216.17314913892187 53.3899604678154,215.31539322505705 53.3899604678154,214.70271014724858 51.819465754553676,214.2125635157572 54.73609879380092,211.51675435446668 54.84827698767185,210.65899593988433 54.51174240652472,209.31108892918564 58.43797918967903,209.678700044984 58.77451377175748,208.94347772875335 58.77451377175748,207.8406436201185 57.09184086415917,206.86034599528648 56.19441531365737,205.5124357789755 55.40916795656085,204.89974894095212 53.83867324329913,204.28706186800264 52.94124769233167,203.1842245439766 53.053425886202604,202.3264616546221 52.6047131116502,201.59123595431447 52.6047131116502,199.63063243182842 52.2681785300374,198.65032976819202 52.380356723442674,197.17987464473117 52.71689130505547,196.8122606521938 52.94124769233167,195.21926570718642 54.73609879380092,192.0332710504299 56.19441531365737,189.9501172619639 58.886691965162754,187.86696075624786 62.139859586022794,185.66126267111395 65.2808490130119,183.8231786065735 66.7391655324027,183.33302249887493 70.66540231602266,181.1273181521101 76.16213381337002,175.85812321549747 77.84480672096834,173.897488103481 79.52747962810099,171.32415086624678 81.21015253476799,167.2803268302232 81.99539989233017,164.2168169557117 81.99539989233017,162.5012488589855 82.3319344734773,161.39838268083986 81.88322169799358,154.90371084981598 82.55629086121917,151.47255280427635 83.5658946055919,148.40901260520332 83.7902509928681,145.95817621448077 84.68767654383555,143.38479395629838 85.02421112498268,142.64954112062696 85.80945848207921,140.44378058309667 87.71648777695373,136.8900488638319 87.94084416469559,135.90970768744592 89.84787345957011,132.72359470790252 93.66193204885349,128.80221615941264 95.00807037483901,126.96406665013637 97.92470341455191,121.8172367666848 99.60737632168457,118.14091955043841 102.41183116706088,115.3224039527122 102.41183116706088,114.70968251209706 101.29004922881722,113.23915009584744 101.06569284107536,112.50388337951154 102.18747477931902,111.27843810035847 102.29965297318995,110.543170481571 102.07529658544809,109.56281312950887 101.17787103541195,108.33736559317913 101.17787103541195,107.60209661978297 102.86054394254461,106.00901268294547 104.99192962516099,101.71993264451157 105.66499878792092,99.39157008461189 107.45984988892451,96.08283850073349 108.58163182763383,94.36719720228575 109.59123557154089,93.63192179577891 110.03994834655896,92.89664605073631 109.59123557154089,91.42609354457818 110.60083931544796,89.58790100750048 111.16173028480262,88.73007709928788 111.04955209139735,87.87225272983778 110.03994834655896,86.64678854576778 109.70341376541182,85.7889630573336 109.2547009899281,84.93113710801117 107.7963844705373,84.68604389508255 106.78678072569892,83.21548382658511 106.22588975680992,81.74492240382824 105.88935517566279,81.25473496166524 106.45024614501745,79.53907772968523 105.44064240064472,79.66162473580334 103.64579129917547,78.80379549437203 99.94391090329736,75.61756856227294 98.82212896458805,73.90190527238883 98.03688160842285,73.53426289884374 96.69074328243732,74.63718976511154 97.36381244566292,72.7989778984338 96.35420870082453,74.39209497196134 96.2420305069536,73.28916793654207 94.44717940595001,70.10292999830563 93.77411024319008,69.85783450922463 92.98886288655922,69.85783450922463 92.54015011107549,69.49019120458979 92.87668469268829,69.0" stroke="#4DD2FF" stroke-linecap="round" stroke-linejoin="round" stroke-width="0.5"><title>2024-09-04 4.2km</title><desc>12321514485</desc></polyline></svg>