<?xml version="1.0" encoding="utf-8" ?>
<svg baseProfile="full" height="300mm" version="1.1" viewBox="0,0,200,300" width="200mm" xmlns="http://www.w3.org/2000/svg" xmlns:ev="http://www.w3.org/2001/xml-events" xmlns:xlink="http://www.w3.org/1999/xlink"><defs /><rect fill="#222222" height="300" width="200" x="0" y="0" /><text fill="#FFFFFF" style="font-size:12px; font-family:Arial; font-weight:bold;" x="10" y="20">Over 3km Workouts</text><text fill="#FFFFFF" style="font-size:4px; font-family:Arial" x="10" y="280">ATHLETE</text><text fill="#FFFFFF" style="font-size:9px; font-family:Arial" x="10" y="290">LaoMai</text><text fill="#FFFFFF" style="font-size:4px; font-family:Arial" x="120" y="280">STATISTICS</text><text fill="#FFFFFF" style="font-size:3px; font-family:Arial" x="120" y="285">Number: 4</text><text fill="#FFFFFF" style="font-size:3px; font-family:Arial" x="120" y="290">Weekly: 2.0</text><text fill="#FFFFFF" style="font-size:3px; font-family:Arial" x="141" y="285">Total: 17.5 km</text><text fill="#FFFFFF" style="font-size:3px; font-family:Arial" x="141" y="290">Avg: 4.4 km</text><text fill="#FFFFFF" style="font-size:3px; font-family:Arial" x="167" y="285">Min: 4.2 km</text><text fill="#FFFFFF" style="font-size:3px; font-family:Arial" x="167" y="290">Max: 4.7 km</text><polyline fill="none" points="50.37264950503595,36.644583968271036 51.04571866779588,37.19604748598067 52.11141150910407,37.80878428113647 54.242797191720456,40.4435471406905 54.97195545164868,40.19845328811789 55.196311839157715,40.87246120191412 55.14022274222225,41.17882824718254 55.92547009908594,42.465568554005586 56.8789847465232,43.38466750335647 57.55205390928313,44.548857986635994 58.28121216921136,44.79395050375024 58.61774675082415,44.79395050375024 59.515172301093116,45.34540839184774 59.683439592132345,45.71304677228909 59.795617785770446,46.20323101617396 60.30041965772398,46.69341495918343 61.19784520869143,47.3061444646446 61.029577917885035,47.73505483852932 60.9173997240141,48.53160206461325 61.0856670148205,48.8992389778723 61.59046888677403,49.51196679024724 63.10487450356595,50.36978493764764 63.44140908517875,50.73742100439267 64.45101282931864,53.18832378927618 65.62888386449777,54.59758948365925 66.58239851193503,55.02649594034301 66.91893309331499,56.25194168975577 68.65769509761594,57.35484125604853 69.38685335754417,57.722474106238224 69.77947703562677,58.02883468539221 70.508635295555,59.315547834092285 71.57432813686319,60.5409870002768 72.52784278430045,62.2565986730624 73.36917923786677,63.972206659207586 74.098337497795,65.13636712182779 74.77140666078776,65.8103539822041 74.88358485442586,66.23925441526808 74.93967395159416,67.09705459029647 75.55665401741862,68.75138089677785 76.39799047098495,70.2831614575116 77.07105963397771,71.8149390796898 77.35150511865504,72.672733264626 78.08066337835044,74.14323543745559 78.6976434441749,75.79754714493174 79.31462351046503,77.88074960466474 79.25853441352956,79.71886490850011 79.09026712295599,80.45410984533373 77.96848518471234,83.33381266274955 77.29541602171957,84.2528645672719 76.45407956792042,84.86556524928892 76.11754498654045,85.35572545637842 75.72492130822502,86.39731489762198 74.43487207917497,88.84810822334839 72.97655555955134,89.95096276607364 72.35957549372688,90.25731097976677 71.63041723379865,90.37985023244983 69.83556613279507,90.25731097976677 67.25546767492779,90.99254621344153 66.30195302749053,91.78905028582085 65.2362601859495,93.13697844464332 64.45101282931864,94.7299815173028 64.33883463544771,96.56805803702446 63.890121860196814,98.16105426527793 62.82442901888862,99.75404731591698 62.263538049766794,100.42800495761912 60.86131062707864,101.16323082731105 60.30041965772398,101.65338103100657 59.23472681664862,103.1238298372482 58.95428133220412,103.73651604074985 58.89819223526865,104.22666466498049 58.16903397557326,105.39076644234592 57.88858849089593,105.63584028440528 57.664232103386894,106.00345090660267 57.3276975217741,106.4323297519586 56.48636106797494,107.0450134173152 55.53284642053768,107.29008675174555 54.130618997849524,108.33164758427301 52.3918569937814,111.27251789730508 51.99923331523314,111.51758993446128 51.662698733853176,112.00773378333542 50.989629571093246,112.4366094043944 50.484827698906884,113.11055634368677 49.58740214793943,114.64225181768415 48.85824388847686,115.19366146926768 47.904729241039604,115.5 47.063392787240446,115.43873230332974 45.94161084899679,114.64225181768415 45.38071988010779,114.02957398060244 44.98809620155953,113.84577053779503 44.20284884492867,112.86548479506746 42.35190864675678,111.14998185035074 41.34230490261689,110.65983747510472 40.89359212736599,110.65983747510472 40.22052296437323,111.39505392522551 39.771810189122334,112.4366094043944 38.257404572330415,113.5394313724828 38.03304818482138,113.90703835675959 38.08913728152402,114.58098405512283 38.36958276620135,114.76478732872056 39.54745380138047,113.84577053779503 39.43527560750954,113.5394313724828 39.15483012306504,113.41689567337744 35.7333952113986,110.29222899617162 31.5828020402696,106.79994000744773 30.685376489534974,107.53516001091339 30.685376489534974,107.84150147950277 30.965821974212304,108.08657456946094 31.6949802339077,107.65769661252853 31.6949802339077,107.35135507362429 30.909732877276838,107.1062817578786 32.36804939690046,105.75837717723334 32.424138493835926,105.32949796994217 32.25587120326236,104.65554446459282 34.21898959483951,104.839350022492 34.38725688587874,104.47173886437668 34.38725688587874,103.92032181005925 33.54592043207958,103.43017299764324 33.09720765682869,102.75621788948774 32.704583978280425,102.44987447047606 31.919336621649563,102.14353093400132 31.470623846165836,101.5921122719883 31.526712943101302,101.16323082731105 31.3023565558251,100.79561797715724 31.3023565558251,99.81531621591421 31.1340892650187,99.32516488409601 31.190178361721337,98.58993732236559 31.358445652527735,98.4061303260969 31.470623846165836,97.60963285359321 32.36804939690046,96.01663552521495 33.09720765682869,94.97505863098195 34.44334598258138,93.93348037812393 36.0699297930114,92.83063133555697 37.64042450650595,91.91158930328675 38.36958276620135,91.66651124943746 40.33270115801133,90.56365907605505 43.08106690668501,87.92906160774874 43.92240336048417,86.9487440517405 44.763739814050496,85.66207543312339 45.60507626738399,83.6401634151116 45.997699946165085,82.10840847785585 45.997699946165085,81.25062442949275 46.16596723673865,80.69919134041993 45.94161084899679,77.45185542490799 46.278145430609584,75.73627640213817 46.78294730279595,74.20450630260166 46.89512549643405,72.97908810724039 47.343838271917775,71.69239697814919 47.51210556249134,71.32477056031348 47.904729241039604,70.22189029154833 48.85824388847686,68.44502443191595 48.970422082347795,67.95485384372296 49.923936729785055,66.36179735395126 51.83096602442674,64.40110807970632 52.504035187419504,63.48203332506819 53.96235170727596,60.9086183833424 54.803688160842285,59.070459775219206 56.20591558353044,57.6612019763561 56.20591558353044,57.35484125604853 55.64502461440861,56.61957504792372 55.53284642053768,56.25194168975577 56.09373738965951,55.639219050179236 56.149826486594975,55.2715852407855 56.03764829272404,54.781406564754434 55.58893551770598,54.168682796589565 55.58893551770598,53.801048309891485 56.430271971272305,53.004506341472734 57.495964812580496,50.85996632225579 57.83249939396046,49.69578504230594 58.729924944462255,48.041419250366744 59.290815913816914,47.183598601142876 59.795617785770446,46.815960897889454 60.01997417327948,46.448323025368154 59.795617785770446,45.71304677228909 60.30041965772398,44.79395050375024 60.58086514240131,44.36503854964394 60.52477604569867,43.93612636491889 60.01997417327948,43.32339427288389 59.85170688270591,42.8944815286668 59.62735049496405,42.465568554005586 58.89819223526865,42.343021947541274 58.39339036284946,41.60774191329256 58.11294487840496,40.87246120191412 57.94467758783139,40.62736748083262 58.22512307250872,39.769538864842616 57.72032120032236,39.83081236790167 56.822895649587736,39.40189774718601 54.97195545164868,37.80878428113647 54.41106448229402,36.950952636194415 54.01844080421142,36.76713144942187 53.34537164121866,37.31859488255577 53.68190622283146,36.3994889492169 53.177104350412264,37.19604748598067 53.1210152534768,36.644583968271036 52.223589702975005,35.05146499915281 51.88705512159504,34.928917254612315 51.49443144327961,34.928917254612315 51.270075055537745,34.745095602294896 51.43834234634414,34.5" stroke="#4dd2ff" stroke-linecap="round" stroke-linejoin="round" stroke-width="0.5"><title>2024-09-04 4.2km</title><desc>12321514485</desc></polyline><polyline fill="none" points="157.83802760019898,34.5 158.13315467117354,34.580600119777955 159.0923176528886,35.6284011125681 160.051480634138,36.03140121587785 160.1990441698581,36.67620105983224 160.4203894729726,37.15980068303179 160.78929831273854,37.80459983408218 161.37955245515332,38.36879876651801 161.74846129398793,38.691198020242155 162.3387154364027,38.77179781842278 162.70762427616864,39.17479671561159 163.59300548909232,39.49719572206959 163.96191432885826,39.900194340909366 164.25704139983281,39.900194340909366 164.25704139983281,40.141993438010104 164.7735137748532,40.86739039525855 165.21620438154787,41.673386426933575 166.17536736279726,42.55998134723632 166.6180579699576,43.20477718283655 166.83940327353776,43.688373799668625 167.57722095120698,44.73616570571903 168.01991155790165,45.70335730660008 168.46260216506198,46.186952773015946 168.38882039720193,46.50934962678002 168.7577292365022,47.154143037623726 169.05285630794242,48.282530554104596 169.56932868249714,48.60492676484864 169.7906739860773,49.249718889012 170.45470989635214,49.81391167314723 171.04496403876692,50.70049972151173 171.34009110974148,52.07067977858242 172.07790878787637,53.84385131672025 172.22547232359648,54.00504858093336 172.22547232359648,54.56923881050898 172.81572646601126,55.69761836039834 173.25841707270592,56.42300457402598 173.5535441446118,57.470783775497694 174.07001651916653,58.357365360541735 174.6602706615813,59.88873179000802 175.02917950088158,60.53351698699407 175.02917950088158,60.93650753435213 175.61943364329636,61.823086193879135 175.61943364329636,62.06488024373539 176.57859662454575,64.72461111994926 176.79994192812592,65.85297975991853 176.72616016026586,66.09477288211929 177.02128723170608,67.06194481474813 177.02128723170608,67.94851830392145 176.94750546384603,67.86792074493133 176.43103308882564,67.86792074493133 175.84077894641086,68.10971340344986 174.4389253584668,68.19031094398815 173.6273259120062,67.70672560838284 173.7748894477263,67.62612803076627 173.6273259120062,67.86792074493133 173.70110767986625,68.10971340344986 174.21758005488664,68.59329855343094 174.3651435901411,68.91568852966884 174.4389253584668,68.91568852966884 174.4389253584668,69.15748094691662 174.58648889372125,69.72166303737322 174.80783419730142,69.8828578646644 174.95539773255587,70.52763692673761 175.02917950088158,70.6888316302211 174.95539773255587,70.20524744526483 174.5127071258612,69.80226045410382 174.4389253584668,69.64106561458902 174.4389253584668,69.47987074998673 174.14379828656092,68.91568852966884 174.4389253584668,68.10971340344986 174.7340524289757,68.02911585697439 174.95539773255587,68.2709084780654 175.47187010757625,68.35150600626366 175.91456071473658,68.2709084780654 176.35725132143125,68.43210352800088 176.94750546384603,68.35150600626366 176.87372369598597,69.23807840689551 176.72616016026586,69.72166303737322 176.79994192812592,69.80226045410382 176.57859662454575,70.52763692673761 176.35725132143125,70.60823428153526 176.43103308882564,70.76942897296976 176.20968778571114,71.17241559288232 176.20968778571114,71.49480477749603 175.98834248213097,71.97838836890878 175.69321541115642,72.22018008114537 175.76699717901647,72.38137452519732 175.5456518754363,72.78436052671168 175.3980883397162,72.94555488403421 173.99623475130647,73.50973493984202 173.4797623762861,73.50973493984202 172.07790878787637,74.23510885221185 171.56143641332164,74.55749709677184 171.04496403876692,75.12167628685711 170.45470989635214,75.44406425935449 170.23336459277198,75.76645213295706 170.08580105705187,77.62018048600294 169.93823752133176,77.62018048600294 169.7168922177516,78.34555155987618 169.93823752133176,78.99032542679925 169.42176514677703,79.31271221209317 168.83151100436226,80.60225836350583 168.01991155790165,81.40822390420362 167.13453034497797,81.81120644282782 166.91318504093215,81.73060994746629 166.47049443423748,81.89180293184472 166.10158559540287,81.73060994746629 164.8472955422476,81.89180293184472 164.25704139983281,82.13359236216638 162.19115190114826,82.05299589160131 161.89602482970804,82.29478528484469 161.2319889194332,82.29478528484469 160.71551654487848,82.53657462232513 160.64173477655277,82.37538173684152 159.90391709888354,82.8589603191358 159.53500825958326,82.93955672794254 158.5758452778682,84.5514836043003 158.35449997428805,85.1156574266497 157.54290052875876,86.08281184587395 157.10020992159843,86.32460031146184 156.952646386344,86.56638872151962 156.067265172489,86.80817707569804 155.6983563331887,87.13056146167219 155.3294474943541,87.775329936645 154.88675688765943,88.2589060330647 154.88675688765943,90.0320164822042 155.25566572649404,90.59618736116681 155.25566572649404,90.83797478803899 154.96053865505382,91.72452821029583 155.03432042291388,92.20810248865746 154.96053865505382,93.65882398857502 154.66541158407927,94.46477951179259 153.78003037022427,95.27073441667017 153.48490329878405,95.83490248210728 152.74708562064916,95.99609330238309 152.23061324562877,96.39907024480635 150.6811961219646,96.7214516873355 150.60741435410455,96.88264237134717 150.38606905052438,97.68859542132122 150.23850551526994,97.84978595707798 150.16472374694422,99.86466556746745 149.94337844382972,100.42883116588928 150.01716021168977,100.83180640777573 149.7958149081096,101.15418649005005 149.7958149081096,101.47656647337135 149.20556076569483,101.96013626275817 148.9104336942546,102.60489563603187 148.09883424825966,103.00787004310405 146.6231988919899,104.5391713809804 144.9262182326056,105.10333446902223 144.48352762544528,105.58690258912975 143.59814641159028,106.23165973613504 143.1554558048956,106.79582191538066 142.6389834303409,108.0047398507013 141.901165752206,108.81068436801434 141.82738398434594,109.13306200189982 141.2371298414655,109.85841131623602 140.35174862807617,110.34197724773549 140.2779668602161,110.6643544115941 139.61393094947562,111.22851421032101 139.31880387850106,111.79267370625166 139.09745857538655,112.51802118454361 138.58098620036617,113.32396223954856 138.35964089725167,113.56574443553109 138.28585912892595,113.80752657569246 137.91695028962567,114.21049668593332 137.91695028962567,114.29109068936668 137.4004779155366,114.53287266287953 137.17913261195645,114.77465458062943 136.95778730837628,114.8552485408145 136.58887846954167,115.17762431973824 135.99862432666123,115.5 135.55593371996656,115.5 135.4821519521065,115.33881217223825 135.03946134541184,115.25821824918967 134.30164366727695,114.8552485408145 134.08029836416245,114.452278677898 133.85895306011662,114.452278677898 132.16197240073234,113.16277407796588 132.01440886501223,112.84039768064395 130.68633704446256,111.63148530980106 130.6125552766025,111.47029688861221 129.80095583060756,110.82554295635782 129.35826522344723,110.26138294121483 128.98935638461262,110.10019430983812 128.6942293131724,109.69722262298455 128.03019340289757,109.21365639474243 127.21859395690262,108.89127878571162 126.7759033497423,108.97187319735531 126.18564920732751,109.45543953665765 126.03808567207307,110.01959998474922 126.40699451090768,108.89127878571162 126.11186743993312,108.48830663529225 126.40699451090768,111.1479199717869 127.95641163550317,112.84039768064395 125.59539506491274,112.27623874740675 125.52161329705268,112.35683289926965 125.00514092249796,112.27623874740675 124.85757738677785,112.43742704490433 124.85757738677785,112.6792094449047 124.71001385105774,112.6792094449047 124.85757738677785,113.00158589158673 124.63623208366334,113.32396223954856 124.19354147696868,113.2433681616676 122.9392514238134,112.75980356597574 123.30816026311368,113.32396223954856 123.30816026311368,113.08217998797772 123.08681495953351,113.16277407796588 122.71790612023324,113.80752657569246 122.57034258497879,113.80752657569246 122.49656081711873,113.64633848838275 122.57034258497879,113.96871463843854 122.49656081711873,112.59861531783827 123.0130331912078,113.00158589158673 122.71790612023324,113.88812061020872 122.79168788809329,114.29109068936668 123.0130331912078,114.53287266287953 124.48866854794323,114.12990267644636 124.9313591546379,114.29109068936668 124.63623208366334,114.12990267644636 124.85757738677785,113.2433681616676 124.48866854794323,112.35683289926965 124.0459779407829,112.19564458919922 123.67706910194829,111.63148530980106 122.20143374567851,110.6643544115941 121.53739783493802,109.93900565360673 121.46361606754363,110.10019430983812 121.53739783493802,110.18078862864058 121.8325249068439,110.26138294121483 121.75874313851818,110.34197724773549 121.8325249068439,110.18078862864058 119.47150833625346,108.64949551393511 118.95503596169874,108.0047398507013 118.95503596169874,107.8435508730472 118.1434365157038,106.95701105386252 117.25805530231446,106.39284896140452 115.56107464246452,104.86155032546958 115.2659475710243,104.70036086556502 114.89703873218969,104.21679233730538 114.3067845897749,103.89441319491016 113.20005807233974,104.86155032546958 112.97871276875958,105.18392917094752 113.64274867950007,105.50630791776348 114.3067845897749,105.18392917094752 114.82325696386397,104.6197661262704 114.74947519646958,104.37798187142471 115.11838403576985,104.29738710756646 116.00376524915919,105.26452386699384 116.74158292729408,105.10333446902223 116.88914646301419,104.37798187142471 117.9220912125893,104.70036086556502 118.43856358714402,104.78095559874782 117.70074590900913,103.49143912782893 117.62696414114907,103.08846490603173 117.70074590900913,103.08846490603173 116.74158292729408,102.1213261433295 116.81536469515413,101.47656647337135 116.66780115943402,103.24965461326065 116.74158292729408,103.00787004310405 117.84830944472924,101.63775642798282 117.84830944472924,100.91240143770119 117.99587297998369,100.5900212811539 117.70074590900913,99.86466556746745 117.55318237328902,99.86466556746745 117.62696414114907,99.703475340968 116.00376524915919,98.65573826502077 115.78241994557902,98.33335741609335 114.89703873218969,98.09157171443803 114.89703873218969,97.93038121581776 114.23300282144919,97.12442835129332 113.93787575047463,96.31847486866172 114.01165751833469,96.15728409792064 113.64274867950007,95.27073441667017 113.86409398261458,94.62597054225625 113.86409398261458,94.1423973768251 113.71653044689447,93.98120627220487 113.79031221475452,93.0140591248637 113.64274867950007,92.69167654466582 113.86409398261458,91.88571966107702 115.11838403576985,89.62903709767852 115.56107464246452,89.06486569921253 115.78241994557902,88.66188594338018 117.47940060542896,86.88877318159211 118.21721828356385,86.4857925909455 118.51234535500407,86.08281184587395 118.88125419383869,86.08281184587395 119.54529010457918,85.59923474764219 120.87336192512885,85.1156574266497 121.38983429968357,85.1156574266497 121.98008844209835,84.71267615590477 124.19354147696868,83.66492412838852 124.63623208366334,83.18134591705166 125.22648622607812,83.10074952681316 125.96430390421301,82.21418882650323 126.55455804662779,81.81120644282782 127.21859395690262,81.08583776210435 127.95641163550317,80.76345152111026 128.39910224173218,80.36046858062036 128.62044754531235,80.03808211704018 129.35826522344723,79.47390556760365 130.68633704446256,77.53958366916049 131.79306356143206,76.41122758341953 131.79306356143206,76.00824297318468 132.16197240073234,75.44406425935449 132.3833177043125,74.6380941424286 132.97357184672728,73.3485406691907 133.12113538198173,72.70376333873719 133.12113538198173,72.22018008114537 133.490044221282,70.85002630925737 133.56382598914206,69.15748094691662 133.490044221282,68.75449355388992 133.3424806855619,68.59329855343094 133.41626245342195,67.94851830392145 133.3424806855619,67.22314005042426 133.490044221282,66.09477288211929 133.41626245342195,65.53058884368511 133.63760775700212,64.56341550103389 134.30164366727695,64.0798284956254 135.03946134541184,63.112653817166574 135.77727902354673,61.742488164803945 136.2199696302414,61.09770370973274 136.44131493382156,60.21112443803577 136.95778730837628,59.405142632487696 137.17913261195645,58.59916020842502 137.17913261195645,56.50360301107867 137.4004779155366,56.0200122949318 137.3266961472109,55.53642135625705 137.17913261195645,55.45582284469856 137.3266961472109,55.29462580330437 137.3266961472109,54.6498373899376 136.95778730837628,54.08564720361028 136.95778730837628,53.602055374125484 136.95778730837628,53.44085804850329 137.17913261195645,53.1990620130091 137.17913261195645,52.79606849688571 138.50720443250611,50.78109859797405 139.09745857538655,50.37810415413696 139.3925856463611,49.97510955587495 140.2779668602161,49.330317876825575 141.015784538351,48.12133241177071 142.49141989462078,46.42875042266678 142.56520166201517,46.10635354393162 143.1554558048956,45.058563005004544 143.37680110847577,44.091370810288936 143.81949171517044,43.527174952148926" stroke="#4dd2ff" stroke-linecap="round" stroke-linejoin="round" stroke-width="0.5"><title>2024-09-03 4.7km</title><desc>12321662462</desc></polyline><polyline fill="none" points="67.1047499505803,184.5 67.4671676135622,185.21263769519283 67.90206880960613,185.37100156047381 68.55442060343921,186.08363865420688 69.42422299506143,186.63791160885012 69.71415712544695,186.7170934351161 70.36650891928002,187.8256383658736 70.29402538668364,188.14236527046887 70.43899245234206,188.61745544453152 72.17859723512083,189.48845352925127 72.90343256155029,190.04272465460235 73.12088315980509,190.04272465460235 74.20813614921644,190.91372153605334 75.00545500824228,192.57653172221035 75.73029033467174,193.28916383889737 76.52760919369757,194.63524538266938 76.96251038974151,194.87278900231468 77.54237865051255,195.90214405511506 77.9047963139601,197.01067911740392 78.91956577077508,198.5151176539366 79.2094999011606,199.30692652898142 80.51420348882675,200.8905424560653 81.09407175006345,203.66186448006192 82.03635767428204,205.95809708966408 82.7611930007115,207.22498185932636 82.90616006590426,207.77924345684005 84.2833471861668,210.7880869343062 85.08066604519263,213.08430368540576 85.51556724123657,213.6385621355148 85.87798490421847,214.74707814282738 85.95046843681484,215.3013356999145 86.24040256720036,216.09313169360394 86.24040256720036,216.56820899795275 86.53033669805154,217.43918348843 86.16791903460398,220.4479987982195 85.87798490421847,220.92307409789646 85.87798490421847,221.3189700137009 85.7330178390257,221.47732833761256 85.29811664344743,222.66501499171136 84.71824838221073,223.69434231962077 84.21086365357041,224.01105821377132 83.26857772935182,225.27792081906227 83.1236106636934,225.35709968034644 82.47125887032598,225.99053035100223 82.25380827253684,226.46560309897177 82.25380827253684,226.94067562796408 81.31152234785259,228.36589190346422 81.23903881525621,228.84096355788643 80.80413761967793,229.47439208993455 80.36923642363399,230.66206954006338 79.2094999011606,231.61221051577013 78.77459870558232,232.16645901446464 77.46989511791617,232.64152891904814 76.45512566110119,232.79988550546113 74.20813614921644,232.64152891904814 73.70075142104179,232.87906378944172 72.68598196376115,232.95824206748512 70.72892658226192,233.67084629571764 70.29402538668364,234.30427186342422 69.4967065276578,235.09605327615282 68.0470358747989,237.0755041502416 67.61213467875496,238.26317285216646 67.3222005488351,238.659062115883 67.17723348317668,239.53001796116587 67.3222005488351,240.16343993251212 67.17723348317668,241.2719274466508 66.81481581972912,241.9845259343274 66.37991462415084,243.56807636708254 66.01749696116894,243.88478616211796 65.43762869993225,244.8349149641581 64.64030984090641,245.78504289110424 63.842990981880575,246.33928377815755 63.33560625324026,246.33928377815755 61.52351793739945,247.68529612140264 60.43626494752243,249.34801482746843 59.638946088496596,251.96085309644695 59.13156136032194,252.59426743804943 58.76914369687438,253.30685810791329 57.681890706997365,254.01944828557316 57.53692364227027,254.25697823549854 55.3624176629819,255.048744340369 54.56509880395606,255.68215678702109 53.985230542719364,256.3155688447878 53.550329346675426,256.63227472803555 53.62281287973747,257.02815694524907 53.40536228148267,257.2656862027361 53.33287874888629,257.4240390107734 53.11542815109715,257.5823917943053 52.39059282466769,259.0075657538837 52.028175161685795,259.2450945558958 51.810724563896656,259.72015199565794 51.37582336785272,260.2743853990687 50.57850450882688,260.6702662195312 49.27380092116073,261.8579077689792 48.76641619252041,263.0455479522352 48.69393265992403,263.52060364279896 48.40399852953851,263.83730731502874 48.18654793128371,264.47071436804254 47.606679670512676,264.70824191265274 47.02681140927598,265.2624726375798 46.80936081148684,265.34164843097096 46.15700901765376,265.5 45.28720662556589,265.34164843097096 44.41740423440933,264.6290660704253 43.982503038365394,264.54989022237714 42.60531591856852,263.59977957000956 41.807997059077024,262.80802002490964 41.51806292915717,262.17461195163196 40.93819466745481,261.77873170829844 40.57577700447291,261.2244991126936 39.41604048246518,260.1160330285202 37.676435698755085,258.9283894742839 37.24153450271115,258.7700368972728 36.66166624194011,259.165918294515 36.37173211108893,259.72015199565794 36.58918270934373,260.0368568341946 36.80663330713287,260.8286185048055 35.791863849852234,260.2743853990687 33.979775534011424,262.966371982533 33.689841403625906,263.1247239158256 33.25494020758197,263.52060364279896 33.32742374017835,263.83730731502874 33.18245667498559,264.15401089016814 33.47239080583677,264.47071436804254 33.834808468818665,264.39153850771254 33.979775534011424,263.83730731502874 34.9945449908264,262.64966804295545 34.9945449908264,262.57049204292707 34.6321273278445,262.4121400247095 33.689841403625906,261.2244991126936 31.15291776135564,259.3242708109319 28.61599411861971,256.94898051401833 28.181092923041433,256.7906276330468 27.818675260059536,256.4739217986353 27.528741129208356,255.99886286444962 27.166323465760797,255.7613333154004 25.354235149919987,254.177801591577 24.91933395434171,253.94027162349084 24.266982160508633,254.177801591577 23.542146834079176,254.7320379713783 23.469663301482797,254.96956775715807 24.122015095315874,255.048744340369 25.06430101953447,254.96956775715807 25.571685748174787,254.0986249416601 28.181092923041433,251.96085309644695 28.471027053892612,251.96085309644695 28.54351058602333,251.64414577977732 28.181092923041433,250.85237706295447 28.253576455637813,249.98143077280838 27.963642324786633,249.506368850125 26.94887286797166,248.8729526133393 26.29652107413858,248.71459849347593 25.571685748174787,248.2395359877264 25.354235149919987,248.1603588820435 24.99181748693809,247.7644732632325 24.55691629089415,246.26010652678087 24.62939982349053,245.23080170660978 24.41194922570139,244.0431410233141 24.41194922570139,243.25136647501495 24.55691629089415,242.93465648568235 24.62939982349053,241.9845259343274 24.99181748693809,241.43028270860668 25.06430101953447,241.0343945082277 25.789136345963925,240.08426220720867 26.079070476349443,239.3716624075896 26.441488139797002,239.13412903173594 26.51397167192772,238.7382399503258 27.528741129208356,237.86728343681898 28.108609390445054,237.15468210622203 29.993181238882244,235.96701212844346 33.10997314238921,234.4626281944802 33.25494020758197,234.2250936886412 34.124742599669844,233.90838092914782 34.6321273278445,233.51248984306585 35.2119955890812,233.19577686476987 37.24153450271115,231.7705672601587 37.821402763947845,231.13714013737626 38.40127102518454,230.8996048659319 39.34355694940314,229.71192768926267 40.43080993928015,228.84096355788643 41.373095863033086,227.41574793856125 41.30061233090237,227.25739052612334 42.097931189928204,226.386424322729 42.53283238597214,225.119563078566 43.0402171141468,224.32777401106432 43.25766771193594,223.29844731499907 43.18518417933956,222.7441940534045 43.25766771193594,222.58583592390642 43.54760184278712,221.23979084275197 43.475118309725076,220.84389489656314 43.54760184278712,220.4479987982195 43.402634777128696,220.2104610663955 43.54760184278712,218.94359223986976 43.475118309725076,217.597542407515 43.692568907979876,216.72656805097358 43.54760184278712,216.17231125937542 43.475118309725076,214.74707814282738 43.837535973172635,213.7969216380152 43.765052440576255,212.92594407347497 44.054986571427435,212.05496577371377 43.982503038365394,211.97578589164186 44.12747010355815,211.57988639129326 44.41740423440933,211.2631666813395 44.41740423440933,210.55054697871674 44.85230542998761,209.75874673196813 44.77982189739123,209.36284638079815 44.92478896258399,208.8085856337566 45.35969015862793,208.41268491803203 45.28720662556589,208.09596423595212 45.867074887268245,206.90826081257546 46.15700901765376,206.03727743332274 47.1717784749344,204.4536694054259 48.54896559473127,201.60316883033374 48.91138325817883,201.28644605813315 50.071119780186564,199.8611923799035 50.50602097576484,199.54446907300735 50.8684386392124,199.22774566872977 51.01340570487082,198.75266038026894 51.665757498238236,198.0400320373592 52.82549402071163,196.13968738290714 53.33287874888629,195.42705723526888 53.840263477526605,194.55606416397495 53.767779944464564,194.1601579794078 53.912747010122985,193.92261419579154 54.7825494017452,192.4181689627003 55.3624176629819,191.54717335145688 56.30470358720049,190.6761770049343 56.52215418498963,190.201087778667 56.37718711979687,189.33009029581444 56.087252989411354,189.17172703822143 55.72483532642946,188.77581878751516 55.942285924218595,188.22154698136728" stroke="#4dd2ff" stroke-linecap="round" stroke-linejoin="round" stroke-width="0.5"><title>2024-09-02 4.2km</title><desc>12321662448</desc></polyline><polyline fill="none" points="142.24000936280936,185.0595059072948 142.35382340988144,184.74866933980957 142.80907959723845,184.5 142.97980066761374,184.5 143.54887090227567,185.0595059072948 144.06103411316872,185.18384050083114 144.63010434783064,185.92984766158042 144.63010434783064,186.1163493442582 144.80082541820593,186.7380213101278 145.25608160579577,187.54619415238267 146.5080361214932,188.16786502068862 148.21524682524614,190.0328747627209 148.55668896599673,191.08971171017038 148.55668896599673,191.2140453781467 148.4428749186918,191.2140453781467 148.27215384854935,193.0168814175413 148.4428749186918,193.2655481424299 148.6135959890671,193.32771481166128 148.6135959890671,193.2655481424299 148.55668896599673,193.2033814684837 148.67050301283598,193.57638144126395 149.18266622372903,193.8872146209469 149.35338729410432,194.19804768118775 149.63792241131887,194.38454746000934 149.69482943462208,194.6332137651043 150.0931785989087,195.25487919390434 150.54843478626572,195.5657117293449 150.94678395078517,195.69004471012158 151.34513311483897,196.18737644242356 151.40204013814218,196.2495428872644 151.2313190677669,196.3738757633255 151.34513311483897,196.68470786925172 151.17441204446368,196.87120707554277 151.00369097408839,197.3685380825773 151.28822609153576,198.1767003177083 152.08492441964336,198.61186426412314 152.5401806072332,199.10919420229038 153.50760000594892,199.79302236874355 154.3042983340565,201.16067696985556 154.2473913107533,201.53367327834712 154.53192642820068,202.03100142255425 154.53192642820068,202.3418313577422 154.93027559202164,202.9013249402051 155.49934582668357,203.46081813646015 156.63748629577458,204.02031094609993 156.86511438922025,204.45547175308457 156.86511438922025,204.89063232636545 157.20655652997084,205.45012414851226 157.77562676463276,205.9474498881027 158.51541806943715,206.19611264334526 159.42593044461682,206.7556035637972 160.1657217494212,207.68808757216902 160.1657217494212,207.99891533638583 162.10056054685265,209.98821020353353 162.72653780458495,211.10718641942367 162.78344482835382,211.35584759095218 163.1248869691044,211.79100445716176 163.1248869691044,211.97750018542865 163.40942208608612,212.4126567177591 163.40942208608612,212.59915230289334 163.69395720330067,213.34513421403244 164.0923063675873,213.84245510661276 164.20612041442655,214.33977569371928 164.94591171923093,215.0857560019358 165.17353981290944,215.45874589850428 165.28735385998152,215.83173562330194 165.34426088328473,216.5155496727093 165.79951707087457,218.13183513109107 166.08405218832195,218.50482362514595 166.42549432907254,219.43729410890955 166.93765753996558,220.24543432652717 166.93765753996558,220.55625727243023 167.62054182146676,221.48872539476724 167.6774488450028,222.35902800719487 168.41724014957435,223.4779871351202 168.58796121994965,224.09963042725576 168.8155893140938,224.34828761039535 168.8724963371642,224.9699302347144 169.15703145461157,225.3429155803169 169.15703145461157,225.7159007542068 169.38465954829007,226.275378193066 169.44156657182612,226.89701933867764 169.66919466573745,227.33216785662808 169.6122876422014,228.94843173440313 169.72610168904066,229.44574304803973 169.38465954829007,230.44036475970643 169.10012443107553,230.8755113745574 168.92940336070023,231.4349852501182 168.70177526702173,231.74580390297342 168.64486824371852,232.30527717765654 168.01889098552056,232.74042279087007 167.90507693844847,233.05124094284838 167.62054182146676,233.4242225679336 166.7669364695903,234.10802176769357 166.59621539944783,234.41883939498803 166.42549432907254,235.47561843600124 165.68570302403532,236.47023274481762 165.17353981290944,237.46484583249548 164.88900469592772,237.89998867438408 164.94591171923093,238.1486416219268 164.6613766020164,238.45945769920945 164.31993446149863,238.64594728837255 164.14921339112334,238.89460000698455 163.3525150627829,239.01892633765237 162.72653780458495,239.5162314697518 161.8160254296381,239.70272081560688 161.01932710129768,239.64055770507548 159.65355853829533,239.70272081560688 157.49109164741822,240.32435165828792 156.6943933190778,240.88381900894456 156.3529511783272,241.31896001467248 156.23913713148795,241.5676119129639 155.72697392036207,242.0027525514015 154.98718261555769,243.37033589347266 154.70264749857597,245.11089317215374 154.8164615451824,245.79468250850914 154.4750194044318,246.72712158283684 154.4181123811286,247.22442198364297 153.8490421466995,248.3433467693394 153.05234381835908,249.27578291064128 152.59708763076924,249.71091940929182 152.48327358369716,250.0217310509761 151.62966823228635,250.4568671489833 151.00369097408839,251.202814201999 150.6622488333378,251.202814201999 150.03627157537267,251.451463067031 149.75173645839095,251.7622740411898 149.63792241131887,252.0730848957901 149.23957324726507,252.69470624771202 149.01194515335374,253.44065124058397 149.01194515335374,254.24875754100503 148.6135959890671,254.87037722376408 147.0771063559223,256.4865861670696 146.6218501685653,256.6109097984736 146.39422207465395,256.85955700388877 145.3129886293318,257.17036590341013 144.68701137113385,257.6054981625639 144.4024762539193,258.16495358076645 144.231755183544,258.227115270216 143.71959197265096,259.2838632585481 143.32124280836433,259.59467122796923 143.093614714453,260.21628680976573 142.69526555063203,260.9000633986434 142.35382340988144,261.02438635285944 141.84166019875556,261.5216779788607 141.32949698762968,261.77032367745414 140.93114782380871,262.2676148455357 140.58970568305813,262.51626031514024 140.41898461268283,263.2621962663834 139.6791933074128,264.38109890563646 139.5084722370375,265.00271081534447 138.99630902614444,265.1270331401611 138.4841458152514,265.5 137.97198260412551,265.43783886841265 137.5167264167685,265.1891942953225 136.83384213526733,265.1270331401611 135.8664227365516,264.44326011813246 135.46807357226498,264.19461523985956 135.29735250212252,264.0081315309508 134.84209631429985,263.883809034538 134.15921203279868,262.76490570860915 133.98849096265621,262.76490570860915 133.24869965785183,261.77032367745414 132.05365216522478,260.9000633986434 130.97241871990263,260.3406098688138 130.6878836026881,260.40277139109094 130.5171625323128,260.6514174331678 130.3464414619375,261.02438635285944 131.02932574343868,261.894646497909 128.35469564097002,263.3243575646193 128.0701605239883,263.6973252541502 127.89943945361301,264.19461523985956 128.01325350021943,264.7540661087842 128.46850968780927,264.6919049202115 128.52541671134531,264.44326011813246 129.26520801638253,263.82164777914295 129.26520801638253,263.3243575646193 128.6961377817206,262.64058302139165 128.35469564097002,262.4540989549714 127.95634647691622,262.32977622014005 127.67181135970168,262.081130693201 127.27346219564788,261.58383941068314 126.87511303136125,261.3973551008967 126.3629498204682,260.9000633986434 126.24913577339612,260.8379019143176 125.73697256227024,260.21628680976573 125.50934446882457,260.15412527293665 125.05408828123473,259.90547907853033 124.54192507010885,259.2838632585481 123.51759864785708,258.6000853056903 123.46069162432104,258.4136003093445 122.89162139012478,257.8541450627381 122.32255115546286,257.54333642544225 122.09492306155153,257.2325276690535 121.81038794433698,257.1082041331101 121.29822473344393,256.6109097984736 121.0705966395326,256.6109097984736 120.55843342840672,256.85955700388877 120.33080533472821,257.2325276690535 120.27389831119217,257.6054981625639 120.44461938156746,257.7919833447668 120.8998755691573,257.91630677576177 121.58275985065848,257.481174683664 121.58275985065848,256.85955700388877 121.4689458035864,256.5487479850999 121.41203878028318,255.9892914510565 123.97285483544692,254.80821527686203 123.74522674176842,254.80821527686203 124.08666888275184,253.93794752081158 123.57450567162596,253.31632712268038 123.57450567162596,253.1920029858593 123.11924948380329,252.44605776417302 121.63966687419452,251.7622740411898 121.29822473344393,251.51362527138554 121.1275036628358,251.26497642538743 121.24131770990789,250.7676785045769 120.8998755691573,249.8352440802264 121.0705966395326,248.40550921217073 121.29822473344393,247.6595595839317 121.18441068637185,247.34874703607056 122.15183008508757,245.54603190755006 124.59883209341206,243.2460102304467 125.90769363264553,242.31356715003494 126.47676386730745,242.06491548049962 127.10274112527259,241.5676119129639 128.2977886176668,241.00814503442962 128.6961377817206,240.88381900894456 129.37902206322178,240.38651471631601 129.77737122727558,240.32435165828792 130.5171625323128,239.76488392124884 130.80169764952734,239.39190521539422 131.76911704801023,238.64594728837255 131.93983811838552,238.3972944932757 132.96416454063728,237.4026825503679 133.24869965785183,236.84321279579308 133.87467691558413,236.15941590449074 134.21611905633472,235.41345500113675 134.7282822674606,234.9161473507993 134.7282822674606,234.667493411107 135.0697244082112,234.23234883282566 135.29735250212252,233.29989537858637 135.63879464264028,232.92691369634122 135.63879464264028,232.55393184232526 135.58188761933707,231.87013133073924 135.69570166617632,231.3728215052979 136.2078648773022,230.31603711261414 136.09405083023012,230.19170944631333 136.0371438069269,229.57007082883501 136.15095785376616,229.13492351281457 135.98023678339086,228.32679216301767 136.2078648773022,227.1456756631378 136.2078648773022,226.89701933867764 135.98023678339086,226.3997064603609 136.0371438069269,225.77806493319804 136.32167892414145,224.9699302347144 136.37858594744466,224.2861233217991 136.72002808819525,223.35365841945168 136.72002808819525,223.1050009308383 136.94765618187375,222.6076857247972 136.94765618187375,221.79954786365852 137.23219129932113,221.11573827458778 137.23219129932113,220.867080099124 137.3460053463932,220.74275098275393 137.45981939299963,220.18326972296927 137.8581685575191,219.56162342551397 137.8581685575191,219.25080009794328 138.5410528385546,218.06967036542483 138.5410528385546,217.82101125497138 139.0532160496805,217.19936314492952 139.33775116689503,216.57771455775946 139.6222862843424,215.64524078241084 139.96372842486016,215.33441595215118 140.47589163575321,215.0235910025076 141.04496187041514,214.33977569371928 141.38640401116572,214.15328050922835 141.61403210484423,213.9046201966703 141.67093912838027,213.718124912004 142.24000936280936,213.03430850122822 142.97980066761374,211.79100445716176 143.0367076911498,211.41801287181443 143.43505685520358,210.98285580519587 143.49196387873963,210.79635984788183 143.77649899595417,210.36120244726771 143.89031304279342,209.61521778808674 144.51629030075856,208.68273599812528 144.5731973242946,208.434074006218 144.97154648858123,207.87458424508804 145.3698956524022,207.68808757216902 146.1096869574394,206.87993482680758 146.16659398074262,206.32044399232836 145.5406167227775,205.51228988263756 145.5406167227775,205.26362691732356 145.71133779315278,204.952798103448 146.22350100427866,204.57980336918263 146.28040802804753,204.3933059379342 146.3373150511179,203.83381338586332 146.05277993390337,203.21215454145567" stroke="#4dd2ff" stroke-linecap="round" stroke-linejoin="round" stroke-width="0.5"><title>2024-09-01 4.4km</title><desc>12321662453</desc></polyline></svg>