<?xml version="1.0" encoding="utf-8" ?>
<svg baseProfile="full" height="300mm" version="1.1" viewBox="0,0,200,300" width="200mm" xmlns="http://www.w3.org/2000/svg" xmlns:ev="http://www.w3.org/2001/xml-events" xmlns:xlink="http://www.w3.org/1999/xlink"><defs /><rect fill="#222222" height="300" width="200" x="0" y="0" /><text fill="#FFFFFF" style="font-size:12px; font-family:Arial; font-weight:bold;" x="10" y="20">Over 1km Workouts</text><text fill="#FFFFFF" style="font-size:4px; font-family:Arial" x="10" y="280">ATHLETE</text><text fill="#FFFFFF" style="font-size:9px; font-family:Arial" x="10" y="290">LaoMai</text><text fill="#FFFFFF" style="font-size:4px; font-family:Arial" x="120" y="280">STATISTICS</text><text fill="#FFFFFF" style="font-size:3px; font-family:Arial" x="120" y="285">Number: 10</text><text fill="#FFFFFF" style="font-size:3px; font-family:Arial" x="120" y="290">Weekly: 5.0</text><text fill="#FFFFFF" style="font-size:3px; font-family:Arial" x="141" y="285">Total: 34.5 km</text><text fill="#FFFFFF" style="font-size:3px; font-family:Arial" x="141" y="290">Avg: 3.5 km</text><text fill="#FFFFFF" style="font-size:3px; font-family:Arial" x="167" y="285">Min: 1.0 km</text><text fill="#FFFFFF" style="font-size:3px; font-family:Arial" x="167" y="290">Max: 5.5 km</text><polyline fill="none" points="27.301369862630963,61.61629700870253 29.273972602561116,64.04062374564819 30.26027397159487,64.5793627933599 32.97260273993015,67.00368748349138 36.4246575338766,68.35053380997851 39.876712328754365,68.61990301334299 42.589041096158326,69.96674871933647 52.205479451455176,81.01086401171051 64.78082191757858,73.19917630543932 67.0,68.88927219598554 67.0,68.61990301334299 64.28767123352736,67.00368748349138 65.02739726100117,65.38747120951302 60.09589041117579,57.57574872369878 32.726027397438884,48.14778463519178 32.23287671152502,47.07030141190626 16.452054794877768,37.64230909757316 18.67123287729919,43.29910752619617 25.328767123632133,50.03337947931141 28.041095889173448,52.18834377452731 28.28767123259604,46.80093055404723 29.273972602561116,43.837849757866934 30.26027397159487,43.837849757866934 31.24657534249127,45.72344691772014 32.47945205401629,48.68652612203732 32.726027397438884,50.03337947931141 29.273972602561116,45.99281785823405 30.999999999068677,43.29910752619617 30.506849315017462,45.454075957415625 30.999999999068677,47.33967224881053 38.39726027473807,58.11448876443319 39.383561642840505,61.07755750557408 42.589041096158326,58.3838587529026 42.342465752735734,52.72708464204334 41.84931506868452,54.3433067467995 42.342465752735734,55.151417520362884 42.095890410244465,56.76763850916177 43.08219178020954,58.922598669305444 43.57534246519208,62.69377576489933 45.54794520512223,67.27305678999983 49.73972602747381,74.00728273694403 56.39726027380675,64.84873228566721 59.849315067753196,78.58654899848625 60.589041095227,78.85591741628014 62.561643835157156,83.43517735111527 62.80821917857975,83.16580928466283 60.09589041117579,54.61267702560872 55.16438356228173,47.07030141190626 50.72602739650756,44.64596295077354 38.39726027473807,42.76036521163769 43.82191780861467,42.221622813958675 46.04109589103609,44.10722084227018 46.53424657508731,46.53155967616476 48.013698630034924,45.99281785823405 48.50684931408614,45.18470497545786 47.027397259138525,47.33967224881053 45.7945205476135,48.14778463519178 45.301369863562286,47.87841385998763 45.301369863562286,46.26218877802603 44.56164383608848,46.26218877802603 43.57534246519208,47.07030141190626 43.08219178020954,45.72344691772014 42.095890410244465,45.18470497545786 40.61643835622817,43.29910752619617 36.67123287636787,41.952251584269106 34.452054793946445,40.60539512569085 32.726027397438884,38.18105219816789 30.999999999068677,37.37293751677498 29.027397260069847,37.64230909757316 28.041095889173448,36.83419429184869 13.246575342491269,39.25853815069422 18.17808219138533,46.26218877802603 21.876712327823043,43.29910752619617 19.904109588824213,45.72344691772014 19.410958904772997,45.454075957415625 19.410958904772997,44.64596295077354 20.397260272875428,43.029736378928646 20.15068493131548,40.06665239809081 20.64383561629802,37.37293751677498 21.136986300349236,36.56482264888473 22.863013698719442,36.56482264888473 22.61643835529685,40.60539512569085 21.136986300349236,43.56847865274176 20.397260272875428,44.10722084227018 19.65753424540162,48.68652612203732 20.397260272875428,50.03337947931141 23.60273972619325,51.91897331015207 24.095890410244465,52.72708464204334 24.835616437718272,60.80818772385828 25.328767123632133,61.07755750557408 25.82191780768335,62.963145402492955 25.82191780768335,60.80818772385828 24.835616437718272,59.73070838814601 20.15068493131548,57.30637867306359 20.89041095972061,60.00007825298235 24.342465753667057,55.42078773700632 24.835616437718272,57.30637867306359 25.575342466123402,54.3433067467995 29.520547945052385,45.454075957415625 32.23287671152502,50.03337947931141 36.17808219231665,40.06665239809081 36.67123287636787,44.37659190664999 40.61643835622817,45.18470497545786 41.60273972526193,46.53155967616476 42.342465752735734,51.110861792229116 41.84931506868452,51.64960282482207 41.60273972526193,54.61267702560872 42.342465752735734,56.22889826237224 43.82191780861467,71.04422491206788 44.06849315017462,70.77485589496791 44.06849315017462,71.04422491206788 46.28767123259604,68.61990301334299 49.0,67.00368748349138 49.0,67.81179534131661 51.71232876740396,66.46494880807586 51.71232876740396,68.35053380997851 52.452054793946445,68.61990301334299 52.452054793946445,69.15864135767333 51.2191780814901,76.43160091340542 60.34246575366706,69.96674871933647 59.10958904027939,74.81538898148574 53.43835616391152,77.50907512125559 53.191780822351575,78.04781210143119 55.410958903841674,77.77844362170435 57.630136985331774,76.70096949674189 62.561643835157156,77.77844362170435 62.80821917857975,78.31718055973761 62.31506849266589,78.85591741628014 61.82191780861467,76.70096949674189 61.32876712270081,76.43160091340542 58.86301369871944,82.08833681396209 57.630136985331774,77.23970660055056 56.64383561629802,76.43160091340542 56.15068493131548,76.70096949674189 54.67123287636787,75.89286368573084 52.698630136437714,80.47212748741731 49.49315068498254,80.74149575992487 48.50684931408614,79.66402254463173 48.013698630034924,78.58654899848625 51.71232876740396,76.97033805889077 62.80821917857975,73.19917630543932 62.06849315110594,65.65684064012021 63.30136986263096,69.96674871933647 64.04109589010477,69.15864135767333 56.64383561629802,69.42801049933769 56.15068493131548,68.61990301334299 56.15068493131548,74.2766515056137 53.93150684889406,70.50548685737886 56.39726027380675,68.08116458612494 57.38356164470315,65.65684064012021 63.054794520139694,62.69377576489933 62.06849315110594,58.11448876443319 58.123287671245635,55.959528108127415 56.64383561629802,54.61267702560872 41.10958904121071,58.11448876443319 40.86301369778812,56.22889826237224 42.342465752735734,54.3433067467995 45.301369863562286,47.33967224881053 45.301369863562286,46.53155967616476 48.26027397252619,43.837849757866934 46.7808219185099,43.029736378928646 41.35616438370198,43.029736378928646 30.26027397159487,56.22889826237224 28.53424657601863,57.57574872369878 27.547945205122232,50.841491245198995 26.068493150174618,48.68652612203732 20.89041095972061,46.26218877802603 20.397260272875428,46.53155967616476 20.15068493131548,49.764008849160746 18.424657533876598,47.609043064527214 17.68493150640279,40.87476645922288 18.917808217927814,41.14413777156733 21.876712327823043,43.029736378928646 23.10958904121071,43.29910752619617 23.356164382770658,42.76036521163769 24.095890410244465,43.837849757866934 21.136986300349236,43.029736378928646 21.876712327823043,43.29910752619617 18.917808217927814,51.64960282482207 17.191780822351575,52.18834377452731 21.383561643771827,45.99281785823405 16.945205478928983,50.57212067744695 13.0,48.14778463519178 17.43835616391152,56.22889826237224 18.67123287729919,56.76763850916177 23.10958904121071,61.07755750557408 22.863013698719442,62.15503642754629 20.397260272875428,57.57574872369878 20.89041095972061,59.46133850212209 21.630136986263096,59.19196859630756 23.10958904121071,57.037008601240814 22.863013698719442,58.3838587529026 23.849315067753196,58.922598669305444 26.808219177648425,62.15503642754629 30.26027397159487,62.69377576489933 44.56164383608848,71.31359390891157 45.7945205476135,69.42801049933769 56.64383561629802,80.47212748741731 55.65753424633294,77.23970660055056 58.61643835622817,69.42801049933769 61.08219178020954,68.88927219598554 62.31506849266589,67.27305678999983 63.30136986263096,69.42801049933769 63.794520548544824,63.232515019597486 64.53424657508731,62.15503642754629 53.68493150733411,59.46133850212209 47.027397259138525,46.26218877802603 41.60273972526193,47.33967224881053 39.876712328754365,45.99281785823405 38.89041095878929,44.10722084227018 38.15068493131548,46.53155967616476 38.15068493131548,45.454075957415625 35.438356164842844,47.609043064527214 29.520547945052385,50.57212067744695 30.506849315017462,46.26218877802603 30.999999999068677,45.18470497545786 25.328767123632133,49.2252675271593 25.575342466123402,48.417155388742685 23.10958904121071,50.841491245198995 22.863013698719442,50.03337947931141 19.904109588824213,47.33967224881053 17.931506849825382,51.110861792229116 17.68493150640279,50.57212067744695 17.931506849825382,50.03337947931141 18.917808217927814,48.95589683577418 15.958904108963907,43.29910752619617 15.712328766472638,42.76036521163769 16.698630136437714,43.29910752619617 16.698630136437714,43.56847865274176 15.712328766472638,42.490994022693485 18.17808219138533,42.490994022693485 19.904109588824213,43.029736378928646 20.89041095972061,45.454075957415625 21.383561643771827,50.03337947931141 22.369863013736904,48.68652612203732 22.863013698719442,49.2252675271593 24.342465753667057,58.65322872181423 23.60273972619325,59.73070838814601 20.15068493131548,57.84511875431053 20.397260272875428,58.65322872181423 22.863013698719442,52.72708464204334 21.876712327823043,60.00007825298235 25.82191780768335,47.609043064527214 26.561643835157156,51.91897331015207 26.561643835157156,53.265825426671654 29.520547945052385,59.46133850212209 33.2191780814901,64.04062374564819 35.438356164842844,64.84873228566721 36.67123287636787,65.65684064012021 36.67123287636787,69.69737961958162 37.410958903841674,69.96674871933647 39.876712328754365,66.73431815649383 39.383561642840505,69.96674871933647 43.57534246519208,71.31359390891157 41.84931506868452,68.35053380997851 43.32876712270081,69.15864135767333 47.76712328661233,63.77125419047661 51.2191780814901,65.11810175795108 52.205479451455176,64.5793627933599 54.17808219138533,68.88927219598554 54.17808219138533,69.96674871933647 58.61643835622817,63.50188461574726 58.86301369871944,64.5793627933599 56.39726027380675,72.39106968790293 56.39726027380675,73.73791394662112 55.65753424633294,74.54602025356144 58.36986301280558,70.50548685737886 58.36986301280558,72.1217007744126 57.630136985331774,74.2766515056137 58.86301369871944,76.97033805889077 55.410958903841674,78.31718055973761 56.15068493131548,78.85591741628014 60.34246575366706,77.50907512125559 61.08219178020954,78.04781210143119 58.36986301280558,79.93339087930508 52.205479451455176,71.85233183950186 54.42465753480792,68.08116458612494 55.16438356228173,65.38747120951302 58.36986301280558,66.19557943986729 61.82191780861467,68.88927219598554 54.67123287636787,72.92980745318346 56.15068493131548,69.15864135767333 57.876712328754365,68.08116458612494 60.83561643771827,58.11448876443319 47.76712328661233,53.265825426671654 47.52054794598371,52.45771421864629 41.60273972526193,55.959528108127415 40.86301369778812,55.959528108127415 40.61643835622817,54.88204728323035 41.60273972526193,48.95589683577418 26.31506849359721,48.14778463519178 24.835616437718272,43.029736378928646 24.835616437718272,42.490994022693485 24.342465753667057,41.952251584269106 26.068493150174618,41.952251584269106" stroke="#4dd2ff" stroke-linecap="round" stroke-linejoin="round" stroke-width="0.5"><title>2024-09-06 5.1km</title><desc>12338457346</desc></polyline><polyline fill="none" points="84.10280373878777,43.184576007770374 83.09345794469118,44.562899593729526 83.85046728979796,48.697867177892476 79.56074766349047,48.697867177892476 79.0560747673735,50.35185287846252 81.07476635556668,54.2111498832237 83.34579439368099,57.519115443807095 83.34579439368099,58.89743352821097 84.60747663583606,61.10274136252701 86.62616822402924,63.58371105790138 90.41121495328844,66.61600502370857 98.48598130885512,68.54564530565403 100.00000000093132,69.37263368046843 103.02803738322109,73.23191024479456 104.28971962723881,73.78323512966745 109.33644859865308,80.12346522323787 114.63551401905715,83.70706858532503 117.91588785126805,84.80971505399793 122.20560747757554,84.53405346907675 123.46728971973062,85.08537661819719 122.71028037369251,83.70706858532503 124.22429906576872,78.74515528534539 122.96261682361364,72.95624777046032 124.98130841180682,69.0969709099736 121.19626168254763,72.12926022103056 119.93457943946123,69.37263368046843 122.71028037369251,70.75094721536152 121.95327102765441,68.82130811852403 123.71962616872042,64.41070057498291 127.0,68.54564530565403 122.20560747757554,63.58371105790138 121.95327102765441,61.654068109579384 118.67289719730616,57.79477910348214 115.39252336416394,49.524860123638064 103.5327102812007,40.97925716987811 106.56074766349047,43.73590550525114 104.03738317731768,42.35758160287514 106.56074766349047,46.21688719885424 92.68224299140275,51.178845442598686 90.15887850429863,48.4222028197255 90.15887850429863,46.768216230906546 85.36448598187417,39.876597243361175 82.84112149570137,37.67127637332305 81.83177570160478,34.91462338203564 77.79439252335578,35.190288776764646 75.7757009351626,36.0172848328948 74.2616822430864,35.741619501961395 73.50467289797962,37.119945944752544 74.5140186920762,37.94694155664183 74.2616822430864,39.876597243361175 76.7850467292592,42.633246425539255 77.03738317918032,43.73590550525114 81.07476635556668,49.800524396123365 75.52336448710412,42.35758160287514 76.02803738322109,44.562899593729526 77.5420560752973,41.530587006825954 79.30841121543199,45.665558081585914 75.27102803811431,41.254922098480165 85.11214953288436,50.903181275585666 87.38317757099867,42.633246425539255 90.15887850429863,49.524860123638064 88.14018691610545,46.768216230906546 88.64485981315374,48.146538441767916 88.64485981315374,43.46024076780304 88.39252336509526,45.11422888073139 100.00000000093132,52.83283000043593 100.25233644805849,54.486813796684146 100.00000000093132,56.14079683064483 101.2616822430864,62.481058071833104 104.79439252335578,69.0969709099736 106.56074766349047,71.3022724809125 107.31775700952858,73.23191024479456 107.57009345758706,74.61022229818627 114.63551401905715,65.23768990230747 119.42990654241294,62.2053947718814 120.18691588845104,67.16733092442155 118.92523364536464,67.71865674015135 118.16822429932654,78.74515528534539 120.18691588845104,79.57214131113142 117.41121495328844,81.77743644989096 121.19626168254763,83.15574522386305 118.92523364536464,79.57214131113142 118.42056074738503,77.36684481869452 120.18691588845104,75.4372092767153 120.43925233744085,73.50757269817404 122.20560747757554,70.47528455033898 124.47663551475853,72.12926022103056 118.92523364536464,67.44299384299666 117.91588785126805,64.6863637054339 116.40186915919185,64.41070057498291 115.39252336416394,66.61600502370857 114.88785046804696,62.756721349898726 118.42056074738503,53.384158017113805 115.14018691610545,50.07618864765391 113.87850467301905,47.31954517867416 112.86915887892246,45.665558081585914 108.07476635556668,43.184576007770374 106.05607476644218,42.90891122678295 104.5420560752973,41.530587006825954 98.48598130885512,42.90891122678295 97.22429906576872,42.633246425539255 96.21495327167213,42.08191675855778 97.4766355138272,44.562899593729526 98.99065420590341,42.35758160287514 100.50467289797962,41.254922098480165 102.0186915891245,41.254922098480165 103.2803738322109,42.35758160287514 104.5420560752973,45.11422888073139 105.80373831931502,45.11422888073139 105.04672897327691,46.49255172535777 103.02803738322109,46.49255172535777 103.02803738322109,45.389893491519615 101.76635514013469,46.21688719885424 101.00934579409659,44.83856424782425 98.48598130885512,42.35758160287514 96.46728972066194,41.530587006825954 94.95327102858573,41.254922098480165 88.89719626214355,36.29295014240779 87.13084112200886,36.56861543119885 85.61682243086398,35.741619501961395 79.56074766349047,42.35758160287514 76.7850467292592,44.83856424782425 78.2990654213354,36.0172848328948 80.06542056147009,35.46595414960757 80.06542056147009,38.49827185808681 78.04672897234559,42.90891122678295 77.03738317918032,48.4222028197255 79.0560747673735,50.07618864765391 81.07476635556668,51.178845442598686 82.58878504764289,60.27575108315796 83.34579439368099,61.92973145120777 83.09345794469118,60.27575108315796 77.79439252335578,56.96778806205839 77.79439252335578,58.34610635810532 79.8130841134116,57.79477910348214 81.57943925168365,54.762477688258514 82.33644859772176,56.96778806205839 88.14018691610545,46.21688719885424 89.65420560725033,49.24919582903385 94.19626168347895,41.530587006825954 99.24299065489322,45.665558081585914 100.25233644805849,50.62751708761789 99.74766355194151,51.73017371352762 99.4953271029517,53.93548594904132 100.00000000093132,55.038141559576616 101.76635514013469,70.47528455033898 104.28971962723881,67.99431961681694 107.06542056147009,66.61600502370857 109.84112149570137,66.34034204180352 109.84112149570137,67.99431961681694 110.34579439181834,69.37263368046843 109.33644859865308,74.33455992978998 109.58878504671156,75.71287156036124 118.42056074738503,69.37263368046843 117.15887850522995,75.4372092767153 115.64485981315374,75.98853382281959 120.69158878549933,77.642506954493 117.41121495328844,80.67478904942982 115.89719626307487,77.36684481869452 112.61682242993265,75.71287156036124 106.05607476644218,79.02081731543876 120.43925233744085,65.23768990230747 121.70093457959592,69.64829642931 122.96261682361364,68.54564530565403 114.63551401905715,68.54564530565403 112.11214953288436,70.19962186482735 114.88785046804696,66.89166798419319 120.69158878549933,57.519115443807095 116.40186915919185,55.31380540900864 115.14018691610545,54.2111498832237 98.73831775784492,55.865133044775575 100.50467289797962,53.108494019834325 102.0186915891245,47.59520962066017 106.05607476644218,42.633246425539255 104.28971962723881,42.08191675855778 99.24299065489322,42.08191675855778 84.85981308482587,50.903181275585666 84.35514018777758,48.697867177892476 77.79439252335578,45.11422888073139 77.28971962630749,48.697867177892476 75.7757009351626,46.768216230906546 75.0186915891245,39.876597243361175 79.56074766349047,42.08191675855778 80.8224299075082,42.08191675855778 81.57943925168365,43.184576007770374 79.30841121543199,42.35758160287514 78.80373831745237,44.83856424782425 74.5140186920762,50.35185287846252 76.02803738322109,56.14079683064483 76.7850467292592,57.24345176387578 80.57009345851839,60.82707795780152 77.79439252335578,56.69212433905341 78.2990654213354,58.89743352821097 80.8224299075082,56.14079683064483 80.31775700952858,57.519115443807095 83.85046728979796,61.378404746064916 87.38317757099867,62.2053947718814 88.64485981315374,61.92973145120777 90.41121495328844,62.756721349898726 91.92523364536464,65.5133529691957 94.19626168347895,67.16733092442155 98.99065420590341,64.41070057498291 100.75700934696943,69.9239591578953 102.0186915891245,70.75094721536152 105.04672897327691,64.13503742357716 104.28971962723881,60.55141453142278 103.5327102812007,69.0969709099736 106.30841121543199,66.89166798419319 105.80373831931502,62.756721349898726 103.5327102812007,57.79477910348214 105.04672897327691,65.5133529691957 107.57009345758706,70.19962186482735 111.60747663676739,72.12926022103056 112.36448598187417,73.78323512966745 112.36448598187417,79.02081731543876 112.61682242993265,80.39912714692764 113.87850467301905,80.95045093167573 116.65420560725033,79.02081731543876 115.39252336416394,81.77743644989096 113.87850467301905,77.09118266170844 108.83177570160478,77.642506954493 115.89719626307487,71.02660985873081 117.66355140227824,68.82130811852403 119.42990654241294,68.54564530565403 120.43925233744085,66.89166798419319 121.44859813153744,68.26998247182928 122.45794392656535,62.2053947718814 118.92523364536464,62.756721349898726 116.14953271020204,62.2053947718814 120.43925233744085,59.72442412492819 113.37383177597076,58.34610635810532 112.11214953288436,59.17309708148241 111.35514018777758,58.07044274150394 110.09345794469118,54.486813796684146 110.34579439181834,53.108494019834325 104.5420560752973,44.83856424782425 102.7757009351626,44.83856424782425 101.76635514013469,44.01157022290863 99.4953271029517,46.49255172535777 96.7196261677891,44.01157022290863 92.93457943946123,46.768216230906546 87.63551401905715,47.31954517867416 88.89719626214355,43.73590550525114 80.31775700952858,49.800524396123365 77.28971962630749,46.768216230906546 75.27102803811431,50.35185287846252 75.7757009351626,48.4222028197255 73.0,42.35758160287514 74.5140186920762,41.530587006825954 78.04672897234559,42.35758160287514 81.83177570160478,58.07044274150394 81.07476635556668,59.17309708148241 78.04672897234559,57.79477910348214 80.06542056147009,52.00583781674504 79.30841121543199,59.72442412492819 84.10280373878777,51.45450958865695 84.10280373878777,53.384158017113805 87.88785046804696,60.27575108315796 90.66355140320957,63.58371105790138 94.70093457959592,65.23768990230747 94.19626168347895,69.64829642931 101.5140186920762,71.02660985873081 99.74766355194151,67.71865674015135 101.00934579409659,68.54564530565403 105.80373831931502,63.308047842932865 110.34579439181834,63.58371105790138 112.11214953288436,69.0969709099736 114.13084112200886,64.6863637054339 117.41121495328844,63.308047842932865 114.13084112200886,74.05889753997326 116.65420560725033,70.19962186482735 115.64485981315374,74.33455992978998 116.65420560725033,75.71287156036124 113.37383177597076,78.19383116229437 118.67289719730616,77.36684481869452 116.65420560725033,79.84780327719636 111.35514018777758,78.74515528534539 108.5794392535463,76.81552048376761 109.08411214966327,73.50757269817404 113.12149532791227,66.61600502370857 113.37383177597076,64.96202681423165 115.64485981315374,66.06467903894372 112.36448598187417,73.50757269817404 114.38317757099867,68.82130811852403 116.14953271020204,67.71865674015135 116.90654205624014,65.78901601419784 116.40186915919185,60.0000876148697 117.15887850522995,57.79477910348214 115.89719626307487,51.45450958865695 111.85981308389455,60.0000876148697 108.32710280362517,61.654068109579384 106.81308411248028,55.5894692374859 105.80373831931502,53.108494019834325 98.48598130885512,54.2111498832237 98.48598130885512,49.524860123638064 99.24299065489322,48.4222028197255 99.4953271029517,45.941222650930285 99.74766355194151,48.697867177892476 96.97196261771023,50.903181275585666 93.94392523355782,47.043880715966225 94.44859813153744,44.562899593729526 89.40186915919185,50.903181275585666 89.14953271113336,49.24919582903385 84.35514018777758,49.800524396123365 81.83177570160478,41.254922098480165" stroke="#4dd2ff" stroke-linecap="round" stroke-linejoin="round" stroke-width="0.5"><title>2024-09-06 5.5km</title><desc>12338478213</desc></polyline><polyline fill="none" points="156.09066151478328,86.96009076194605 156.01758976723067,87.0 155.87144627259113,86.92018152077799 155.9079821461346,86.80045377885108 156.05412564100698,86.68072600947926 156.01758976723067,86.44127038808074 155.76183865149505,86.2417239525821 155.65223103039898,86.2417239525821 155.21380054601468,85.76281219522934 154.95804943027906,85.60317484490224 154.88497768272646,85.36371872751624 154.81190593540668,85.32380936385016 154.95804943027906,85.44353744550608 152.3640023979824,83.24851823653444 150.97563919750974,82.76960372377653 151.99864366091788,81.41267687676009 152.10825128201395,81.17321883040131 152.40053827152587,80.85394126386382 150.71988808177412,78.06025419800426 150.68335220823064,77.82079460850218 150.7564239553176,76.42394480630173 151.4871414292138,75.18673184912768 153.9715808404144,72.79211776627926 154.22733195638284,72.71229710697662 155.03112117759883,72.31319362684735 157.69823995698243,70.43740316841286 158.10013456782326,70.19794006986194 158.46549330465496,69.95847686097841 158.6847085468471,69.59928184107412 158.86738791526295,69.1203547619807 159.19621077855118,68.88089105705149 159.41542602074333,68.4019633163989 159.67117713671178,68.28223131241975 159.85385650512762,67.24455278951791 160.29228698951192,66.52615875325864 160.3288228630554,66.24678302675602 160.25575111573562,66.0073179989704 160.29228698951192,65.88758544367738 160.43843048415147,61.73683982130024 160.54803810524754,61.497372717101825 161.75372193730436,57.546149579109624 163.43437212705612,55.15145428007236 165.4073093063198,51.63921456265962 166.83220838056877,49.8032616339915 166.83220838056877,48.4462487816927 166.61299313837662,47.368618405918824 168.4032509494573,44.135713879950345 168.366715075681,44.01597628928721 169.31664779176936,42.69886097268318 168.6590020651929,42.02034571976401 168.54939444409683,41.54139324350399 168.54939444409683,40.74313813608023 168.43978682300076,40.66331255782279 168.03789221239276,39.38610164108104 167.74560522288084,39.26636295681237 167.161031243857,38.66766912175808 167.05142362276092,38.70758206548635 166.3207061488647,38.38827842948376 166.43031376996078,38.42819139471976 166.2841702750884,38.14880057386472 165.77266804338433,36.59219182369998 164.09201785363257,34.99566518800566 164.45737659046426,34.79609901382355 164.45737659046426,34.636446019401774 164.20162547472864,34.197400031931465 164.27469722204842,34.03774685366079 164.49391246424057,33.997833551460644 164.4208407169208,33.87809362637927 164.45737659046426,33.71844034999958 163.9824102325365,33.359220299113076 163.9458743587602,33.0 164.01894610607997,33.03991337883053 163.9824102325365,33.07982675463427 164.01894610607997,33.03991337883053" stroke="#4dd2ff" stroke-linecap="round" stroke-linejoin="round" stroke-width="0.5"><title>2024-09-05 1.9km</title><desc>12331486698</desc></polyline><polyline fill="none" points="37.46630287717562,93.790837857523 37.81102357432246,93.67786109875306 37.50077494699508,93.07531794608803 37.53524701681454,93.0 36.01847594999708,96.87885918904794 35.915059740887955,96.99183521067607 35.915059740887955,97.1424698656192 36.12189215910621,97.70734941001865 36.259780438034795,97.85798384525697 36.328724577324465,97.85798384525697 36.43214078643359,97.93330104564666 36.60450113483239,97.93330104564666 36.91474976215977,98.04627682446153 38.84518566506449,100.19281167860026 38.98307394387666,100.68237094409415 39.052018083282746,100.64471255644457 39.327794640907086,100.7953460898716 39.362266710493714,100.90832120965933 39.913819825742394,101.02129630342824 40.05170810443815,101.2095880684792 40.18959638325032,101.62382969722967 40.18959638325032,101.96275440620957 40.2585405226564,102.0380709762976 40.155124313547276,102.11338753491873 40.4309008710552,102.4523119055957 40.36195673176553,103.61971627926687 43.42997093463782,107.38551790756173 43.533387143863365,107.64912293915404 43.671275422442704,107.83741216067574 45.77407167409547,110.81237227167003 46.08432030142285,111.03831787226954 47.15295446186792,111.37723607799853 47.46320308907889,111.71615404964541 50.53121729195118,116.79989553400083 50.53121729195118,117.17646688211244 51.66879559203517,120.49028228470706 52.01351628894918,120.82919396221405 52.668485613306984,127.11784595798235 52.392709055682644,127.30612770933658 50.94488212838769,129.11362884761184 50.28991280426271,130.6198747108865 49.80730382853653,131.22237176180352 49.46258313138969,131.52362000988796 49.18680657388177,131.59893204303808 45.77407167409547,132.27673982118722 44.18835646798834,134.0089110013796 44.153884398168884,134.19719010902918 42.637113331700675,137.81213497158024 42.39580884377938,137.92510156953358 39.87934775603935,141.31408741752966 37.50077494699508,142.85795099043753 34.98431385913864,146.58579667200684 34.50170488341246,146.9246903300227 34.29487246531062,147.0 29.67561512615066,144.1005693633051 27.46940266538877,146.17159299424384 27.4004585260991,146.13393809719128 27.331514386693016,146.28455766831758" stroke="#4dd2ff" stroke-linecap="round" stroke-linejoin="round" stroke-width="0.5"><title>2024-09-05 2.3km</title><desc>12331294784</desc></polyline><polyline fill="none" points="73.0,117.54200205998495 73.1978021976538,117.54200205998495 73.0989010988269,117.48797993233893 73.1978021976538,117.48797993233893 77.0549450549297,117.81211263628211 76.85714285681024,117.86613473907346 77.00549450516701,117.65004630299518 77.20329670328647,117.70406841818476 77.84615384601057,117.70406841818476 78.1428571427241,117.59602418361465 78.93406593403779,117.86613473907346 79.23076923075132,117.86613473907346 89.56593406572938,119.75690572505118 89.96153846150264,119.91897157306084 98.81318681291305,119.97299351420952 99.15934065915644,119.86494962789584 103.80769230751321,121.05343146511586 103.90659340657294,121.05343146511586 104.7967032964807,120.13505931268446 112.51098901079968,122.07984598202165 116.17032967018895,122.51202006766107 124.57692307676189,121.70169343944872 125.36813186784275,121.75571524375118 126.60439560422674,121.59364981856197 126.70329670328647,121.70169343944872 127.0,121.64767163107172" stroke="#4dd2ff" stroke-linecap="round" stroke-linejoin="round" stroke-width="0.5"><title>2024-09-05 1.2km</title><desc>12326195421</desc></polyline><polyline fill="none" points="187.0,120.20662929920945 180.00175131345168,121.23976292856969 178.20490367757156,120.9298229230335 176.1243432573974,122.58283546101302 169.50437828339636,119.27680835477076 169.1260945708491,119.89668905572034 168.8423817860894,120.10331589262933 166.3835376529023,120.8265095720999 165.05954465828836,119.89668905572034 166.667250437662,120.8265095720999 166.28896672511473,120.9298229230335 151.63047285471112,119.79337562562432 150.1173380035907,118.86355439561885 149.73905429104343,118.2436732185306 148.0367775829509,117.52047815150581 135.55341506144032,118.14035966154188 133.0,117.41716453887057" stroke="#4dd2ff" stroke-linecap="round" stroke-linejoin="round" stroke-width="0.5"><title>2024-09-04 1.0km</title><desc>12324130724</desc></polyline><polyline fill="none" points="36.91509966994636,154.42972264549462 37.363812445197254,154.79736499063438 38.074274339480326,155.2058561874146 39.49519812781364,156.96236476043123 39.981303634354845,156.79896885872586 40.13087455928326,157.24830746793305 40.09348182822578,157.45255216478836 40.616980066057295,158.31037903600372 41.252656497759745,158.9231116688752 41.70136927301064,159.69923865771852 42.18747477955185,159.86263366913772 42.41183116706088,159.86263366913772 43.01011486747302,160.23027226119302 43.12229306134395,160.4753645148303 43.197078523924574,160.80215401077294 43.53361310530454,161.12894330610288 44.13189680571668,161.5374296430964 44.01971861184575,161.82336989234318 43.944933149265125,162.35440137638943 44.05711134313606,162.59949265190517 44.39364592451602,163.00797786013572 45.40324966912158,163.57985662508872 45.62760605663061,163.82494733622298 46.30067521962337,165.45888252617442 47.085922576254234,166.39839298909646 47.721599007956684,166.68433062685654 47.94595539546572,167.50129445982748 49.105130064999685,168.23656083733658 49.59123557177372,168.48164940415882 49.852984690340236,168.68588979024207 50.339090197114274,169.54369855605182 51.049552091164514,170.36065800016513 51.685228522866964,171.50439911536523 52.24611949198879,172.64813777277595 52.73222499853,173.4242447478464 53.1809377737809,173.8735693214694 53.25572323636152,174.15950294351205 53.29311596765183,174.7313697268546 53.704436011612415,175.83425393115613 54.265326980734244,176.8554409716744 54.71403975598514,177.87662605309743 54.901003412436694,178.4484888430743 55.38710891874507,179.4288236249704 55.79842896270566,180.53169809657265 56.209749006899074,181.92049973641406 56.17235627560876,183.14590993899037 56.06017808197066,183.63607323018368 55.31232345639728,185.5558751084609 54.86361068114638,186.16857637814246 54.302719711791724,186.57704349950654 54.07836332428269,186.90381697088014 53.81661420548335,187.59820993171888 52.956581386271864,189.23207214887952 51.98437037295662,189.96730851067696 51.57305032899603,190.17154065315844 51.086944822454825,190.25323348827078 49.89037742186338,190.17154065315844 48.17031178320758,190.66169747558888 47.53463535150513,191.19270019052783 46.82417345745489,192.09131896306644 46.30067521962337,193.1533210115158 46.22588975704275,194.3787053580163 45.926747906720266,195.4407028434798 45.216286012670025,196.50269821059192 44.84235869976692,196.9520033050503 43.907540417974815,197.44215388485463 43.53361310530454,197.7689206873183 42.82315121102147,198.7492198914988 42.636187554802746,199.1576773604902 42.598794823512435,199.4844431099773 42.11268931697123,200.26051096152514 41.925725660519674,200.42389352290775 41.77615473559126,200.66896727104904 41.5517983478494,200.95488650130574 40.99090737872757,201.36334227817133 40.35523094702512,201.5267245011346 39.420412665233016,202.22109838950564 38.26123799593188,204.18167859816458 37.999488876666874,204.34505995630752 37.77513248915784,204.67182252221392 37.326419714139774,204.9577396028908 36.98988513252698,205.40703756242874 36.39160143211484,206.4281678784464 35.90549592557363,206.79577431283542 35.26981949387118,207.0 34.70892852474935,206.9591548688477 33.9610738994088,206.4281678784464 33.58714658673853,206.0197159870586 33.32539746770635,205.89718035850092 32.801899229874834,205.24365653001587 31.567939097760245,204.09998790023383 30.894869935000315,203.77322498336434 30.59572808491066,203.77322498336434 30.147015309426934,204.26336928346427 29.84787345933728,204.9577396028908 28.838269714964554,205.69295424831216 28.68869878980331,205.93802557117306 28.726091521093622,206.38732270340552 28.913055177545175,206.50985821912764 29.698302534176037,205.89718035850092 29.623517071595415,205.69295424831216 29.436553415376693,205.61126378225163 27.155596807599068,203.5281526640756 24.388534693513066,201.19996000494575 23.790250993100926,201.69010667395196 23.790250993100926,201.8943343196297 23.97721464955248,202.05771637961152 24.463320155860856,201.77179774164688 24.463320155860856,201.56757004908286 23.939821918029338,201.40418783857604 24.912032931111753,200.50558478478342 24.949425662402064,200.21966531325597 24.837247468763962,199.7703629763564 26.145993063226342,199.89290001496556 26.258171257330105,199.64782590957475 26.258171257330105,199.2802145400201 25.697280287975445,198.9534486650955 25.39813843788579,198.5041452596197 25.136389318853617,198.299916313641 24.6128910810221,198.0956872892857 24.313749230932444,197.7280748479825 24.351141961989924,197.44215388485463 24.201571037061512,197.19707865139935 24.201571037061512,196.5435441439331 24.08939284319058,196.21677658936824 24.12678557448089,195.72662488155765 24.238963768351823,195.6040868840355 24.313749230932444,195.07308856904274 24.912032931111753,194.0110903501045 25.39813843788579,193.31670575396856 26.295563988387585,192.62232025206322 27.37995319534093,191.88708755702828 28.426949671003968,191.27439286885783 28.913055177545175,191.11100749959587 30.221800772007555,190.37577271732152 32.05404460430145,188.61937440512702 32.61493557365611,187.9658293678076 33.17582654254511,187.10805028874893 33.73671751166694,185.76010894338833 33.99846663069911,184.73893898521783 33.99846663069911,184.16708295297576 34.110644824570045,183.7994608936133 33.9610738994088,181.6345702832332 34.185430286917835,180.49085093472968 34.52196486853063,179.4696708683623 34.59675033087842,178.65272540482692 34.89589218120091,177.79493131875643 35.00807037483901,177.549847040209 35.26981949387118,176.8145935276989 35.90549592557363,175.63001628793427 35.98028138815425,175.3032358957862 36.6159578198567,174.2411982359481 37.88731068302877,172.93407205311814 38.33602345827967,172.32135555002606 39.308234471362084,170.60574558886583 39.86912544071674,169.380306516774 40.80394372227602,168.44080131754163 40.80394372227602,168.23656083733658 40.43001640960574,167.74638336527278 40.35523094702512,167.50129445982748 40.729158259695396,167.09281270008069 40.76655099098571,166.8477234938473 40.691765528637916,166.5209377098363 40.39262367831543,166.11245519769727 40.39262367831543,165.86736553988885 40.95351464743726,165.33633756093332 41.66397654172033,163.90664421478868 41.888332929229364,163.1305233615276 42.4866166296415,162.02761283353902 42.86054394254461,161.45573240076192 43.197078523924574,161.21064059858327 43.346649448852986,160.96554868356907 43.197078523924574,160.4753645148303 43.53361310530454,159.86263366913772 43.72057676152326,159.5766923664196 43.68318403046578,159.29075090991682 43.346649448852986,158.88226284855045 43.234471254982054,158.5963210191112 43.08490033005364,158.31037903600372 42.598794823512435,158.22868129835115 42.26226024189964,157.7384946088132 42.07529658568092,157.24830746793305 41.963118391809985,157.0849116538884 42.15008204826154,156.51302590989508 41.81354746688157,156.55387491194415 41.2152637662366,156.26793183144764 39.981303634354845,155.2058561874146 39.60737632145174,154.6339684241102 39.345627202885225,154.51142096627154 38.8969144274015,154.87906325500808 39.12127081514336,154.2663259661349 38.784736233530566,154.79736499063438 38.747343502240255,154.42972264549462 38.14905980206095,153.36764333274914 37.92470341431908,153.2859448363888 37.66295429551974,153.2859448363888 37.5133833703585,153.1633970681869 37.62556156422943,153.0" stroke="#4dd2ff" stroke-linecap="round" stroke-linejoin="round" stroke-width="0.5"><title>2024-09-04 4.2km</title><desc>12321514485</desc></polyline><polyline fill="none" points="108.55868506687693,153.0 108.75543644744903,153.0537334132241 109.39487843541428,153.75226740841754 110.03432042291388,154.02093414391857 110.13269611331634,154.45080070657423 110.28025964880362,154.77320045535453 110.52619887515903,155.2030665560742 110.91970163676888,155.57919917767867 111.16564086265862,155.79413201351417 111.55914362426847,155.84786521230126 111.80508285062388,156.11653114372166 112.39533699280582,156.33146381471306 112.64127621916123,156.60012956062565 112.83802759973332,156.60012956062565 112.83802759973332,156.7613289586734 113.18234251649119,157.24492693017237 113.47746958769858,157.78225761797512 114.116911575431,158.37332089815754 114.4120386466384,158.8031847885577 114.5596021823585,159.12558253313182 115.05148063413799,159.82411047047935 115.34660770557821,160.46890487102792 115.6417347767856,160.7913018486579 115.59254693170078,161.00623308453942 115.83848615782335,161.43609535845462 116.03523753862828,162.188353702717 116.37955245492049,162.4032845098991 116.5271159906406,162.833145926008 116.9698065975681,163.20927444874542 117.36330935917795,163.8003331476939 117.56006073998287,164.71378651907435 118.05193919199519,165.8959008778329 118.15031488239765,166.00336572062224 118.15031488239765,166.37949254037812 118.54381764424033,167.1317455735989 118.8389447152149,167.6153363827034 119.03569609625265,168.3138558503706 119.38001101277769,168.90491024038056 119.77351377462037,169.9258211933775 120.01945300051011,170.35567799134878 120.01945300051011,170.62433835625416 120.41295576211996,171.21539079590002 120.41295576211996,171.37658682919573 121.05239774985239,173.14974074665224 121.1999612855725,173.90198650659295 121.15077344025485,174.06318192143226 121.34752482105978,174.7079632098321 121.34752482105978,175.2990122025949 121.29833697597496,175.2452804966597 120.95402205944993,175.2452804966597 120.56051929784007,175.4064756022999 119.62595023890026,175.4602072960115 119.0848839415703,175.13781707227463 119.18325963197276,175.08408535388298 119.0848839415703,175.2452804966597 119.13407178665511,175.4064756022999 119.47838670318015,175.7288657022873 119.57676239358261,175.94379235309316 119.62595023890026,175.94379235309316 119.62595023890026,176.10498729796382 119.72432592930272,176.48110869160155 119.87188946479,176.58857190981507 119.97026515519246,177.01842461782508 120.01945300051011,177.12588775350014 119.97026515519246,176.80349829682382 119.67513808375224,176.53484030277468 119.62595023890026,176.42737707641209 119.62595023890026,176.3199138333439 119.4291988578625,175.94379235309316 119.62595023890026,175.4064756022999 119.82270161947235,175.3527439046302 119.97026515519246,175.51393898541573 120.3145800717175,175.56767067086184 120.60970714315772,175.51393898541573 120.90483421413228,175.6214023520006 121.29833697597496,175.56767067086184 121.24914913065732,176.15871893794974 121.15077344025485,176.48110869160155 121.1999612855725,176.53484030277468 121.05239774985239,177.01842461782508 120.90483421413228,177.07215618772898 120.95402205944993,177.17961931531318 120.80645852372982,177.44827706192154 120.80645852372982,177.66320318501676 120.6588949880097,177.9855922459392 120.46214360743761,178.14678672078298 120.51133145252243,178.25424968346488 120.36376791703515,178.52290701778838 120.26539222639985,178.63036992267007 119.33082316769287,179.00648995989468 118.986508250935,179.00648995989468 118.05193919199519,179.49007256818004 117.70762427547015,179.70499806455337 117.36330935917795,180.0811175245908 116.9698065975681,180.29604283958906 116.82224306184798,180.51096808863804 116.72386737144552,181.74678699066862 116.62549168104306,181.74678699066862 116.47792814532295,182.23036770656472 116.62549168104306,182.6602169512189 116.28117676451802,182.8751414747676 115.88767400290817,183.73483890900388 115.34660770557821,184.27214926946908 114.75635356316343,184.54080429521855 114.60879002744332,184.48707329831086 114.31366295623593,184.59453528787708 114.06772373011336,184.48707329831086 113.231530361576,184.59453528787708 112.83802759973332,184.75572824146366 111.46076793409884,184.70199726108694 111.26401655329391,184.86319018987706 110.82132594636641,184.86319018987706 110.47701102984138,185.0243830815889 110.42782318452373,184.91692115791375 109.93594473251142,185.23930687940447 109.69000550638884,185.29303781862836 109.05056351865642,186.3676557362196 108.90299998293631,186.74377161776647 108.36193368583918,187.38854123058263 108.06680661439896,187.54973354097456 107.96843092422932,187.7109258143464 107.37817678158171,187.87211805046536 107.13223755569197,188.08704097446753 106.8862983295694,188.5168866244494 106.59117125836201,188.8392706887098 106.59117125836201,190.02134432148887 106.83711048425175,190.39745824079728 106.83711048425175,190.55864985869266 106.64035910344683,191.14968547353055 106.68954694876447,191.47206832579104 106.64035910344683,192.43921599240275 106.4436077226419,192.9765196745284 105.85335358022712,193.51382294442737 105.65660219918936,193.88993498805212 105.16472374717705,193.99739553494146 104.82040883065201,194.2660468298709 103.78746408154257,194.4809677915764 103.73827623599209,194.58842824754538 103.59071270050481,195.12573028088082 103.49233701010235,195.2331906380714 103.4431491647847,196.57644371164497 103.29558562906459,196.95255411055405 103.34477347461507,197.2212042718893 103.19720993889496,197.43612432671944 103.19720993889496,197.6510443156003 102.8037071772851,197.9734241751721 102.60695579624735,198.40326375735458 102.06588949891739,198.67191336210817 101.08213259489276,199.6927809206536 99.95081215491518,200.06888964603422 99.6556850837078,200.39126839279197 99.06543094106019,200.8211064907373 98.77030387008563,201.19721461029258 98.42598895356059,202.00315990048693 97.93411050131544,202.5404562453623 97.88492265623063,202.7553746679332 97.49141989438795,203.23894087749068 96.90116575197317,203.561318165157 96.85197790665552,203.77623627439607 96.40928729972802,204.15234280691948 96.21253591915593,204.5284491375205 96.06497238343582,205.01201412302908 95.72065746691078,205.54930815967964 95.5730939314235,205.71049629035406 95.52390608610585,205.87168438383378 95.27796685998328,206.14033112395555 95.27796685998328,206.1940604596166 94.93365194369107,206.35524844191968 94.78608840797096,206.5164363870863 94.63852487248369,206.57016569387633 94.39258564636111,206.7850828798255 93.99908288475126,207.0 93.70395581331104,207.0 93.65476796822622,206.89254144817824 93.359640896786,206.83881216612644 92.86776244477369,206.57016569387633 92.72019890928641,206.30151911859866 92.5726353735663,206.30151911859866 91.44131493382156,205.44184938533 91.3429392434191,205.22693178709596 90.4575580295641,204.42099020653404 90.40837018424645,204.3135312590748 89.86730388714932,203.88369530427735 89.5721768157091,203.50758862745715 89.32623758981936,203.40012953989208 89.1294862087816,203.13148174865637 88.6867956018541,202.80910426314222 88.14572930452414,202.59418585716048 87.85060223331675,202.64791546494234 87.4570994717069,202.97029302443843 87.35872378130443,203.34639998985222 87.604663007427,202.59418585716048 87.40791162662208,202.3255377568421 87.604663007427,204.0986133145052 88.63760775700212,205.22693178709596 87.06359671009704,204.8508258316433 87.0144088647794,204.90455526619917 86.67009394848719,204.8508258316433 86.57171825808473,204.9582846966223 86.57171825808473,205.1194729632698 86.47334256744944,205.1194729632698 86.57171825808473,205.33439059439115 86.42415472236462,205.54930815967964 86.12902765115723,205.49557877448387 85.29283428261988,205.17320237727836 85.53877350874245,205.54930815967964 85.53877350874245,205.38811999198515 85.39120997302234,205.44184938533 85.14527074689977,205.87168438383378 85.0468950564973,205.87168438383378 84.99770721141249,205.76422565890243 85.0468950564973,205.97914309229236 84.99770721141249,205.0657435452449 85.3420221277047,205.33439059439115 85.14527074689977,205.92541374015855 85.19445859198458,206.1940604596166 85.3420221277047,206.35524844191968 86.32577903196216,206.08660178427817 86.62090610316955,206.1940604596166 86.42415472236462,206.08660178427817 86.57171825808473,205.49557877448387 86.32577903196216,204.90455526619917 86.03065196052194,204.79709639283828 85.7847127346322,204.42099020653404 84.80095583037473,203.77623627439607 84.35826522344723,203.29267043573782 84.30907737836242,203.40012953989208 84.35826522344723,203.453859085741 84.55501660448499,203.50758862745715 84.50582875916734,203.561318165157 84.55501660448499,203.453859085741 82.98100555757992,202.43299700930947 82.63669064128771,202.00315990048693 82.63669064128771,201.89570058201207 82.09562434395775,201.30467403592775 81.50537020154297,200.92856597428909 80.37404976179823,199.90770021697972 80.17729838076048,199.80024057708215 79.93135915487073,199.47786155820359 79.53785639326088,199.2629421299789 78.80003871489316,199.90770021697972 78.65247517917305,200.12261944729835 79.09516578633338,200.33753861184232 79.53785639326088,200.12261944729835 79.88217130932026,199.74651075084694 79.83298346446827,199.58532124763587 80.07892269035801,199.5315914050443 80.66917683277279,200.17634924466256 81.16105528501794,200.06888964603422 81.2594309754204,199.58532124763587 81.94806080847047,199.80024057708215 82.29237572476268,199.85397039918462 81.80049727275036,198.99429275188595 81.75130942743272,198.72564327070722 81.80049727275036,198.72564327070722 81.16105528501794,198.0808840955724 81.21024313033558,197.6510443156003 81.11186743970029,198.8331030755071 81.16105528501794,198.67191336210817 81.89887296315283,197.75850428530248 81.89887296315283,197.2749342917814 81.99724865355529,197.06001418747474 81.80049727275036,196.57644371164497 81.70212158211507,196.57644371164497 81.75130942743272,196.46898356062593 80.66917683277279,195.77049217669992 80.52161329728551,195.5555716107483 79.93135915487073,195.3943811429781 79.93135915487073,195.28692081052577 79.48866854794323,194.74961890088161 79.29191716713831,194.21231657912722 79.34110501222312,194.10485606529983 79.09516578633338,193.51382294442737 79.24272932182066,193.08398036152357 79.24272932182066,192.76159825123614 79.14435363118537,192.65413751482265 79.19354147650301,192.00937274994794 79.09516578633338,191.79445102979662 79.24272932182066,191.25714644073742 80.07892269035801,189.75269139843294 80.37404976179823,189.37657713284716 80.52161329728551,189.10792396229226 81.65293373703025,187.92584878770867 82.14481218904257,187.65719506063033 82.34156357008033,187.38854123058263 82.58750279597007,187.38854123058263 83.0301934031304,187.06615649844753 83.91557461675256,186.74377161776647 84.2598895332776,186.74377161776647 84.65339229465462,186.47511743730865 86.12902765115723,185.77661608561175 86.42415472236462,185.45423061138717 86.8176574842073,185.4004996845615 87.30953593598679,184.80945921764942 87.70303869782947,184.54080429521855 88.14572930452414,184.05722517473623 88.63760775700212,183.8423010141123 88.93273482797667,183.57364572043298 89.08029836369678,183.35872141137952 89.5721768157091,182.98260371177457 90.4575580295641,181.69305577944033 91.19537570769899,180.94081838894635 91.19537570769899,180.67216198210372 91.44131493382156,180.29604283958906 91.58887846954167,179.75872942828573 91.98238123115152,178.8990271128132 92.08075692132115,178.46917555917753 92.08075692132115,178.14678672078298 92.32669614744373,177.23335087287705 92.37588399276137,176.10498729796382 92.32669614744373,175.8363290359266 92.22832045704126,175.7288657022873 92.27750830235891,175.2990122025949 92.22832045704126,174.81542670028284 92.32669614744373,174.06318192143226 92.27750830235891,173.6870592291234 92.42507183807902,173.04227700066986 92.86776244477369,172.71988566376967 93.359640896786,172.07510254479712 93.85151934926398,171.16165877651656 94.14664642023854,170.73180247319397 94.29420995595865,170.14074962539598 94.63852487248369,169.60342842165846 94.78608840797096,169.06610680563608 94.78608840797096,167.66906867409125 94.93365194369107,167.34667486330727 94.88446409837343,167.02428090415196 94.78608840797096,166.97054856317118 94.88446409837343,166.86308386886958 94.88446409837343,166.43322492664447 94.63852487248369,166.0570981357596 94.63852487248369,165.73470358276973 94.63852487248369,165.6272386990022 94.78608840797096,165.46604134200606 94.78608840797096,165.1973789979238 95.67146962182596,163.8540657319827 96.06497238343582,163.58540276944404 96.26172376424074,163.31673970393604 96.85197790665552,162.88687858456979 97.3438563591335,162.0808882745332 98.3276132629253,160.95250028179726 98.37680110824294,160.73756902926834 98.77030387008563,160.03904200333636 98.9178674055729,159.3942472068593 99.2129944767803,159.01811663480476" stroke="#4dd2ff" stroke-linecap="round" stroke-linejoin="round" stroke-width="0.5"><title>2024-09-03 4.7km</title><desc>12321662462</desc></polyline><polyline fill="none" points="168.0698333005421,153.0 168.31144507601857,153.4750917967758 168.60137920663692,153.58066770696314 169.03628040244803,154.0557591028046 169.6161486634519,154.42527440591948 169.80943808378652,154.478062290058 170.24433927959763,155.21709224389633 170.19601692445576,155.4282435136265 170.29266163497232,155.74497029633494 171.45239815698005,156.32563568616752 171.93562170793302,156.6951497697155 172.0805887733586,156.6951497697155 172.80542409955524,157.2758143573883 173.33697000565007,158.38435448147357 173.82019355660304,158.8594425592455 174.35173946246505,159.75683025509352 174.6416735930834,159.91519266820978 175.02825243375264,160.6014293700573 175.26986420946196,161.34045274491655 175.94637718074955,162.34341176931048 176.13966660108417,162.87128435261548 177.0094689927064,163.92702830402413 177.39604783337563,165.77457632002188 178.0242384497542,167.30539805977605 178.50746200070716,168.14998790621758 178.60410671075806,168.51949563791277 179.52223145752214,170.52539128955686 180.05377736361697,172.05620245693717 180.34371149423532,172.4257080903626 180.5853232697118,173.16471876186552 180.63364562462084,173.534223799943 180.82693504495546,174.06208779575536 180.82693504495546,174.37880599865457 181.02022446552292,174.95945565891452 180.77861269004643,176.96533253212692 180.5853232697118,177.28204939857824 180.5853232697118,177.54598000913393 180.48867855942808,177.65155222505564 180.19874442904256,178.44334332778817 179.8121655881405,179.12956154643325 179.47390910238028,179.34070547588635 178.84571848623455,180.1852805460221 178.74907377595082,180.2380664535449 178.31417258037254,180.66035356733482 178.16920551494695,180.97706873260904 178.16920551494695,181.29378375195665 177.54101489880122,182.243927935604 177.49269254365936,182.56064237188548 177.202758413041,182.98292805993697 176.91282428242266,183.77471302670892 176.13966660108417,184.40814034384675 175.84973247046582,184.77763934299583 174.9799300788436,185.09435261267936 174.30341710755602,185.19992367026862 172.80542409955524,185.09435261267936 172.46716761402786,185.25270919292234 171.79065464274026,185.30549471161794 170.4859510550741,185.7805641971645 170.19601692445576,186.20284790894948 169.66447101859376,186.73070218408247 168.69802391668782,188.05033610016108 168.40808978606947,188.84211523475824 168.21480036596768,189.10604141058866 168.11815565568395,189.68667864077725 168.21480036596768,190.10895995498868 168.11815565568395,190.84795163111994 167.87654387997463,191.323017289571 167.58660974935628,192.37871757807443 167.34499797411263,192.58985744143138 166.95841913344339,193.22327664273325 166.42687322734855,193.85669526073616 165.89532732125372,194.22618918539956 165.55707083572634,194.22618918539956 164.3490119583439,195.12353074760176 163.62417663191445,196.23200988495955 163.09263072581962,197.97390206425916 162.75437424029224,198.39617829205235 162.51276246481575,198.87123873858945 161.78792713815346,199.34629885700997 161.69128242810257,199.50465215696022 160.24161177547649,200.03249622689327 159.71006586938165,200.4547711913474 159.32348702847958,200.87704589648638 159.03355289786123,201.0881831520237 159.08187525323592,201.35210463014664 158.93690818781033,201.51045746845193 158.8885858329013,201.61602600716287 158.7436187674757,201.72159452951746 158.26039521652274,202.67171050258912 158.01878344127908,202.83006303728325 157.8738163758535,203.1467679970665 157.58388224523515,203.51625693269307 157.05233633937314,203.78017747966805 156.1825339475181,204.5719385126722 155.8442774619907,205.36369863484288 155.79595510684885,205.68040242855204 155.60266568651423,205.89153820998035 155.45769862108864,206.31380957865622 155.0711197804194,206.47216127510183 154.68454093975015,206.84164842503378 154.53957387432456,206.89443228731398 154.10467267851345,207.0 153.52480441727675,206.89443228731398 152.9449361562729,206.41937738028355 152.65500202565454,206.36659348156536 151.7368772791233,205.73318638000637 151.20533137279563,205.2053466832731 151.01204195269383,204.7830746344407 150.62546311179176,204.51915447216015 150.38385133631527,204.14966607512906 149.61069365497679,203.41068868566072 148.4509571325034,202.61892631620867 148.16102300188504,202.5133579315152 147.7744441612158,202.77727886301 147.58115474088117,203.1467679970665 147.72612180630676,203.35790455609094 147.87108887149952,203.88574566983152 147.1945758999791,203.51625693269307 145.9865170228295,205.31091465504142 145.79322760249488,205.4164826105698 145.50329347187653,205.68040242855204 145.5516158270184,205.89153820998035 145.4549711169675,206.10267392673995 145.64826053730212,206.31380957865622 145.8898723127786,206.26102567178896 145.9865170228295,205.89153820998035 146.6630299941171,205.09977869532304 146.6630299941171,205.0469946952653 146.4214182186406,204.94142668310087 145.79322760249488,204.14966607512906 144.1019451743923,202.88284720730735 142.41066274605691,201.2993203427177 142.12072861543857,201.19375175534515 141.87911683996208,200.9826145324041 141.68582741939463,200.66590857628034 141.44421564415097,200.50755554356147 140.23615676676854,199.4518677277374 139.9462226361502,199.29351441562176 139.5113214403391,199.4518677277374 139.02809788938612,199.82135864760494 138.97977553447708,199.97971183812479 139.4146767302882,200.03249622689327 140.04286734643392,199.97971183812479 140.38112383219413,199.39908329444006 142.12072861543857,197.97390206425916 142.31401803600602,197.97390206425916 142.36234039091505,197.76276385318488 142.12072861543857,197.23491804196965 142.16905097058043,196.65428718185285 141.97576155001298,196.33757923339726 141.29924857872538,195.9153017422068 140.86434738291427,195.80973232898396 140.38112383219413,195.4930239918176 140.23615676676854,195.44023925467627 139.99454499129206,195.17631550884107 139.7046108606737,194.17340435116785 139.75293321581557,193.48720113775926 139.60796615062281,192.69542734889546 139.60796615062281,192.16757764999056 139.7046108606737,191.95643765712157 139.75293321581557,191.323017289571 139.99454499129206,190.9535218057572 140.04286734643392,190.68959633877967 140.52609089715406,190.05617480480578 140.71938031772152,189.5811082717264 140.960992093198,189.42275268782396 141.00931444810703,189.15882663353113 141.68582741939463,188.57818895787932 142.0724062602967,188.10312140412861 143.328787492821,187.3113414189429 145.4066487615928,186.30841879628133 145.50329347187653,186.15006245911354 146.08316173311323,185.93892061943188 146.4214182186406,185.67499322869116 146.80799705930986,185.46385124319931 148.16102300188504,184.51371150673367 148.54760184278712,184.09142675821204 148.9341806836892,183.93306991062127 149.56237129983492,183.1412851261557 150.28720662626438,182.56064237188548 150.91539724217728,181.6104986257269 150.86707488750108,181.50492701743497 151.39862079336308,180.92428288178053 151.68855492398143,180.079708719044 152.0268114095088,179.55184934067074 152.17177847470157,178.8656315433327 152.12345611979254,178.49612936895574 152.17177847470157,178.39055728260428 152.36506789526902,177.49319389514858 152.31674554012716,177.22926326433662 152.36506789526902,176.96533253212692 152.2684231849853,176.80697404424427 152.36506789526902,175.96239482657984 152.31674554012716,175.06502827169606 152.46171260531992,174.48437870066846 152.36506789526902,174.11487417289754 152.31674554012716,173.16471876186552 152.55835731560364,172.53128109202953 152.51003496046178,171.95062938227784 152.7033243807964,171.36997718247585 152.65500202565454,171.3171905944473 152.75164673593827,171.0532575941761 152.9449361562729,170.8421111208736 152.9449361562729,170.3670313191251 153.23487028689124,169.83916448795935 153.18654793174937,169.5752309205127 153.28319264180027,169.20572375581833 153.57312677241862,168.94178994535469 153.52480441727675,168.73064282396808 153.91138325841166,167.93884054169757 154.10467267851345,167.3581849555485 154.78118565003388,166.30244627024513 155.69931039656512,164.40211255353643 155.9409221720416,164.19096403877484 156.71407985361293,163.24079491995508 157.00401398399845,163.02964604867157 157.24562575947493,162.8184971124865 157.3422704699915,162.50177358684596 157.77717166556977,162.02668802486733 158.5503293471411,160.75979158858536 158.8885858329013,160.28470482351258 159.22684231842868,159.7040427759639 159.17851996328682,159.4401053196052 159.27516467357054,159.28174279717496 159.8550329345744,158.27877930848626 160.24161177547649,157.69811556761852 160.86980239162222,157.11745133664226 161.01476945681497,156.800725185778 160.91812474653125,156.22006019722903 160.72483532619663,156.11448469210882 160.48322355095297,155.85054585832404 160.62819061614573,155.48103132087272" stroke="#4dd2ff" stroke-linecap="round" stroke-linejoin="round" stroke-width="0.5"><title>2024-09-02 4.2km</title><desc>12321662448</desc></polyline><polyline fill="none" points="38.16000624187291,213.37300393820624 38.235882273176685,213.16577955987304 38.5393863983918,213.0 38.65320044523105,213.0 39.03258060151711,213.37300393820624 39.37402274203487,213.45589366724016 39.75340289855376,213.95323177438695 39.75340289855376,214.07756622950546 39.86721694562584,214.49201420677127 40.170721070608124,215.03079610160785 41.005357414484024,215.44524334714515 42.14349788357504,216.68858317515696 42.37112597725354,217.3931411401427 42.37112597725354,217.4760302521172 42.29524994594976,217.4760302521172 42.18143589911051,218.67792094501783 42.29524994594976,218.84369876162964 42.409063992789015,218.8851432077936 42.409063992789015,218.84369876162964 42.37112597725354,218.80225431232248 42.44700200855732,219.05092096084263 42.78844414930791,219.25814308066037 42.90225819614716,219.46536512079183 43.09194827429019,219.5896983066923 43.12988628982566,219.75547584344167 43.39545239927247,220.1699194626126 43.698956524254754,220.377141152916 43.96452263393439,220.46002980676712 44.2300887433812,220.79158429495874 44.268026758916676,220.833028591529 44.15421271184459,220.91591717556003 44.2300887433812,221.12313857951085 44.11627469630912,221.24747138368548 44.00246064946987,221.57902538840426 44.1921507276129,222.11780021179584 44.723282946506515,222.40790950940573 45.0267870714888,222.73946280154632 45.67173333722167,223.19534824584844 46.202865556115285,224.1071179799037 46.16492754057981,224.35578218559385 46.35461761872284,224.68733428174164 46.35461761872284,224.8945542385045 46.62018372793682,225.26754996014643 46.99956388445571,225.64054542430677 47.75832419726066,226.0135406307527 47.91007625963539,226.3036478353897 47.91007625963539,226.59375488426303 48.13770435331389,226.9667494323512 48.517084509832785,227.2982999254018 49.0102787129581,227.4640750955732 49.61728696315549,227.83706904252176 50.110481166280806,228.45872504811268 50.110481166280806,228.66594355760026 51.400373697979376,229.99214013569872 51.81769186980091,230.73812427962548 51.855629885569215,230.90389839396812 52.08325797948055,231.19400297146058 52.08325797948055,231.31833345696214 52.27294805739075,231.6084378118394 52.27294805739075,231.7327682019386 52.46263813553378,232.23008947604103 52.72820424521342,232.56163673772244 52.80408027628437,232.89318379582255 53.29727447964251,233.39050400131964 53.449026542017236,233.6391639323556 53.524902573321015,233.88782374886796 53.56284058908932,234.3436997818062 53.8663447140716,235.42122342073708 54.05603479221463,235.66988241678337 54.28366288612597,236.2915294059494 54.62510502664372,236.83028955102782 54.62510502664372,237.03750484826742 55.08036121423356,237.65915026320727 55.11829923000187,238.23935200483538 55.61149343312718,238.9853247567371 55.72530747996643,239.3997536181705 55.87705954280682,239.5655250736163 55.91499755810946,239.9799534898193 56.10468763648532,240.22861038689734 56.10468763648532,240.4772671694809 56.25643969886005,240.85025212873006 56.294377714628354,241.26467955909902 56.44612977723591,241.55477857109508 56.408191761467606,242.63228782295482 56.484067792771384,242.96382869870286 56.25643969886005,243.6269098398334 56.06674962071702,243.91700758301886 55.95293557387777,244.28999016675516 55.80118351150304,244.49720260201138 55.763245495734736,244.87018478513346 55.34592732368037,245.16028186058975 55.27005129237659,245.36749396193773 55.08036121423356,245.6161483786127 54.51129097980447,246.07201451182482 54.39747693296522,246.27922626334475 54.28366288612597,246.98374562402023 53.79046868276782,247.64682182989782 53.449026542017236,248.30989722165396 53.259336463874206,248.59999244959909 53.29727447964251,248.76576108130394 53.10758440126665,248.97297179946327 52.879956307588145,249.09729819223867 52.76614226074889,249.26306667132303 52.235010041855276,249.34595089178765 51.81769186980091,249.6774876465206 51.210683619836345,249.80181387707125 50.67955140094273,249.76037180342246 49.76903902553022,249.80181387707125 48.327394431689754,250.21623443887802 47.79626221279614,250.5892126726685 47.5686341188848,250.87930667644832 47.492758087581024,251.0450746086426 47.15131594683044,251.335168367601 46.658121743705124,252.24689059564844 46.468431665794924,253.40726211477886 46.54430769686587,253.86312167235883 46.31667960295454,254.48474772190093 46.27874158741906,254.81628132241894 45.899361431133,255.5622311795887 45.368229212239385,256.18385527376086 45.0647250872571,256.4739462728903 44.98884905572049,256.68115403398406 44.41977882152423,256.97124476599856 44.00246064946987,257.46854280133266 43.77483255555853,257.46854280133266 43.357514383737,257.6343087113637 43.16782430559397,257.8415160274599 43.09194827429019,258.04872326389886 42.82638216484338,258.4631374984747 42.674630102468655,258.960434160399 42.674630102468655,259.49917169404216 42.409063992789015,259.913584815833 41.384737570770085,260.9910574447422 41.0812334457878,261.07393986565876 40.929481383180246,261.2397046692786 40.20865908637643,261.4469106022734 39.79134091408923,261.7369987750426 39.6016508359462,262.109969053854 39.48783678910695,262.151410180144 39.14639464835636,262.85590883903205 38.880828538909554,263.0631141519989 38.729076476302,263.4775245398341 38.46351036708802,263.9333755991247 38.235882273176685,264.01625756855356 37.8944401324261,264.34778531925986 37.55299799167551,264.51354911833187 37.28743188246153,264.8450765637099 37.05980378878303,265.0108402100741 36.945989741710946,265.508130844275 36.4527955383528,266.2540659371007 36.33898149151355,266.6684738769254 35.99753935076296,266.75135542679345 35.65609721024521,267.0 35.31465506949462,266.95855924559874 35.01115094451234,266.7927961968817 34.5558947569225,266.75135542679345 33.91094849118963,266.29550674543134 33.64538238150999,266.1297434932494 33.53156833467074,266.00542102064355 33.228064209688455,265.92253935639746 32.772808021865785,265.17660380573943 32.658993975259364,265.17660380573943 32.16579977190122,264.51354911833187 31.369101443560794,263.9333755991247 30.648279146524146,263.5604065792286 30.458589068613946,263.60184759408 30.344775021541864,263.7676116221119 30.23096097470261,264.01625756855356 30.68621716229245,264.5964309986157 28.903130427468568,265.5495717097656 28.713440349325538,265.79821683611954 28.599626302486286,266.1297434932494 28.675502333557233,266.50271073917975 28.979006458539516,266.461269946798 29.01694447430782,266.29550674543134 29.510138677665964,265.88109851942863 29.510138677665964,265.5495717097656 29.130758521147072,265.0937220142805 28.903130427468568,264.9693993033143 28.63756431802176,264.88651748010307 28.44787423987873,264.7207537954964 28.18230813043192,264.38922627380816 27.91674202098511,264.2649034006172 27.575299880234525,263.9333755991247 27.499423848930746,263.8919346095645 27.15798170818016,263.4775245398341 27.006229645805433,263.4360835153202 26.70272552082315,263.2703193856869 26.361283380072564,262.85590883903205 25.67839909857139,262.4000568704796 25.640461083035916,262.2757335395727 25.261080926749855,261.90276337513933 24.881700770463794,261.6955576169712 24.729948707856238,261.4883517793787 24.540258629713207,261.4054694220831 24.19881648896262,261.07393986565876 24.047064426355064,261.07393986565876 23.705622285604477,261.2397046692786 23.55387022322975,261.4883517793787 23.515932207461447,261.7369987750426 23.62974625453353,261.8613222298445 23.933250379515812,261.9442045171745 24.38850656710565,261.6541164557857 24.38850656710565,261.2397046692786 24.312630535801873,261.032498656743 24.2746925202664,260.65952763403766 25.981903223553672,259.8721435179177 25.830151161178946,259.8721435179177 26.05777925509028,259.2919650138647 25.716337114339694,258.87755141514936 25.716337114339694,258.79466865726863 25.412832989357412,258.2973718428111 24.426444582873955,257.8415160274599 24.19881648896262,257.6757501809334 24.085002441890538,257.5099842835916 24.160878473427147,257.178452336404 23.933250379515812,256.5568293868273 24.047064426355064,255.60367280812352 24.19881648896262,255.10637305595446 24.122940457658842,254.8991646907234 24.76788672339171,253.69735460504307 26.399221395608038,252.1640068202978 27.271795755252242,251.5423781000427 27.651175911771134,251.37661032035248 28.068494083592668,251.0450746086426 28.865192411933094,250.67209668963915 29.130758521147072,250.5892126726685 29.586014708969742,250.257676477544 29.85158081818372,250.21623443887802 30.344775021541864,249.84325594748952 30.534465099684894,249.59460347692948 31.179411365417764,249.09729819223867 31.293225412257016,248.9315296622226 31.97610969375819,248.268455033598 32.16579977190122,247.89547519717598 32.583117943955585,247.43961060300353 32.81074603763409,246.94230333410087 33.15218817838468,246.61076490051346 33.15218817838468,246.44499560742406 33.37981627229601,246.15489922190318 33.53156833467074,245.53326358573395 33.75919642834924,245.28460913090385 33.75919642834924,245.03595456155017 33.7212584130466,244.58008755382616 33.797134444117546,244.2485476701986 34.13857658486813,243.54402474174276 34.062700553564355,243.46113963087555 34.02476253802888,243.0467138859094 34.10063856909983,242.7566156752291 33.98682452226058,242.21786144201178 34.13857658486813,241.43045044210157 34.13857658486813,241.26467955909902 33.98682452226058,240.9331376402406 34.02476253802888,240.51870995547506 34.21445261617191,239.9799534898193 34.252390631707385,239.52408221454243 34.48001872561872,238.90243894630112 34.48001872561872,238.73666728721582 34.631770787993446,238.40512381651206 34.631770787993446,237.86636524245841 34.82146086636931,237.41049218305852 34.82146086636931,237.24472006608266 34.897336897673085,237.16183398853173 34.97321292874403,236.7888464819698 35.23877903842367,236.37441561702872 35.23877903842367,236.16720006530522 35.69403522578068,235.37978024361655 35.69403522578068,235.21400750332396 36.03547736653127,234.79957542996272 36.2251674446743,234.3851430385257 36.41485752281733,233.76349385493086 36.64248561649583,233.55627730145352 36.98392775724642,233.3490606683481 37.36330791376531,232.89318379582255 37.590936007443815,232.7688536728383 37.74268807005137,232.60308013111353 37.780626085586846,232.4787499413651 38.16000624187291,232.02287233417155 38.65320044523105,231.19400297146058 38.691138460766524,230.94534191454295 38.95670457021333,230.6552372034639 38.99464258598164,230.53090656525455 39.18433266412467,230.2408016315312 39.260208695195615,229.74347852540086 39.67752686724998,229.1218239987793 39.715464882785454,228.95604933745926 39.981030992465094,228.58305616339203 40.24659710167907,228.45872504811268 40.739791305037215,227.91995655122446 40.77772932057269,227.54696266155224 40.360411148518324,227.0081932551111 40.360411148518324,226.84241794489208 40.47422519559041,226.635198735632 40.815667336340994,226.3865355794842 40.8536053521093,226.2622039586422 40.89154336741194,225.88920892393799 40.70185328926891,225.4747696943232" stroke="#4dd2ff" stroke-linecap="round" stroke-linejoin="round" stroke-width="0.5"><title>2024-09-01 4.4km</title><desc>12321662453</desc></polyline></svg>