<?xml version="1.0" encoding="utf-8" ?>
<svg baseProfile="full" height="300mm" version="1.1" viewBox="0,0,200,300" width="200mm" xmlns="http://www.w3.org/2000/svg" xmlns:ev="http://www.w3.org/2001/xml-events" xmlns:xlink="http://www.w3.org/1999/xlink"><defs /><rect fill="#222222" height="300" width="200" x="0" y="0" /><text fill="#FFFFFF" style="font-size:12px; font-family:Arial; font-weight:bold;" x="10" y="20">Over 1km Workouts</text><text fill="#FFFFFF" style="font-size:4px; font-family:Arial" x="10" y="280">ATHLETE</text><text fill="#FFFFFF" style="font-size:9px; font-family:Arial" x="10" y="290">LaoMai</text><text fill="#FFFFFF" style="font-size:4px; font-family:Arial" x="120" y="280">STATISTICS</text><text fill="#FFFFFF" style="font-size:3px; font-family:Arial" x="120" y="285">Number: 8</text><text fill="#FFFFFF" style="font-size:3px; font-family:Arial" x="120" y="290">Weekly: 4.0</text><text fill="#FFFFFF" style="font-size:3px; font-family:Arial" x="141" y="285">Total: 23.9 km</text><text fill="#FFFFFF" style="font-size:3px; font-family:Arial" x="141" y="290">Avg: 3.0 km</text><text fill="#FFFFFF" style="font-size:3px; font-family:Arial" x="167" y="285">Min: 1.0 km</text><text fill="#FFFFFF" style="font-size:3px; font-family:Arial" x="167" y="290">Max: 4.7 km</text><polyline fill="none" points="36.09066151478328,86.96009076194605 36.017589767230675,87.0 35.87144627259113,86.92018152077799 35.9079821461346,86.80045377885108 36.054125641006976,86.68072600947926 36.017589767230675,86.44127038808074 35.761838651495054,86.2417239525821 35.65223103039898,86.2417239525821 35.21380054601468,85.76281219522934 34.95804943027906,85.60317484490224 34.88497768272646,85.36371872751624 34.811905935406685,85.32380936385016 34.95804943027906,85.44353744550608 32.364002397982404,83.24851823653444 30.975639197509736,82.76960372377653 31.998643660917878,81.41267687676009 32.10825128201395,81.17321883040131 32.400538271525875,80.85394126386382 30.719888081774116,78.06025419800426 30.683352208230644,77.82079460850218 30.756423955317587,76.42394480630173 31.487141429213807,75.18673184912768 33.97158084041439,72.79211776627926 34.22733195638284,72.71229710697662 35.031121177598834,72.31319362684735 37.698239956982434,70.43740316841286 38.10013456782326,70.19794006986194 38.465493304654956,69.95847686097841 38.684708546847105,69.59928184107412 38.86738791526295,69.1203547619807 39.196210778551176,68.88089105705149 39.415426020743325,68.4019633163989 39.671177136711776,68.28223131241975 39.853856505127624,67.24455278951791 40.29228698951192,66.52615875325864 40.32882286305539,66.24678302675602 40.25575111573562,66.0073179989704 40.29228698951192,65.88758544367738 40.43843048415147,61.73683982130024 40.54803810524754,61.497372717101825 41.75372193730436,57.546149579109624 43.43437212705612,55.15145428007236 45.4073093063198,51.63921456265962 46.83220838056877,49.8032616339915 46.83220838056877,48.4462487816927 46.61299313837662,47.368618405918824 48.40325094945729,44.135713879950345 48.366715075680986,44.01597628928721 49.316647791769356,42.69886097268318 48.65900206519291,42.02034571976401 48.54939444409683,41.54139324350399 48.54939444409683,40.74313813608023 48.43978682300076,40.66331255782279 48.03789221239276,39.38610164108104 47.74560522288084,39.26636295681237 47.161031243856996,38.66766912175808 47.05142362276092,38.70758206548635 46.3207061488647,38.38827842948376 46.430313769960776,38.42819139471976 46.2841702750884,38.14880057386472 45.77266804338433,36.59219182369998 44.09201785363257,34.99566518800566 44.457376590464264,34.79609901382355 44.457376590464264,34.636446019401774 44.201625474728644,34.197400031931465 44.27469722204842,34.03774685366079 44.493912464240566,33.997833551460644 44.42084071692079,33.87809362637927 44.457376590464264,33.71844034999958 43.982410232536495,33.359220299113076 43.94587435876019,33.0 44.018946106079966,33.03991337883053 43.982410232536495,33.07982675463427 44.018946106079966,33.03991337883053" stroke="#4dd2ff" stroke-linecap="round" stroke-linejoin="round" stroke-width="0.5"><title>2024-09-05 1.9km</title><desc>12331486698</desc></polyline><polyline fill="none" points="157.46630287717562,33.790837857523 157.81102357432246,33.677861098753056 157.50077494699508,33.075317946088035 157.53524701681454,33.0 156.01847594999708,36.878859189047944 155.91505974088795,36.99183521067607 155.91505974088795,37.142469865619205 156.1218921591062,37.70734941001865 156.2597804380348,37.85798384525697 156.32872457732446,37.85798384525697 156.4321407864336,37.93330104564666 156.6045011348324,37.93330104564666 156.91474976215977,38.04627682446153 158.8451856650645,40.192811678600265 158.98307394387666,40.682370944094146 159.05201808328275,40.644712556444574 159.3277946409071,40.7953460898716 159.3622667104937,40.908321209659334 159.9138198257424,41.021296303428244 160.05170810443815,41.209588068479206 160.18959638325032,41.62382969722967 160.18959638325032,41.96275440620957 160.2585405226564,42.038070976297604 160.15512431354728,42.11338753491873 160.4309008710552,42.45231190559571 160.36195673176553,43.61971627926687 163.42997093463782,47.385517907561734 163.53338714386337,47.64912293915404 163.6712754224427,47.83741216067574 165.77407167409547,50.81237227167003 166.08432030142285,51.038317872269545 167.15295446186792,51.37723607799853 167.4632030890789,51.71615404964541 170.53121729195118,56.799895534000825 170.53121729195118,57.176466882112436 171.66879559203517,60.490282284707064 172.01351628894918,60.82919396221405 172.66848561330698,67.11784595798235 172.39270905568264,67.30612770933658 170.9448821283877,69.11362884761184 170.2899128042627,70.6198747108865 169.80730382853653,71.22237176180352 169.4625831313897,71.52362000988796 169.18680657388177,71.59893204303808 165.77407167409547,72.27673982118722 164.18835646798834,74.0089110013796 164.15388439816888,74.19719010902918 162.63711333170068,77.81213497158024 162.39580884377938,77.92510156953358 159.87934775603935,81.31408741752966 157.50077494699508,82.85795099043753 154.98431385913864,86.58579667200684 154.50170488341246,86.92469033002271 154.29487246531062,87.0 149.67561512615066,84.10056936330511 147.46940266538877,86.17159299424384 147.4004585260991,86.13393809719128 147.33151438669302,86.28455766831758" stroke="#4dd2ff" stroke-linecap="round" stroke-linejoin="round" stroke-width="0.5"><title>2024-09-05 2.3km</title><desc>12331294784</desc></polyline><polyline fill="none" points="13.0,117.54200205998495 13.1978021976538,117.54200205998495 13.0989010988269,117.48797993233893 13.1978021976538,117.48797993233893 17.054945054929703,117.81211263628211 16.857142856810242,117.86613473907346 17.005494505167007,117.65004630299518 17.20329670328647,117.70406841818476 17.846153846010566,117.70406841818476 18.142857142724097,117.59602418361465 18.93406593403779,117.86613473907346 19.23076923075132,117.86613473907346 29.56593406572938,119.75690572505118 29.96153846150264,119.91897157306084 38.813186812913045,119.97299351420952 39.15934065915644,119.86494962789584 43.80769230751321,121.05343146511586 43.90659340657294,121.05343146511586 44.7967032964807,120.13505931268446 52.510989010799676,122.07984598202165 56.17032967018895,122.51202006766107 64.57692307676189,121.70169343944872 65.36813186784275,121.75571524375118 66.60439560422674,121.59364981856197 66.70329670328647,121.70169343944872 67.0,121.64767163107172" stroke="#4dd2ff" stroke-linecap="round" stroke-linejoin="round" stroke-width="0.5"><title>2024-09-05 1.2km</title><desc>12326195421</desc></polyline><polyline fill="none" points="187.0,120.20662929920945 180.00175131345168,121.23976292856969 178.20490367757156,120.9298229230335 176.1243432573974,122.58283546101302 169.50437828339636,119.27680835477076 169.1260945708491,119.89668905572034 168.8423817860894,120.10331589262933 166.3835376529023,120.8265095720999 165.05954465828836,119.89668905572034 166.667250437662,120.8265095720999 166.28896672511473,120.9298229230335 151.63047285471112,119.79337562562432 150.1173380035907,118.86355439561885 149.73905429104343,118.2436732185306 148.0367775829509,117.52047815150581 135.55341506144032,118.14035966154188 133.0,117.41716453887057" stroke="#4dd2ff" stroke-linecap="round" stroke-linejoin="round" stroke-width="0.5"><title>2024-09-04 1.0km</title><desc>12324130724</desc></polyline><polyline fill="none" points="36.91509966994636,154.42972264549462 37.363812445197254,154.79736499063438 38.074274339480326,155.2058561874146 39.49519812781364,156.96236476043123 39.981303634354845,156.79896885872586 40.13087455928326,157.24830746793305 40.09348182822578,157.45255216478836 40.616980066057295,158.31037903600372 41.252656497759745,158.9231116688752 41.70136927301064,159.69923865771852 42.18747477955185,159.86263366913772 42.41183116706088,159.86263366913772 43.01011486747302,160.23027226119302 43.12229306134395,160.4753645148303 43.197078523924574,160.80215401077294 43.53361310530454,161.12894330610288 44.13189680571668,161.5374296430964 44.01971861184575,161.82336989234318 43.944933149265125,162.35440137638943 44.05711134313606,162.59949265190517 44.39364592451602,163.00797786013572 45.40324966912158,163.57985662508872 45.62760605663061,163.82494733622298 46.30067521962337,165.45888252617442 47.085922576254234,166.39839298909646 47.721599007956684,166.68433062685654 47.94595539546572,167.50129445982748 49.105130064999685,168.23656083733658 49.59123557177372,168.48164940415882 49.852984690340236,168.68588979024207 50.339090197114274,169.54369855605182 51.049552091164514,170.36065800016513 51.685228522866964,171.50439911536523 52.24611949198879,172.64813777277595 52.73222499853,173.4242447478464 53.1809377737809,173.8735693214694 53.25572323636152,174.15950294351205 53.29311596765183,174.7313697268546 53.704436011612415,175.83425393115613 54.265326980734244,176.8554409716744 54.71403975598514,177.87662605309743 54.901003412436694,178.4484888430743 55.38710891874507,179.4288236249704 55.79842896270566,180.53169809657265 56.209749006899074,181.92049973641406 56.17235627560876,183.14590993899037 56.06017808197066,183.63607323018368 55.31232345639728,185.5558751084609 54.86361068114638,186.16857637814246 54.302719711791724,186.57704349950654 54.07836332428269,186.90381697088014 53.81661420548335,187.59820993171888 52.956581386271864,189.23207214887952 51.98437037295662,189.96730851067696 51.57305032899603,190.17154065315844 51.086944822454825,190.25323348827078 49.89037742186338,190.17154065315844 48.17031178320758,190.66169747558888 47.53463535150513,191.19270019052783 46.82417345745489,192.09131896306644 46.30067521962337,193.1533210115158 46.22588975704275,194.3787053580163 45.926747906720266,195.4407028434798 45.216286012670025,196.50269821059192 44.84235869976692,196.9520033050503 43.907540417974815,197.44215388485463 43.53361310530454,197.7689206873183 42.82315121102147,198.7492198914988 42.636187554802746,199.1576773604902 42.598794823512435,199.4844431099773 42.11268931697123,200.26051096152514 41.925725660519674,200.42389352290775 41.77615473559126,200.66896727104904 41.5517983478494,200.95488650130574 40.99090737872757,201.36334227817133 40.35523094702512,201.5267245011346 39.420412665233016,202.22109838950564 38.26123799593188,204.18167859816458 37.999488876666874,204.34505995630752 37.77513248915784,204.67182252221392 37.326419714139774,204.9577396028908 36.98988513252698,205.40703756242874 36.39160143211484,206.4281678784464 35.90549592557363,206.79577431283542 35.26981949387118,207.0 34.70892852474935,206.9591548688477 33.9610738994088,206.4281678784464 33.58714658673853,206.0197159870586 33.32539746770635,205.89718035850092 32.801899229874834,205.24365653001587 31.567939097760245,204.09998790023383 30.894869935000315,203.77322498336434 30.59572808491066,203.77322498336434 30.147015309426934,204.26336928346427 29.84787345933728,204.9577396028908 28.838269714964554,205.69295424831216 28.68869878980331,205.93802557117306 28.726091521093622,206.38732270340552 28.913055177545175,206.50985821912764 29.698302534176037,205.89718035850092 29.623517071595415,205.69295424831216 29.436553415376693,205.61126378225163 27.155596807599068,203.5281526640756 24.388534693513066,201.19996000494575 23.790250993100926,201.69010667395196 23.790250993100926,201.8943343196297 23.97721464955248,202.05771637961152 24.463320155860856,201.77179774164688 24.463320155860856,201.56757004908286 23.939821918029338,201.40418783857604 24.912032931111753,200.50558478478342 24.949425662402064,200.21966531325597 24.837247468763962,199.7703629763564 26.145993063226342,199.89290001496556 26.258171257330105,199.64782590957475 26.258171257330105,199.2802145400201 25.697280287975445,198.9534486650955 25.39813843788579,198.5041452596197 25.136389318853617,198.299916313641 24.6128910810221,198.0956872892857 24.313749230932444,197.7280748479825 24.351141961989924,197.44215388485463 24.201571037061512,197.19707865139935 24.201571037061512,196.5435441439331 24.08939284319058,196.21677658936824 24.12678557448089,195.72662488155765 24.238963768351823,195.6040868840355 24.313749230932444,195.07308856904274 24.912032931111753,194.0110903501045 25.39813843788579,193.31670575396856 26.295563988387585,192.62232025206322 27.37995319534093,191.88708755702828 28.426949671003968,191.27439286885783 28.913055177545175,191.11100749959587 30.221800772007555,190.37577271732152 32.05404460430145,188.61937440512702 32.61493557365611,187.9658293678076 33.17582654254511,187.10805028874893 33.73671751166694,185.76010894338833 33.99846663069911,184.73893898521783 33.99846663069911,184.16708295297576 34.110644824570045,183.7994608936133 33.9610738994088,181.6345702832332 34.185430286917835,180.49085093472968 34.52196486853063,179.4696708683623 34.59675033087842,178.65272540482692 34.89589218120091,177.79493131875643 35.00807037483901,177.549847040209 35.26981949387118,176.8145935276989 35.90549592557363,175.63001628793427 35.98028138815425,175.3032358957862 36.6159578198567,174.2411982359481 37.88731068302877,172.93407205311814 38.33602345827967,172.32135555002606 39.308234471362084,170.60574558886583 39.86912544071674,169.380306516774 40.80394372227602,168.44080131754163 40.80394372227602,168.23656083733658 40.43001640960574,167.74638336527278 40.35523094702512,167.50129445982748 40.729158259695396,167.09281270008069 40.76655099098571,166.8477234938473 40.691765528637916,166.5209377098363 40.39262367831543,166.11245519769727 40.39262367831543,165.86736553988885 40.95351464743726,165.33633756093332 41.66397654172033,163.90664421478868 41.888332929229364,163.1305233615276 42.4866166296415,162.02761283353902 42.86054394254461,161.45573240076192 43.197078523924574,161.21064059858327 43.346649448852986,160.96554868356907 43.197078523924574,160.4753645148303 43.53361310530454,159.86263366913772 43.72057676152326,159.5766923664196 43.68318403046578,159.29075090991682 43.346649448852986,158.88226284855045 43.234471254982054,158.5963210191112 43.08490033005364,158.31037903600372 42.598794823512435,158.22868129835115 42.26226024189964,157.7384946088132 42.07529658568092,157.24830746793305 41.963118391809985,157.0849116538884 42.15008204826154,156.51302590989508 41.81354746688157,156.55387491194415 41.2152637662366,156.26793183144764 39.981303634354845,155.2058561874146 39.60737632145174,154.6339684241102 39.345627202885225,154.51142096627154 38.8969144274015,154.87906325500808 39.12127081514336,154.2663259661349 38.784736233530566,154.79736499063438 38.747343502240255,154.42972264549462 38.14905980206095,153.36764333274914 37.92470341431908,153.2859448363888 37.66295429551974,153.2859448363888 37.5133833703585,153.1633970681869 37.62556156422943,153.0" stroke="#4dd2ff" stroke-linecap="round" stroke-linejoin="round" stroke-width="0.5"><title>2024-09-04 4.2km</title><desc>12321514485</desc></polyline><polyline fill="none" points="168.55868506687693,153.0 168.75543644744903,153.0537334132241 169.39487843541428,153.75226740841754 170.03432042291388,154.02093414391857 170.13269611331634,154.45080070657423 170.28025964880362,154.77320045535453 170.52619887515903,155.2030665560742 170.91970163676888,155.57919917767867 171.16564086265862,155.79413201351417 171.55914362426847,155.84786521230126 171.80508285062388,156.11653114372166 172.39533699280582,156.33146381471306 172.64127621916123,156.60012956062565 172.83802759973332,156.60012956062565 172.83802759973332,156.7613289586734 173.1823425164912,157.24492693017237 173.47746958769858,157.78225761797512 174.116911575431,158.37332089815754 174.4120386466384,158.8031847885577 174.5596021823585,159.12558253313182 175.051480634138,159.82411047047935 175.3466077055782,160.46890487102792 175.6417347767856,160.7913018486579 175.59254693170078,161.00623308453942 175.83848615782335,161.43609535845462 176.03523753862828,162.188353702717 176.37955245492049,162.4032845098991 176.5271159906406,162.833145926008 176.9698065975681,163.20927444874542 177.36330935917795,163.8003331476939 177.56006073998287,164.71378651907435 178.0519391919952,165.8959008778329 178.15031488239765,166.00336572062224 178.15031488239765,166.37949254037812 178.54381764424033,167.1317455735989 178.8389447152149,167.6153363827034 179.03569609625265,168.3138558503706 179.3800110127777,168.90491024038056 179.77351377462037,169.9258211933775 180.0194530005101,170.35567799134878 180.0194530005101,170.62433835625416 180.41295576211996,171.21539079590002 180.41295576211996,171.37658682919573 181.0523977498524,173.14974074665224 181.1999612855725,173.90198650659295 181.15077344025485,174.06318192143226 181.34752482105978,174.7079632098321 181.34752482105978,175.2990122025949 181.29833697597496,175.2452804966597 180.95402205944993,175.2452804966597 180.56051929784007,175.4064756022999 179.62595023890026,175.4602072960115 179.0848839415703,175.13781707227463 179.18325963197276,175.08408535388298 179.0848839415703,175.2452804966597 179.1340717866551,175.4064756022999 179.47838670318015,175.7288657022873 179.5767623935826,175.94379235309316 179.62595023890026,175.94379235309316 179.62595023890026,176.10498729796382 179.72432592930272,176.48110869160155 179.87188946479,176.58857190981507 179.97026515519246,177.01842461782508 180.0194530005101,177.12588775350014 179.97026515519246,176.80349829682382 179.67513808375224,176.53484030277468 179.62595023890026,176.42737707641209 179.62595023890026,176.3199138333439 179.4291988578625,175.94379235309316 179.62595023890026,175.4064756022999 179.82270161947235,175.3527439046302 179.97026515519246,175.51393898541573 180.3145800717175,175.56767067086184 180.60970714315772,175.51393898541573 180.90483421413228,175.6214023520006 181.29833697597496,175.56767067086184 181.24914913065732,176.15871893794974 181.15077344025485,176.48110869160155 181.1999612855725,176.53484030277468 181.0523977498524,177.01842461782508 180.90483421413228,177.07215618772898 180.95402205944993,177.17961931531318 180.80645852372982,177.44827706192154 180.80645852372982,177.66320318501676 180.6588949880097,177.9855922459392 180.4621436074376,178.14678672078298 180.51133145252243,178.25424968346488 180.36376791703515,178.52290701778838 180.26539222639985,178.63036992267007 179.33082316769287,179.00648995989468 178.986508250935,179.00648995989468 178.0519391919952,179.49007256818004 177.70762427547015,179.70499806455337 177.36330935917795,180.0811175245908 176.9698065975681,180.29604283958906 176.82224306184798,180.51096808863804 176.72386737144552,181.74678699066862 176.62549168104306,181.74678699066862 176.47792814532295,182.23036770656472 176.62549168104306,182.6602169512189 176.28117676451802,182.8751414747676 175.88767400290817,183.73483890900388 175.3466077055782,184.27214926946908 174.75635356316343,184.54080429521855 174.60879002744332,184.48707329831086 174.31366295623593,184.59453528787708 174.06772373011336,184.48707329831086 173.231530361576,184.59453528787708 172.83802759973332,184.75572824146366 171.46076793409884,184.70199726108694 171.2640165532939,184.86319018987706 170.82132594636641,184.86319018987706 170.47701102984138,185.0243830815889 170.42782318452373,184.91692115791375 169.93594473251142,185.23930687940447 169.69000550638884,185.29303781862836 169.05056351865642,186.3676557362196 168.9029999829363,186.74377161776647 168.36193368583918,187.38854123058263 168.06680661439896,187.54973354097456 167.96843092422932,187.7109258143464 167.37817678158171,187.87211805046536 167.13223755569197,188.08704097446753 166.8862983295694,188.5168866244494 166.591171258362,188.8392706887098 166.591171258362,190.02134432148887 166.83711048425175,190.39745824079728 166.83711048425175,190.55864985869266 166.64035910344683,191.14968547353055 166.68954694876447,191.47206832579104 166.64035910344683,192.43921599240275 166.4436077226419,192.9765196745284 165.85335358022712,193.51382294442737 165.65660219918936,193.88993498805212 165.16472374717705,193.99739553494146 164.820408830652,194.2660468298709 163.78746408154257,194.4809677915764 163.7382762359921,194.58842824754538 163.5907127005048,195.12573028088082 163.49233701010235,195.2331906380714 163.4431491647847,196.57644371164497 163.2955856290646,196.95255411055405 163.34477347461507,197.2212042718893 163.19720993889496,197.43612432671944 163.19720993889496,197.6510443156003 162.8037071772851,197.9734241751721 162.60695579624735,198.40326375735458 162.0658894989174,198.67191336210817 161.08213259489276,199.6927809206536 159.95081215491518,200.06888964603422 159.6556850837078,200.39126839279197 159.06543094106019,200.8211064907373 158.77030387008563,201.19721461029258 158.4259889535606,202.00315990048693 157.93411050131544,202.5404562453623 157.88492265623063,202.7553746679332 157.49141989438795,203.23894087749068 156.90116575197317,203.561318165157 156.85197790665552,203.77623627439607 156.40928729972802,204.15234280691948 156.21253591915593,204.5284491375205 156.06497238343582,205.01201412302908 155.72065746691078,205.54930815967964 155.5730939314235,205.71049629035406 155.52390608610585,205.87168438383378 155.27796685998328,206.14033112395555 155.27796685998328,206.1940604596166 154.93365194369107,206.35524844191968 154.78608840797096,206.5164363870863 154.63852487248369,206.57016569387633 154.3925856463611,206.7850828798255 153.99908288475126,207.0 153.70395581331104,207.0 153.65476796822622,206.89254144817824 153.359640896786,206.83881216612644 152.8677624447737,206.57016569387633 152.7201989092864,206.30151911859866 152.5726353735663,206.30151911859866 151.44131493382156,205.44184938533 151.3429392434191,205.22693178709596 150.4575580295641,204.42099020653404 150.40837018424645,204.3135312590748 149.86730388714932,203.88369530427735 149.5721768157091,203.50758862745715 149.32623758981936,203.40012953989208 149.1294862087816,203.13148174865637 148.6867956018541,202.80910426314222 148.14572930452414,202.59418585716048 147.85060223331675,202.64791546494234 147.4570994717069,202.97029302443843 147.35872378130443,203.34639998985222 147.604663007427,202.59418585716048 147.40791162662208,202.3255377568421 147.604663007427,204.0986133145052 148.63760775700212,205.22693178709596 147.06359671009704,204.8508258316433 147.0144088647794,204.90455526619917 146.6700939484872,204.8508258316433 146.57171825808473,204.9582846966223 146.57171825808473,205.1194729632698 146.47334256744944,205.1194729632698 146.57171825808473,205.33439059439115 146.42415472236462,205.54930815967964 146.12902765115723,205.49557877448387 145.29283428261988,205.17320237727836 145.53877350874245,205.54930815967964 145.53877350874245,205.38811999198515 145.39120997302234,205.44184938533 145.14527074689977,205.87168438383378 145.0468950564973,205.87168438383378 144.9977072114125,205.76422565890243 145.0468950564973,205.97914309229236 144.9977072114125,205.0657435452449 145.3420221277047,205.33439059439115 145.14527074689977,205.92541374015855 145.19445859198458,206.1940604596166 145.3420221277047,206.35524844191968 146.32577903196216,206.08660178427817 146.62090610316955,206.1940604596166 146.42415472236462,206.08660178427817 146.57171825808473,205.49557877448387 146.32577903196216,204.90455526619917 146.03065196052194,204.79709639283828 145.7847127346322,204.42099020653404 144.80095583037473,203.77623627439607 144.35826522344723,203.29267043573782 144.30907737836242,203.40012953989208 144.35826522344723,203.453859085741 144.555016604485,203.50758862745715 144.50582875916734,203.561318165157 144.555016604485,203.453859085741 142.98100555757992,202.43299700930947 142.63669064128771,202.00315990048693 142.63669064128771,201.89570058201207 142.09562434395775,201.30467403592775 141.50537020154297,200.92856597428909 140.37404976179823,199.90770021697972 140.17729838076048,199.80024057708215 139.93135915487073,199.47786155820359 139.53785639326088,199.2629421299789 138.80003871489316,199.90770021697972 138.65247517917305,200.12261944729835 139.09516578633338,200.33753861184232 139.53785639326088,200.12261944729835 139.88217130932026,199.74651075084694 139.83298346446827,199.58532124763587 140.078922690358,199.5315914050443 140.6691768327728,200.17634924466256 141.16105528501794,200.06888964603422 141.2594309754204,199.58532124763587 141.94806080847047,199.80024057708215 142.29237572476268,199.85397039918462 141.80049727275036,198.99429275188595 141.75130942743272,198.72564327070722 141.80049727275036,198.72564327070722 141.16105528501794,198.0808840955724 141.21024313033558,197.6510443156003 141.1118674397003,198.8331030755071 141.16105528501794,198.67191336210817 141.89887296315283,197.75850428530248 141.89887296315283,197.2749342917814 141.9972486535553,197.06001418747474 141.80049727275036,196.57644371164497 141.70212158211507,196.57644371164497 141.75130942743272,196.46898356062593 140.6691768327728,195.77049217669992 140.5216132972855,195.5555716107483 139.93135915487073,195.3943811429781 139.93135915487073,195.28692081052577 139.48866854794323,194.74961890088161 139.2919171671383,194.21231657912722 139.34110501222312,194.10485606529983 139.09516578633338,193.51382294442737 139.24272932182066,193.08398036152357 139.24272932182066,192.76159825123614 139.14435363118537,192.65413751482265 139.19354147650301,192.00937274994794 139.09516578633338,191.79445102979662 139.24272932182066,191.25714644073742 140.078922690358,189.75269139843294 140.37404976179823,189.37657713284716 140.5216132972855,189.10792396229226 141.65293373703025,187.92584878770867 142.14481218904257,187.65719506063033 142.34156357008033,187.38854123058263 142.58750279597007,187.38854123058263 143.0301934031304,187.06615649844753 143.91557461675256,186.74377161776647 144.2598895332776,186.74377161776647 144.65339229465462,186.47511743730865 146.12902765115723,185.77661608561175 146.42415472236462,185.45423061138717 146.8176574842073,185.4004996845615 147.3095359359868,184.80945921764942 147.70303869782947,184.54080429521855 148.14572930452414,184.05722517473623 148.63760775700212,183.8423010141123 148.93273482797667,183.57364572043298 149.08029836369678,183.35872141137952 149.5721768157091,182.98260371177457 150.4575580295641,181.69305577944033 151.195375707699,180.94081838894635 151.195375707699,180.67216198210372 151.44131493382156,180.29604283958906 151.58887846954167,179.75872942828573 151.98238123115152,178.8990271128132 152.08075692132115,178.46917555917753 152.08075692132115,178.14678672078298 152.32669614744373,177.23335087287705 152.37588399276137,176.10498729796382 152.32669614744373,175.8363290359266 152.22832045704126,175.7288657022873 152.2775083023589,175.2990122025949 152.22832045704126,174.81542670028284 152.32669614744373,174.06318192143226 152.2775083023589,173.6870592291234 152.42507183807902,173.04227700066986 152.8677624447737,172.71988566376967 153.359640896786,172.07510254479712 153.85151934926398,171.16165877651656 154.14664642023854,170.73180247319397 154.29420995595865,170.14074962539598 154.63852487248369,169.60342842165846 154.78608840797096,169.06610680563608 154.78608840797096,167.66906867409125 154.93365194369107,167.34667486330727 154.88446409837343,167.02428090415196 154.78608840797096,166.97054856317118 154.88446409837343,166.86308386886958 154.88446409837343,166.43322492664447 154.63852487248369,166.0570981357596 154.63852487248369,165.73470358276973 154.63852487248369,165.6272386990022 154.78608840797096,165.46604134200606 154.78608840797096,165.1973789979238 155.67146962182596,163.8540657319827 156.06497238343582,163.58540276944404 156.26172376424074,163.31673970393604 156.85197790665552,162.88687858456979 157.3438563591335,162.0808882745332 158.3276132629253,160.95250028179726 158.37680110824294,160.73756902926834 158.77030387008563,160.03904200333636 158.9178674055729,159.3942472068593 159.2129944767803,159.01811663480476" stroke="#4dd2ff" stroke-linecap="round" stroke-linejoin="round" stroke-width="0.5"><title>2024-09-03 4.7km</title><desc>12321662462</desc></polyline><polyline fill="none" points="48.069833300542086,213.0 48.31144507601857,213.4750917967758 48.60137920663692,213.58066770696314 49.03628040244803,214.0557591028046 49.616148663451895,214.42527440591948 49.80943808378652,214.478062290058 50.244339279597625,215.21709224389633 50.19601692445576,215.4282435136265 50.29266163497232,215.74497029633494 51.45239815698005,216.32563568616752 51.935621707933024,216.6951497697155 52.08058877335861,216.6951497697155 52.80542409955524,217.2758143573883 53.33697000565007,218.38435448147357 53.820193556603044,218.8594425592455 54.35173946246505,219.75683025509352 54.6416735930834,219.91519266820978 55.02825243375264,220.6014293700573 55.26986420946196,221.34045274491655 55.94637718074955,222.34341176931048 56.13966660108417,222.87128435261548 57.00946899270639,223.92702830402413 57.39604783337563,225.77457632002188 58.02423844975419,227.30539805977605 58.507462000707164,228.14998790621758 58.60410671075806,228.51949563791277 59.52223145752214,230.52539128955686 60.05377736361697,232.05620245693717 60.34371149423532,232.4257080903626 60.58532326971181,233.16471876186552 60.63364562462084,233.534223799943 60.82693504495546,234.06208779575536 60.82693504495546,234.37880599865457 61.020224465522915,234.95945565891452 60.77861269004643,236.96533253212692 60.58532326971181,237.28204939857824 60.58532326971181,237.54598000913393 60.48867855942808,237.65155222505564 60.19874442904256,238.44334332778817 59.81216558814049,239.12956154643325 59.473909102380276,239.34070547588635 58.845718486234546,240.1852805460221 58.74907377595082,240.2380664535449 58.31417258037254,240.66035356733482 58.16920551494695,240.97706873260904 58.16920551494695,241.29378375195665 57.54101489880122,242.243927935604 57.49269254365936,242.56064237188548 57.20275841304101,242.98292805993697 56.91282428242266,243.77471302670892 56.13966660108417,244.40814034384675 55.849732470465824,244.77763934299583 54.97993007884361,245.09435261267936 54.303417107556015,245.19992367026862 52.80542409955524,245.09435261267936 52.46716761402786,245.25270919292234 51.790654642740265,245.30549471161794 50.48595105507411,245.7805641971645 50.19601692445576,246.20284790894948 49.66447101859376,246.73070218408247 48.698023916687816,248.05033610016108 48.40808978606947,248.84211523475824 48.214800365967676,249.10604141058866 48.11815565568395,249.68667864077725 48.214800365967676,250.10895995498868 48.11815565568395,250.84795163111994 47.87654387997463,251.323017289571 47.586609749356285,252.37871757807443 47.34499797411263,252.58985744143138 46.958419133443385,253.22327664273325 46.42687322734855,253.85669526073616 45.89532732125372,254.22618918539956 45.557070835726336,254.22618918539956 44.34901195834391,255.12353074760176 43.62417663191445,256.23200988495955 43.09263072581962,257.97390206425916 42.754374240292236,258.39617829205235 42.51276246481575,258.87123873858945 41.787927138153464,259.34629885700997 41.69128242810257,259.5046521569602 40.241611775476485,260.0324962268933 39.71006586938165,260.4547711913474 39.323487028479576,260.8770458964864 39.03355289786123,261.0881831520237 39.08187525323592,261.35210463014664 38.93690818781033,261.51045746845193 38.8885858329013,261.6160260071629 38.74361876747571,261.72159452951746 38.26039521652274,262.6717105025891 38.01878344127908,262.83006303728325 37.873816375853494,263.1467679970665 37.583882245235145,263.51625693269307 37.05233633937314,263.78017747966805 36.182533947518095,264.5719385126722 35.844277461990714,265.3636986348429 35.79595510684885,265.68040242855204 35.60266568651423,265.89153820998035 35.45769862108864,266.3138095786562 35.071119780419394,266.4721612751018 34.68454093975015,266.8416484250338 34.53957387432456,266.894432287314 34.10467267851345,267.0 33.524804417276755,266.894432287314 32.94493615627289,266.41937738028355 32.65500202565454,266.36659348156536 31.73687727912329,265.7331863800064 31.205331372795627,265.2053466832731 31.012041952693835,264.7830746344407 30.62546311179176,264.51915447216015 30.383851336315274,264.14966607512906 29.610693654976785,263.4106886856607 28.45095713250339,262.6189263162087 28.16102300188504,262.5133579315152 27.774444161215797,262.77727886301 27.581154740881175,263.1467679970665 27.726121806306764,263.35790455609094 27.871088871499524,263.8857456698315 27.1945758999791,263.51625693269307 25.986517022829503,265.3109146550414 25.79322760249488,265.4164826105698 25.503293471876532,265.68040242855204 25.551615827018395,265.89153820998035 25.4549711169675,266.10267392673995 25.64826053730212,266.3138095786562 25.889872312778607,266.26102567178896 25.986517022829503,265.89153820998035 26.663029994117096,265.09977869532304 26.663029994117096,265.0469946952653 26.42141821864061,264.9414266831009 25.79322760249488,264.14966607512906 24.101945174392313,262.88284720730735 22.410662746056914,261.2993203427177 22.120728615438566,261.19375175534515 21.87911683996208,260.9826145324041 21.685827419394627,260.66590857628034 21.444215644150972,260.50755554356147 20.236156766768545,259.4518677277374 19.946222636150196,259.29351441562176 19.51132144033909,259.4518677277374 19.028097889386117,259.82135864760494 18.979775534477085,259.9797118381248 19.414676730288193,260.0324962268933 20.042867346433923,259.9797118381248 20.381123832194135,259.39908329444006 22.120728615438566,257.97390206425916 22.31401803600602,257.97390206425916 22.36234039091505,257.7627638531849 22.120728615438566,257.23491804196965 22.16905097058043,256.65428718185285 21.975761550012976,256.33757923339726 21.299248578725383,255.9153017422068 20.864347382914275,255.80973232898396 20.381123832194135,255.4930239918176 20.236156766768545,255.44023925467627 19.99454499129206,255.17631550884107 19.70461086067371,254.17340435116785 19.752933215815574,253.48720113775926 19.607966150622815,252.69542734889546 19.607966150622815,252.16757764999056 19.70461086067371,251.95643765712157 19.752933215815574,251.323017289571 19.99454499129206,250.9535218057572 20.042867346433923,250.68959633877967 20.526090897154063,250.05617480480578 20.719380317721516,249.5811082717264 20.960992093198,249.42275268782396 21.009314448107034,249.15882663353113 21.685827419394627,248.57818895787932 22.072406260296702,248.10312140412861 23.328787492820993,247.3113414189429 25.406648761592805,246.30841879628133 25.503293471876532,246.15006245911354 26.08316173311323,245.93892061943188 26.42141821864061,245.67499322869116 26.807997059309855,245.46385124319931 28.16102300188504,244.51371150673367 28.547601842787117,244.09142675821204 28.934180683689192,243.93306991062127 29.562371299834922,243.1412851261557 30.28720662626438,242.56064237188548 30.915397242177278,241.6104986257269 30.867074887501076,241.50492701743497 31.39862079336308,240.92428288178053 31.688554923981428,240.079708719044 32.02681140950881,239.55184934067074 32.17177847470157,238.8656315433327 32.123456119792536,238.49612936895574 32.17177847470157,238.39055728260428 32.36506789526902,237.49319389514858 32.31674554012716,237.22926326433662 32.36506789526902,236.96533253212692 32.268423184985295,236.80697404424427 32.36506789526902,235.96239482657984 32.31674554012716,235.06502827169606 32.46171260531992,234.48437870066846 32.36506789526902,234.11487417289754 32.31674554012716,233.16471876186552 32.558357315603644,232.53128109202953 32.51003496046178,231.95062938227784 32.7033243807964,231.36997718247585 32.65500202565454,231.3171905944473 32.751646735938266,231.0532575941761 32.94493615627289,230.8421111208736 32.94493615627289,230.3670313191251 33.23487028689124,229.83916448795935 33.186547931749374,229.5752309205127 33.28319264180027,229.20572375581833 33.57312677241862,228.94178994535469 33.524804417276755,228.73064282396808 33.91138325841166,227.93884054169757 34.10467267851345,227.3581849555485 34.781185650033876,226.30244627024513 35.699310396565124,224.40211255353643 35.94092217204161,224.19096403877484 36.71407985361293,223.24079491995508 37.00401398399845,223.02964604867157 37.24562575947493,222.8184971124865 37.34227046999149,222.50177358684596 37.77717166556977,222.02668802486733 38.55032934714109,220.75979158858536 38.8885858329013,220.28470482351258 39.22684231842868,219.7040427759639 39.17851996328682,219.4401053196052 39.27516467357054,219.28174279717496 39.85503293457441,218.27877930848626 40.241611775476485,217.69811556761852 40.869802391622216,217.11745133664226 41.014769456814975,216.800725185778 40.91812474653125,216.22006019722903 40.724835326196626,216.11448469210882 40.48322355095297,215.85054585832404 40.62819061614573,215.48103132087272" stroke="#4dd2ff" stroke-linecap="round" stroke-linejoin="round" stroke-width="0.5"><title>2024-09-02 4.2km</title><desc>12321662448</desc></polyline><polyline fill="none" points="158.1600062418729,213.37300393820624 158.23588227317668,213.16577955987304 158.5393863983918,213.0 158.65320044523105,213.0 159.0325806015171,213.37300393820624 159.37402274203487,213.45589366724016 159.75340289855376,213.95323177438695 159.75340289855376,214.07756622950546 159.86721694562584,214.49201420677127 160.17072107060812,215.03079610160785 161.00535741448402,215.44524334714515 162.14349788357504,216.68858317515696 162.37112597725354,217.3931411401427 162.37112597725354,217.4760302521172 162.29524994594976,217.4760302521172 162.1814358991105,218.67792094501783 162.29524994594976,218.84369876162964 162.40906399278902,218.8851432077936 162.40906399278902,218.84369876162964 162.37112597725354,218.80225431232248 162.44700200855732,219.05092096084263 162.7884441493079,219.25814308066037 162.90225819614716,219.46536512079183 163.0919482742902,219.5896983066923 163.12988628982566,219.75547584344167 163.39545239927247,220.1699194626126 163.69895652425475,220.377141152916 163.9645226339344,220.46002980676712 164.2300887433812,220.79158429495874 164.26802675891668,220.833028591529 164.1542127118446,220.91591717556003 164.2300887433812,221.12313857951085 164.11627469630912,221.24747138368548 164.00246064946987,221.57902538840426 164.1921507276129,222.11780021179584 164.72328294650652,222.40790950940573 165.0267870714888,222.73946280154632 165.67173333722167,223.19534824584844 166.20286555611528,224.1071179799037 166.1649275405798,224.35578218559385 166.35461761872284,224.68733428174164 166.35461761872284,224.8945542385045 166.62018372793682,225.26754996014643 166.9995638844557,225.64054542430677 167.75832419726066,226.0135406307527 167.9100762596354,226.3036478353897 167.9100762596354,226.59375488426303 168.1377043533139,226.9667494323512 168.51708450983278,227.2982999254018 169.0102787129581,227.4640750955732 169.6172869631555,227.83706904252176 170.1104811662808,228.45872504811268 170.1104811662808,228.66594355760026 171.40037369797938,229.99214013569872 171.8176918698009,230.73812427962548 171.85562988556921,230.90389839396812 172.08325797948055,231.19400297146058 172.08325797948055,231.31833345696214 172.27294805739075,231.6084378118394 172.27294805739075,231.7327682019386 172.46263813553378,232.23008947604103 172.72820424521342,232.56163673772244 172.80408027628437,232.89318379582255 173.2972744796425,233.39050400131964 173.44902654201724,233.6391639323556 173.52490257332101,233.88782374886796 173.56284058908932,234.3436997818062 173.8663447140716,235.42122342073708 174.05603479221463,235.66988241678337 174.28366288612597,236.2915294059494 174.62510502664372,236.83028955102782 174.62510502664372,237.03750484826742 175.08036121423356,237.65915026320727 175.11829923000187,238.23935200483538 175.61149343312718,238.9853247567371 175.72530747996643,239.3997536181705 175.87705954280682,239.5655250736163 175.91499755810946,239.9799534898193 176.10468763648532,240.22861038689734 176.10468763648532,240.4772671694809 176.25643969886005,240.85025212873006 176.29437771462835,241.26467955909902 176.4461297772359,241.55477857109508 176.4081917614676,242.63228782295482 176.48406779277138,242.96382869870286 176.25643969886005,243.6269098398334 176.06674962071702,243.91700758301886 175.95293557387777,244.28999016675516 175.80118351150304,244.49720260201138 175.76324549573474,244.87018478513346 175.34592732368037,245.16028186058975 175.2700512923766,245.36749396193773 175.08036121423356,245.6161483786127 174.51129097980447,246.07201451182482 174.39747693296522,246.27922626334475 174.28366288612597,246.98374562402023 173.79046868276782,247.64682182989782 173.44902654201724,248.30989722165396 173.2593364638742,248.59999244959909 173.2972744796425,248.76576108130394 173.10758440126665,248.97297179946327 172.87995630758815,249.09729819223867 172.7661422607489,249.26306667132303 172.23501004185528,249.34595089178765 171.8176918698009,249.6774876465206 171.21068361983635,249.80181387707125 170.67955140094273,249.76037180342246 169.76903902553022,249.80181387707125 168.32739443168975,250.21623443887802 167.79626221279614,250.5892126726685 167.5686341188848,250.87930667644832 167.49275808758102,251.0450746086426 167.15131594683044,251.335168367601 166.65812174370512,252.24689059564844 166.46843166579492,253.40726211477886 166.54430769686587,253.86312167235883 166.31667960295454,254.48474772190093 166.27874158741906,254.81628132241894 165.899361431133,255.5622311795887 165.36822921223938,256.18385527376086 165.0647250872571,256.4739462728903 164.9888490557205,256.68115403398406 164.41977882152423,256.97124476599856 164.00246064946987,257.46854280133266 163.77483255555853,257.46854280133266 163.357514383737,257.6343087113637 163.16782430559397,257.8415160274599 163.0919482742902,258.04872326389886 162.82638216484338,258.4631374984747 162.67463010246865,258.960434160399 162.67463010246865,259.49917169404216 162.40906399278902,259.913584815833 161.38473757077008,260.9910574447422 161.0812334457878,261.07393986565876 160.92948138318025,261.2397046692786 160.20865908637643,261.4469106022734 159.79134091408923,261.7369987750426 159.6016508359462,262.109969053854 159.48783678910695,262.151410180144 159.14639464835636,262.85590883903205 158.88082853890955,263.0631141519989 158.729076476302,263.4775245398341 158.46351036708802,263.9333755991247 158.23588227317668,264.01625756855356 157.8944401324261,264.34778531925986 157.5529979916755,264.51354911833187 157.28743188246153,264.8450765637099 157.05980378878303,265.0108402100741 156.94598974171095,265.508130844275 156.4527955383528,266.2540659371007 156.33898149151355,266.6684738769254 155.99753935076296,266.75135542679345 155.6560972102452,267.0 155.31465506949462,266.95855924559874 155.01115094451234,266.7927961968817 154.5558947569225,266.75135542679345 153.91094849118963,266.29550674543134 153.64538238151,266.1297434932494 153.53156833467074,266.00542102064355 153.22806420968845,265.92253935639746 152.77280802186579,265.17660380573943 152.65899397525936,265.17660380573943 152.16579977190122,264.51354911833187 151.3691014435608,263.9333755991247 150.64827914652415,263.5604065792286 150.45858906861395,263.60184759408 150.34477502154186,263.7676116221119 150.2309609747026,264.01625756855356 150.68621716229245,264.5964309986157 148.90313042746857,265.5495717097656 148.71344034932554,265.79821683611954 148.59962630248629,266.1297434932494 148.67550233355723,266.50271073917975 148.97900645853952,266.461269946798 149.01694447430782,266.29550674543134 149.51013867766596,265.88109851942863 149.51013867766596,265.5495717097656 149.13075852114707,265.0937220142805 148.90313042746857,264.9693993033143 148.63756431802176,264.88651748010307 148.44787423987873,264.7207537954964 148.18230813043192,264.38922627380816 147.9167420209851,264.2649034006172 147.57529988023452,263.9333755991247 147.49942384893075,263.8919346095645 147.15798170818016,263.4775245398341 147.00622964580543,263.4360835153202 146.70272552082315,263.2703193856869 146.36128338007256,262.85590883903205 145.6783990985714,262.4000568704796 145.64046108303592,262.2757335395727 145.26108092674986,261.90276337513933 144.8817007704638,261.6955576169712 144.72994870785624,261.4883517793787 144.5402586297132,261.4054694220831 144.19881648896262,261.07393986565876 144.04706442635506,261.07393986565876 143.70562228560448,261.2397046692786 143.55387022322975,261.4883517793787 143.51593220746145,261.7369987750426 143.62974625453353,261.8613222298445 143.9332503795158,261.9442045171745 144.38850656710565,261.6541164557857 144.38850656710565,261.2397046692786 144.31263053580187,261.032498656743 144.2746925202664,260.65952763403766 145.98190322355367,259.8721435179177 145.83015116117895,259.8721435179177 146.05777925509028,259.2919650138647 145.7163371143397,258.87755141514936 145.7163371143397,258.79466865726863 145.4128329893574,258.2973718428111 144.42644458287396,257.8415160274599 144.19881648896262,257.6757501809334 144.08500244189054,257.5099842835916 144.16087847342715,257.178452336404 143.9332503795158,256.5568293868273 144.04706442635506,255.60367280812352 144.19881648896262,255.10637305595446 144.12294045765884,254.8991646907234 144.7678867233917,253.69735460504307 146.39922139560804,252.1640068202978 147.27179575525224,251.5423781000427 147.65117591177113,251.37661032035248 148.06849408359267,251.0450746086426 148.8651924119331,250.67209668963915 149.13075852114707,250.5892126726685 149.58601470896974,250.257676477544 149.85158081818372,250.21623443887802 150.34477502154186,249.84325594748952 150.5344650996849,249.59460347692948 151.17941136541776,249.09729819223867 151.29322541225702,248.9315296622226 151.9761096937582,248.268455033598 152.16579977190122,247.89547519717598 152.58311794395559,247.43961060300353 152.8107460376341,246.94230333410087 153.15218817838468,246.61076490051346 153.15218817838468,246.44499560742406 153.379816272296,246.15489922190318 153.53156833467074,245.53326358573395 153.75919642834924,245.28460913090385 153.75919642834924,245.03595456155017 153.7212584130466,244.58008755382616 153.79713444411755,244.2485476701986 154.13857658486813,243.54402474174276 154.06270055356435,243.46113963087555 154.02476253802888,243.0467138859094 154.10063856909983,242.7566156752291 153.98682452226058,242.21786144201178 154.13857658486813,241.43045044210157 154.13857658486813,241.26467955909902 153.98682452226058,240.9331376402406 154.02476253802888,240.51870995547506 154.2144526161719,239.9799534898193 154.25239063170739,239.52408221454243 154.48001872561872,238.90243894630112 154.48001872561872,238.73666728721582 154.63177078799345,238.40512381651206 154.63177078799345,237.86636524245841 154.8214608663693,237.41049218305852 154.8214608663693,237.24472006608266 154.89733689767309,237.16183398853173 154.97321292874403,236.7888464819698 155.23877903842367,236.37441561702872 155.23877903842367,236.16720006530522 155.69403522578068,235.37978024361655 155.69403522578068,235.21400750332396 156.03547736653127,234.79957542996272 156.2251674446743,234.3851430385257 156.41485752281733,233.76349385493086 156.64248561649583,233.55627730145352 156.98392775724642,233.3490606683481 157.3633079137653,232.89318379582255 157.59093600744382,232.7688536728383 157.74268807005137,232.60308013111353 157.78062608558685,232.4787499413651 158.1600062418729,232.02287233417155 158.65320044523105,231.19400297146058 158.69113846076652,230.94534191454295 158.95670457021333,230.6552372034639 158.99464258598164,230.53090656525455 159.18433266412467,230.2408016315312 159.26020869519562,229.74347852540086 159.67752686724998,229.1218239987793 159.71546488278545,228.95604933745926 159.9810309924651,228.58305616339203 160.24659710167907,228.45872504811268 160.73979130503722,227.91995655122446 160.7777293205727,227.54696266155224 160.36041114851832,227.0081932551111 160.36041114851832,226.84241794489208 160.4742251955904,226.635198735632 160.815667336341,226.3865355794842 160.8536053521093,226.2622039586422 160.89154336741194,225.88920892393799 160.7018532892689,225.4747696943232" stroke="#4dd2ff" stroke-linecap="round" stroke-linejoin="round" stroke-width="0.5"><title>2024-09-01 4.4km</title><desc>12321662453</desc></polyline></svg>