<?xml version="1.0" encoding="utf-8" ?>
<svg baseProfile="full" height="200mm" version="1.1" viewBox="0,0,200,200" width="200mm" xmlns="http://www.w3.org/2000/svg" xmlns:ev="http://www.w3.org/2001/xml-events" xmlns:xlink="http://www.w3.org/1999/xlink"><defs /><rect fill="#1a1a1a" height="200" width="200" x="0" y="0" /><text alignment-baseline="middle" fill="#e1ed5e" style="dominant-baseline: central; font-size:9.0px; font-family:Arial;" text-anchor="middle" x="100.0" y="100.0">2025</text><line stroke="#e1ed5e" stroke-width="0.3" x1="100.0" x2="100.0" y1="15.0" y2="10.0" /><path d="M 100.0 14.0 a86.0,86.0 0 0,1 42.46469731375804,11.215312516191453" fill="none" id="id13" stroke="none" /><text fill="#e1ed5e" style="font-size:6.75px; font-family:Arial;" text-anchor="middle"><textPath startOffset="22.20632615414155" xlink:href="#id13">January</textPath></text><path d="M 101.08401301168833 79.027996857942 l 0.32456092496637995 -6.279161472040708 a27.28754392318459,27.28754392318459 0 0,0 0.46887530673528693,0.02828383894519425 l -0.4325982805412788 6.27264436371521" fill="red" stroke="none" /><line stroke="#e1ed5e" stroke-width="0.3" x1="143.23703022742887" x2="145.7803849466894" y1="26.81831364943548" y2="22.513508569990506" /><path d="M 143.74570117128098 25.957352633546492 a86.0,86.0 0 0,1 28.547481713284135,27.462654790039103" fill="none" id="id14" stroke="none" /><text fill="#e1ed5e" style="font-size:6.75px; font-family:Arial;" text-anchor="middle"><textPath startOffset="19.985693538727396" xlink:href="#id14">February</textPath></text><path d="M 112.48926042617603 83.11751280151076 l 6.296583737035324 -8.51147231359816 a31.5873569743655,31.5873569743655 0 0,0 0.43433194375976214,0.32712981539434605 l -6.4421618345534695 8.401825908697967" fill="red" stroke="none" /><path d="M 116.38621287248628 86.86637796730983 l 11.320002656764373 -9.07303215574751 a35.50732134642301,35.50732134642301 0 0,0 0.37814607276982576,0.4802071110827513 l -11.474502810128163 8.876832650711721" fill="red" stroke="none" /><line stroke="#e1ed5e" stroke-width="0.3" x1="172.23445277983987" x2="176.4835382374775" y1="55.19839476539836" y2="52.563006222186495" /><path d="M 173.08426987136738 54.67131705675599 a86.0,86.0 0 0,1 12.851231095245387,41.99856678651699" fill="none" id="id15" stroke="none" /><text fill="#e1ed5e" style="font-size:6.75px; font-family:Arial;" text-anchor="middle"><textPath startOffset="22.20632615414155" xlink:href="#id15">March</textPath></text><path d="M 120.83666639777658 97.38593545837742 l 5.055645397579294 -0.634256128909355 a26.09527538246205,26.09527538246205 0 0,0 0.052078275216815274,0.4461748583909677 l -5.065814025799698 0.5471375321935346" fill="red" stroke="none" /><path d="M 120.96714384426684 98.82574320788733 l 8.446413609076226 -0.47303813161765634 a29.459649397554983,29.459649397554983 0 0,0 0.02399753828087691,0.5065501047732162 l -8.4533047555906 0.32757692022144036" fill="red" stroke="none" /><path d="M 120.98425023603335 99.18683210126433 l 23.493212119599136 -0.9103935436797848 a44.51084498908649,44.51084498908649 0 0,0 0.023078460965647314,0.7658617646616829 l -23.505402275020426 0.5058616315931027" fill="red" stroke="none" /><line stroke="#e1ed5e" stroke-width="0.3" x1="184.98032266829074" x2="189.97916517819016" y1="98.17113171792111" y2="98.06355123074" /><path d="M 185.9800911702706 98.14961562048488 a86.0,86.0 0 0,1 -9.607161424134198,41.387399972396054" fill="none" id="id16" stroke="none" /><text fill="#e1ed5e" style="font-size:6.75px; font-family:Arial;" text-anchor="middle"><textPath startOffset="21.466115282336823" xlink:href="#id16">April</textPath></text><path d="M 120.99513854157772 99.54816195383933 l 62.98541562473312 -1.355514138482002 a84.0,84.0 0 0,0 0.018667971529137795,1.4458549677581491 l -62.99941660337998 0.27112291266339017" fill="red" stroke="none" /><path d="M 120.99824983174949 100.27111621757518 l 18.442089494679127 0.23811268024921325 a39.44362661133243,39.44362661133243 0 0,0 -0.014609050250424544,0.6788251599765515 l -18.435258381743694 -0.5555276560158795" fill="red" stroke="none" /><path d="M 120.76222939487914 103.15116336523771 l 6.888499122008268 1.045493991126905 a27.967386729570215,27.967386729570215 0 0,0 -0.07633531154468323,0.4753400578564876 l -6.869482056102297 -1.1639132786765973" fill="red" stroke="none" /><path d="M 120.41448212921028 104.9243191809786 l 5.438160517863763 1.3117765112953657 a26.59413509254456,26.59413509254456 0 0,0 -0.11117448415400413,0.4440868005838159 l -5.414774719414698 -1.4051911512765773" fill="red" stroke="none" /><path d="M 119.67450827220406 107.3425965602758 l 4.056433872971139 1.513875568862053 a25.329719968287215,25.329719968287215 0 0,0 -0.15596560419971978,0.4071769771433186 l -4.0297739891779125 -1.5834761128385155" fill="red" stroke="none" /><line stroke="#e1ed5e" stroke-width="0.3" x1="174.80103733775053" x2="179.2010983576182" y1="140.37084112569926" y2="142.7455964860345" /><path d="M 175.68104954172406 140.8457921977663 a86.0,86.0 0 0,1 -30.038265399797805,32.042727171017184" fill="none" id="id17" stroke="none" /><text fill="#e1ed5e" style="font-size:6.75px; font-family:Arial;" text-anchor="middle"><textPath startOffset="22.206326154141568" xlink:href="#id17">May</textPath></text><path d="M 116.0416608686014 113.55231037782055 l 3.817091590691069 3.224753995321451 a25.9969217066176,25.9969217066176 0 0,0 -0.2917318727745929,0.3393500757661265 l -3.7610172083456974 -3.289981170249105" fill="red" stroke="none" /><line stroke="#e1ed5e" stroke-width="0.3" x1="143.8653032363475" x2="146.44561519142675" y1="172.8068346515853" y2="177.08958963109032" /><path d="M 144.38136562736335 173.6633856474863 a86.0,86.0 0 0,1 -40.68145358897372,12.25698825130547" fill="none" id="id18" stroke="none" /><text fill="#e1ed5e" style="font-size:6.75px; font-family:Arial;" text-anchor="middle"><textPath startOffset="21.466115282336833" xlink:href="#id18">June</textPath></text><path d="M 109.89434966115114 118.52300852407294 l 7.51017427053529 14.05964280569136 a36.93977018019517,36.93977018019517 0 0,0 -0.563435449871285,0.2947627977687585 l -7.26704791813751 -14.186835022404836" fill="red" stroke="none" /><path d="M 109.57404056367764 118.69057910512821 l 9.984723394438225 19.492320009023054 a42.90080456507483,42.90080456507483 0 0,0 -0.6601536834509295,0.3310147614479592 l -9.647715803304536 -19.661302611380314" fill="red" stroke="none" /><path d="M 109.2508944713604 118.85261126421891 l 8.883863035185707 18.104629432908293 a41.16682001037517,41.16682001037517 0 0,0 -0.6388450066712283,0.30668442574931104 l -8.570905360514246 -18.254868135157164" fill="red" stroke="none" /><path d="M 108.92500713936063 119.00905698771935 l 6.582178569758773 14.019149293907793 a36.48746659880392,36.48746659880392 0 0,0 -0.5708238348130662,0.2620372254215822 l -6.339886739178288 -14.13037358966345" fill="red" stroke="none" /><path d="M 108.59647513512805 119.15986991738527 l 6.318809316709686 14.083396117345528 a36.43597737038378,36.43597737038378 0 0,0 -0.5744380383796196,0.2518167548477998 l -6.075450603672312 -14.19007742548778" fill="red" stroke="none" /><path d="M 108.2653958097858 119.30500536409082 l 6.077634926270257 14.195179221026754 a36.441527107578764,36.441527107578764 0 0,0 -0.5787756833273549,0.24192828257093213 l -5.832387783445441 -14.29769254661766" fill="red" stroke="none" /><path d="M 107.93186726928326 119.44442032107085 l 9.32404129683411 22.85723801364714 a45.68584768075797,45.68584768075797 0 0,0 -0.7307101599584851,0.2907646527865229 l -8.929210060833759 -23.014349510839732" fill="red" stroke="none" /><path d="M 107.59598834532513 119.57807347666477 l 5.715225288980936 14.73055191194769 a36.80041011285444,36.80041011285444 0 0,0 -0.5925387879709916,0.2240474680820037 l -5.460816280249669 -14.826747630136325" fill="red" stroke="none" /><path d="M 107.2578585660854 119.70592522655815 l 5.344667242345556 14.511389562018222 a36.46434269382482,36.46434269382482 0 0,0 -0.5908620263429823,0.21186210078262527 l -5.094085655372839 -14.601239203840807" fill="red" stroke="none" /><path d="M 106.91757812671514 119.82793768551818 l 5.605860634287523 16.068146003453105 a38.01796078968748,38.01796078968748 0 0,0 -0.6197475557293214,0.21025201953993236 l -5.3284433456209745 -16.16226100989116" fill="red" stroke="none" /><path d="M 106.57524785965236 119.94407469862006 l 4.845276830930905 14.6967179206364 a36.474825530748674,36.474825530748674 0 0,0 -0.5979763748461324,0.191453151754204 l -4.591579110993832 -14.777943919050312" fill="red" stroke="none" /><path d="M 106.2309692047433 120.05430185196036 l 4.6415283487974754 14.938704959471933 a36.643167558996545,36.643167558996545 0 0,0 -0.6039579670451445,0.18196758112795264 l -4.383695407312085 -15.01638790970561" fill="red" stroke="none" /><path d="M 105.88484417918355 120.15858648285463 l 1.0416428214233104 3.5681568212430936 a24.71709064570752,24.71709064570752 0 0,0 -0.4094431167035643,0.11571271459717666 l -0.9800685366151404 -3.5855583291787894" fill="red" stroke="none" /><path d="M 105.53697534728816 120.25689768951611 l 5.048052083459718 18.46818310940737 a40.145668366497986,40.145668366497986 0 0,0 -0.6681568939910089,0.17646630848653436 l -4.729404746657211 -18.55234076719749" fill="red" stroke="none" /><path d="M 105.18746579009965 120.34920634021253 l 3.836638873260496 15.050230544914786 a36.53155617763074,36.53155617763074 0 0,0 -0.610680133303625,0.15009031899220504 l -3.5770054552136603 -15.114042122221022" fill="red" stroke="none" /><path d="M 104.83641907484287 120.43548508189849 l 3.6385690031971887 15.37416866356029 a36.79886851918917,36.79886851918917 0 0,0 -0.6176599846740719,0.14057740158355594 l -3.3733888691302547 -15.434522798721531" fill="red" stroke="none" /><path d="M 104.48393922423573 120.51570834832081 l 3.1446867706298343 14.388124683840012 a35.72776924055712,35.72776924055712 0 0,0 -0.6019423724471398,0.12614287672235983 l -2.8965529367533165 -14.440123541288914" fill="red" stroke="none" /><path d="M 104.13013068566511 120.58985236759428 l 4.305172194850361 21.462483067836853 a42.89001340941792,42.89001340941792 0 0,0 -0.7251116081808204,0.13896936548802694 l -3.9350929720978365 -21.533409631673347" fill="red" stroke="none" /><path d="M 103.7750983002368 120.6578951692458 l 4.203185660709307 23.000452398911914 a44.38135112120352,44.38135112120352 0 0,0 -0.752688754727463,0.1308645880277742 l -3.8066479345097943 -23.069395565460695" fill="red" stroke="none" /><path d="M 103.41894727170886 120.7198165907248 l 3.0166059770857867 18.28151112153921 a39.52872258165553,39.52872258165553 0 0,0 -0.6722972411207383,0.10499900257197278 l -2.7014728723565313 -18.33072843145829" fill="red" stroke="none" /><path d="M 103.06178313531738 120.77559828337769 l 3.659727951230734 24.832927212964474 a46.10115301418266,46.10115301418266 0 0,0 -0.7860716575095181,0.10894236902956328 l -3.231727702534385 -24.892244147486643" fill="red" stroke="none" /><path d="M 102.70371172650421 120.8252237178851 l 2.559484834166683 19.71432225985585 a40.879775269901245,40.879775269901245 0 0,0 -0.6986014426757102,0.08459090572285873 l -2.2197559684395927 -19.75545869430406" fill="red" stroke="none" /><path d="M 102.34483914955558 120.86867818915974 l 4.0058405150851835 35.65131390878324 a56.87565945951236,56.87565945951236 0 0,0 -0.9738396756286121,0.10094246416910688 l -3.391568242850969 -35.7149857414081" fill="red" stroke="none" /><path d="M 101.98527174616119 120.90594882070398 l 3.323975304142563 35.003196778506 a56.1606683175585,56.1606683175585 0 0,0 -0.9631706578095841,0.0831064171665766 l -2.7209603285914374 -35.05522744795124" fill="red" stroke="none" /><path d="M 101.62511606390274 120.93702456842531 l 1.2622020549177102 16.261457271343993 a37.31036929732693,37.31036929732693 0 0,0 -0.6407385037003116,0.044189078625394625 l -0.9821007904384683 -16.280774694485675" fill="red" stroke="none" /><path d="M 101.26447882468166 120.96189622390904 l 0.6033029505468496 10.001253950713611 a31.019433868078732,31.019433868078732 0 0,0 -0.5332564636874015,0.02756326810025944 l -0.4310584184459684 -10.010157025576072" fill="red" stroke="none" /><path d="M 100.90346689309514 120.98055641714683 l 0.8368876430622224 19.43443478036882 a40.45244550588742,40.45244550588742 0 0,0 -0.6959354898222523,0.02396942540891494 l -0.5022318015653179 -19.44596100420383" fill="red" stroke="none" /><line stroke="#e1ed5e" stroke-width="0.3" x1="102.19456741930631" x2="102.32365962044197" y1="184.97166512339345" y2="189.96999836594603" /><path d="M 102.22038585953345 185.97133177190398 a86.0,86.0 0 0,1 -42.740103519485714,-10.115201625700543" fill="none" id="id19" stroke="none" /><text fill="#e1ed5e" style="font-size:6.75px; font-family:Arial;" text-anchor="middle"><textPath startOffset="22.20632615414155" xlink:href="#id19">July</textPath></text><path d="M 100.54218724476979 120.99299961872073 l 0.7979254315175351 30.894950851762246 a51.90525316393747,51.90525316393747 0 0,0 -0.8933643237987209,0.015380077006836709 l -0.2660014178261464 -30.904108406048245" fill="red" stroke="none" /><path d="M 100.18074693466247 120.99922214144158 l 0.15334130696608111 17.81522975453512 a38.815889670833045,38.815889670833045 0 0,0 -0.6681764832570609,0.0 l 0.15334130696606885 -17.81522975453512" fill="red" stroke="none" /><path d="M 99.81925306533755 120.99922214144158 l -0.141009570612211 16.382525672621018 a37.383132518327834,37.383132518327834 0 0,0 -0.6434176671527572,-0.011077018641499061 l 0.4229869276576361 -16.377671176700357" fill="red" stroke="none" /><path d="M 99.45781275523022 120.99299961872073 l -0.4846156382345489 18.763879096793964 a39.77013614963735,39.77013614963735 0 0,0 -0.6841971810472642,-0.023565134320553904 l 0.8075331709564562 -18.752757164047317" fill="red" stroke="none" /><path d="M 99.09653310690486 120.98055641714683 l -0.796576644088242 18.49832168683017 a39.515464876134175,39.515464876134175 0 0,0 -0.6793121096415301,-0.03511267668905178 l 1.114876822143261 -18.481869203378917" fill="red" stroke="none" /><path d="M 98.73552117531835 120.96189622390904 l -1.079770631433839 17.899896368323386 a38.93243415192772,38.93243415192772 0 0,0 -0.6685945508908243,-0.04611019473186476 l 1.3877279431035934 -17.878657829075234" fill="red" stroke="none" /><path d="M 98.37488393609728 120.93702456842531 l -1.453771596116054 18.72952480185609 a39.78586040502314,39.78586040502314 0 0,0 -0.6823382713528997,-0.05887501718203874 l 1.7759541852104954 -18.70172553239539" fill="red" stroke="none" /><path d="M 98.01472825383883 120.90594882070398 l -2.25245671302637 23.71954612986134 a44.82625505300146,44.82625505300146 0 0,0 -0.7675266730144351,-0.07955727788516719 l 2.660415982646398 -23.677259483520412" fill="red" stroke="none" /><path d="M 97.65516085044442 120.86867818915974 l -1.8379998045693278 16.357892369958734 a37.46082883905762,37.46082883905762 0 0,0 -0.6401744847668304,-0.07751621479578392 l 2.1193017123875477 -16.3238306264376" fill="red" stroke="none" /><path d="M 97.2962882734958 120.8252237178851 l -2.382006365641603 18.34730196109013 a39.50128221441365,39.50128221441365 0 0,0 -0.6735371320210319,-0.09334610921378644 l 2.697472088849466 -18.303581286383736" fill="red" stroke="none" /><path d="M 96.93821686468263 120.77559828337769 l -2.7500217059252243 18.660154461576344 a39.8617068133546,39.8617068133546 0 0,0 -0.677960575670585,-0.10588349895630125 l 3.070818145204327 -18.610052655272938" fill="red" stroke="none" /><path d="M 96.58105272829116 120.7198165907248 l -2.896184688829836 17.551723029476964 a38.78906594105729,38.78906594105729 0 0,0 -0.6578459871688586,-0.11437495718631868 l 3.197879647470745 -17.499269493769642" fill="red" stroke="none" /><path d="M 96.22490169976321 120.6578951692458 l -3.6083602039843994 19.745479693101633 a41.07247447806043,41.07247447806043 0 0,0 -0.6943837423518556,-0.13308029686896528 l 3.94771156090795 -19.680442197884197" fill="red" stroke="none" /><path d="M 95.86986931433489 120.58985236759428 l -5.158651146968987 25.7173134740427 a47.22959957716287,47.22959957716287 0 0,0 -0.7957255049367261,-0.1667520162536622 l 5.6005681133351 -25.6247054770625" fill="red" stroke="none" /><path d="M 95.51606077576429 120.51570834832081 l -3.63954965906611 16.65230851503298 a38.045401156929344,38.045401156929344 0 0,0 -0.6385827293372889,-0.14533935015029179 l 3.925652537796261 -16.587192431305006" fill="red" stroke="none" /><path d="M 95.16358092515715 120.4354850818985 l -2.4375472608749216 10.299450877848207 a31.583965468301898,31.583965468301898 0 0,0 -0.527973682496726,-0.12976308562181987 l 2.614474228114858 -10.255966533912357" fill="red" stroke="none" /><path d="M 94.11515582081647 120.15858648285463 l -2.3117282125084624 7.918845712440297 a29.249376021611674,29.249376021611674 0 0,0 -0.4820924296708191,-0.14525049439531496 l 2.4476956166195274 -7.877879848939257" fill="red" stroke="none" /><path d="M 93.42475214034765 119.94407469862007 l -4.835430080781366 14.666850708827415 a36.44337701997709,36.44337701997709 0 0,0 -0.5940795708532441,-0.20154404544979626 l 5.087179384571836 -14.581443676479495" fill="red" stroke="none" /><path d="M 92.7421414339146 119.70592522655815 l -5.831321055288751 15.832710935500227 a37.87243434768565,37.87243434768565 0 0,0 -0.6097998983454107,-0.23057414305110757 l 6.102991174394446 -15.729988542342486" fill="red" stroke="none" /><path d="M 92.40401165467489 119.57807347666478 l -5.60649024777351 14.450295738627322 a36.4997993481261,36.4997993481261 0 0,0 -0.5837863490350802,-0.23230063625821182 l 5.854397672850449 -14.351648257963042" fill="red" stroke="none" /><path d="M 92.06813273071674 119.44442032107085 l -7.7354862631105 18.9630059582908 a41.48007184315875,41.48007184315875 0 0,0 -0.6587994200851974,-0.2753782110258285 l 8.06075714269316 -18.827042704245" fill="red" stroke="none" /><path d="M 91.7346041902142 119.30500536409082 l -3.3031811731141563 7.715048587272096 a29.392435913749058,29.392435913749058 0 0,0 -0.46339180249950257,-0.2031373483860074 l 3.435493650271402 -7.657046685591636" fill="red" stroke="none" /><path d="M 91.40352486487194 119.15986991738527 l -6.9314429015156165 15.44883713908916 a37.932556500631314,37.932556500631314 0 0,0 -0.5934313720389528,-0.2724152369323076 l 7.196342269321989 -15.327234831822778" fill="red" stroke="none" /><path d="M 90.7491055286396 118.85261126421891 l -4.113042919086497 8.382065053995047 a30.33681619309562,30.33681619309562 0 0,0 -0.46682017172120016,-0.23407332512880616 l 4.256716998490457 -8.31002388795694" fill="red" stroke="none" /><path d="M 90.10565033884886 118.52300852407294 l -1.8803399632064206 3.5201457760666353 a24.990877680660095,24.990877680660095 0 0,0 -0.37769211843917383,-0.20594785730316434 l 1.9406548935142351 -3.487257267003705" fill="red" stroke="none" /><line stroke="#e1ed5e" stroke-width="0.3" x1="58.666819895761336" x2="56.23545636021788" y1="174.27360380694188" y2="178.64263932499728" /><path d="M 58.180547188652646 175.14741091055294 a86.0,86.0 0 0,1 -31.652253787137756,-30.449443065178592" fill="none" id="id20" stroke="none" /><text fill="#e1ed5e" style="font-size:6.75px; font-family:Arial;" text-anchor="middle"><textPath startOffset="22.20632615414155" xlink:href="#id20">August</textPath></text><path d="M 86.51685102203217 116.09983520530335 l -2.859100110928031 3.413968109128136 a25.453047461509097,25.453047461509097 0 0,0 -0.33347676585637454,-0.2841961344867382 l 2.917442353361462 -3.3642475844184463" fill="red" stroke="none" /><path d="M 85.97065885151581 115.62618273729859 l -10.6735016537625 11.88837633380752 a36.97676842816173,36.97676842816173 0 0,0 -0.4699579120350549,-0.4292954100494741 l 10.87655911526441 -11.70288815717147" fill="red" stroke="none" /><path d="M 85.70375840098266 115.38237550388516 l -10.680936793424419 11.492403744842328 a36.68941536895475,36.68941536895475 0 0,0 -0.4589045083131065,-0.43392285598523217 l 10.877177136128342 -11.306846252111164" fill="red" stroke="none" /><path d="M 85.44109423537348 115.13401014063109 l -11.272190073569439 11.717462949379646 a37.25918838763984,37.25918838763984 0 0,0 -0.45837681401838126,-0.44861818804777714 l 11.472216839963615 -11.5216946584093" fill="red" stroke="none" /><path d="M 85.18274418774928 114.88116024355367 l -8.829484495754308 8.867564636405774 a33.513732418491294,33.513732418491294 0 0,0 -0.4052917398598172,-0.4105583927069169 l 8.980816860669657 -8.714265749718193" fill="red" stroke="none" /><path d="M 84.9287848128048 114.62390073753433 l -12.020668587377216 11.663894519265792 a37.74941517319682,37.74941517319682 0 0,0 -0.44848722738039926,-0.47023706488004174 l 12.219662366136573 -11.45525033780325" fill="red" stroke="none" /><path d="M 84.67929136418377 114.36230785411682 l -12.543345645379473 11.758685316838665 a38.19308583006254,38.19308583006254 0 0,0 -0.44550159827624974,-0.4835039972946043 l 12.743893651651453 -11.541030064742715" fill="red" stroke="none" /><path d="M 84.43433777217949 114.09645910891817 l -12.441316447814094 11.267012350702846 a37.784871827498115,37.784871827498115 0 0,0 -0.43244093147195195,-0.48585197078358144 l 12.633416228934383 -11.0511862101784" fill="red" stroke="none" /><path d="M 84.19399662182784 113.82643327865904 l -11.612578646438383 10.158200021005463 a36.42857772079047,36.42857772079047 0 0,0 -0.4087936764565392,-0.4755193999163206 l 11.7857148324657 -9.956803521927611" fill="red" stroke="none" /><path d="M 83.50135304334701 112.99209946851258 l -12.128000075744152 9.550370024413285 a36.436902326582945,36.436902326582945 0 0,0 -0.38379020934910707,-0.49610058102457555 l 12.290597102311327 -9.340191449275457" fill="red" stroke="none" /><path d="M 83.28015986056508 112.70617746262583 l -12.294033795597105 9.342803150966951 a36.44121878884571,36.44121878884571 0 0,0 -0.3752382376660601,-0.502692939910096 l 12.45303329995825 -9.129797331547548" fill="red" stroke="none" /><path d="M 83.06392112726016 112.41649034213515 l -13.79103442185984 10.110737378691379 a38.100281891413076,38.100281891413076 0 0,0 -0.38321664055486443,-0.5322543966561497 l 13.963030854790311 -9.871849376584091" fill="red" stroke="none" /><path d="M 82.85270091963577 112.12312394758628 l -12.608846209749164 8.914442135781288 a36.44183542631182,36.44183542631182 0 0,0 -0.35771842362508244,-0.5153200691326747 l 12.76042554053638 -8.696080804461602" fill="red" stroke="none" /><path d="M 82.6465618267979 111.8261652097733 l -12.767304613485718 8.70076881224294 a36.4501600321043,36.4501600321043 0 0,0 -0.3488747130349941,-0.521520360044653 l 12.915182431931443 -8.479711537992467" fill="red" stroke="none" /><path d="M 82.44556493220864 111.52570212397912 l -12.89714122799947 8.467866238404364 a36.42857772079047,36.42857772079047 0 0,0 -0.33964468342009907,-0.5271360911871896 l 13.040990774796613 -8.244608547295725" fill="red" stroke="none" /><path d="M 82.24976979558568 111.22182372390057 l -9.29321418495328 5.875237121491686 a31.994646020730762,31.994646020730762 0 0,0 -0.2902910194407684,-0.46804155401134484 l 9.392969844062005 -5.714399236115077" fill="red" stroke="none" /><line stroke="#e1ed5e" stroke-width="0.3" x1="26.63291911575756" x2="22.317208475507996" y1="142.92168965132927" y2="145.44649492493687" /><path d="M 25.769776987707644 143.4266507060508 a86.0,86.0 0 0,1 -11.730757126820373,-40.83630448921669" fill="none" id="id21" stroke="none" /><text fill="#e1ed5e" style="font-size:6.75px; font-family:Arial;" text-anchor="middle"><textPath startOffset="21.46611528233685" xlink:href="#id21">September</textPath></text><path d="M 81.87401531095188 110.60418214915194 l -13.332756657061157 7.800016526948705 a36.4467685260407,36.4467685260407 0 0,0 -0.3121370745764183,-0.5442372996363071 l 13.465045727789953 -7.569359381454092" fill="red" stroke="none" /><line stroke="#e1ed5e" stroke-width="0.3" x1="15.007084014347285" x2="10.007500721073583" y1="101.09737516637583" y2="101.16192664675087" /><path d="M 14.007167355692545 101.11028546245083 a86.0,86.0 0 0,1 10.666146001902534,-42.60595125391555" fill="none" id="id22" stroke="none" /><text fill="#e1ed5e" style="font-size:6.75px; font-family:Arial;" text-anchor="middle"><textPath startOffset="22.20632615414155" xlink:href="#id22">October</textPath></text><line stroke="#e1ed5e" stroke-width="0.3" x1="26.266209847984243" x2="21.928928074336255" y1="57.711370442889674" y2="55.22380399835377" /><path d="M 25.398753493254645 57.213857153982495 a86.0,86.0 0 0,1 29.58750427330803,-30.492523968695096" fill="none" id="id23" stroke="none" /><text fill="#e1ed5e" style="font-size:6.75px; font-family:Arial;" text-anchor="middle"><textPath startOffset="21.46611528233685" xlink:href="#id23">November</textPath></text><line stroke="#e1ed5e" stroke-width="0.3" x1="56.762969772571076" x2="54.21961505331055" y1="26.818313649435495" y2="22.513508569990535" /><path d="M 56.25429882871897 25.957352633546506 a86.0,86.0 0 0,1 42.265352541879196,-11.944610805530505" fill="none" id="id24" stroke="none" /><text fill="#e1ed5e" style="font-size:6.75px; font-family:Arial;" text-anchor="middle"><textPath startOffset="22.20632615414155" xlink:href="#id24">December</textPath></text></svg>