<?xml version="1.0" encoding="utf-8" ?>
<svg baseProfile="full" height="200mm" version="1.1" viewBox="0,0,200,200" width="200mm" xmlns="http://www.w3.org/2000/svg" xmlns:ev="http://www.w3.org/2001/xml-events" xmlns:xlink="http://www.w3.org/1999/xlink"><defs /><rect fill="#1a1a1a" height="200" width="200" x="0" y="0" /><text alignment-baseline="middle" fill="#e1ed5e" style="dominant-baseline: central; font-size:9.0px; font-family:Arial;" text-anchor="middle" x="100.0" y="100.0">2024</text><line stroke="#e1ed5e" stroke-width="0.3" x1="100.0" x2="100.0" y1="15.0" y2="10.0" /><path d="M 100.0 14.0 a86.0,86.0 0 0,1 42.35913384403234,11.155469271406648" fill="none" id="id1" stroke="none" /><text fill="#e1ed5e" style="font-size:6.75px; font-family:Arial;" text-anchor="middle"><textPath startOffset="22.145653131862478" xlink:href="#id1">January</textPath></text><line stroke="#e1ed5e" stroke-width="0.3" x1="143.13028292997686" x2="145.6673583964461" y1="26.7553504044142" y2="22.446841604673864" /><path d="M 143.63769802327073 25.89364864446614 a86.0,86.0 0 0,1 29.32050498858742,28.57503671076993" fill="none" id="id2" stroke="none" /><text fill="#e1ed5e" style="font-size:6.75px; font-family:Arial;" text-anchor="middle"><textPath startOffset="20.669276256404974" xlink:href="#id2">February</textPath></text><line stroke="#e1ed5e" stroke-width="0.3" x1="172.87174338648825" x2="177.1583165268699" y1="56.24261187166439" y2="53.66864786411523" /><path d="M 173.72905801456457 55.72781907015455 a86.0,86.0 0 0,1 12.242430191666344,42.057860355516425" fill="none" id="id3" stroke="none" /><text fill="#e1ed5e" style="font-size:6.75px; font-family:Arial;" text-anchor="middle"><textPath startOffset="22.145653131862474" xlink:href="#id3">March</textPath></text><line stroke="#e1ed5e" stroke-width="0.3" x1="184.99686870605535" x2="189.99668451229388" y1="99.2704041080226" y2="99.22748670261217" /><path d="M 185.99683186730306 99.26182062694052 a86.0,86.0 0 0,1 -10.086455211305974,41.156179273409016" fill="none" id="id4" stroke="none" /><text fill="#e1ed5e" style="font-size:6.75px; font-family:Arial;" text-anchor="middle"><textPath startOffset="21.40746469413373" xlink:href="#id4">April</textPath></text><line stroke="#e1ed5e" stroke-width="0.3" x1="174.33088141563837" x2="178.70328620479359" y1="141.23008692659167" y2="143.65538615756765" /><path d="M 175.20536237346943 141.71514677278685 a86.0,86.0 0 0,1 -30.301960400862466,31.631185727798858" fill="none" id="id5" stroke="none" /><text fill="#e1ed5e" style="font-size:6.75px; font-family:Arial;" text-anchor="middle"><textPath startOffset="22.145653131862474" xlink:href="#id5">May</textPath></text><line stroke="#e1ed5e" stroke-width="0.3" x1="143.1302829299769" x2="145.66735839644613" y1="173.24464959558577" y2="177.55315839532614" /><path d="M 143.63769802327073 174.10635135553383 a86.0,86.0 0 0,1 -40.68552437913181,11.842963189579606" fill="none" id="id6" stroke="none" /><text fill="#e1ed5e" style="font-size:6.75px; font-family:Arial;" text-anchor="middle"><textPath startOffset="21.407464694133747" xlink:href="#id6">June</textPath></text><line stroke="#e1ed5e" stroke-width="0.3" x1="101.45913802915013" x2="101.54496967792366" y1="184.9874750549273" y2="189.98673829345242" /><path d="M 101.47630435890484 185.9873277026323 a86.0,86.0 0 0,1 -42.54439059252881,-10.42667462771756" fill="none" id="id7" stroke="none" /><text fill="#e1ed5e" style="font-size:6.75px; font-family:Arial;" text-anchor="middle"><textPath startOffset="22.145653131862474" xlink:href="#id7">July</textPath></text><line stroke="#e1ed5e" stroke-width="0.3" x1="58.13341422392154" x2="55.67067388415222" y1="173.97424548756322" y2="178.32567169271397" /><path d="M 57.64086615596768 174.84453072859336 a86.0,86.0 0 0,1 -31.369924170532247,-30.572349798747897" fill="none" id="id8" stroke="none" /><text fill="#e1ed5e" style="font-size:6.75px; font-family:Arial;" text-anchor="middle"><textPath startOffset="22.145653131862474" xlink:href="#id8">August</textPath></text><line stroke="#e1ed5e" stroke-width="0.3" x1="26.387840678322732" x2="22.057713659400548" y1="142.50000000000003" y2="145.00000000000006" /><path d="M 25.521815274538298 143.00000000000003 a86.0,86.0 0 0,1 -11.493303480769221,-40.785679425670985" fill="none" id="id9" stroke="none" /><text fill="#e1ed5e" style="font-size:6.75px; font-family:Arial;" text-anchor="middle"><textPath startOffset="21.40746469413373" xlink:href="#id9">September</textPath></text><path d="M 81.81346652052679 110.50000000000001 l -22.50502252957716 12.993280815569982 a46.98656163113994,46.98656163113994 0 0,0 -0.3972974113360542,-0.7019864575281206 l 22.724753305934595 -12.605037587942741" fill="#ffcf13" stroke="none" /><path d="M 81.63589988554817 110.18625677009913 l -21.78798309147531 12.085426941105014 a45.91533165629551,45.91533165629551 0 0,0 -0.37640656517074955,-0.6925456843591852 l 21.992235006261392 -11.709626423271242" fill="#ffbe11" stroke="none" /><path d="M 81.4637452351635 109.86951160357371 l -24.68637451072293 13.144103961385941 a48.967562557924,48.967562557924 0 0,0 -0.3886903600176345,-0.7453650160788422 l 24.908372939715512 -12.718392702202594" fill="#ffef16" stroke="none" /><path d="M 81.29705330413844 109.54985784667822 l -28.037970817915046 14.31638767807902 a52.4815305176751,52.4815305176751 0 0,0 -0.4028084592199879,-0.8058867491295263 l 28.279599190346772 -13.83296907278574" fill="#daff1c" stroke="none" /><path d="M 81.1358732173502 109.22738970284198 l -28.932534675059543 14.152352537373146 a53.20839401562293,53.20839401562293 0 0,0 -0.39430141711774375,-0.823938310432118 l 29.1712153501372 -13.653601724875923" fill="#cfff1d" stroke="none" /><path d="M 80.9802524753101 108.90220220490708 l -57.0592425740697 26.706606614721235 a84.0,84.0 0 0,0 -0.6000621405797757,-1.3112440711412445 l 57.50928917950453 -25.7231735613653" fill="#4dd2ff" stroke="none" /><path d="M 80.83023694016515 108.57439118712176 l -32.38874523374849 14.487073774848097 a56.48106712564543,56.48106712564543 0 0,0 -0.38828344764135614,-0.888468514816049 l 32.63266256340681 -13.928943190256199" fill="#a0ff22" stroke="none" /><path d="M 80.68587082218212 108.24405325689762 l -25.011086763792598 10.675745688312158 a48.194227459287696,48.194227459287696 0 0,0 -0.31825208529205906,-0.763689149097298 l 25.19066469362114 -10.244824029773579" fill="#ffe315" stroke="none" /><path d="M 80.5471966667186 107.91128576633889 l -50.90342142124819 20.701978344626593 a75.95207202436117,75.95207202436117 0 0,0 -0.4808175759041393,-1.2119743845659738 l 51.251297672118454 -19.825102942847057" fill="#40ffc9" stroke="none" /><path d="M 80.28708602549918 107.23885506374661 l -24.649438364476254 9.051615197733197 a47.25883754799417,47.25883754799417 0 0,0 -0.2731106899402611,-0.7639392071246089 l 24.801189224460458 -8.627141034227668" fill="#ffd413" stroke="none" /><path d="M 80.16572619554312 106.89939002012753 l -28.22082045641233 9.816666288686116 a50.87945187342778,50.87945187342778 0 0,0 -0.27987230637085886,-0.8273927437356222 l 28.385178184355556 -9.330771870476333" fill="#f2ff19" stroke="none" /><path d="M 79.94057633289273 106.21446072829308 l -13.317050381408805 4.125656249420045 a34.94148020654045,34.94148020654045 0 0,0 -0.17258375769250997,-0.5744751995332122 l 13.385910459104945 -3.8964434462961095" fill="#ff0000" stroke="none" /><line stroke="#e1ed5e" stroke-width="0.3" x1="15.003131293944662" x2="10.003315487706104" y1="100.72959589197737" y2="100.7725132973878" /><path d="M 14.003168132696942 100.73817937305945 a86.0,86.0 0 0,1 10.791469493833604,-42.45332614584628" fill="none" id="id10" stroke="none" /><text fill="#e1ed5e" style="font-size:6.75px; font-family:Arial;" text-anchor="middle"><textPath startOffset="22.145653131862435" xlink:href="#id10">October</textPath></text><line stroke="#e1ed5e" stroke-width="0.3" x1="26.387840678322718" x2="22.05771365940052" y1="57.49999999999999" y2="54.99999999999999" /><path d="M 25.521815274538284 56.99999999999999 a86.0,86.0 0 0,1 29.574782752854787,-30.34633250058573" fill="none" id="id11" stroke="none" /><text fill="#e1ed5e" style="font-size:6.75px; font-family:Arial;" text-anchor="middle"><textPath startOffset="21.40746469413373" xlink:href="#id11">November</textPath></text><line stroke="#e1ed5e" stroke-width="0.3" x1="56.869717070023135" x2="54.33264160355391" y1="26.7553504044142" y2="22.446841604673864" /><path d="M 56.362301976729285 25.89364864446614 a86.0,86.0 0 0,1 42.16139366436587,-11.88097634709845" fill="none" id="id12" stroke="none" /><text fill="#e1ed5e" style="font-size:6.75px; font-family:Arial;" text-anchor="middle"><textPath startOffset="22.145653131862474" xlink:href="#id12">December</textPath></text></svg>