<?xml version="1.0" encoding="utf-8" ?>
<svg baseProfile="full" height="200mm" version="1.1" viewBox="0,0,200,200" width="200mm" xmlns="http://www.w3.org/2000/svg" xmlns:ev="http://www.w3.org/2001/xml-events" xmlns:xlink="http://www.w3.org/1999/xlink"><defs /><rect fill="#1a1a1a" height="200" width="200" x="0" y="0" /><text alignment-baseline="middle" fill="#e1ed5e" style="dominant-baseline: central; font-size:9.0px; font-family:Arial;" text-anchor="middle" x="100.0" y="100.0">2024</text><line stroke="#e1ed5e" stroke-width="0.3" x1="100.0" x2="100.0" y1="15.0" y2="10.0" /><path d="M 100.0 14.0 a86.0,86.0 0 0,1 42.35913384403234,11.155469271406648" fill="none" id="id1" stroke="none" /><text fill="#e1ed5e" style="font-size:6.75px; font-family:Arial;" text-anchor="middle"><textPath startOffset="22.145653131862478" xlink:href="#id1">January</textPath></text><line stroke="#e1ed5e" stroke-width="0.3" x1="143.13028292997686" x2="145.6673583964461" y1="26.7553504044142" y2="22.446841604673864" /><path d="M 143.63769802327073 25.89364864446614 a86.0,86.0 0 0,1 29.32050498858742,28.57503671076993" fill="none" id="id2" stroke="none" /><text fill="#e1ed5e" style="font-size:6.75px; font-family:Arial;" text-anchor="middle"><textPath startOffset="20.669276256404974" xlink:href="#id2">February</textPath></text><line stroke="#e1ed5e" stroke-width="0.3" x1="172.87174338648825" x2="177.1583165268699" y1="56.24261187166439" y2="53.66864786411523" /><path d="M 173.72905801456457 55.72781907015455 a86.0,86.0 0 0,1 12.242430191666344,42.057860355516425" fill="none" id="id3" stroke="none" /><text fill="#e1ed5e" style="font-size:6.75px; font-family:Arial;" text-anchor="middle"><textPath startOffset="22.145653131862474" xlink:href="#id3">March</textPath></text><line stroke="#e1ed5e" stroke-width="0.3" x1="184.99686870605535" x2="189.99668451229388" y1="99.2704041080226" y2="99.22748670261217" /><path d="M 185.99683186730306 99.26182062694052 a86.0,86.0 0 0,1 -10.086455211305974,41.156179273409016" fill="none" id="id4" stroke="none" /><text fill="#e1ed5e" style="font-size:6.75px; font-family:Arial;" text-anchor="middle"><textPath startOffset="21.40746469413373" xlink:href="#id4">April</textPath></text><line stroke="#e1ed5e" stroke-width="0.3" x1="174.33088141563837" x2="178.70328620479359" y1="141.23008692659167" y2="143.65538615756765" /><path d="M 175.20536237346943 141.71514677278685 a86.0,86.0 0 0,1 -30.301960400862466,31.631185727798858" fill="none" id="id5" stroke="none" /><text fill="#e1ed5e" style="font-size:6.75px; font-family:Arial;" text-anchor="middle"><textPath startOffset="22.145653131862474" xlink:href="#id5">May</textPath></text><line stroke="#e1ed5e" stroke-width="0.3" x1="143.1302829299769" x2="145.66735839644613" y1="173.24464959558577" y2="177.55315839532614" /><path d="M 143.63769802327073 174.10635135553383 a86.0,86.0 0 0,1 -40.68552437913181,11.842963189579606" fill="none" id="id6" stroke="none" /><text fill="#e1ed5e" style="font-size:6.75px; font-family:Arial;" text-anchor="middle"><textPath startOffset="21.407464694133747" xlink:href="#id6">June</textPath></text><line stroke="#e1ed5e" stroke-width="0.3" x1="101.45913802915013" x2="101.54496967792366" y1="184.9874750549273" y2="189.98673829345242" /><path d="M 101.47630435890484 185.9873277026323 a86.0,86.0 0 0,1 -42.54439059252881,-10.42667462771756" fill="none" id="id7" stroke="none" /><text fill="#e1ed5e" style="font-size:6.75px; font-family:Arial;" text-anchor="middle"><textPath startOffset="22.145653131862474" xlink:href="#id7">July</textPath></text><line stroke="#e1ed5e" stroke-width="0.3" x1="58.13341422392154" x2="55.67067388415222" y1="173.97424548756322" y2="178.32567169271397" /><path d="M 57.64086615596768 174.84453072859336 a86.0,86.0 0 0,1 -31.369924170532247,-30.572349798747897" fill="none" id="id8" stroke="none" /><text fill="#e1ed5e" style="font-size:6.75px; font-family:Arial;" text-anchor="middle"><textPath startOffset="22.145653131862474" xlink:href="#id8">August</textPath></text><line stroke="#e1ed5e" stroke-width="0.3" x1="26.387840678322732" x2="22.057713659400548" y1="142.50000000000003" y2="145.00000000000006" /><path d="M 25.521815274538298 143.00000000000003 a86.0,86.0 0 0,1 -11.493303480769221,-40.785679425670985" fill="none" id="id9" stroke="none" /><text fill="#e1ed5e" style="font-size:6.75px; font-family:Arial;" text-anchor="middle"><textPath startOffset="21.40746469413373" xlink:href="#id9">September</textPath></text><path d="M 81.81346652052679 110.50000000000001 l -14.855832473859143 8.57701887781857 a38.15403775563713,38.15403775563713 0 0,0 -0.3226135283388461,-0.5700271923435074 l 15.000879367219369 -8.320734915375942" fill="#ffae10" stroke="none" /><path d="M 81.63589988554817 110.18625677009913 l -14.382506230546499 7.9777337603711045 a37.44690613529103,37.44690613529103 0 0,0 -0.3069837635099331,-0.5648155485563937 l 14.517335343671762 -7.729663378340123" fill="#ffa40f" stroke="none" /><path d="M 81.4637452351635 109.86951160357371 l -16.29576880610823 8.676579026424406 a39.46171997902465,39.46171997902465 0 0,0 -0.31323572880349737,-0.6006708116596823 l 16.442312603886677 -8.395561971660221" fill="#ffc011" stroke="none" /><path d="M 81.29705330413844 109.54985784667822 l -18.508197307089002 9.450417421126625 a41.78133193497641,41.78133193497641 0 0,0 -0.32068184320993914,-0.6415785026703791 l 18.66769906351068 -9.131307062292494" fill="#ffe015" stroke="none" /><path d="M 81.1358732173502 109.22738970284198 l -19.098709526369934 9.34213587788668 a42.26114315679077,42.26114315679077 0 0,0 -0.3131766884534366,-0.6544188287154864 l 19.25626547278328 -9.01290454710609" fill="#ffe615" stroke="none" /><path d="M 80.9802524753101 108.90220220490708 l -37.665483233870695 17.629347995192234 a62.587047718930265,62.587047718930265 0 0,0 -0.4470966407951174,-0.9769868482343032 l 37.962564339520874 -16.98017216474324" fill="#30ff39" stroke="none" /><path d="M 80.83023694016515 108.57439118712176 l -21.38019513638371 9.563089339401127 a44.42147351861563,44.42147351861563 0 0,0 -0.3053788422365998,-0.6987665533164955 l 21.541207860637275 -9.194660716308784" fill="#fbff18" stroke="none" /><path d="M 80.68587082218212 108.24405325689762 l -16.51011521822457 7.047186434523838 a38.9512323020451,38.9512323020451 0 0,0 -0.25721567827377473,-0.6172239917772024 l 16.62865674103483 -6.762729933305354" fill="#ffb911" stroke="none" /><path d="M 80.5471966667186 107.91128576633889 l -33.60195263019469 13.665621607845193 a57.274514944939696,57.274514944939696 0 0,0 -0.36257856702156155,-0.9139348427445592 l 33.83158987218238 -13.086785747887069" fill="#60ff29" stroke="none" /><path d="M 80.28708602549918 107.23885506374661 l -16.271386817592134 5.975078621611506 a38.33377031987415,38.33377031987415 0 0,0 -0.2215323736949744,-0.6196654768438008 l 16.37155936133105 -5.6948781883867845" fill="#ffb110" stroke="none" /><path d="M 80.16572619554312 106.89939002012753 l -18.628898523621945 6.480097926800055 a40.72378080755113,40.72378080755113 0 0,0 -0.22400906533159942,-0.6622429978504755 l 18.737393010525913 -6.159353254475419" fill="#ffd113" stroke="none" /><path d="M 79.94057633289273 106.21446072829308 l -8.790743010905498 2.7233946558180038 a30.202936549554273,30.202936549554273 0 0,0 -0.14917903455317358,-0.4965684881760207 l 8.836198365462302 -2.57208856405126" fill="#ff3a05" stroke="none" /><path d="M 79.83685265289637 105.86919833188381 l -18.070780887999934 5.260140950114232 a39.820791819611955,39.820791819611955 0 0,0 -0.18541605099552777,-0.6579761535863695 l 18.158415431070036 -4.949156872624867" fill="#ffc512" stroke="none" /><path d="M 79.56144815229197 104.8234425847677 l -9.65353729865901 2.2782085172642423 a30.918720503408494,30.918720503408494 0 0,0 -0.11747514622410851,-0.5176171698825663 l 9.691223306440786 -2.11215701344265" fill="#ff4506" stroke="none" /><path d="M 79.407916724674 104.11899336999214 l -12.338821342311324 2.46810983730801 a33.58324593602517,33.58324593602517 0 0,0 -0.10822394141385758,-0.5662733925619942 l 12.379371576007339 -2.2559338797127015" fill="#ff6d0a" stroke="none" /><path d="M 79.22317932658666 103.0534771498775 l -24.127820367012784 3.5459587068245533 a45.386995280545364,45.386995280545364 0 0,0 -0.1066712901989335,-0.7718203176357278 l 24.18513617376693 -3.13125008098874" fill="#efff19" stroke="none" /><path d="M 79.06263194458094 101.62068470465958 l -20.79189342157831 1.609424047954415 a41.85409019402202,41.85409019402202 0 0,0 -0.04930020954476931,-0.7168142268722494 l 20.816457592288145 -1.2522663969278225" fill="#ffe115" stroke="none" /><path d="M 79.03789590574601 101.26102812881392 l -46.59314039303572 2.8029276250707897 a67.67737283691662,67.67737283691662 0 0,0 -0.059808784267052176,-1.1602744367356879 l 46.63439076675934 -2.0026813949583713" fill="#37ff79" stroke="none" /><path d="M 79.01933749520258 100.90099992219065 l -6.359895934202018 0.27312129636260846 a27.36575773466177,27.36575773466177 0 0,0 -0.016126657977850647,-0.46951005129783896 l 6.363647279176717 -0.16390498050064964" fill="#ff0e01" stroke="none" /><path d="M 79.00696218219943 100.54070618675478 l -33.544590974091 0.8639896726365955 a54.55571578395386,54.55571578395386 0 0,0 -0.016077227562511134,-0.9364179050400959 l 33.55447963325218 -0.2880248516274471" fill="#7fff26" stroke="none" /><line stroke="#e1ed5e" stroke-width="0.3" x1="15.003131293944662" x2="10.003315487706104" y1="100.72959589197737" y2="100.7725132973878" /><path d="M 14.003168132696942 100.73817937305945 a86.0,86.0 0 0,1 10.791469493833604,-42.45332614584628" fill="none" id="id10" stroke="none" /><text fill="#e1ed5e" style="font-size:6.75px; font-family:Arial;" text-anchor="middle"><textPath startOffset="22.145653131862435" xlink:href="#id10">October</textPath></text><path d="M 79.00077361379809 100.18025310272382 l -22.830307329608832 0.19597073037911605 a43.83114840062926,43.83114840062926 0 0,0 0.0,-0.7524476662058588 l 22.830307329608832 0.19597073037910764" fill="#fffb17" stroke="none" /><path d="M 79.01933749520258 99.09900007780938 l -14.801119482605708 -0.6356237558805636 a35.81476140534872,35.81476140534872 0 0,0 0.0316507164607353,-0.6140154437813643 l 14.788027176688402 0.8896109930386399" fill="#ff8d0d" stroke="none" /><path d="M 79.03789590574601 98.7389718711861 l -40.19490133902136 -2.4180254518104336 a61.267566858940754,61.267566858940754 0 0,0 0.07216747205451483,-1.0492992050896472 l 40.14746990580178 3.1076680810544057" fill="#35ff2f" stroke="none" /><path d="M 79.13060592940154 97.66154086499901 l -12.956799813364478 -1.4518364443856824 a34.03788673308862,34.03788673308862 0 0,0 0.0700498310825621,-0.5801130898064903 l 12.929967896022248 1.674043211115609" fill="#ff730a" stroke="none" /><path d="M 79.17382384314186 97.30363454192245 l -7.846674131464379 -1.015909062206987 a28.912165705296278,28.912165705296278 0 0,0 0.06795113884861129,-0.4916605908865885 l 7.82807847606056 1.1504579612936425" fill="#ff2603" stroke="none" /><path d="M 79.22317932658666 96.9465228501225 l -5.386813720180058 -0.7916761117481453 a26.44467750393288,26.44467750393288 0 0,0 0.06986244041918667,-0.44856698342440077 l 5.372429787622603 0.8840312771039961" fill="#ff0000" stroke="none" /><path d="M 79.34024301695615 96.23510406497455 l -18.846669462957255 -3.43449099174263 a40.157052962768745,40.157052962768745 0 0,0 0.1294084126196316,-0.6771194976160834 l 18.784934758055464 3.757513054392028" fill="#ffca12" stroke="none" /><path d="M 79.48165901384962 95.52812308129327 l -12.634327164649754 -2.7535928011491198 a33.930912427897226,33.930912427897226 0 0,0 0.12891991758020702,-0.5680449441795654 l 12.585196385511885 2.9700720792676933" fill="#ff720a" stroke="none" /><path d="M 79.64726062577567 94.8264132398404 l -16.77549652781083 -4.264265617300623 a38.30899318300997,38.30899318300997 0 0,0 0.1674842168562082,-0.6359648514974937 l 16.6998228301499 4.551610973170901" fill="#ffb010" stroke="none" /><path d="M 79.73907114497095 94.47779374421319 l -37.53068042778614 -10.229153842115847 a59.89971158888306,59.89971158888306 0 0,0 0.27890876778374374,-0.9897488229446322 l 37.34955316792781 10.871910588963493" fill="#44ff2d" stroke="none" /><path d="M 79.83685265289637 94.1308016681162 l -41.01884118148325 -11.939986852932984 a63.72128998426849,63.72128998426849 0 0,0 0.31473365196591346,-1.0476459658218558 l 40.80783120951371 12.642370422345563" fill="#32ff48" stroke="none" /><path d="M 80.05021161711548 93.44210830539832 l -59.84936514865357 -19.67367508380505 a84.0,84.0 0 0,0 0.46205831371054007,-1.3659933021033535 l 59.50282141337067 20.698170060382566" fill="#4dd2ff" stroke="none" /><line stroke="#e1ed5e" stroke-width="0.3" x1="26.387840678322718" x2="22.05771365940052" y1="57.49999999999999" y2="54.99999999999999" /><path d="M 25.521815274538284 56.99999999999999 a86.0,86.0 0 0,1 29.574782752854787,-30.34633250058573" fill="none" id="id11" stroke="none" /><text fill="#e1ed5e" style="font-size:6.75px; font-family:Arial;" text-anchor="middle"><textPath startOffset="21.40746469413373" xlink:href="#id11">November</textPath></text><line stroke="#e1ed5e" stroke-width="0.3" x1="56.869717070023135" x2="54.33264160355391" y1="26.7553504044142" y2="22.446841604673864" /><path d="M 56.362301976729285 25.89364864446614 a86.0,86.0 0 0,1 42.16139366436587,-11.88097634709845" fill="none" id="id12" stroke="none" /><text fill="#e1ed5e" style="font-size:6.75px; font-family:Arial;" text-anchor="middle"><textPath startOffset="22.145653131862474" xlink:href="#id12">December</textPath></text></svg>