<?xml version="1.0" encoding="utf-8" ?>
<svg baseProfile="full" height="200mm" version="1.1" viewBox="0,0,200,200" width="200mm" xmlns="http://www.w3.org/2000/svg" xmlns:ev="http://www.w3.org/2001/xml-events" xmlns:xlink="http://www.w3.org/1999/xlink"><defs /><rect fill="#1a1a1a" height="200" width="200" x="0" y="0" /><text alignment-baseline="middle" fill="#e1ed5e" style="dominant-baseline: central; font-size:9.0px; font-family:Arial;" text-anchor="middle" x="100.0" y="100.0">2025</text><line stroke="#e1ed5e" stroke-width="0.3" x1="100.0" x2="100.0" y1="15.0" y2="10.0" /><path d="M 100.0 14.0 a86.0,86.0 0 0,1 42.46469731375804,11.215312516191453" fill="none" id="id13" stroke="none" /><text fill="#e1ed5e" style="font-size:6.75px; font-family:Arial;" text-anchor="middle"><textPath startOffset="22.20632615414155" xlink:href="#id13">January</textPath></text><path d="M 101.08401301168833 79.027996857942 l 0.32456092496637995 -6.279161472040708 a27.28754392318459,27.28754392318459 0 0,0 0.46887530673528693,0.02828383894519425 l -0.4325982805412788 6.27264436371521" fill="red" stroke="none" /><line stroke="#e1ed5e" stroke-width="0.3" x1="143.23703022742887" x2="145.7803849466894" y1="26.81831364943548" y2="22.513508569990506" /><path d="M 143.74570117128098 25.957352633546492 a86.0,86.0 0 0,1 28.547481713284135,27.462654790039103" fill="none" id="id14" stroke="none" /><text fill="#e1ed5e" style="font-size:6.75px; font-family:Arial;" text-anchor="middle"><textPath startOffset="19.985693538727396" xlink:href="#id14">February</textPath></text><path d="M 112.48926042617603 83.11751280151076 l 6.296583737035324 -8.51147231359816 a31.5873569743655,31.5873569743655 0 0,0 0.43433194375976214,0.32712981539434605 l -6.4421618345534695 8.401825908697967" fill="red" stroke="none" /><path d="M 116.38621287248628 86.86637796730983 l 11.320002656764373 -9.07303215574751 a35.50732134642301,35.50732134642301 0 0,0 0.37814607276982576,0.4802071110827513 l -11.474502810128163 8.876832650711721" fill="red" stroke="none" /><line stroke="#e1ed5e" stroke-width="0.3" x1="172.23445277983987" x2="176.4835382374775" y1="55.19839476539836" y2="52.563006222186495" /><path d="M 173.08426987136738 54.67131705675599 a86.0,86.0 0 0,1 12.851231095245387,41.99856678651699" fill="none" id="id15" stroke="none" /><text fill="#e1ed5e" style="font-size:6.75px; font-family:Arial;" text-anchor="middle"><textPath startOffset="22.20632615414155" xlink:href="#id15">March</textPath></text><path d="M 120.83666639777658 97.38593545837742 l 5.055645397579294 -0.634256128909355 a26.09527538246205,26.09527538246205 0 0,0 0.052078275216815274,0.4461748583909677 l -5.065814025799698 0.5471375321935346" fill="red" stroke="none" /><path d="M 120.96714384426684 98.82574320788733 l 8.446413609076226 -0.47303813161765634 a29.459649397554983,29.459649397554983 0 0,0 0.02399753828087691,0.5065501047732162 l -8.4533047555906 0.32757692022144036" fill="red" stroke="none" /><path d="M 120.98425023603335 99.18683210126433 l 23.493212119599136 -0.9103935436797848 a44.51084498908649,44.51084498908649 0 0,0 0.023078460965647314,0.7658617646616829 l -23.505402275020426 0.5058616315931027" fill="red" stroke="none" /><line stroke="#e1ed5e" stroke-width="0.3" x1="184.98032266829074" x2="189.97916517819016" y1="98.17113171792111" y2="98.06355123074" /><path d="M 185.9800911702706 98.14961562048488 a86.0,86.0 0 0,1 -9.607161424134198,41.387399972396054" fill="none" id="id16" stroke="none" /><text fill="#e1ed5e" style="font-size:6.75px; font-family:Arial;" text-anchor="middle"><textPath startOffset="21.466115282336823" xlink:href="#id16">April</textPath></text><path d="M 120.99513854157772 99.54816195383933 l 62.98541562473312 -1.355514138482002 a84.0,84.0 0 0,0 0.018667971529137795,1.4458549677581491 l -62.99941660337998 0.27112291266339017" fill="red" stroke="none" /><path d="M 120.99824983174949 100.27111621757518 l 18.442089494679127 0.23811268024921325 a39.44362661133243,39.44362661133243 0 0,0 -0.014609050250424544,0.6788251599765515 l -18.435258381743694 -0.5555276560158795" fill="red" stroke="none" /><path d="M 120.76222939487914 103.15116336523771 l 6.888499122008268 1.045493991126905 a27.967386729570215,27.967386729570215 0 0,0 -0.07633531154468323,0.4753400578564876 l -6.869482056102297 -1.1639132786765973" fill="red" stroke="none" /><path d="M 120.41448212921028 104.9243191809786 l 5.438160517863763 1.3117765112953657 a26.59413509254456,26.59413509254456 0 0,0 -0.11117448415400413,0.4440868005838159 l -5.414774719414698 -1.4051911512765773" fill="red" stroke="none" /><path d="M 119.67450827220406 107.3425965602758 l 4.056433872971139 1.513875568862053 a25.329719968287215,25.329719968287215 0 0,0 -0.15596560419971978,0.4071769771433186 l -4.0297739891779125 -1.5834761128385155" fill="red" stroke="none" /><line stroke="#e1ed5e" stroke-width="0.3" x1="174.80103733775053" x2="179.2010983576182" y1="140.37084112569926" y2="142.7455964860345" /><path d="M 175.68104954172406 140.8457921977663 a86.0,86.0 0 0,1 -30.038265399797805,32.042727171017184" fill="none" id="id17" stroke="none" /><text fill="#e1ed5e" style="font-size:6.75px; font-family:Arial;" text-anchor="middle"><textPath startOffset="22.206326154141568" xlink:href="#id17">May</textPath></text><path d="M 116.0416608686014 113.55231037782055 l 3.817091590691069 3.224753995321451 a25.9969217066176,25.9969217066176 0 0,0 -0.2917318727745929,0.3393500757661265 l -3.7610172083456974 -3.289981170249105" fill="red" stroke="none" /><line stroke="#e1ed5e" stroke-width="0.3" x1="143.8653032363475" x2="146.44561519142675" y1="172.8068346515853" y2="177.08958963109032" /><path d="M 144.38136562736335 173.6633856474863 a86.0,86.0 0 0,1 -40.68145358897372,12.25698825130547" fill="none" id="id18" stroke="none" /><text fill="#e1ed5e" style="font-size:6.75px; font-family:Arial;" text-anchor="middle"><textPath startOffset="21.466115282336833" xlink:href="#id18">June</textPath></text><path d="M 109.89434966115114 118.52300852407294 l 7.51017427053529 14.05964280569136 a36.93977018019517,36.93977018019517 0 0,0 -0.563435449871285,0.2947627977687585 l -7.26704791813751 -14.186835022404836" fill="red" stroke="none" /><path d="M 109.57404056367764 118.69057910512821 l 9.984723394438225 19.492320009023054 a42.90080456507483,42.90080456507483 0 0,0 -0.6601536834509295,0.3310147614479592 l -9.647715803304536 -19.661302611380314" fill="red" stroke="none" /><path d="M 109.2508944713604 118.85261126421891 l 8.883863035185707 18.104629432908293 a41.16682001037517,41.16682001037517 0 0,0 -0.6388450066712283,0.30668442574931104 l -8.570905360514246 -18.254868135157164" fill="red" stroke="none" /><line stroke="#e1ed5e" stroke-width="0.3" x1="102.19456741930631" x2="102.32365962044197" y1="184.97166512339345" y2="189.96999836594603" /><path d="M 102.22038585953345 185.97133177190398 a86.0,86.0 0 0,1 -42.740103519485714,-10.115201625700543" fill="none" id="id19" stroke="none" /><text fill="#e1ed5e" style="font-size:6.75px; font-family:Arial;" text-anchor="middle"><textPath startOffset="22.20632615414155" xlink:href="#id19">July</textPath></text><line stroke="#e1ed5e" stroke-width="0.3" x1="58.666819895761336" x2="56.23545636021788" y1="174.27360380694188" y2="178.64263932499728" /><path d="M 58.180547188652646 175.14741091055294 a86.0,86.0 0 0,1 -31.652253787137756,-30.449443065178592" fill="none" id="id20" stroke="none" /><text fill="#e1ed5e" style="font-size:6.75px; font-family:Arial;" text-anchor="middle"><textPath startOffset="22.20632615414155" xlink:href="#id20">August</textPath></text><line stroke="#e1ed5e" stroke-width="0.3" x1="26.63291911575756" x2="22.317208475507996" y1="142.92168965132927" y2="145.44649492493687" /><path d="M 25.769776987707644 143.4266507060508 a86.0,86.0 0 0,1 -11.730757126820373,-40.83630448921669" fill="none" id="id21" stroke="none" /><text fill="#e1ed5e" style="font-size:6.75px; font-family:Arial;" text-anchor="middle"><textPath startOffset="21.46611528233685" xlink:href="#id21">September</textPath></text><line stroke="#e1ed5e" stroke-width="0.3" x1="15.007084014347285" x2="10.007500721073583" y1="101.09737516637583" y2="101.16192664675087" /><path d="M 14.007167355692545 101.11028546245083 a86.0,86.0 0 0,1 10.666146001902534,-42.60595125391555" fill="none" id="id22" stroke="none" /><text fill="#e1ed5e" style="font-size:6.75px; font-family:Arial;" text-anchor="middle"><textPath startOffset="22.20632615414155" xlink:href="#id22">October</textPath></text><line stroke="#e1ed5e" stroke-width="0.3" x1="26.266209847984243" x2="21.928928074336255" y1="57.711370442889674" y2="55.22380399835377" /><path d="M 25.398753493254645 57.213857153982495 a86.0,86.0 0 0,1 29.58750427330803,-30.492523968695096" fill="none" id="id23" stroke="none" /><text fill="#e1ed5e" style="font-size:6.75px; font-family:Arial;" text-anchor="middle"><textPath startOffset="21.46611528233685" xlink:href="#id23">November</textPath></text><line stroke="#e1ed5e" stroke-width="0.3" x1="56.762969772571076" x2="54.21961505331055" y1="26.818313649435495" y2="22.513508569990535" /><path d="M 56.25429882871897 25.957352633546506 a86.0,86.0 0 0,1 42.265352541879196,-11.944610805530505" fill="none" id="id24" stroke="none" /><text fill="#e1ed5e" style="font-size:6.75px; font-family:Arial;" text-anchor="middle"><textPath startOffset="22.20632615414155" xlink:href="#id24">December</textPath></text></svg>