<?xml version="1.0" encoding="utf-8" ?>
<svg baseProfile="full" height="200mm" version="1.1" viewBox="0,0,200,200" width="200mm" xmlns="http://www.w3.org/2000/svg" xmlns:ev="http://www.w3.org/2001/xml-events" xmlns:xlink="http://www.w3.org/1999/xlink"><defs /><rect fill="#1a1a1a" height="200" width="200" x="0" y="0" /><text alignment-baseline="middle" fill="#e1ed5e" style="dominant-baseline: central; font-size:9.0px; font-family:Arial;" text-anchor="middle" x="100.0" y="100.0">2024</text><line stroke="#e1ed5e" stroke-width="0.3" x1="100.0" x2="100.0" y1="15.0" y2="10.0" /><path d="M 100.0 14.0 a86.0,86.0 0 0,1 42.35913384403234,11.155469271406648" fill="none" id="id1" stroke="none" /><text fill="#e1ed5e" style="font-size:6.75px; font-family:Arial;" text-anchor="middle"><textPath startOffset="22.145653131862478" xlink:href="#id1">January</textPath></text><line stroke="#e1ed5e" stroke-width="0.3" x1="143.13028292997686" x2="145.6673583964461" y1="26.7553504044142" y2="22.446841604673864" /><path d="M 143.63769802327073 25.89364864446614 a86.0,86.0 0 0,1 29.32050498858742,28.57503671076993" fill="none" id="id2" stroke="none" /><text fill="#e1ed5e" style="font-size:6.75px; font-family:Arial;" text-anchor="middle"><textPath startOffset="20.669276256404974" xlink:href="#id2">February</textPath></text><line stroke="#e1ed5e" stroke-width="0.3" x1="172.87174338648825" x2="177.1583165268699" y1="56.24261187166439" y2="53.66864786411523" /><path d="M 173.72905801456457 55.72781907015455 a86.0,86.0 0 0,1 12.242430191666344,42.057860355516425" fill="none" id="id3" stroke="none" /><text fill="#e1ed5e" style="font-size:6.75px; font-family:Arial;" text-anchor="middle"><textPath startOffset="22.145653131862474" xlink:href="#id3">March</textPath></text><line stroke="#e1ed5e" stroke-width="0.3" x1="184.99686870605535" x2="189.99668451229388" y1="99.2704041080226" y2="99.22748670261217" /><path d="M 185.99683186730306 99.26182062694052 a86.0,86.0 0 0,1 -10.086455211305974,41.156179273409016" fill="none" id="id4" stroke="none" /><text fill="#e1ed5e" style="font-size:6.75px; font-family:Arial;" text-anchor="middle"><textPath startOffset="21.40746469413373" xlink:href="#id4">April</textPath></text><line stroke="#e1ed5e" stroke-width="0.3" x1="174.33088141563837" x2="178.70328620479359" y1="141.23008692659167" y2="143.65538615756765" /><path d="M 175.20536237346943 141.71514677278685 a86.0,86.0 0 0,1 -30.301960400862466,31.631185727798858" fill="none" id="id5" stroke="none" /><text fill="#e1ed5e" style="font-size:6.75px; font-family:Arial;" text-anchor="middle"><textPath startOffset="22.145653131862474" xlink:href="#id5">May</textPath></text><line stroke="#e1ed5e" stroke-width="0.3" x1="143.1302829299769" x2="145.66735839644613" y1="173.24464959558577" y2="177.55315839532614" /><path d="M 143.63769802327073 174.10635135553383 a86.0,86.0 0 0,1 -40.68552437913181,11.842963189579606" fill="none" id="id6" stroke="none" /><text fill="#e1ed5e" style="font-size:6.75px; font-family:Arial;" text-anchor="middle"><textPath startOffset="21.407464694133747" xlink:href="#id6">June</textPath></text><line stroke="#e1ed5e" stroke-width="0.3" x1="101.45913802915013" x2="101.54496967792366" y1="184.9874750549273" y2="189.98673829345242" /><path d="M 101.47630435890484 185.9873277026323 a86.0,86.0 0 0,1 -42.54439059252881,-10.42667462771756" fill="none" id="id7" stroke="none" /><text fill="#e1ed5e" style="font-size:6.75px; font-family:Arial;" text-anchor="middle"><textPath startOffset="22.145653131862474" xlink:href="#id7">July</textPath></text><line stroke="#e1ed5e" stroke-width="0.3" x1="58.13341422392154" x2="55.67067388415222" y1="173.97424548756322" y2="178.32567169271397" /><path d="M 57.64086615596768 174.84453072859336 a86.0,86.0 0 0,1 -31.369924170532247,-30.572349798747897" fill="none" id="id8" stroke="none" /><text fill="#e1ed5e" style="font-size:6.75px; font-family:Arial;" text-anchor="middle"><textPath startOffset="22.145653131862474" xlink:href="#id8">August</textPath></text><line stroke="#e1ed5e" stroke-width="0.3" x1="26.387840678322732" x2="22.057713659400548" y1="142.50000000000003" y2="145.00000000000006" /><path d="M 25.521815274538298 143.00000000000003 a86.0,86.0 0 0,1 -11.493303480769221,-40.785679425670985" fill="none" id="id9" stroke="none" /><text fill="#e1ed5e" style="font-size:6.75px; font-family:Arial;" text-anchor="middle"><textPath startOffset="21.40746469413373" xlink:href="#id9">September</textPath></text><path d="M 81.81346652052679 110.50000000000001 l -20.050773832603515 11.576319669713957 a44.15263933942789,44.15263933942789 0 0,0 -0.37333502823461545,-0.6596472226190807 l 20.246542225859507 -11.230415676995754" fill="#ffb510" stroke="none" /><path d="M 81.63589988554817 110.18625677009913 l -19.411929966371343 10.76747032570524 a43.198230610439396,43.198230610439396 0 0,0 -0.35413220418936,-0.6515633689669914 l 19.59390752017603 -10.432652123263662" fill="#ffa60f" stroke="none" /><path d="M 81.4637452351635 109.86951160357371 l -21.99424201468479 11.710695042211503 a45.917605426127984,45.917605426127984 0 0,0 -0.36448068173941056,-0.698939765814613 l 22.192030765399153 -11.331409033292388" fill="#ffd113" stroke="none" /><path d="M 81.29705330413844 109.54985784667822 l -24.980335427627523 12.755137261283494 a49.04836331465644,49.04836331465644 0 0,0 -0.3764580693275515,-0.753168317918245 l 25.19561341016681 -12.324437087201495" fill="#feff18" stroke="none" /><path d="M 81.1358732173502 109.22738970284198 l -25.77734407557945 12.608990706550209 a49.69595989383663,49.69595989383663 0 0,0 -0.36827248357491954,-0.7695478502547447 l 25.98999581711428 -12.164630354230358" fill="#f4ff19" stroke="none" /><path d="M 80.9802524753101 108.90220220490708 l -50.83673950598036 23.794160986256504 a77.12963727514008,77.12963727514008 0 0,0 -0.5509830386364549,-1.2039973760274068 l 51.23770700947187 -22.91797462801441" fill="#43ffdb" stroke="none" /><path d="M 80.83023694016515 108.57439118712176 l -28.856643202654364 12.90720946286378 a52.61173695075199,52.61173695075199 0 0,0 -0.3616834392345003,-0.827602489990899 l 29.073960523905832 -12.409944903097031" fill="#caff1d" stroke="none" /><path d="M 80.68587082218212 108.24405325689762 l -22.28354330013866 9.511519573438127 a45.22860513122972,45.22860513122972 0 0,0 -0.29866850568409803,-0.7166956871900239 l 22.443537650359243 -9.127591376806823" fill="#ffc612" stroke="none" /><path d="M 80.5471966667186 107.91128576633889 l -45.35223143552788 18.444357704153894 a69.95936301975817,69.95936301975817 0 0,0 -0.4428804961129793,-1.1163481611575181 l 45.66217060660698 -17.663108525782814" fill="#38ff7d" stroke="none" /><path d="M 80.28708602549918 107.23885506374661 l -21.96133387990436 8.064505996871585 a44.395222648186376,44.395222648186376 0 0,0 -0.25656174625929423,-0.7176488663212044 l 22.096535796207597 -7.686322174169459" fill="#ffb911" stroke="none" /><path d="M 80.16572619554312 106.89939002012753 l -25.143244695639314 8.746125683095988 a47.62099675611914,47.62099675611914 0 0,0 -0.2619485411707984,-0.7744043167660032 l 25.28967865838248 -8.313219691855823" fill="#ffeb16" stroke="none" /><path d="M 79.94057633289273 106.21446072829308 l -11.864781071162573 3.67573950479146 a33.42111471542318,33.42111471542318 0 0,0 -0.1650743337078351,-0.5494787693960164 l 11.926131724874038 -3.4715231318047204" fill="#ff0000" stroke="none" /><path d="M 79.83685265289637 105.86919833188381 l -24.389958704865265 7.09956151591944 a46.402241226776766,46.402241226776766 0 0,0 -0.21606100563207395,-0.7667242866111084 l 24.508238202571913 -6.679829305405336" fill="#ffd814" stroke="none" /><path d="M 79.56144815229197 104.8234425847677 l -13.029286201268818 3.074876066592446 a34.38720141551165,34.38720141551165 0 0,0 -0.1306535797326985,-0.5756837795055815 l 13.080150642559182 -2.850757953147838" fill="#ff1101" stroke="none" /><path d="M 79.407916724674 104.11899336999214 l -16.65358818032748 3.3311840470042178 a37.98348569743439,37.98348569743439 0 0,0 -0.12240396710443087,-0.6404692788835857 l 16.708318439714066 -3.0448122030873175" fill="#ff5007" stroke="none" /><path d="M 79.22317932658666 103.0534771498775 l -32.5650864806087 4.785946272307465 a53.91489236213506,53.91489236213506 0 0,0 -0.12671407511461216,-0.9168399249834445 l 32.64244507227853 -4.226218039123935" fill="#b8ff1f" stroke="none" /><path d="M 79.06263194458094 101.62068470465958 l -28.0626180512768 2.17222411756938 a49.14656443526983,49.14656443526983 0 0,0 -0.05789006316544841,-0.8417088133031941 l 28.095772075607314 -1.6901718801118426" fill="#fcff18" stroke="none" /><path d="M 79.03789590574601 101.26102812881392 l -62.886312282761985 3.783084386441755 a84.0,84.0 0 0,0 -0.07423364217370931,-1.440112826493077 l 62.94198751439227 -2.7029997665719474" fill="#4dd2ff" stroke="none" /><line stroke="#e1ed5e" stroke-width="0.3" x1="15.003131293944662" x2="10.003315487706104" y1="100.72959589197737" y2="100.7725132973878" /><path d="M 14.003168132696942 100.73817937305945 a86.0,86.0 0 0,1 10.791469493833604,-42.45332614584628" fill="none" id="id10" stroke="none" /><text fill="#e1ed5e" style="font-size:6.75px; font-family:Arial;" text-anchor="middle"><textPath startOffset="22.145653131862435" xlink:href="#id10">October</textPath></text><line stroke="#e1ed5e" stroke-width="0.3" x1="26.387840678322718" x2="22.05771365940052" y1="57.49999999999999" y2="54.99999999999999" /><path d="M 25.521815274538284 56.99999999999999 a86.0,86.0 0 0,1 29.574782752854787,-30.34633250058573" fill="none" id="id11" stroke="none" /><text fill="#e1ed5e" style="font-size:6.75px; font-family:Arial;" text-anchor="middle"><textPath startOffset="21.40746469413373" xlink:href="#id11">November</textPath></text><line stroke="#e1ed5e" stroke-width="0.3" x1="56.869717070023135" x2="54.33264160355391" y1="26.7553504044142" y2="22.446841604673864" /><path d="M 56.362301976729285 25.89364864446614 a86.0,86.0 0 0,1 42.16139366436587,-11.88097634709845" fill="none" id="id12" stroke="none" /><text fill="#e1ed5e" style="font-size:6.75px; font-family:Arial;" text-anchor="middle"><textPath startOffset="22.145653131862474" xlink:href="#id12">December</textPath></text></svg>