<?xml version="1.0" encoding="utf-8" ?>
<svg baseProfile="full" height="200mm" version="1.1" viewBox="0,0,200,200" width="200mm" xmlns="http://www.w3.org/2000/svg" xmlns:ev="http://www.w3.org/2001/xml-events" xmlns:xlink="http://www.w3.org/1999/xlink"><defs /><rect fill="#1a1a1a" height="200" width="200" x="0" y="0" /><text alignment-baseline="middle" fill="#e1ed5e" style="dominant-baseline: central; font-size:9.0px; font-family:Arial;" text-anchor="middle" x="100.0" y="100.0">2024</text><line stroke="#e1ed5e" stroke-width="0.3" x1="100.0" x2="100.0" y1="15.0" y2="10.0" /><path d="M 100.0 14.0 a86.0,86.0 0 0,1 42.35913384403234,11.155469271406648" fill="none" id="id1" stroke="none" /><text fill="#e1ed5e" style="font-size:6.75px; font-family:Arial;" text-anchor="middle"><textPath startOffset="22.145653131862478" xlink:href="#id1">January</textPath></text><line stroke="#e1ed5e" stroke-width="0.3" x1="143.13028292997686" x2="145.6673583964461" y1="26.7553504044142" y2="22.446841604673864" /><path d="M 143.63769802327073 25.89364864446614 a86.0,86.0 0 0,1 29.32050498858742,28.57503671076993" fill="none" id="id2" stroke="none" /><text fill="#e1ed5e" style="font-size:6.75px; font-family:Arial;" text-anchor="middle"><textPath startOffset="20.669276256404974" xlink:href="#id2">February</textPath></text><line stroke="#e1ed5e" stroke-width="0.3" x1="172.87174338648825" x2="177.1583165268699" y1="56.24261187166439" y2="53.66864786411523" /><path d="M 173.72905801456457 55.72781907015455 a86.0,86.0 0 0,1 12.242430191666344,42.057860355516425" fill="none" id="id3" stroke="none" /><text fill="#e1ed5e" style="font-size:6.75px; font-family:Arial;" text-anchor="middle"><textPath startOffset="22.145653131862474" xlink:href="#id3">March</textPath></text><line stroke="#e1ed5e" stroke-width="0.3" x1="184.99686870605535" x2="189.99668451229388" y1="99.2704041080226" y2="99.22748670261217" /><path d="M 185.99683186730306 99.26182062694052 a86.0,86.0 0 0,1 -10.086455211305974,41.156179273409016" fill="none" id="id4" stroke="none" /><text fill="#e1ed5e" style="font-size:6.75px; font-family:Arial;" text-anchor="middle"><textPath startOffset="21.40746469413373" xlink:href="#id4">April</textPath></text><line stroke="#e1ed5e" stroke-width="0.3" x1="174.33088141563837" x2="178.70328620479359" y1="141.23008692659167" y2="143.65538615756765" /><path d="M 175.20536237346943 141.71514677278685 a86.0,86.0 0 0,1 -30.301960400862466,31.631185727798858" fill="none" id="id5" stroke="none" /><text fill="#e1ed5e" style="font-size:6.75px; font-family:Arial;" text-anchor="middle"><textPath startOffset="22.145653131862474" xlink:href="#id5">May</textPath></text><line stroke="#e1ed5e" stroke-width="0.3" x1="143.1302829299769" x2="145.66735839644613" y1="173.24464959558577" y2="177.55315839532614" /><path d="M 143.63769802327073 174.10635135553383 a86.0,86.0 0 0,1 -40.68552437913181,11.842963189579606" fill="none" id="id6" stroke="none" /><text fill="#e1ed5e" style="font-size:6.75px; font-family:Arial;" text-anchor="middle"><textPath startOffset="21.407464694133747" xlink:href="#id6">June</textPath></text><line stroke="#e1ed5e" stroke-width="0.3" x1="101.45913802915013" x2="101.54496967792366" y1="184.9874750549273" y2="189.98673829345242" /><path d="M 101.47630435890484 185.9873277026323 a86.0,86.0 0 0,1 -42.54439059252881,-10.42667462771756" fill="none" id="id7" stroke="none" /><text fill="#e1ed5e" style="font-size:6.75px; font-family:Arial;" text-anchor="middle"><textPath startOffset="22.145653131862474" xlink:href="#id7">July</textPath></text><line stroke="#e1ed5e" stroke-width="0.3" x1="58.13341422392154" x2="55.67067388415222" y1="173.97424548756322" y2="178.32567169271397" /><path d="M 57.64086615596768 174.84453072859336 a86.0,86.0 0 0,1 -31.369924170532247,-30.572349798747897" fill="none" id="id8" stroke="none" /><text fill="#e1ed5e" style="font-size:6.75px; font-family:Arial;" text-anchor="middle"><textPath startOffset="22.145653131862474" xlink:href="#id8">August</textPath></text><line stroke="#e1ed5e" stroke-width="0.3" x1="26.387840678322732" x2="22.057713659400548" y1="142.50000000000003" y2="145.00000000000006" /><path d="M 25.521815274538298 143.00000000000003 a86.0,86.0 0 0,1 -11.493303480769221,-40.785679425670985" fill="none" id="id9" stroke="none" /><text fill="#e1ed5e" style="font-size:6.75px; font-family:Arial;" text-anchor="middle"><textPath startOffset="21.40746469413373" xlink:href="#id9">September</textPath></text><path d="M 81.81346652052679 110.50000000000001 l -11.888525215179838 6.863843233251742 a34.72768646650347,34.72768646650347 0 0,0 -0.29364182983093534,-0.518836977094563 l 12.004600410032152 -6.658749486058057" fill="#ff950d" stroke="none" /><path d="M 81.63589988554817 110.18625677009913 l -11.509741260222722 6.384259457492763 a34.16179747214867,34.16179747214867 0 0,0 -0.28005296668236523,-0.5152659156725317 l 11.617639576520418 -6.185738708345644" fill="#ff8d0d" stroke="none" /><path d="M 81.4637452351635 109.86951160357371 l -13.040848346469824 6.94351721579094 a35.774171953839236,35.774171953839236 0 0,0 -0.28396503827655595,-0.544540403089059 l 13.158121453721328 -6.718630569597377" fill="#ffa30f" stroke="none" /><path d="M 81.29705330413844 109.54985784667822 l -14.811365890133247 7.562788958662294 a37.63046410551031,37.63046410551031 0 0,0 -0.2888229271623223,-0.5778393291333542 l 14.939008730507307 -7.307417773365186" fill="#ffbd11" stroke="none" /><path d="M 81.1358732173502 109.22738970284198 l -15.283929068342642 7.476135594778994 a38.01443772793126,38.01443772793126 0 0,0 -0.2817064289265419,-0.5886580900070406 l 15.410014755229096 -7.212665002706849" fill="#ffc212" stroke="none" /><path d="M 80.9802524753101 108.90220220490708 l -30.14217129573502 14.10805813385549 a54.28044162461908,54.28044162461908 0 0,0 -0.3877575951533867,-0.8473203245144071 l 30.379913355743465 -13.588548827126393" fill="#77ff27" stroke="none" /><path d="M 80.83023694016515 108.57439118712176 l -17.10971023883216 7.652955763101303 a39.74326322625768,39.74326322625768 0 0,0 -0.2732181251406007,-0.6251765387864553 l 17.23856224598973 -7.3581171545389985" fill="#ffd814" stroke="none" /><path d="M 80.68587082218212 108.24405325689762 l -13.21238115889972 5.639579859986533 a35.36564919818154,35.36564919818154 0 0,0 -0.23353816833222588,-0.5604065874123254 l 13.30724517176843 -5.411940763132926" fill="#ff9e0e" stroke="none" /><path d="M 80.5471966667186 107.91128576633889 l -26.89029119211484 10.936047330356725 a50.02903531997802,50.02903531997802 0 0,0 -0.3167107736002114,-0.7983180402624404 l 27.074060640681175 -10.47282827288072" fill="#a7ff21" stroke="none" /><path d="M 80.28708602549918 107.23885506374661 l -13.021336421723774 4.781615098359913 a34.87151920867262,34.87151920867262 0 0,0 -0.2015238876892322,-0.5636981804397898 l 13.101500479456949 -4.557381961539201" fill="#ff970d" stroke="none" /><path d="M 80.16572619554312 106.89939002012753 l -14.907958219023591 5.185761736015623 a36.78414847379727,36.78414847379727 0 0,0 -0.20233835256048288,-0.5981773861759806 l 14.99478199315644 -4.929082675365481" fill="#ffb110" stroke="none" /><path d="M 79.94057633289273 106.21446072829308 l -7.034878060802968 2.1794232059058523 a28.36473997102463,28.36473997102463 0 0,0 -0.14009977199689588,-0.46634657599628365 l 7.071254152803493 -2.058339026318845" fill="#ff3b05" stroke="none" /><path d="M 79.83685265289637 105.86919833188381 l -14.461319123179965 4.209479235234544 a36.061522705700156,36.061522705700156 0 0,0 -0.1679119080119196,-0.5958601252795314 l 14.53144952326646 -3.960611186052017" fill="#ffa70f" stroke="none" /><path d="M 79.56144815229197 104.8234425847677 l -7.725337627004995 1.8231586449693986 a28.9375530798821,28.9375530798821 0 0,0 -0.10994773470824237,-0.48445000584302533 l 7.755496223270904 -1.690274305187347" fill="#ff4306" stroke="none" /><path d="M 79.407916724674 104.11899336999214 l -9.874262442834423 1.975129033415075 a31.069865614227908,31.069865614227908 0 0,0 -0.1001244287814249,-0.523893319940844 l 9.906713163898004 -1.8053331484409165" fill="#ff6209" stroke="none" /><path d="M 79.22317932658666 103.0534771498775 l -19.308524199185914 2.8376881317320857 a40.51593145826048,40.51593145826048 0 0,0 -0.0952230183018247,-0.688986325138513 l 19.35439173404295 -2.5058134983934868" fill="#ffe215" stroke="none" /><path d="M 79.06263194458094 101.62068470465958 l -16.638916038446254 1.2879573332353593 a37.688689613828245,37.688689613828245 0 0,0 -0.04439375666311552,-0.645475478791392 l 16.658573756274436 -1.0021384302896241" fill="#ffbd11" stroke="none" /><path d="M 79.03789590574601 101.26102812881392 l -37.28661624259183 2.243070242318228 a58.3540240795324,58.3540240795324 0 0,0 -0.05156942551090506,-1.000433078028815 l 37.31962725755931 -1.6026653709126824" fill="#4bff2c" stroke="none" /><path d="M 79.01933749520258 100.90099992219065 l -5.089568915961197 0.21856798831859683 a26.09425987910276,26.09425987910276 0 0,0 -0.015377363504261164,-0.4476951602512644 l 5.092570966462307 -0.1311665635032126" fill="#ff1902" stroke="none" /><path d="M 79.00696218219943 100.54070618675478 l -26.844386965867457 0.6914161846446069 a47.85328970375181,47.85328970375181 0 0,0 -0.01410206459811994,-0.8213745645116063 l 26.852300462064242 -0.23049470416394816" fill="#c0ff1e" stroke="none" /><line stroke="#e1ed5e" stroke-width="0.3" x1="15.003131293944662" x2="10.003315487706104" y1="100.72959589197737" y2="100.7725132973878" /><path d="M 14.003168132696942 100.73817937305945 a86.0,86.0 0 0,1 10.791469493833604,-42.45332614584628" fill="none" id="id10" stroke="none" /><text fill="#e1ed5e" style="font-size:6.75px; font-family:Arial;" text-anchor="middle"><textPath startOffset="22.145653131862435" xlink:href="#id10">October</textPath></text><path d="M 79.00077361379809 100.18025310272382 l -18.270176702379874 0.15682749342044183 a39.270849777688966,39.270849777688966 0 0,0 0.0,-0.674161192288512 l 18.270176702379874 0.15682749342043512" fill="#ffd213" stroke="none" /><path d="M 79.01933749520258 99.09900007780938 l -11.844740608880663 -0.5086641265274301 a32.85565769096268,32.85565769096268 0 0,0 0.02903565638587036,-0.5632839769479016 l 11.834263363038222 0.7119198968520437" fill="#ff7b0b" stroke="none" /><path d="M 79.03789590574601 98.7389718711861 l -32.16636287003623 -1.9350485141360332 a53.22451416296149,53.22451416296149 0 0,0 0.0626935071097919,-0.9115498340428745 l 32.12840540176138 2.4869417723332323" fill="#82ff25" stroke="none" /><path d="M 79.13060592940154 97.66154086499901 l -10.368805757622164 -1.1618463124007277 a31.433696358095617,31.433696358095617 0 0,0 0.06469041798780735,-0.5357294611538654 l 10.34733325337469 1.3396694504780293" fill="#ff6709" stroke="none" /><path d="M 79.17382384314186 97.30363454192245 l -6.279377707803447 -0.8129911617965372 a27.331787980216816,27.331787980216816 0 0,0 0.06423683853210284,-0.46478576407296673 l 6.264496352716136 0.9206652340695709" fill="#ff2b04" stroke="none" /><path d="M 79.22317932658666 96.9465228501225 l -4.3108503582365145 -0.6335465503757401 a25.357156417045513,25.357156417045513 0 0,0 0.0669893905540114,-0.43011994230306577 l 4.299339475544236 0.707454674610256" fill="#ff0e01" stroke="none" /><path d="M 79.34024301695615 96.23510406497455 l -15.08223154284956 -2.748485002674069 a36.330618973872205,36.330618973872205 0 0,0 0.11707750903076511,-0.6125989994952449 l 15.032827741536634 3.0069865672026284" fill="#ffab0f" stroke="none" /><path d="M 79.48165901384962 95.52812308129327 l -10.110743866967647 -2.203589567020408 a31.348089124244392,31.348089124244392 0 0,0 0.11910652490652829,-0.5248053253668721 l 10.071426480503458 2.3768292263262882" fill="#ff6609" stroke="none" /><path d="M 79.64726062577567 94.8264132398404 l -13.42475514710976 -3.4125202612986563 a34.85169106259679,34.85169106259679 0 0,0 0.1523691357757293,-0.5785704266665727 l 13.364196530529306 3.6424711923380135" fill="#ff970d" stroke="none" /><path d="M 79.73907114497095 94.47779374421319 l -30.03429403190391 -8.185980394968544 a52.1298746065844,52.1298746065844 0 0,0 0.2427303689045132,-0.8613644484006817 l 29.889345170924816 8.70035276727224" fill="#8fff24" stroke="none" /><path d="M 79.83685265289637 94.1308016681162 l -32.82572878642873 -9.555091242432077 a55.18813008942399,55.18813008942399 0 0,0 0.27258647357111765,-0.907351716572449 l 32.65686599285399 10.11718056259525" fill="#6dff28" stroke="none" /><path d="M 80.05021161711548 93.44210830539832 l -47.895039738384966 -15.7440508783762 a71.4163660888245,71.4163660888245 0 0,0 0.3928395915040101,-1.1613604492606588 l 47.617714725308595 16.563913002111022" fill="#3dffab" stroke="none" /><path d="M 80.16572619554312 93.10060997987247 l -59.50282141337067 -20.698170060382566 a84.0,84.0 0 0,0 0.48543931982422706,-1.3578601744763141 l 59.138741923502494 21.716565191239802" fill="#4dd2ff" stroke="none" /><path d="M 80.83023694016515 91.42560881287825 l -27.174482275283207 -12.154800276273818 a50.76897137433182,50.76897137433182 0 0,0 0.3626730671180572,-0.7925061037206632 l 26.961824743310103 12.619495362209152" fill="#9eff22" stroke="none" /><line stroke="#e1ed5e" stroke-width="0.3" x1="26.387840678322718" x2="22.05771365940052" y1="57.49999999999999" y2="54.99999999999999" /><path d="M 25.521815274538284 56.99999999999999 a86.0,86.0 0 0,1 29.574782752854787,-30.34633250058573" fill="none" id="id11" stroke="none" /><text fill="#e1ed5e" style="font-size:6.75px; font-family:Arial;" text-anchor="middle"><textPath startOffset="21.40746469413373" xlink:href="#id11">November</textPath></text><path d="M 81.99639281039701 89.18935116829357 l -11.283531679894356 -6.775436571578649 a34.16148273967128,34.16148273967128 0 0,0 0.3062040682528706,-0.5001613333619513 l 11.165559647186093 6.968135021065144" fill="#ff8d0d" stroke="none" /><path d="M 82.37810715431573 88.57770195909679 l -2.882958220065286 -1.8686986873332583 a24.43561972323525,24.43561972323525 0 0,0 0.23117906946826017,-0.35003457609543176 l 2.850454711676297 1.917913141767751" fill="#ff0000" stroke="none" /><path d="M 83.8745106332314 86.54754324733833 l -3.32716609050762 -2.7756402874640558 a25.332922016286158,25.332922016286158 0 0,0 0.2814432585071367,-0.3315394508423995 l 3.279028268493369 2.832346520756012" fill="#ff0e01" stroke="none" /><path d="M 85.60350026404147 84.71141617570332 l -8.942127217720914 -9.496229225370705 a34.04377279312584,34.04377279312584 0 0,0 0.4289032739625295,-0.3969864672256337 l 8.77779417244443 9.648333438728704" fill="#ff8c0c" stroke="none" /><path d="M 85.86807049272753 84.46653392183569 l -4.966049125598509 -5.4585579127949035 a28.379532397462157,28.379532397462157 0 0,0 0.363170137028413,-0.324748975949 l 4.8716139617467045 5.543002418627304" fill="#ff3b05" stroke="none" /><path d="M 86.13680546590413 84.22622945171909 l -20.833021722624654 -23.704154455296674 a52.55791077584053,52.55791077584053 0 0,0 0.6828036457353619,-0.5897895266534777 l 20.423038597126443 24.058288114414864" fill="#8aff24" stroke="none" /><path d="M 86.40962598614128 83.9905735841838 l -16.093563800125185 -18.958177689856903 a45.867957236349106,45.867957236349106 0 0,0 0.6046394191707345,-0.5044117082183647 l 15.76575004679254 19.23165158198715" fill="#d8ff1c" stroke="none" /><path d="M 86.68645165197937 83.75963576809568 l -6.901269371728874 -8.418426502805735 a31.88565219563371,31.88565219563371 0 0,0 0.42627963288784465,-0.3433806975025152 l 6.755738968485783 8.535655494101649" fill="#ff6d0a" stroke="none" /><path d="M 87.54013794807813 83.09580414077388 l -2.549737070344326 -3.4592080271050607 a25.29735724634061,25.29735724634061 0 0,0 0.3517766049183413,-0.25465913372266885 l 2.489979455052017 3.5024679322008088" fill="#ff0d01" stroke="none" /><line stroke="#e1ed5e" stroke-width="0.3" x1="56.869717070023135" x2="54.33264160355391" y1="26.7553504044142" y2="22.446841604673864" /><path d="M 56.362301976729285 25.89364864446614 a86.0,86.0 0 0,1 42.16139366436587,-11.88097634709845" fill="none" id="id12" stroke="none" /><text fill="#e1ed5e" style="font-size:6.75px; font-family:Arial;" text-anchor="middle"><textPath startOffset="22.145653131862474" xlink:href="#id12">December</textPath></text><path d="M 89.34428304082924 81.90426304109057 l -8.936014024834884 -15.17530541343524 a38.6108557725933,38.6108557725933 0 0,0 0.5740285711694949,-0.3314155500872424 l 8.674192985804991 15.326467860798656" fill="#ffca12" stroke="none" /></svg>